<?xml version="1.0" encoding="UTF-8"?>
<svg id="Warstwa_2" data-name="Warstwa 2" xmlns="http://www.w3.org/2000/svg" xmlns:xlink="http://www.w3.org/1999/xlink" viewBox="0 0 148.1 239.1">
  <defs>
    <style>
      .cls-1 {
        fill: #343431;
      }

      .cls-1, .cls-2, .cls-3, .cls-4, .cls-5, .cls-6, .cls-7, .cls-8, .cls-9, .cls-10 {
        stroke-width: 0px;
      }

      .cls-2 {
        fill: #171718;
      }

      .cls-3 {
        fill: #52524c;
      }

      .cls-4 {
        fill: #20201f;
      }

      .cls-5 {
        fill: #636259;
      }

      .cls-6 {
        fill: #3e3e3a;
      }

      .cls-7 {
        fill: none;
      }

      .cls-8 {
        fill: #2c2b27;
      }

      .cls-9 {
        fill: #464842;
      }

      .cls-11 {
        clip-path: url(#clippath);
      }

      .cls-10 {
        fill: #74726a;
      }
    </style>
    <clipPath id="clippath">
      <rect class="cls-7" width="148.1" height="239.1"/>
    </clipPath>
  </defs>
  <g id="Warstwa_1-2" data-name="Warstwa 1">
    <g class="cls-11">
      <g>
        <path class="cls-2" d="M100.44,75.6c.99.25,1.99.51,2.98.76.43,1.65,1.21,1.74,2.28.51,4.52,1.36,8.11,4.3,11.93,6.87-.56,2.27,2.15,2.33,2.79,3.79-1.32,1.28-2.62.04-3.95.31-2.22.46-2.02,1.25-1.13,2.68-.75,0-1.5-.01-2.24-.02-1.18-3.23-2.45-.33-3.68-.05-2.39.45-1.19,2.38-1.52,3.67-1.37-.2-2.14.74-2.96,1.57-.49.03-1.18-.14-1.45.12-1.64,1.62-2.87.77-4.61-.09-1.78-.88-3.21-2.99-6.27-2.47,1.58,1.54,1.81,3.69,3.73,4.05,3.83.71,3.44,2.99,3.05,5.97-.42,3.2-.68,6.95,2.21,9.18,1.38,1.06,2.62,2.35,2.79,3.58.59,4.19,3.07,4.85,6.55,4.36,0,.24,0,.48,0,.72-.3.74-.81,1.26-1.55,1.54-1.72,0-3.46.11-5.16-.06-2.52-.24-3.06.91-3.12,3.22-.07,2.66.62,3.96,3.49,3.59,1.33-.17,2.7-.04,4.06-.04.9.13,2.62-.38,1.18,1.56-.43.58-.23,1.1.37,1.46.06,1.05-.37,2.2.64,3.05.68,2.81-.84,5.46-.6,8.24,0,1.46,0,2.92,0,4.38-1.83,0-3.67.15-5.49,0-2.34-.19-3.08.89-2.83,3.02-.24.53-.74,1.09-.69,1.59.19,2.16-1.99,4.69-.98,5.87,1.24,1.45,4.01-.42,6.14,0,1.75.56,4.2-1.3,5.29,1.54,0,.74.14,1.51-.04,2.2-1.27,4.61.55,6.76,5.22,6.79,1.06,0,1.76.67,1.32,1.65-.7,1.54.51,2.86.22,4.31-.01.27-.02.53-.04.8,0,.21,0,.42-.03.63-6.22.08-6.44.23-6.73,4.56-1.47.01-2.87-.22-4.33-.61-4.67-1.26-9.38-2.69-14.33-1.6-2.74,0-5.49,0-8.23,0-1.99-.25-3.99-.49-5.98-.74-.1-.55-.08-1.3-.9-1.13-.26.05-.39.73-.58,1.13-1,0-2,0-3,0,1.93-2.48,3.8-5.01,5.82-7.42,1.25-1.5,3.19-2.76,1.4-4.97-1.65-2.02-3.67-1.22-5.32-.08-1.56,1.08-3.53,1.97-4.79.98-2.36-1.85-4.09-.46-6.07.23-.08-.65-.18-.86-1.09-.85-2.5.03-4.89,2.32-7.34.67-1.69-1.14-3.38-1.46-5.26-1.28-1.14.11-2.84-.68-3.27.89-.52,1.93,1.59,1.75,2.58,2.49,1.44,1.08,5.61.95,1.95,4.3.99.71,1.61.29,2.23-.15.71-.51,1.5-1.18,2.28-.33.73.81.56,1.91.14,2.81-.3.65-.8,1.37-1.41,1.68-2.18,1.12-2.13,2.74-1.32,4.64-.49.02-.98.03-1.46.05.16-1.71-.69-2.35-2.31-2.19-.99-2.85-3.08.21-4.4-.83-.21-.37-.36-1-.64-1.06-.77-.17-.8.55-.93,1.08-1.23,0-2.47,0-3.7.01-.3-.21-.71-.66-.88-.58-3.07,1.46-7.42-1.62-9.71,2.71-.13.24-.93.13-1.42.18-1.24,0-2.48,0-3.72,0-1.46-1.52-3.73-.17-5.24-1.51-2.93-4.06-3.62-4.11-6.7-.4-.31.37-.48.84-.72,1.27-.51.47-1.02.94-1.53,1.41-.99-.26-1.97-.53-2.96-.79.08-1.72.17-3.45.25-5.17,1.09-.11,1.99-.59,2.8-1.31.46-.06.92-.13,1.38-.19.97.97,1.32.28,1.6-.6,0,0,.07-.09.07-.1.94-.04,1.88-.09,2.82-.13,1.95,1.67,5.47,1.13,8.3-1.27l.15-.16c1.31-.18,2.36.53,3.47,1.03.69.31,1.49.61,1.96-.17.26-.45.36-1.35.09-1.71-2.35-3.1-.57-5.62,1.01-8.18,0-.49,0-.99,0-1.48,0-.5,0-1,.01-1.5.31-.62.9-.69,1.49-.75.04.09.06.19.11.26.04.04.13.04.2.06-.1-.11-.2-.21-.3-.32-.49-2.16-1.4-4.32-1.37-6.47.05-3.05-1.4-3.56-3.86-3.27.03-.47.05-.95.08-1.42,1.52.07,2.62-.48,2-2.14-.96-2.55-.48-5.17-.74-7.75.51-2.05,1.09-4.1-.67-5.89,1.97.03,3.72.39,3.94-2.78.27-3.91-1.05-4.98-4.6-3.99.53-2.1,2.95-1.97,4.07-3.54,2.78-3.9,2.77-8.61,4.18-12.89.98,0,1.97,0,2.95-.01h0c-.12,1.31.19,2.64,1.09,3.44,1.06.94.57,3.36,2.63,3.08,2.06-.28,1.14-2.44,1.82-3.63.09-.16.41-.18.52-.22,3.21,1.82,1.54,4.11.68,6.32,0,.25,0,.5,0,.74-1.1-.04-2.29.21-3.2-.64-1.07-1-2.12-.69-2.97.14-1.08,1.05.09,1.65.61,2.45.67,1.02,1.77,2.94,1.49,3.2-2.75,2.57-.07,6.87-3.2,9.3,2.05-.43,5.37,1.77,5.06-2.79-.07-1.04-.32-2.45,1.36-2.55,1.69-.11,1.57,1.23,1.61,2.34.04,1.11.29,2.02,1.65,1.95,1.36-.06,1.99-.89,2.05-2.18.05-.99.02-1.99.03-2.99.25,0,.49,0,.74,0,2.31.49,1.92,2.94,1.31,3.51-3.29,3.08.05,6.28-.49,9.35-.16.89.41,1.72,1.41,1.93,1.36.29,1.91-.83,2-1.73.47-5.12,2.61-2.7,4.44-.98,1.38,1.3,2.69,2.02,4.05.23,1.74-2.3,3.04-2.69,3.8.6.37,1.61,1.58,1.35,2.66,1.23.96-.11,1.87-.78,1.47-1.73-1.46-3.52,1.64-7.74-1.76-10.97-.39-.37-.13-1.44-.17-2.19,0-.5,0-.99,0-1.49,2.01-.24,1.35-1.82,1.5-2.99.89-1.69-1.53-2.82-.75-4.49.75-.25,1.5-.5,2.25-.75.98.7.64,1.76.76,2.71.26,2.17.43,2.39,1.63,2.39,1.72,0,3.17-.47,3.52-2.41.27-1.49.07-2.77-1.94-2.7-1.01.03-1.64-.42-1.74-1.47-.04-1.24.39-1.83,1.71-2.39,2.24-.94,3.48-4.56,2.15-4.88-3.83-.9-2.42-2.55-.87-4.38,1.25-1.48.1-2.36-.97-2.94-1.19-.65-2.45-.73-2.74,1.17-.1.65.25,1.58-1.15,1.79-.27-3.06-1.15-5.62-5.08-4.95-.36.06-.85-.41-1.21-.71-3.01-2.52-3.55-2.42-5.24,1.41-.4.91-.51,1.56-1.73,1.21-3.03-.88-5.82.32-8.74.93-2.55.53-5,3.05-8.06,1.11,4.31-3.69,4.52-3.77,11.49-5.46.54-.13,1.2-.55,1.44-1.03,1.5-2.94,4.04-4.54,6.83-6.08,1.21-.67,4.01-1.52,2.79-3.63-1.5-2.58-3.31-4.53.49-6.6.98-.53-.25-1.2-.53-1.78-.39-.8-.12-1.47.51-1.97.41-.33,1.08-.46,1.34,0,.97,1.65,2.68,4.16,1.78,5.2-3.26,3.78.46,3.21,2.08,4.03h0c.72,1.51-2.51,5,2.25,4.49,1.1.64,2.27.83,3.55.68,7.89-.9,13.39-6.2,19.2-10.75,1.21-.95,3.36-1.81,3.45-4.01ZM104.92,90.43c-.75.11-1.49.29-1.33,1.28.04.23.53.62.67.57.88-.34.56-1.18.66-1.85.75-.11,1.49-.29,1.33-1.28-.04-.23-.53-.62-.67-.57-.88.34-.56,1.18-.66,1.85ZM88.84,169.26q-3.27-1.19-6.78,2.28c.33.18.64.37.96.51,2.79,1.21,2.73,1.18,3.69-1.74.15-.46,1.2-.62,2.12-1.05ZM87.42,108.73c-.08-1.08-.9-1.15-1.6-1.03-1.49.26-3.42-.03-3.91,1.97-.23.94.7,1.69,1.63,1.6,1.66-.16,3.03-.99,3.87-2.54ZM102.21,78.88c-3.27,2.6-3.51,2.9-4.18,5.24,3.63-1.27,4.08-1.84,4.18-5.24ZM86.56,101.42c-1.41.31-3.32-.22-3.31,2.03,0,.59-.09,1.58.62,1.53,1.97-.16,1.98-2.15,2.69-3.56Z"/>
        <path class="cls-4" d="M70.49,126.36c.04.75-.22,1.81.17,2.19,3.4,3.23.3,7.45,1.76,10.97.39.95-.51,1.62-1.47,1.73-1.09.12-2.29.38-2.66-1.23-.76-3.29-2.05-2.9-3.8-.6-1.36,1.79-2.67,1.07-4.05-.23-1.82-1.72-3.96-4.14-4.44.98-.08.89-.64,2.02-2,1.73-1-.21-1.56-1.04-1.41-1.93.53-3.07-2.8-6.26.49-9.35.61-.57,1-3.02-1.31-3.51.67-2.25-1.69-4.12-1.23-5.95,1.24-4.86-1.5-3.59-4-3.02.86-2.21,2.53-4.49-.68-6.32-.11.04-.43.07-.52.22-.68,1.19.23,3.35-1.82,3.63-2.06.28-1.57-2.14-2.63-3.08-.89-.79-1.21-2.13-1.09-3.43,1.36-.5,3.62,1.25,4.02-1.41.13-.85-.24-2.44-1.82-2.23-2.12.28-2.09,2.05-2.21,3.64-.98,0-1.97,0-2.95.01-.01-1.5.08-3-.07-4.49-.25-2.42-.94-4.63-3.81-5.16-.23-.02-.47-.05-.7-.07-.35-4.16-3.02-5.72-6.79-6.05.97-4.78,5.13-6.83,8.3-9.72,2.18,1.88,4.48,3.67,3.62,7.12-.31,1.21.73,2.05,1.48,2.3,3.29,1.11,2.3,2.51.5,4.13-.55.5-1.07,1.05-1.58,1.59-.42.45-.96.96-.55,1.6.37.58,1.08.46,1.7.39,3.67-.42,5.39-2.71,4.32-6.22-.72-2.36-1.65-4.76-3.03-6.77-1.51-2.21-2.16-4.41-1.92-6.99,1.69-.53,3.38-1.05,5.06-1.58-1.9,4.57,2.21,6.9,3.99,9.95,1.68,2.88,3.53,2.83,10.16,1.49-5.34.12-12.49-7.3-12.47-12.22,1.29-.93,1.18-2.47,1.66-3.75,3.67-2.79,7.43-5.07,12.43-4.59,2.42.23,4.54,1.22,6.86,1.59.34.64.67,1.31,1.56,1.24.08,0,.23-.21.21-.27-.3-.83-1.03-.92-1.77-.98,1.11-2.97-.7-3.99-3.09-4.45-1.93-.37-3.91-.53-5.86-.81-1.37-.2-3.51-.72-3.29-1.84.64-3.37-1.77-1.39-2.71-1.87.29-1.55-.78-2.55-1.5-3.7.17-2.79-2.13-4.47-3.03-6.78,1.33.24,2.65.57,3.99.71,6.54.67,6.57.66,5.42,7.38-.17,1.01-.43,2.62.79,2.13,2.7-1.09,5.23.65,8.05.01-2.26-1.35-2.32-1.41-1.8-3.72.12-.52-.2-.61-.44-.8-1.45-1.11-.99-2.71-1-4.14,0-3.96.88-7.74,1.7-11.6.78-3.66-.18-7.71,2.76-10.94,2.23-.04,4.46-.09,6.69-.13,1.02.02,2.05.04,3.07.06.74.04,1.48.08,2.22.12,3.46.66,6.23,3.14,9.73,3.7.04.09.06.18.11.25.03.04.12.04.19.06-.1-.1-.21-.2-.31-.3.09-1.04.71-1.48,1.27-.52,1.17,2,3.16,2.11,5,2.63,1.04-.04,2.5-.61,2.91.55.49,1.39-.98,2.27-1.81,3.25-1.18-.46-.96-2.26-2.52-2.59-1.2,2.07-2.29,4.39-1.57,6.6.91,2.79,1.44,5.25-.84,7.6,1.4.62,2.56-.34,3.56.42,0,0-.01-.01-.01-.01-.02.62.04,1.26-.08,1.86-.32,1.48-.79,3.15-2.32,3.56-1.6.42-1.09-1.58-1.79-2.31-.57-.59-1.26-1.01-1.95-.53-.83.59-.62,1.5-.31,2.37.63,1.74,2.78,1.46,3.76,2.77-1.17,1.46-2.26,1.32-3.42.08-.83-.88-2.09-1.58-2.86-.43-1.33,1.98-3,1.68-4.95,1.02.17,1.44.3,2.51.43,3.58-.49.27-.98.53-1.47.8-.89-.54-.75-1.43-.76-2.27.19-.27.37-.53.56-.8-.09-.06-.19-.13-.28-.19-.1.32-.19.65-.29.97-.5,0-1.01.01-1.51.02-5.11,2.15-5.29,2.51-2.97,5.97,1.64,5.57,3.54,6.5,8.3,4.06.22-.11.44-.22.67-.33,1.83-.33,3.97.91,5.48-1.14.55-.75,1.07-1.8,2.31-1.36.22.08.38.63.39.97.05,1.32-.64,2.14-1.93,2.26-2.09.2-1.67,1.74-1.74,3.03-.5.5-1,.99-1.51,1.49-1.28-.1-1.25-2.58-2.84-1.76-1.3.67-2.47,1.79-2.37,3.52.13,2.31-.8,3.61-3.07,4.42-2.15.77-3.28,2.59-2.93,5.04-4.76.51-1.53-2.98-2.25-4.49.54-.09,1.18-.07,1.13-.9,0-.09-.15-.23-.23-.23-.82-.05-.8.59-.9,1.13-1.62-.81-5.34-.25-2.08-4.03.9-1.04-.81-3.55-1.78-5.2-.27-.45-.93-.32-1.34,0-.64.51-.9,1.17-.51,1.97.28.58,1.52,1.25.53,1.78-3.8,2.07-1.99,4.02-.49,6.6,1.23,2.11-1.58,2.96-2.79,3.63-2.8,1.55-5.33,3.14-6.83,6.08-.24.47-.9.89-1.44,1.03-6.97,1.69-7.18,1.77-11.49,5.46,3.06,1.93,5.51-.58,8.06-1.11,2.92-.61,5.71-1.81,8.74-.93,1.22.36,1.33-.29,1.73-1.21,1.69-3.83,2.23-3.93,5.24-1.41.36.3.86.77,1.21.71,3.92-.68,4.81,1.89,5.08,4.95,1.4-.21,1.05-1.14,1.15-1.79.29-1.9,1.55-1.82,2.74-1.17,1.07.58,2.22,1.47.97,2.94-1.55,1.83-2.96,3.47.87,4.38,1.33.31.09,3.94-2.15,4.88-1.32.56-1.76,1.14-1.71,2.39-.91.22-1.79-1.12-2.62-.16-.21.25.24,1.08.39,1.64-.75.25-1.5.5-2.25.75-.31-2.05-.72-4.06-.07-6.18.43-1.41-.03-2.98-1.83-2.98-3.26,0-6.7-.52-9.48,2.03-1.21-.83-.63-3.62-2.95-3.14-2.31.48-2.6,2.43-2.63,4.51-.04,2.83.82,5.77-.9,8.47-.3.47.02,1.49.66,1.52,2.42.11,2.92,1.92,3.62,3.65.39.95,1.25,1.3,2.16.92,1.34-.55.38-1.44.13-2.16-.33-.92-1.11-1.86-.08-2.71.99-.82,2.16-1.13,3.5-.74,1.72.51,2.57,1.86,3.44,3.23.87,1.37,1.62,2.89,3.68,2.54ZM71.92,60.47c-.05-1.11-.46-2.12-1.43-1.89-1.63.38-2.75,1.59-2.94,3.33-.11,1.05.37,2.27,1.54,1.99,1.67-.4,2-2.27,2.83-3.43ZM82.2,47.34c.83-1.87,2.85-3.06,2.5-5.2-.12-.72-.06-1.58-1.04-1.63-.99-.06-1.11.74-1.16,1.5-.11,1.78-.2,3.56-.3,5.34Z"/>
        <path class="cls-4" d="M66.78,283.56c-2.33-1.22-2.4-3.36-1.56-5.27,2.25-5.11,1.39-10.45,1.51-15.71.04-2,.15-3.94.79-5.86.82-2.46,1.94-2.61,3.54-.67.79.95,1.62,1.87,2.43,2.8-2.1.38-1.82,2.08-1.24,3.16,1.17,2.15,2.43,4.49,4.28,5.97,2,1.59,2.64,3.4,2.94,5.64.61,4.52,2.57,8.36,5.95,11.46,2.29,2.52,4.19,5.53,8.34,6.76-1.02-2.92-3.77-4.09-3.82-6.76,3.61-.94,6.42,1.43,9.45,2.53,2.6.94,5.77.41,7.87-2.73,1.88-2.81-.76-3.14-2.37-4.11-.82-.5-1.32-1.49-2.09-2.1-1.47-1.18-2.17-3.43-4.57-3.32-1.18-2.99-3.12-5.3-6.03-6.76.25-1.86-.39-3.17-2.29-3.7-1.88-.2-4.55-.53-4.14-2.64.47-2.42,3.17-1.55,5.03-1.09,2.64.65,5.32,1.17,7.8,2.39.96.47,2.35,1.26,2.86-.13.46-1.25-1.07-1.23-1.96-1.58-2.96-1.17-5.87-2.47-8.8-3.72.08-.61-.06-1.41.27-1.81,2.44-2.89,3.42-5.84,1.67-9.58-.58-1.24-.34-3.56,1.4-4.12,2.35-.76,2.3-2.23,1.47-3.7-.98-1.72-2.01-4.07-4.85-2.47-.24,0-.47,0-.71,0,.39-1.45,1.7-1.97,2.69-2.87.79-.72,1.82-2.82.02-2.85-2.89-.05-5.8-2.11-8.63-.29-1.22.78-2.16.87-2.73-.4-.56-1.24-.82-2.61.98-3.4,2.16-.95,4.4-.64,6.63-.68,1.9-.03,3.78-.01,5.29-1.74-1.69-.52-3.29-.66-4.44-1.45-2.69-1.84-5.33-1.69-8.12-.54-2.36.98-3.81.2-4.42-2.25.97-.28,1.95-.55,2.92-.83,3.85,1.17,7.52-.65,11.29-.68,5.52.54,10.93-1.08,16.43-.78,1.93-.37,3.34.81,4.88,1.62.1,4.97,1.81,9.83,1.01,14.87-.74.12-1.35.37-1.25,1.29.08.72.65.86,1.23.97.04,1.81.13,3.57-.3,5.42-.51,2.15-.92,4.53.45,6.66.02,2.58-.03,5.17.09,7.74.06,1.19.86,2.25,2.06,2.29,1.52.05,1.69-1.33,1.55-2.44-.35-2.71.86-4.78,2.43-6.76,1.68-2.13,3.19-4.42,5.06-6.37,1.51-1.58,4.06-2.7,2.86-5.34-1.15-2.51-3.79-.7-5.69-1.21.41-3.53-2.46-1.8-3.88-2.41-.25-.19-.5-.39-.75-.58-.82-1.36-.54-2.89-.73-4.35-.61-4.62-1.14-9.26-3.08-13.58.29-.22.58-.44.86-.66,1.64.28,2.55,1.32,2.96,2.87,0,.25,0,.5,0,.75-.51.27-1.21.6-.88,1.2.17.31,1.04.24,1.6.35,1.1,1.55,2.87,1.74,4.5,2.23-.3.61-.85.72-1.45.74-.9.1-2.21-.27-2.07,1.27.11,1.19,1.25.86,2.04.96,0,.49.02.98.03,1.47-1.73,2.24-2.32,4.35.72,6.01.75,0,1.49,0,2.24-.01,1.5,1.61,3,2.48,4.5,0,3.7.07,7.39.15,11.09.22-2.03,4.32-1.44,8.85-.92,13.31,1.31,11.39-1.22,21.52-9.31,29.95-.78-.27-1.56-.55-2.35-.82.61-2.67,2.2-5.27.46-8.09-.35-.56-.19-1.14.29-1.66,1.05-1.13.64-2.05-.23-3.2-1.41-1.87-2.28.28-3.41.23-.69-1.91-1.39-3.82-2.14-5.89-2.65,1.19-1.16,3.51-1.8,5.11-1.48-.04-2.96-.11-4.44-.11-.85,0-2.15,0-1.82,1.15.68,2.38-.44,4.99,1.05,7.22.64,4.41.68,8.85.04,13.23-.48,3.27,1.61,5.88,1.78,8.94.07,1.34.24,2.68.36,4.02-1.59.14-2.81-.8-4.16-1.38-2.24-.97-4.22-2.7-6.91-2.36-.76.02-1.53.03-2.29.05-.5-.69-1.25-.8-1.98-.68-4.08.7-8.28.75-12.26,2.08-2.22.78-4.44,1.55-6.66,2.33-2.46.27-2.3,1.77-1.99,3.69.33,2.04,1.88,4.45-1.01,6.01-2.51-2-3.14-4.46-2.21-7.56,1.17-3.88.97-7.81,0-11.76-2.33-9.45-4.06-19.1-9.72-28.09-.77,8.67.87,16.97-1.54,24.97ZM80.82,285.28c.99,3.44,2.42,5.24,3.99,6.94.59.64,1.29,1.29,2.2.47.9-.82.5-1.77-.28-2.16-2.12-1.05-3.15-3.3-5.92-5.25ZM111.39,230.97c-.21-.09-.46-.29-.61-.23-.15.06-.19.38-.28.59.21.09.46.29.61.23.15-.06.19-.38.28-.59ZM127.78,253.4c-.12.2-.3.38-.31.57,0,.19.16.38.26.57.11-.18.3-.36.31-.54,0-.19-.16-.38-.26-.6Z"/>
        <path class="cls-8" d="M42.8,283.55c-.29,3.95,2.7,3.27,4.97,3.42.78.05,1.69-.78,2.26.3.48.9-.1,1.79-.61,2.39-1.35,1.57-2.14,3.61-4.1,4.68-.99.54-1.75,1.39-1.75,2.66-5.62-.76-11.11-2.86-16.92-1.46-.19-2-1.42-3.8-1.13-5.89-.16-2.28.56-4.66-.77-6.8,1.63-2.79-.98-3.45-2.68-4.72.95-.54,1.66-.93,2.36-1.33,1.37,1.15,2.95,2.11,3.59,3.95.2.57.64,1.14,1.38.92.77-.23.79-1.01.63-1.54-.77-2.63-.22-5.48-1-8.02-1.32-4.3-1.59-8.48-.27-12.79.82-2.67-1.96-7.33-4.66-7.96-.5-.75-1-1.5-1.5-2.24,1.67.28,1.9-1.95,3.35-1.94.9,0,2.05,1.01,2.45-.54.31-1.22-.69-1.72-1.7-2.05-.66-.21-1.17-.64-.9-1.35.41-1.08,1.2-.45,1.86-.24.59.19,1.22.33,1.72.66.87.56,1.75,1.34,2.49.03.67-1.18-.81-1.28-1.21-1.93-2.05-3.28-6.13-6.3-4.8-10.29,1.55-4.65,1.64-9.04,1.21-13.67,1.1-.24,2.08.11,3.02.64-.16,1.88.88,2.32,2.52,2.27.93-.03,2.55-.29,2.47.93-.21,3.08,2.4,3.37,4.01,4.66.54.43,1.07,1.32,1.84.59.67-.63.27-1.47-.31-1.95-1.67-1.39-1.63-3.23-1.53-5.11,7.48.47,14.88,2.08,22.43,1.66,0,.49-.01.98-.02,1.46-1.33.09-3.41.07-2.45,1.96.87,1.72.07,2.6-.27,3.97-.42,1.69-.87,3.64.5,5.28,0,.5,0,1,0,1.5-1.97.32-3.08-1.42-4.69-1.96-.77-.26-1.56-1.25-2.35-.54-.98.89.19,1.78.35,2.69.3,1.64,2.44,2.03,2.7,3.98-1.69.11-2.65-.8-3.66-1.69-1.95-1.71-3.89-3.44-5.93-5.04-.95-.75-2.07-1.45-3.39-.53-.54.38-1,.75-.88,1.47.23,1.34,1.46,1.54,2.38,2.12.75.47,2.14-.24,2.37,1.38-.5.29-1.01.64-1.56.89-1.12.5-3.29-.06-2.94,1.95.27,1.56,2.12,1.87,3.64,2.01,2.65.26,5.3.51,7.94.76-.2,2.76-2.96,3.14-4.47,4.67-1.1,1.13-3.31,2-1.81,3.69,1.43,1.62,2.39-.77,3.53-1.47.4-.25.8-.5,1.67-1.05-.29,3.74-1.73,6.3-4.15,8.38.07-1.86-.93-2.81-2.69-3.4-.44,2.02-.22,4.32-2.07,5.19-1.71.81-2.11,1.84-1.99,3.47.06.89-.06,1.73-.93,2.29-1.26.81-1.45,1.83-.79,3.2.9,1.88,2.15.31,3.22.47.39,2.05,1.44,1.52,2.67.74,1.82-1.16,3.47-2.75,6.39-2.61-1.51,1.75-1.68,3.98-3.79,4.87-2.23,1.48-4.48,2.38-5.88,5.42-1.62,3.53-2.48,7.4-4.62,10.72-2.35,3.65-5.05,3.66-7.52-.02-.72-1.07-1.24-3.48-3.1-2.21-1.61,1.09.85,1.87,1.07,2.96.07.36.37.66.45,1.02,1.08,4.82,5.33,2.55,8.08,3.43,2.02.65,2.81-1.76,4.04-3.13,1.69-1.88-.16-4.77,2.22-6.21Z"/>
        <path class="cls-8" d="M66,31.29c-2.94,3.23-1.98,7.28-2.76,10.94-.83,3.86-1.71,7.64-1.7,11.6,0,1.43-.46,3.03,1,4.14.25.19.56.28.44.8-.52,2.31-.46,2.37,1.8,3.72-2.82.64-5.35-1.1-8.05-.01-1.23.5-.97-1.12-.79-2.13,1.15-6.72,1.12-6.71-5.42-7.38-1.34-.14-2.66-.47-3.99-.71-1.71,2.34,1.46,5.4-1.1,7.72,1.13-.31,2.27-.62,3.4-.93-.23,1.22-.57,2.38-1.78,3.02-2.99.1-4.13-3.11-6.75-3.79-.89-.23.01-1.22,0-1.8-.13-3.91,2.55-7.27,2.05-11.24-.16-1.26,1.21-3.03-1.39-3.18,1.57-2.59-1.94-4.49-.95-7,1.15-1.37,3.2.14,4.32-1.33.57-.18,1.25-.19,1.49-.91h0c6.74-.35,13.37-2.15,20.18-1.54Z"/>
        <path class="cls-1" d="M117.66,217.68c-.41-1.55-1.31-2.59-2.96-2.87-.31-.31-.62-.61-.93-.92-1.37-2.55.19-3.3,2.29-3.72.21.99.43,1.97,1.6,2.29.96-.53,3.16.08,2.09-2.29.02-1.51.69-2.38,2.29-2.32,2.22.35,3.17-.7,3.12-2.84.03-.25.08-.49.17-.72,2.23-.57,3.23-2.63,4.81-3.99.81-.69,1.27-1.62.58-2.65-.8-1.19-1.88.05-2.47-.12-1.78-.5-4.65,2.42-5.36-1.54,0,0,0,0,0,0,2.6-.38.34-2.03.77-2.97.98-.03,1.47-.59,1.63-1.5.48-.11,1.05-.21.99-.84-.06-.6-.65-.63-1.13-.7l-.02-.02c.45-1.63-1.38-4.41,2.23-4.46,2.11.27,5.46-.39,2.52,3.55-.5.68.12,1.85.83,1.45,1.33-.75,2.64-1.87,3.4-3.17.74-1.26.28-3.03-.43-4.23-.76-1.27-2.01.04-3.04.17-1.1.14-2.16.5-3.25.77-2.04-.41-4.19,2.06-6.16-.23,2.56-.99,2.4-4.38,5.15-5.27-2.12-1.73-4.53-1.16-6.52-2.01.86-1.86-.55-1.46-1.5-1.52.29-1.44-.92-2.76-.22-4.31.44-.98-.25-1.64-1.32-1.65-4.67-.03-6.49-2.18-5.22-6.79.19-.69.04-1.46.04-2.2,1.05,0,1.66.68,1.83,1.55.74,3.78,2.99,3.44,5.64,2.17.5,0,.99-.02,1.49-.03.26,0,.51.01.77.02,0,.53,0,1.06,0,1.59-1.52,1.72-4.05-.36-5.76,1.51,1.77.72,3.39,1.37,5.01,2.02,1.33,5.24,5.45,7.47,10.04,9.01,1.77.59,3.53,1.03,4.93,2.33,0,2.24.04,4.48-.03,6.72-.05,1.5.37,2.44,2.06,2.32,0,2.47,0,4.95,0,7.42-1.88,2.32-1.87,6.77,0,9.05,0,.73-.01,1.46-.02,2.19-2.16-.2-3.95.84-4.02,2.83-.08,2.45,1.46,4.14,4.28,3.92.6.92.67,1.93.57,2.98-3.06-1.65-6.94-2.54-6.05-7.53.22-1.26-.64-2.71-1.1-4.43-2.83,2.47-.75,5.88-2.44,8.18-1.29,0-1.76-.96-2.46-1.82-1.18-1.46-2.38-1.9-2.79.66-.18,1.15-.96,2.28.1,3.38-.43,1.05-1.61,1.69-1.64,2.97-.96.02-1.92.03-2.88.04-.03-.23-.04-.46-.05-.7-.32-.6-.88-.73-1.49-.75Z"/>
        <path class="cls-8" d="M74.25,89.68c-.35-2.45.78-4.27,2.93-5.04,2.27-.81,3.2-2.12,3.07-4.42-.1-1.74,1.07-2.85,2.37-3.52,1.59-.82,1.56,1.66,2.84,1.76,1.78,2.7,3.05.08,4.23-.62.65-.39,2.25-1.73,1.22-2.65-1.46-1.31-2.21.84-3.3,1.42-.22.12-.43.24-.65.36.07-1.3-.35-2.84,1.74-3.03,1.29-.12,1.98-.94,1.93-2.26-.01-.34-.17-.89-.39-.97-1.24-.44-1.76.61-2.31,1.36-1.51,2.05-3.65.81-5.48,1.14-.11-.34-.17-.95-.35-.99-2.71-.56-3.14-1.81-1.39-3.96.32-.4.18-1.18.25-1.78,0-.49.02-.98.03-1.47.33-.1.65-.2.98-.29-.06-.1-.13-.19-.19-.29-.27.18-.54.37-.81.55-.25,0-.5,0-.75-.01-.13-1.07-.26-2.14-.43-3.58,1.95.66,3.62.95,4.95-1.02.78-1.16,2.03-.46,2.86.43,1.16,1.24,2.25,1.38,3.42-.08-.98-1.31-3.14-1.03-3.76-2.77-.31-.86-.53-1.78.31-2.37.69-.49,1.39-.07,1.95.53.7.73.19,2.73,1.79,2.31,1.53-.4,2-2.08,2.32-3.56.13-.6.06-1.24.08-1.86,2.02,1.12,1.37,3.06.65,4.22-1.28,2.07-1.72,4.78-4.24,6.04-1.14.57-1.86,1.41-.65,2.82,3.19,3.72,5.64,8.26,10.96,9.52-.09,2.21-2.24,3.07-3.45,4.01-5.81,4.55-11.31,9.84-19.2,10.75-1.28.15-2.45-.04-3.55-.68Z"/>
        <path class="cls-4" d="M136.17,112.91c.22,1.73.44,3.47.66,5.2-2.28-.1-3.05-3.16-5.58-2.83-.64.08-1.27,0-1.44.79-.12.55.11,1.06.65,1.16,2.3.45,3.85,2.91,6.5,2.41.67,1.67-.03,3.16-.84,4.49-1.16,1.88-.97,3.96-1.25,5.98-3.01-1.72-6.48-1.5-9.72-2.25-1.34-1.09-2.18-.13-3.05.73-3.32.71-4.04-3.19-6.64-3.75-.14-1.64-.02-3.09,1.27-4.45.96-1.02,1.82-3.31.29-3.77-2.12-.64-1.29-2.07-1.79-3.12-.02-1.89-.48-3.42-2.8-3.42-.03-2.07,2-1.6,2.99-2.41,2.13-.3,2.88-2.08,3.76-3.64.9-1.59.67-2.86-1.46-3.14-.02-1.07.5-1.78,1.46-2.2,2.63-.26,5.27-2.24,8.79,0-2.07.75-4.37-.9-4.57,1.11-.24,2.41,2.37,2.42,3.78,2.79-.93,3.3-6.15,3.37-5.07,7.97.35,1.51-.31,3.5,2.03,3.75,2.32.25,2.49-1.48,2.58-3.21.04-.78.41-1.58,1.27-1.57,1.06.01.91,1.01.91,1.7,0,1.77,1.38,1.98,2.56,2.7,2.1,1.28,3.02-1.49,4.74-1.02ZM125.28,116.39c-2.29.23-4.97,1.21-5.53,4.89-.14.9-1.15,1.93.15,2.59,1.11.57,1.97-.35,2.43-1.18.9-1.62,1.68-3.02,3.98-2.89.51.03,1.73-1.45,1.54-2.67-.12-.79-.85-1.17-2.56-.73Z"/>
        <path class="cls-6" d="M93.98,37.17c-1.84-.53-3.84-.64-5-2.63-.56-.96-1.18-.52-1.27.52h0c-3.5-.57-6.27-3.05-9.73-3.71-.52-.92-1.41-.74-2.23-.75-1.01-.25-2.03-.5-3.04-.75-1.76-.09-3.58.18-5.21-.78.01-.44.18-1.2.01-1.28-.82-.4-1.65-.29-2.28.49-3.24,0-6.47.02-9.71.02,2.25-2.76,5.76-.48,8.3-2.08,4.39-.33,6.02-4.38,9.86-6.85-5.05.16-8.71,1.05-10.67,5.23-3.2-.93.35-2.08-.11-3.1.27-1.33.64-2.65.77-4,.2-2.05.26-4.04-2.72-4.24-2.74-.18-4.42.88-4.49,3.64-.05,2.04-.68,4.2.59,6.13-.04,1.02-.56,1.56-1.59,1.59-.99-.84-.66-1.99-.69-3.04-.04-1.28-.73-.91-1.41-.66-.06-.58-.12-1.16-.19-1.74.25-6.88.51-7.18,7.32-8,5.1-.61,5.43-.3,5.57,4.82.02.76-.44,1.81,1.13,2.21-.21-2.79,1.79-4.43,3.2-6.39,1,0,1.59.44,1.61,1.49-.84.59-1.24,1.47-1.42,2.42-.15.8-.44,1.99.34,2.33,1.41.61.83-1.45,1.77-1.68h.01c.2.38.35,1.06.62,1.11.82.15.82-.59.9-1.16,1.13-.87,1.4.77,2.23.77.45,2.46-2.44,2.65-3.01,4.42-1.25,1.63-4.69,2.02-2.99,5.32,2.54,3.32,6.4,2.33,9.75,2.98.98,1.06,2.2.72,3.84.93-1.43-1.38-2.68-.8-3.81-.97-.12-.66-2.17-2.02-.17-1.8,2.75.3,2.32-1.4,2.77-2.69.61-1.73.79-3.69,1.72-5.21,1.33-2.18.93-3.82-.4-5.73-1.16-1.67-2.74-3.26-2.41-5.61,6.09,2.44,8.01,7.72,9.17,13.51-.58.03-1.17.07-1.75.1-.24.24-.49.49-.73.73,0,0,.02-.03.02-.03-2.97-.48-3.98,1.32-4.21,3.78-.07.74.23,1.95,1.32,1.82.85-.1.55-1.2.74-1.86,3.75-.24,5.1,2.21,5.92,5.27,1.17,1.5,1.73,3.21,1.75,5.11Z"/>
        <path class="cls-4" d="M27.05,217.8c.43,4.63.34,9.03-1.21,13.67-1.34,4,2.75,7.02,4.8,10.29.41.65,1.88.75,1.21,1.93-.74,1.3-1.62.53-2.49-.03-.51-.33-1.14-.47-1.72-.66-.65-.21-1.44-.84-1.86.24-.27.72.24,1.14.9,1.35,1.01.32,2.01.83,1.7,2.05-.39,1.54-1.55.55-2.45.54-1.45-.02-1.68,2.22-3.35,1.94-2.14-.86-3.08-2.91-4.49-4.49.07-1.61-.31-2.89-2.25-2.99-.5,0-1,0-1.5,0-.92-1.16-1.79-.32-2.4.25-.91.85-.82,1.89.16,2.75,0,.5,0,1,0,1.5-.87,2.86-2.4,4.88-5.8,4.48.23-4.47.35-8.94-.23-13.4.26-.5.52-1,.78-1.49l5.12.09c.24.35.44.94.74,1,.75.14.79-.58.93-1.1.22-.27.45-.55.67-.82.25,0,.51,0,.76.01,2.02.89,4.16,1.57,5.83,3.06.49.44.54,1.55,1.55.99.91-.5,1.02-1.4.58-2.27-1.48-2.95-2.85-6.03-6.47-7.01.01-.49.03-.98.04-1.48,1.09,0,2.19.07,3.28-.02,1.35-.11,3.34.67,3.74-1.22.34-1.59-2.2-.5-2.61-1.84,1.49-1.41,4.49.09,5.24-2.73-.68-1.33-.41-3.2-2.2-3.91l-.09.06c.54-2.39,2.1-.26,3.08-.7Z"/>
        <path class="cls-10" d="M53.38,20.91c.69-.25,1.38-.62,1.41.65.03,1.04-.3,2.2.69,3.04.04,1.38-.09,2.8-1.98,1.87-1.48-.73-2.17-.85-2.92.97-.77,1.87-3.27,1.92-4.71,3.36-.59.59-2.92.12-3.06-2.04-.08-1.18.46-2.52-.77-3.46,1.26-2.6.79-5.57,2.08-8.25,4.44-9.24,12.4-12.35,21.81-12.68,3.82-.13,8.02-1.06,11.37,2.02-.88,1.52-3.96.43-3.77,3.2-2.28.72-4.09-1.84-7.03-.96,1.56,1.27,2.73,2.22,3.9,3.18-1.41,1.96-3.4,3.6-3.2,6.39-1.57-.4-1.11-1.45-1.13-2.21-.14-5.13-.48-5.44-5.57-4.82-6.8.82-7.07,1.11-7.32,8-2.81-.4-.06-3.89-2.58-4.52-.75,1.21-.16,2.59-.42,3.85-.13.63-.09,1.8-1.17.83-.54-.49-.65-1.57-1.05.03-.2.79-.4,1.46.79,1.45,1.23,0,2.46.02,3.7.03.26.61.54.77.85.03l.06.04ZM60.33,10.41c1.52-.31,3.7.27,4-2.17.14-1.14-1.02-1.76-2.08-1.55-1.63.32-3.79.23-4.29,2.24-.44,1.77,1.31,1.27,2.38,1.48Z"/>
        <path class="cls-1" d="M136.17,112.91c-1.72-.47-2.64,2.3-4.74,1.02-1.18-.72-2.55-.93-2.56-2.7,0-.69.15-1.69-.91-1.7-.86,0-1.23.79-1.27,1.57-.09,1.72-.25,3.45-2.58,3.21-2.34-.25-1.68-2.25-2.03-3.75-1.08-4.6,4.14-4.67,5.07-7.97-1.41-.37-4.02-.38-3.78-2.79.2-2,2.51-.36,4.57-1.11-3.52-2.25-6.16-.27-8.79,0-.24-3.84-3.35-3.87-6-4.5h0c-.15-1.75,3.03-1.51,2.2-3.67-.9-1.43-1.1-2.22,1.13-2.68,1.32-.27,2.62.97,3.95-.31-.64-1.46-3.35-1.52-2.79-3.79,3.26,1.44,5.67,3.35,6.82,7.15,1.03,3.4,4.45,5.53,6.5,8.47,2.86,4.08,5.26,8.35,5.21,13.55ZM121.74,94.29c.06-.72-.5-.74-.96-.8-.49-.06-1.06,0-1.19.55-.17.7.47.74.93.8.49.06.96-.03,1.21-.56ZM130.43,104.05c-.3.38-.62.6-.64.85-.02.29.15.81.35.87.56.18.86-.25.83-.76-.02-.28-.29-.54-.55-.97Z"/>
        <path class="cls-8" d="M32.31,163.03c-1.58,2.57-3.36,5.09-1.01,8.18.27.36.18,1.26-.09,1.71-.47.78-1.27.48-1.96.17-1.11-.5-2.16-1.21-3.47-1.03,0-1.45-.61-2.55-2.15-2.26-4.43.82-8.65-1.31-13.04-.78-.41-.02-.82-.03-1.24-.05.29-2.46.57-4.92.86-7.38.57.02.92-.29,1.16-.77,5.23.98,10.45,1.94,15.67,2.97.72.14,1.52.68,1.86-.31.39-1.12-.64-1.04-1.31-1.2-1.81-.41-3.35-1.82-5.8-.94,1-1.55,1.65-2.55,2.29-3.55,1.2-.04,1.95.33,2.42,1.63.45,1.24,1.47,2,2.75.64,1.02,0,2.04,0,3.05,0,0,.5,0,1-.01,1.5-.24-.02-.48-.02-.73-.03-.11-.1-.22-.19-.33-.29.1.11.2.22.29.33.01.61.14,1.17.76,1.47Z"/>
        <path class="cls-3" d="M6.87,235.71c-.26.5-.52,1-.78,1.5-2.52-.89-1.42-2.85-1.2-4.42.9-6.53,1.92-13.04,2.89-19.56,2.23.01,4.42-.02,3.87-3.63-1.29.99-2.41,1.69-3.83,1.31.16-2.98.32-5.97.48-8.95.54,0,1.07,0,1.61,0,1.07,3.7,5,5.09,6.69,8.29.46.58.92,1.16,1.39,1.73.4.48.91,1.09.31,1.57-.38.31-1.47.41-1.68.15-2.24-2.76-3.21.93-4.79.87-3.62-.13-2.14,2.17-2.17,3.93-.02,1.12-1.3,2.56.18,3.25,1.29.61,1.62-1.54,3.01-1.91-.15,2.2-.76,4.17-1.5,6.1-1.51.37-3.8.7-2.52,2.76.93,1.5-.37,5.89,4.06,4.12.64-.26,1.44-.11,2.17-.14,0,.74.02,1.48.02,2.22-.25,0-.51,0-.76-.01-2.5.12-5.27-2.1-7.46.84Z"/>
        <path class="cls-9" d="M11.38,160.82c-.24.48-.59.79-1.16.77.62-9.56,1.71-19.06,3.45-28.49,1.78,2.32,1.55-1.31,1.87-.8,1.46,2.24,4.62-1.37,5.82,1.91.35.95,1.78.02,2.65-.41-.45,2.75-3.57,3.54-4.42,6-2.66.03-1.84-2.52-2.54-3.94-2.29,1.78-2.12,4-1.95,6.22-.18.68-.17,1.53-.58,2-.69.79-2.01,1.28-1.32,2.59.54,1.03,1.74.53,2.66.61.72.06,1.45-.02,2.17-.04,3.83,2.12,4.46,1.93,6.31-2.1.34-.74.86-.79,1.46-.75.92.07,1.5.8,1.02,1.48-2.31,3.24.91,1.78,1.84,2.26-.03.47-.05.95-.08,1.42,0,0-.1.05-.1.05-2.74-.03-5.37,1.17-8.14.7-6.3,0-6.76.47-6.74,6.73,0,.74.02,1.49.03,2.23-.51,0-1.02.02-1.54.02-.24.24-.48.48-.72.72,0,.27,0,.53,0,.8Z"/>
        <path class="cls-3" d="M73.53,9.6c-.18-2.76,2.9-1.68,3.77-3.2,1.59.57,3.15,1.21,4.45,2.33-.33,2.35,1.25,3.94,2.41,5.61,1.33,1.91,1.73,3.55.4,5.73-.93,1.52-1.12,3.48-1.72,5.21-.45,1.29-.02,2.99-2.77,2.69-2-.22.05,1.14.17,1.8l-.03.04c-3.35-.65-7.21.34-9.75-2.98,1.57.24,3.07.96,4.72.73,1.05-.15,2.44.3,2.69-1.25.24-1.45.4-3-1.26-3.93-.99-.56-2.02-.92-3.17-.87.56-1.77,3.45-1.96,3.01-4.42,1.74.07,3.27-.08,3.03-2.48-.16-1.59.62-3.74-2.3-3.5-.9-.57-1.88-.85-2.95-.8-.24-.25-.48-.49-.72-.74Z"/>
        <path class="cls-2" d="M120.64,163.76c-.5,0-.99.02-1.49.03-2.11-1.48-2.13-3.74-2.23-5.97,1.61,0,3.23.04,4.83-.03,2.95-.12,5.95-.17,7.89-3,.51,0,1.01-.02,1.52-.03,2.47.19,2.4,3.46,4.69,3.86.11.96.22,1.92.32,2.88-2.21,1.12-1.63,4.12-3.62,5.39-2.05-2.48-4.55-2.89-7.41-1.59-1.25.02-2.5.04-3.74.06,0-.53,0-1.06,0-1.59-.22-.63.7-1.34-.2-2.04-.64.58-.53,1.33-.56,2.03Z"/>
        <path class="cls-6" d="M8.43,180.99c.99.26,1.97.53,2.96.79-.73,2.21,0,3.36,2.36,3.76,1.61.27,3.41.45,4.43,2.11-.27.26-.49.59.03.73.62.17,1.12-.12,1.38-.73-.01-.22,0-.44.02-.66.75,0,1.5,0,2.25.01-1.11,3.98,1.91,2.74,3.76,2.98.25.26.49.53.74.79-2.11,1.4-1.8,4.53-4.26,5.84-.67.36.07,1.53,1.2,1.54,1.07,2.69.77,5.51.81,8.3-.83-.17-2.83,1.02-2.12-1.05,1.27-3.66-.67-3.05-2.88-2.7-1.08.17-2.21,0-3.32,0,.25-1.49.5-2.97.75-4.46,1.29-1.58-.19-3.35.51-5.21,1-2.63-.22-4.86-3.49-5.17-1.23-.21-2.3-1.12-3.65-.82-.52.24-1.03.48-1.55.71-.43-2.25-.07-4.5.08-6.75Z"/>
        <path class="cls-8" d="M51.04,62.75c.95.48,3.35-1.51,2.71,1.87-.21,1.12,1.92,1.65,3.29,1.84,1.95.28,3.93.43,5.86.81,2.4.46,4.2,1.49,3.09,4.45h0c-2.32-.37-4.45-1.36-6.86-1.59-5-.48-8.75,1.8-12.43,4.59,0-.37-.07-.76,0-1.11q1.57-6.71-4.86-10.13c-.41-.22-.76-.56-1.21-.9,2.35-.83,3.37-.55,5.75,1.58.35.31.53.95.86.03.08-.23.12-.48.18-.72,1.21-.2,2.59.48,3.59-.73Z"/>
        <path class="cls-9" d="M12.65,124.04c.74-5.03,1.6-10.04,3.23-14.88,3.13.68,5.81.18,7.55-2.86.08-.14.46-.11.7-.16.07,1.02.37,1.89,1.45,2.26.46,1.2-.34,2.66.76,3.74-1.18.15-2.77-.51-3.01,1.51h0c-1.08-.02-1.36-.83-1.76-1.62-.14-.28-.88-.49-1.25-.38-.52.15-.66.75-.28,1.19,2.9,3.43.48,6.58-.48,9.81-1.43.06-2.09,2-3.75,1.5h.01c-.49-.8-.99-.8-1.49-.01-.57-.03-1.14-.06-1.7-.09ZM16.74,113.57c-.53,1.87-1.13,3.72-1.58,5.61-.35,1.44.71,2.22,1.84,2.26,1.57.05,1.22-1.54.98-2.23-.62-1.8-.57-3.64-1.23-5.64Z"/>
        <path class="cls-9" d="M122.07,219.07c.03-1.27,1.21-1.91,1.64-2.96,1.03.27,2.05.68,3.1.8,2.48.29,3.5-.56,2.05-3.01,1.7-2.3-.39-5.71,2.44-8.18.46,1.72,1.32,3.17,1.1,4.43-.89,4.99,2.99,5.88,6.05,7.53.22,1.01.44,2.02.66,3.04-1.34-.03-1.64-1.5-2.58-1.93-1.05-.48-3.41-.6-2.84.73,1.89,4.47-1.34,3.18-3.3,3.45-1.73-2.53-3.91-1.48-6.05-.77-.24-.01-.49-.02-.73-.04.16-1.37-.24-2.45-1.55-3.08Z"/>
        <path class="cls-3" d="M42.04,25.3c1.23.93.69,2.28.77,3.46.14,2.16,2.47,2.63,3.06,2.04,1.45-1.44,3.94-1.49,4.71-3.36.75-1.81,1.43-1.7,2.92-.97,1.89.93,2.02-.49,1.98-1.87,1.03-.03,1.54-.58,1.59-1.59,2.66,2.21,3.77-1.52,5.85-1.54.45,1.02-3.09,2.18.11,3.1,0,.68.19,1.26.81,1.62-2.54,1.6-6.05-.68-8.3,2.08-2.78,2.5-6.72,2.5-9.71,4.55,0,0,0,0,0,0-.7-.02-1.3.12-1.49.91-1.12,1.47-3.16-.04-4.32,1.33.11-1.94-1.24-3.63-.89-5.63.32-1.88.87-3.53,2.93-4.15Z"/>
        <path class="cls-2" d="M135.62,180.24c-1.4-1.3-3.16-1.74-4.93-2.33-4.59-1.53-8.7-3.77-10.04-9,1.25.01,2.5.03,3.75.04,3.96,2.5,9.02,2.33,12.78,5.31.3.72.52,1.44.21,2.22-.72.1-1.59.06-1.64,1.06-.06,1.27.95,1.19,1.8,1.26l.02,1.39c-.65.02-1.3.04-1.95.05Z"/>
        <path class="cls-8" d="M130.4,222.96c1.96-.27,5.19,1.02,3.3-3.45-.56-1.33,1.79-1.21,2.84-.73.95.43,1.24,1.89,2.58,1.93.5,2.7,1,5.4,1.5,8.1-2.86,2.79-7.29,2.83-10.2.11,0-.74,0-1.47,0-2.21.48-.02.96-.03,1.44-.05.81.8,1.29.52,1.39-.51.1-1.03-.37-1.68-1.46-1.69-2.22-.03-4.45-.02-6.67-.03.01-.48.03-.96.04-1.44,1.74-.01,3.48-.02,5.23-.04Z"/>
        <path class="cls-1" d="M12.65,124.04c.57.03,1.14.06,1.7.09.5,0,1,.01,1.49.02,0,0-.01,0-.01,0,.8,2.9,4.1,2.97,5.74,5.09,1.08,1.4.98-2.06,2.55-1.37.4.18.96,0,1.45-.01,0,0,0,0,0,0,.03.98.05,1.97.08,2.95-.07,1.26-.09,2.54-1.63,3-.87.43-2.3,1.36-2.65.41-1.2-3.27-4.37.34-5.82-1.91-.33-.5-.09,3.12-1.87.8-.48-3.01-2.88-5.8-1.02-9.07Z"/>
        <path class="cls-1" d="M125.15,127.85c3.24.75,6.7.54,9.72,2.25.03.24.05.48.08.73-1,.57-.86,1.09.07,1.58.66,4.95.52,9.92.41,14.88-1.59-.05-1.78,1.63-2.81,2.27-.53-.9-1.42-.72-2.24-.73-.02-2.14,3.25-3.47,1.48-6.04.93-2.43-.74-2.25-2.25-2.24.01-1.07.52-1.8,1.5-2.22,3.46-.59,1.28-3.16,1.3-4.6.03-1.84-1.53-1.7-2.79-.63-1.5-1.75-2.99-3.51-4.49-5.26Z"/>
        <path class="cls-6" d="M130.43,228.91c2.91,2.73,7.34,2.68,10.2-.11-.12,1.37,1.71,3.05-.66,4.05-3.7-.07-7.39-.15-11.09-.22-1.5-1.09-3-1.12-4.5,0-.75,0-1.49,0-2.24.01-.05-1.02.11-1.95.88-2.75,2.43-2.52,1.27-3.32-1.6-3.27,0-.49-.02-.98-.03-1.47,0-.74.01-1.49.02-2.23.6-.02,1.15-.13,1.45-.74.25-.02.51-.03.76-.05.24.01.49.03.73.04.27.27.55.54.82.8-.01.48-.03.96-.04,1.44.04,1.12.15,2.98,1.29,2.61,2.27-.75,2.63,1.43,4,1.87Z"/>
        <path class="cls-8" d="M38.32,80.84c-.24,2.57.41,4.78,1.92,6.99,1.38,2.01,2.31,4.42,3.03,6.77,1.07,3.51-.65,5.8-4.32,6.22-.62.07-1.33.19-1.7-.39-.41-.64.13-1.15.55-1.6.51-.55,1.02-1.09,1.58-1.59,1.8-1.62,2.79-3.02-.5-4.13-.75-.25-1.79-1.09-1.48-2.3.87-3.45-1.43-5.25-3.62-7.12,1.16-1.5,2.35-2.96,4.53-2.84Z"/>
        <path class="cls-3" d="M24.13,106.13c-.24.05-.62.02-.7.16-1.73,3.04-4.41,3.54-7.55,2.86,1.67-5.11,3.46-10.15,8.03-13.53,2.85-.46,3.48,1.51,3.98,3.63-2.67-.37-4.62,1.5-7.21,2,1.5,1.67,2.75,3.09,3.45,4.89Z"/>
        <path class="cls-9" d="M137.18,174.25c-3.76-2.98-8.82-2.81-12.78-5.31.25-.47.49-.94.74-1.42,1.23.25,2.95-1.89,3.64.46.43,1.46,1.06,1.18,2.07,1.11,1.5-.1,1.85-.91,1.71-2.19,1.99-1.27,1.4-4.27,3.62-5.39.47,4.24,1.24,8.45,1.01,12.74Z"/>
        <path class="cls-3" d="M45.06,78.48c-.01,4.91,7.13,12.34,12.47,12.22-6.64,1.35-8.49,1.4-10.16-1.49-1.77-3.05-5.88-5.38-3.99-9.95.38-.64.96-.85,1.68-.78Z"/>
        <path class="cls-3" d="M8.36,187.74c.52-.24,1.03-.48,1.55-.72.09,2.22.14,4.46,2.2,5.95.66,1.79,2.83,2.93,2.26,5.26-.27,1.92-1.83,1.33-2.98,1.52-1.06-.4-.38-1.78-1.25-2.34-.49.77-.08,1.86-1.05,2.32-.28-.01-.57-.03-.85-.04-.35-3.99-.22-7.98.11-11.96Z"/>
        <path class="cls-8" d="M93.72,53c-1-.76-2.16.2-3.56-.42,2.28-2.35,1.74-4.81.84-7.6-.72-2.21.37-4.52,1.57-6.6,1.56.33,1.34,2.13,2.52,2.59,0,0-.03.06-.03.06-1.52.33-1.65,1.11-.72,2.23-.2,3.24-.41,6.49-.61,9.73Z"/>
        <path class="cls-9" d="M130.39,148.83c.82.02,1.71-.17,2.24.73-1.06,1.12-2.19,2.25.65,2.24.74,0,1.49,0,2.23.01.04,1.17.76,2.46-.6,3.38-.16.77-.26,1.52.7,1.88.5.45.51.99.24,1.56-2.3-.4-2.23-3.67-4.69-3.86-.01-1.07,0-2.16-1.51-2.23-.87-.54-.7-1.43-.74-2.24,0-.24,0-.48.01-.71.62-.01,1.15-.18,1.48-.76Z"/>
        <path class="cls-6" d="M27.89,99.25c-.5-2.12-1.13-4.09-3.98-3.63.31-.89.74-1.69,1.57-2.22,3.76.33,6.44,1.88,6.79,6.05-.99.22-1.91-1.35-2.95-.13-.48-.02-.95-.05-1.43-.07Z"/>
        <path class="cls-9" d="M137.9,214.68c-2.83.22-4.37-1.47-4.28-3.92.07-1.99,1.86-3.03,4.02-2.83.09,2.25.18,4.5.26,6.75Z"/>
        <path class="cls-1" d="M92.23,32.06c-.81-3.06-2.17-5.51-5.92-5.27-.23-1.66.24-2.82,2.1-3.01.8,1.99,2.34,2.58,4.34,2.31.62,2.06,0,4.02-.52,5.98Z"/>
        <path class="cls-3" d="M135.62,180.24c.65-.02,1.3-.04,1.95-.05.03,3.03.05,6.06.08,9.09-1.69.12-2.11-.82-2.06-2.32.07-2.24.03-4.48.03-6.72Z"/>
        <path class="cls-1" d="M136.95,119.64c-2.64.5-4.2-1.96-6.5-2.41-.54-.11-.77-.62-.65-1.16.17-.79.8-.71,1.44-.79,2.54-.33,3.3,2.73,5.58,2.83.04.51.08,1.02.12,1.53Z"/>
        <path class="cls-3" d="M135.51,151.82c-.74,0-1.49-.02-2.23-.01-2.84.01-1.71-1.13-.65-2.24,1.03-.64,1.21-2.33,2.81-2.27.03,1.51.05,3.02.08,4.53Z"/>
        <path class="cls-3" d="M137.66,205.74c-1.88-2.27-1.88-6.73,0-9.05,0,3.02,0,6.03,0,9.05Z"/>
        <path class="cls-9" d="M92.75,26.08c-2,.27-3.54-.32-4.34-2.31.02-.24.04-.48.05-.73,0,0-.02.03-.02.03.24-.24.49-.49.73-.73.58-.03,1.17-.07,1.75-.1,1.92.66,1.5,2.43,1.83,3.84Z"/>
        <path class="cls-9" d="M9.37,168.97c.41.02.82.03,1.24.05.23,1.84-.71,3.87.88,5.5-.8.72-1.71,1.21-2.8,1.31.23-2.28.45-4.57.68-6.85Z"/>
        <path class="cls-2" d="M51.04,62.75c-1,1.21-2.39.53-3.59.73-.14-.46-.28-.93-.41-1.39,1.21-.64,1.55-1.8,1.78-3.03,0,0,.36-.03.36-.03l.36.02c.71,1.15,1.79,2.15,1.5,3.7Z"/>
        <path class="cls-10" d="M7.82,210.9c1.42.39,2.54-.32,3.83-1.31.55,3.61-1.64,3.64-3.87,3.63.01-.78.03-1.55.04-2.33Z"/>
        <path class="cls-5" d="M9.09,199.74c.96-.47.56-1.56,1.05-2.32.87.56.19,1.94,1.25,2.34-.05,1.04-.56,1.76-1.49,2.2-.54,0-1.07,0-1.61,0-.01-.23-.03-.47-.04-.7.67-.29.84-.85.84-1.51Z"/>
        <path class="cls-1" d="M137.55,178.79c-.85-.07-1.86.02-1.8-1.26.05-1,.93-.96,1.64-1.06.4.75.38,1.53.16,2.32Z"/>
        <path class="cls-3" d="M135.6,157.07c-.96-.35-.86-1.1-.7-1.88.59.49.9,1.09.7,1.88Z"/>
        <path class="cls-8" d="M105.71,76.87c-1.08,1.23-1.85,1.14-2.28-.51.83-.13,1.62-.09,2.28.51Z"/>
        <path class="cls-10" d="M9.09,199.74c0,.66-.17,1.22-.84,1.51-.43-.51-.47-1.03,0-1.55.28.01.57.03.85.04Z"/>
        <path class="cls-3" d="M135.02,132.41c-.94-.48-1.07-1-.07-1.58.35.51.4,1.04.07,1.58Z"/>
        <path class="cls-4" d="M94.34,43.26c-.93-1.12-.8-1.9.72-2.23-.24.74-.48,1.48-.72,2.23Z"/>
        <path class="cls-8" d="M70.49,126.36c-2.06.36-2.81-1.17-3.68-2.54-.87-1.37-1.72-2.72-3.44-3.23-1.34-.39-2.51-.09-3.5.74-1.02.85-.24,1.79.08,2.71.26.72,1.21,1.61-.13,2.16-.91.37-1.77.03-2.16-.92-.71-1.73-1.2-3.55-3.62-3.65-.65-.03-.96-1.05-.66-1.52,1.71-2.7.85-5.64.9-8.47.03-2.08.32-4.03,2.63-4.51,2.32-.48,1.74,2.3,2.95,3.14,2.77-2.56,6.22-2.04,9.48-2.03,1.8,0,2.27,1.56,1.83,2.98-.65,2.12-.24,4.13.07,6.18-.78,1.67,1.64,2.81.75,4.49-2.01.24-1.36,1.81-1.5,2.99,0,.5,0,.99,0,1.49Z"/>
        <path class="cls-8" d="M54.76,181.64c-.82-1.9-.86-3.52,1.32-4.64.61-.31,1.11-1.03,1.41-1.68.42-.91.59-2-.14-2.81-.78-.86-1.57-.19-2.28.33-.62.45-1.24.86-2.23.15,3.66-3.35-.51-3.22-1.95-4.3-1-.74-3.11-.57-2.58-2.49.43-1.57,2.12-.78,3.27-.89,1.88-.18,3.57.14,5.26,1.28,2.45,1.65,4.85-.64,7.34-.67.91-.01,1.01.2,1.09.85-.14,2.67.51,5.34-.63,8.03-.6,1.43-.44,3.39,2.14,3.22-.2,1.89.87,2.27,2.48,2.25,4.32-.05,8.64-.02,12.96-.03,1.12,0,2.31.11,2.49-1.48,2.74,0,5.49,0,8.23,0,.13,1.02-.33,2.19.75,2.97,0,.24,0,.47,0,.71-3.92-.82-7.85.56-11.77-.03-3.78-.97-7.61-1.36-11.5-.8-1.21.02-2.42.05-3.64.07-1.79-.01-3.57-.02-5.36-.04-1.73.09-3.47.18-5.2.27-.49-.1-.98-.2-1.47-.29Z"/>
        <path class="cls-9" d="M115.35,90.51c.83,2.16-2.34,1.91-2.2,3.66-.06.11-.12.21-.17.32l.18-.31c2.65.63,5.76.66,6,4.5-.96.42-1.47,1.14-1.46,2.2.3,2.62-3.52,3.84-2.29,6.77-.99.81-3.02.33-2.99,2.41.09,1.48-3.33,1.41-1.59,3.61-1.26.09-2.86-1.61-3.68.72.05-1.43-1.11-2.12-1.87-3.07-2.04-2.58-1.46-3.97,1.86-4.45.07.82.13,1.65.2,2.55,1.84-.51,2.35-1.95,2.69-3.3.54-2.14-.58-2.26-2.17-1.45-1.74,1.13-3.94.43-5.96,1.54,1.79-2.43-.13-5.26,1.41-7.55.35.33.68.69,1.05.99,3.08,2.46,5.99,1.77,7.62-1.79.21-.47.38-.91.02-1.36-.42-.52-1.05-.88-1.56-.36-1.88,1.9-4.18.73-6.29.98.27-.48.53-.96.8-1.44.83-.83,1.59-1.77,2.96-1.57,2.34.42,2.73-1.7,3.8-2.93.46-.23.93-.46,1.39-.69.75,0,1.5.01,2.25.02Z"/>
        <path class="cls-4" d="M66.77,178.03c-2.58.17-2.74-1.79-2.14-3.22,1.14-2.69.49-5.36.63-8.03,1.98-.69,3.71-2.08,6.07-.23,1.26.99,3.23.09,4.79-.98,1.65-1.14,3.68-1.94,5.32.08,1.79,2.21-.14,3.47-1.4,4.97-2.02,2.41-3.89,4.94-5.82,7.42-2.49,1.87-4.98-.76-7.47,0Z"/>
        <path class="cls-4" d="M93.69,181.75c-1.08-.78-.63-1.95-.75-2.97,4.95-1.08,9.66.35,14.33,1.6,1.46.39,2.85.62,4.33.61.03.75.06,1.49.09,2.24-.53,1.66,1.44,2.33,1.48,3.76-3,1.66-.5,3.97-.71,5.96,0,.76,0,1.51,0,2.27-.38.91.6,3.24-1.38,2.41-1.97-.83-3.81-.81-5.75-.91-1.21-.06-2.23-.34-2.52-1.7-.31-1.5.93-1.52,1.77-2.19,1.96-1.57,7.03-2.19,2.85-6.55-.16-.17-.08-.88.1-1,2.59-1.67-.46-1.72-.63-1.66-4.02,1.44-6.73-2.1-10.21-2.6-.28-.56-.76-.8-1.35-.69-.47.09-.43.39-.13.68-.32.61-.89.73-1.51.74Z"/>
        <path class="cls-3" d="M24.02,133.8c1.54-.46,1.56-1.74,1.62-3,1.14-.05,1.38,1.17,2.21,1.56l-.02-.04c0,2.23-.3,4.55,2.1,5.93.25,2.58-.22,5.2.74,7.75.62,1.66-.48,2.21-2,2.14-.93-.48-4.15.98-1.84-2.26.48-.68-.1-1.41-1.02-1.48-.61-.05-1.12.01-1.46.75-1.85,4.03-2.48,4.22-6.31,2.1.03-1.7.07-3.41.1-5.11.96-.48,1.51-1.22,1.47-2.33.85-2.46,3.97-3.25,4.42-6Z"/>
        <path class="cls-4" d="M116.91,157.82c.11,2.23.13,4.49,2.23,5.97-2.64,1.27-4.89,1.62-5.64-2.17-.17-.86-.78-1.55-1.83-1.55-1.09-2.84-3.54-.97-5.29-1.54-.21-1.04-2.67-.42-1.76-2.13,1.7-3.19-.54-4.21-2.71-5.34-.25-2.13.49-3.21,2.83-3.02,1.82.15,3.66.01,5.49,0,.93.1,1.99-.1,2.15,1.33.24,2.26.55,4.51.83,6.77-.02.31-.04.61-.06.92.43,2.55,1.86,1.09,3,.74.25,0,.49,0,.74.01Z"/>
        <path class="cls-4" d="M107.14,106.87c-3.31.49-3.9,1.87-1.86,4.45.75.95,1.91,1.64,1.87,3.07-.96,1.61-.29,2.7,1.35,2.57,1.43-.11,2.37.27,3.24,1.22-.08.8.03,1.68-.81,2.2-3.47.49-5.96-.17-6.55-4.36-.17-1.23-1.41-2.51-2.79-3.58-2.89-2.22-2.64-5.97-2.21-9.18.4-2.99.78-5.27-3.05-5.97-1.92-.35-2.14-2.51-3.73-4.05,3.06-.51,4.49,1.59,6.27,2.47,1.73.86,2.97,1.7,4.61.09.26-.26.95-.09,1.45-.12-.27.48-.53.96-.8,1.44-.28.51-.56,1.02-.84,1.53-1.54,2.29.38,5.13-1.41,7.55,2.02-1.11,4.22-.41,5.96-1.54-.24.73-.48,1.47-.72,2.2Z"/>
        <path class="cls-1" d="M32.97,99.52c2.88.53,3.56,2.73,3.81,5.16.15,1.48.05,2.99.07,4.49-1.41,4.28-1.4,8.99-4.18,12.89-1.12,1.57-3.54,1.45-4.07,3.54-1.53.09-1.55,1.18-1.53,2.31-.5-.02-1-.03-1.5-.05,0,0,0,0,0,0,.55-1.49.28-2.94-.31-4.32-.54-1.26-.38-2.3.97-2.67,4.16-1.12,4.62-4.61,5.33-7.98.26-.23.51-.46.77-.69.48.69.93,1.79,1.91.87.4-.37.52-1.65.2-2.07-.69-.91-1.27.76-2.1.41-.73-1.22-1.45-2.44-2.18-3.67,3.61-.24,5.36-2.85,3.97-5.96-.34-.77-.76-1.5-1.14-2.24Z"/>
        <path class="cls-4" d="M51.03,127.11c0,1,.01,1.99-.03,2.99-.06,1.29-.69,2.11-2.05,2.18-1.36.06-1.62-.85-1.65-1.95-.04-1.11.08-2.44-1.61-2.34-1.68.11-1.43,1.51-1.36,2.55.31,4.56-3.01,2.36-5.06,2.79,3.13-2.43.45-6.73,3.2-9.3.28-.26-.82-2.18-1.49-3.2-.52-.8-1.69-1.4-.61-2.45.86-.83,1.91-1.14,2.97-.14.91.85,2.1.6,3.2.64.47,3.31.96,6.6,4.49,8.23Z"/>
        <path class="cls-3" d="M110.86,135.42c-1.02-.85-.58-2-.64-3.05,1.71-1.01,1.64-2.92,2.26-4.49.48.24.95.48,1.43.72-.2.7-.47,1.38-.57,2.09-.15,1.03-.64,2.29.61,2.92,1.2.6,1.47-1,2.33-1.29.23,3.18,3.91,4.86,3.6,8.27-.59.32-.7.88-.74,1.48-1.53.07-1.46,1.3-1.68,2.31-.36,0-.73,0-1.1,0-.24-1.4-1.26-1.62-2.43-1.61-.52-1.68,1.3-2.02,2.35-3.63-3.44.46-3.78-1.34-3.95-3.75-.14-2.01-.95.27-1.48.04Z"/>
        <path class="cls-10" d="M54.76,181.64c.49.1.98.2,1.47.29.34,1.74,2.16,1.25,3.11,2.08.92.8,2.85.28,2.9,2.21-1.19.25-2.33.51-2.94,1.81-1.45,3.1-2.68,2.05-3.77-.28,1.13-3.93-2.28-2.32-3.75-3.08-3.18-.63-6.29-2.11-9.62-.77-.28-.23-.56-.46-.83-.68.02-.42.03-.84.05-1.25,3.97-.09,7.95-.18,11.92-.28.49-.02.98-.03,1.46-.05Z"/>
        <path class="cls-5" d="M116.36,144.37c.36,0,.73,0,1.1,0,0,0,.15.02.15.02.11,1.41,1.34,1.65,2.28,2.18l.07,2.26c-2.39-.44-2.31,1.69-3.07,2.95-.88.07-1.45.48-1.58,1.39-.91.21-1.43.68-1.12,1.7-.14.55-.32,1.07-.94,1.26-.28-2.26-.59-4.51-.83-6.77-.15-1.43-1.22-1.23-2.15-1.33,0-1.46,0-2.92,0-4.39,1.21-.01,2.43-.02,3.64-.03.82.25,1.64.5,2.47.75Z"/>
        <path class="cls-8" d="M53.29,181.69c-3.97.09-7.95.18-11.92.27-.74-.04-1.49-.07-2.23-.11-2.91-.34-5.7-.02-8.3,1.44-1.49-.09-1.54-1.17-1.54-2.27.49-.05,1.29.06,1.42-.18,2.29-4.33,6.64-1.25,9.71-2.71.16-.08.58.38.88.58-.81,1.44-2.67.21-4.05,1.59,4.91-.33,9.37.61,13.73-.8,1.61-.16,2.47.48,2.31,2.19Z"/>
        <path class="cls-9" d="M113.9,128.6c-.48-.24-.95-.48-1.43-.72-.56-2.25,1.11-5-1.53-6.79,0-.24,0-.48,0-.72.85-.52.74-1.39.81-2.2,3.46-.07,1.57-2.16,1.36-3.62.7-.36,1.41-.72,2.11-1.08.5,1.05-.33,2.48,1.79,3.12,1.54.46.68,2.75-.29,3.77-1.29,1.36-1.4,2.81-1.27,4.45-.04,1.03-.08,2.07-.12,3.1-.6-.04-1.13.09-1.44.67Z"/>
        <path class="cls-5" d="M11.48,174.51c-1.59-1.62-.65-3.65-.88-5.5,4.39-.53,8.61,1.6,13.04.78,1.54-.28,2.16.81,2.15,2.26,0,0-.15.16-.15.16-2.75.13-5.5,1.18-8.23-.12-1.33-.2-2.5-.07-2.89,1.52,0,0-.07.09-.07.09-.67-.15-1.25-.1-1.6.6-.46.06-.92.13-1.38.19Z"/>
        <path class="cls-6" d="M32.32,160.05c-1.02,0-2.04,0-3.05,0-2.66-1.39.22-3.57-.75-5.21,0-1.27-.01-2.55-.02-3.82,0-.47,0-.94-.01-1.41,0,0,.1-.05.1-.05,2.46-.3,3.91.21,3.86,3.27-.03,2.15.88,4.31,1.37,6.47h0c-.59.07-1.18.14-1.49.76Z"/>
        <path class="cls-1" d="M108.66,129.35c-1.35,0-2.72-.13-4.06.04-2.88.38-3.56-.92-3.49-3.59.06-2.31.6-3.47,3.12-3.22,1.71.17,3.44.05,5.16.06-2.27.79-3.48,1.9-1.6,4.3.5.64.59,1.6.86,2.41Z"/>
        <path class="cls-5" d="M18.18,187.66c-1.01-1.66-2.82-1.84-4.43-2.11-2.37-.4-3.09-1.56-2.36-3.76.51-.47,1.02-.94,1.53-1.41,2.1-.1,4.35-.79,5.92,1.39.25,1.75.51,3.49.76,5.24-.02.22-.03.44-.02.66-.47,0-.94,0-1.41,0Z"/>
        <path class="cls-9" d="M111.69,183.23c-.03-.75-.06-1.49-.09-2.24.29-4.33.51-4.48,6.73-4.56.61-.18.57-.39.03-.63.01-.27.02-.53.04-.8.95.06,2.37-.34,1.5,1.52-.55,2.71-1.6,5.22-3,7.59-.97.79-1.84.9-2.09-.56-.09-.53.39-1.14.56-1.72.28-.96,1.58-2.22-.06-2.8-1.61-.57-2.04.88-2.16,2.21-.09.96-.61,1.59-1.46,1.99Z"/>
        <path class="cls-6" d="M27.08,127.9c-.02-1.12,0-2.21,1.53-2.31,3.55-.99,4.86.08,4.6,3.99-.21,3.17-1.97,2.8-3.94,2.78-.48-.01-.95-.02-1.43-.04,0,0,.02.04.02.04-.03-1.53,0-3.06-.78-4.46Z"/>
        <path class="cls-4" d="M108.66,129.35c-.28-.81-.36-1.77-.86-2.41-1.89-2.4-.67-3.52,1.6-4.3.74-.29,1.25-.81,1.55-1.54,2.64,1.78.97,4.54,1.53,6.79-.61,1.57-.54,3.48-2.26,4.49-.6-.37-.8-.88-.37-1.46,1.44-1.94-.29-1.42-1.18-1.56Z"/>
        <path class="cls-6" d="M29.31,181.03c0,1.1.04,2.18,1.54,2.27.36,3.14-.64,4.43-3.82,2.86-.77-.38-1.54-.53-2.45-.2-2.66.95-2.82-.78-2.73-2.7,1.68-.02,3.53.25,3.75-2.23,1.24,0,2.48,0,3.72,0Z"/>
        <path class="cls-6" d="M66.77,178.03c2.49-.76,4.98,1.87,7.47,0,1,0,2,0,3,0,.5,0,.99,0,1.49,0,1.99.25,3.99.49,5.98.74-.18,1.59-1.37,1.48-2.49,1.48-4.32,0-8.64-.03-12.96.03-1.61.02-2.69-.36-2.48-2.25Z"/>
        <path class="cls-8" d="M51.03,127.11c-3.53-1.64-4.02-4.93-4.49-8.23,0-.25,0-.5,0-.74,2.5-.57,5.24-1.84,4,3.02-.47,1.83,1.9,3.7,1.23,5.95-.25,0-.49,0-.74,0Z"/>
        <path class="cls-1" d="M101.93,151.06c2.16,1.14,4.4,2.15,2.71,5.34-.91,1.71,1.55,1.1,1.76,2.13-2.13-.43-4.9,1.44-6.14,0-1-1.18,1.18-3.72.98-5.87-.05-.51.45-1.06.69-1.59Z"/>
        <path class="cls-8" d="M73.49,116.63c-.15-.56-.61-1.39-.39-1.64.83-.96,1.71.38,2.62.16.1,1.06.73,1.51,1.74,1.47,2-.07,2.2,1.22,1.94,2.7-.35,1.93-1.8,2.4-3.52,2.41-1.2,0-1.36-.22-1.63-2.39-.12-.95.22-2.01-.76-2.71Z"/>
        <path class="cls-6" d="M113.89,143.63c-1.21,0-2.43.02-3.64.03-.24-2.78,1.28-5.43.6-8.24.53.23,1.33-2.05,1.48-.04.17,2.41.5,4.21,3.95,3.75-1.05,1.61-2.87,1.95-2.35,3.64-.01.29-.02.57-.03.86Z"/>
        <path class="cls-1" d="M18.84,181.76c-1.57-2.18-3.81-1.49-5.92-1.39.24-.42.41-.9.72-1.27,3.07-3.7,3.77-3.65,6.7.4,0,.74,0,1.49,0,2.23-.5,0-1.01.01-1.51.02Z"/>
        <path class="cls-4" d="M88.84,169.26c-.92.43-1.97.59-2.12,1.05-.96,2.92-.9,2.94-3.69,1.74-.33-.14-.63-.33-.96-.51q3.51-3.47,6.78-2.28Z"/>
        <path class="cls-6" d="M50.99,179.5c-4.36,1.41-8.82.48-13.73.8,1.39-1.39,3.25-.16,4.05-1.59,1.23,0,2.47,0,3.7-.01.52,0,1.05-.02,1.57-.03,1.33,1.03,3.42-2.02,4.4.83Z"/>
        <path class="cls-4" d="M87.42,108.73c-.84,1.55-2.21,2.37-3.87,2.54-.94.09-1.86-.66-1.63-1.6.49-2,2.42-1.71,3.91-1.97.69-.12,1.52-.05,1.6,1.03Z"/>
        <path class="cls-8" d="M20.35,181.74c0-.74,0-1.49,0-2.23,1.51,1.33,3.79-.01,5.24,1.51-.21,2.48-2.06,2.22-3.75,2.23-.7-.3-1.22-.78-1.49-1.51Z"/>
        <path class="cls-8" d="M17.42,172.11c2.73,1.3,5.48.24,8.23.12-2.83,2.4-6.35,2.94-8.3,1.27.02-.46.05-.93.07-1.39Z"/>
        <path class="cls-8" d="M102.21,78.88c-.1,3.4-.55,3.97-4.18,5.24.67-2.34.92-2.64,4.18-5.24Z"/>
        <path class="cls-10" d="M27.84,132.32c.48.01.95.02,1.43.04,1.76,1.79,1.18,3.84.67,5.89-2.4-1.37-2.1-3.7-2.1-5.93Z"/>
        <path class="cls-4" d="M86.56,101.42c-.71,1.41-.72,3.4-2.69,3.56-.71.06-.62-.94-.62-1.53,0-2.25,1.91-1.72,3.31-2.03Z"/>
        <path class="cls-4" d="M111.71,91.18c-1.08,1.23-1.46,3.35-3.8,2.93.33-1.3-.88-3.23,1.52-3.67.55.9,1.46.71,2.29.74Z"/>
        <path class="cls-1" d="M111.71,91.18c-.83-.04-1.74.16-2.29-.74,1.23-.27,2.5-3.18,3.68.05-.47.23-.93.46-1.39.69Z"/>
        <path class="cls-4" d="M70.5,124.87c.14-1.18-.51-2.75,1.5-2.99-.14,1.18.51,2.75-1.5,2.99Z"/>
        <path class="cls-9" d="M17.42,172.11c-.02.46-.05.93-.07,1.39-.94.04-1.88.09-2.82.13.4-1.59,1.56-1.72,2.89-1.52Z"/>
        <path class="cls-4" d="M104.93,90.44c-.1.67.22,1.51-.66,1.85-.14.05-.64-.33-.67-.57-.16-.99.57-1.17,1.33-1.28h0Z"/>
        <path class="cls-4" d="M104.92,90.43c.1-.67-.22-1.51.66-1.85.14-.05.64.34.67.57.16.99-.57,1.17-1.33,1.28,0,0,0,0,0,0Z"/>
        <path class="cls-8" d="M46.58,178.68c-.52,0-1.05.02-1.57.03.13-.53.16-1.25.93-1.08.28.06.43.69.64,1.06Z"/>
        <path class="cls-4" d="M78.72,178.03c-.5,0-.99,0-1.49,0,.19-.39.32-1.07.58-1.13.82-.17.8.58.9,1.13Z"/>
        <path class="cls-9" d="M12.86,174.33c.34-.7.93-.75,1.6-.6-.28.88-.62,1.57-1.6.6Z"/>
        <path class="cls-6" d="M31.59,161.52c.24,0,.48.01.73.03,0,.49,0,.99,0,1.48-.62-.3-.75-.86-.76-1.47l.04-.04Z"/>
        <path class="cls-6" d="M33.82,159.29c.1.11.2.21.3.32-.07-.02-.16-.01-.2-.06-.06-.07-.08-.17-.11-.26,0,0,0,0,0,0Z"/>
        <path class="cls-1" d="M118.36,175.81c.54.23.58.45-.03.63.02-.21.03-.42.03-.63Z"/>
        <path class="cls-8" d="M77.24,219.95c.6,2.46,2.05,3.23,4.42,2.25,2.79-1.16,5.43-1.3,8.12.54,1.16.79,2.76.93,4.44,1.45-1.51,1.73-3.39,1.71-5.29,1.74-2.22.04-4.46-.27-6.63.68-1.81.79-1.54,2.16-.98,3.4.57,1.27,1.51,1.19,2.73.4,2.83-1.82,5.74.24,8.63.29,1.8.03.77,2.13-.02,2.85-.99.89-2.3,1.42-2.69,2.87,0,0,0,0,0,0-.26,0-.52-.01-.78-.02-.32-1.42.88-4.32-2.01-3.49-3.05.87-6.27.8-9.21,2-.24-.95.54-2.83-1.01-2.62-2.49.34-1.9-1.2-1.98-2.4-.07-1.01-.44-1.62-1.49-1.71-.19-1.1.51-2.75-1.37-2.88-1.91-.13-1.39,1.5-1.66,2.62-.63,2.6.43,5.18,0,7.76-1.97-.47-5.31,1.44-4.94-3.12.07-.93-1.65-.75-2.35.05-1.05,1.19-.99,2.71-.86,4.2.09,1.12,1.37,2.25-.05,3.35-.25,0-.49,0-.74-.01,0-.99-.01-1.99-.02-2.98-.18-1.26.5-2.69-.75-3.74.18-1.26-.49-2.69.73-3.74,2.57-2.49.36-5.45.8-8.15,0,0-.02-.08-.03-.08.75,0,1.49,0,2.24,0,.75.96,1.49.95,2.25,0,.61-.02,1.18-.15,1.49-.76.25,0,.49-.01.74-.02.48.02.96.04,1.45.05.66.89,1.17,1.78,2.49.58,1.15-1.04,2.72-1.38,4.31-1.35Z"/>
        <path class="cls-8" d="M90.68,236.41c2.83-1.6,3.87.75,4.85,2.47.83,1.46.88,2.94-1.47,3.7-1.74.56-1.97,2.88-1.4,4.12,1.74,3.74.77,6.69-1.67,9.58-.33.4-.19,1.19-.28,1.81-.5,0-1,0-1.5.01.13-1.31-.47-2.4-1-3.52-.74-1.55-.82-2.77,1.24-3.46.98-.32,2.24-1.14,1.57-2.47-.79-1.59-1.79-.37-2.75.08-1.27.59-2.84.91-3.82-.14-1.01-1.09-.58-2.53.4-3.69.6-.71,1.69-1.35.8-2.5-.83-1.08-1.81-.06-2.73-.08-1.78-.04-2.66,1.16-3.95,2.12-3.67,2.73-5.52,5.87-4.48,10.45.01.06-.17.16-.27.24-1.64-.73-2.28-2.27-2.99-3.74-.4-1.39,1.41-2.9-.12-4.19-2.32-1.98-1.15-4.12-.22-6.08.99-2.06,3.08-2.06,4.9-1.51,1.82.55,2.27-.05,2.17-1.67,2.81-.5,5.47.74,8.24.73,1.67,2.08,2.38,1.79,3.76-1.52.23-.24.47-.47.7-.71Z"/>
        <path class="cls-4" d="M77.97,237.91c.1,1.62-.35,2.22-2.17,1.67-1.82-.55-3.91-.55-4.9,1.51-.94,1.96-2.11,4.1.22,6.08,1.52,1.3-.28,2.8.12,4.19-1.72-1.85-3.75-3.49-4.49-6.05-.18-.63-.41-1.42-1.05-1.27-3.75.91-3-1.99-3.43-3.91,1.42-1.09.15-2.23.05-3.35-.13-1.49-.19-3.01.86-4.2.71-.8,2.43-.98,2.35-.05-.37,4.56,2.97,2.65,4.94,3.12,2.61-1.85,1.99-5.01,3.02-7.5,1.05.09,1.43.71,1.49,1.71.08,1.2-.51,2.74,1.98,2.4,1.55-.21.77,1.67,1.01,2.62-.8,1.22-2.9.6-3.43,2.55,1.07.69,2.29.39,3.42.47Z"/>
        <path class="cls-4" d="M61.51,237.14c0,.99.01,1.99.02,2.98-1.3.04-2.61.1-1.98,2.01,1.09,3.31-.7,2.27-2.27,1.5-1.29-.63-2.52-1.59-4.01-.5-2.65-.25-5.3-.5-7.94-.76-1.52-.15-3.36-.45-3.64-2.01-.35-2.01,1.82-1.45,2.94-1.95.55-.25,1.06-.6,1.56-.89-.23-1.63-1.62-.91-2.37-1.38-.92-.58-2.16-.78-2.38-2.12-.12-.72.34-1.1.88-1.47,1.32-.92,2.44-.21,3.39.53,2.04,1.6,3.98,3.33,5.93,5.04,1,.88,1.97,1.79,3.66,1.69-.26-1.95-2.39-2.34-2.7-3.98-.17-.91-1.33-1.81-.35-2.69.78-.71,1.57.28,2.35.54,1.61.55,2.71,2.29,4.69,1.96.78.45,1.08,1.62,2.24,1.49Z"/>
        <path class="cls-5" d="M45.82,32.83c2.99-2.05,6.94-2.05,9.71-4.55,3.24,0,6.47-.02,9.71-.02.76.26,1.51.53,2.27.79,1.63.96,3.45.7,5.21.78,0,.44-.02.88-.03,1.32-2.23.04-4.46.09-6.69.13-6.81-.61-13.44,1.19-20.18,1.54Z"/>
        <path class="cls-3" d="M32.97,99.52c.38.75.8,1.48,1.14,2.24,1.39,3.11-.35,5.72-3.97,5.96.46-2.51-1.38-3.49-3.05-4.58.45-1.45,4.79-.63,2.22-3.83,1.04-1.21,1.95.36,2.95.13.23.02.47.04.7.07Z"/>
        <path class="cls-1" d="M80.96,66.47c-.07.6.08,1.38-.25,1.78-1.75,2.16-1.32,3.4,1.39,3.96.18.04.24.65.35.99-.22.11-.45.21-.67.33-4.76,2.44-6.65,1.51-8.3-4.06,3.3,1.01,5.24-1.34,7.47-3Z"/>
        <path class="cls-9" d="M80.96,66.47c-2.22,1.66-4.17,4.01-7.47,3-2.33-3.45-2.15-3.82,2.97-5.97-.1,1.38-.21,2.76-.32,4.2,1.52-.03,2.01-1.05,2.61-1.94.49-.27.98-.53,1.47-.8.25,0,.5,0,.75.01l.03.03c0,.49-.02.98-.03,1.47Z"/>
        <path class="cls-9" d="M49.55,59.05l-.36-.02s-.36.02-.36.03c-1.13.31-2.27.62-3.4.93,2.56-2.32-.61-5.38,1.1-7.72.9,2.31,3.2,3.99,3.03,6.78Z"/>
        <path class="cls-6" d="M71.92,60.47c-.82,1.16-1.15,3.02-2.83,3.43-1.17.28-1.65-.94-1.54-1.99.19-1.75,1.32-2.95,2.94-3.33.96-.22,1.38.78,1.43,1.89Z"/>
        <path class="cls-9" d="M86.96,76.96c.22-.12.43-.25.65-.36,1.09-.58,1.84-2.73,3.3-1.42,1.03.92-.56,2.27-1.22,2.65-1.19.7-2.46,3.32-4.23.62.5-.5,1-.99,1.51-1.49Z"/>
        <path class="cls-2" d="M39.8,109.15c.12-1.59.09-3.36,2.21-3.64,1.57-.21,1.94,1.38,1.82,2.23-.4,2.66-2.66.91-4.02,1.41,0,0,0,0,0,0Z"/>
        <path class="cls-1" d="M82.2,47.34c.1-1.78.19-3.56.3-5.34.05-.76.17-1.56,1.16-1.5.98.06.92.91,1.04,1.63.35,2.14-1.67,3.33-2.5,5.2Z"/>
        <path class="cls-8" d="M78.75,65.76c-.59.89-1.09,1.92-2.61,1.94.11-1.44.21-2.82.32-4.2.5,0,1.01-.01,1.51-.02h.02c.02.85-.13,1.74.76,2.28Z"/>
        <path class="cls-3" d="M72.69,31.16c0-.44.02-.88.03-1.32,1.01.25,2.03.5,3.04.75-.01.21-.01.42,0,.63-1.02-.02-2.05-.04-3.07-.06Z"/>
        <path class="cls-8" d="M72,85.19c.09-.54.07-1.18.9-1.13.09,0,.23.15.23.23.05.82-.59.8-1.13.9,0,0,0,0,0,0Z"/>
        <path class="cls-8" d="M66.01,71.72c.74.06,1.46.15,1.77.98.02.06-.13.27-.21.27-.89.07-1.22-.6-1.56-1.24,0,0,0,0,0,0Z"/>
        <path class="cls-5" d="M75.77,31.22c-.02-.21-.02-.42,0-.63.82.02,1.71-.17,2.23.75-.74-.04-1.48-.08-2.22-.12Z"/>
        <path class="cls-8" d="M77.97,63.48c.1-.32.19-.65.29-.97.09.06.19.13.28.19-.19.27-.37.53-.56.8,0,0-.02-.01-.02-.01Z"/>
        <path class="cls-6" d="M87.71,35.05c.1.1.21.2.31.3-.06-.02-.15-.02-.19-.06-.06-.07-.08-.17-.11-.25,0,0,0,0,0,0Z"/>
        <path class="cls-8" d="M122.27,236.39c1.9.52,4.54-1.3,5.69,1.21,1.21,2.64-1.35,3.76-2.86,5.34-1.87,1.95-3.38,4.24-5.06,6.37-1.57,1.99-2.77,4.06-2.43,6.76.14,1.11-.04,2.49-1.55,2.44-1.2-.04-2-1.1-2.06-2.29-.13-2.58-.07-5.16-.09-7.74,1.85-4.68,4.68-8.68,8.36-12.09Z"/>
        <path class="cls-8" d="M113.84,215.47c-1.42.97-.15,2.7-1.07,3.81-1.54-.81-2.95-1.99-4.88-1.62q-.6-2.83-2.41-1.41c-1.44,1.13-2.42.96-2.78-.98-.21-1.1-.59-2.12-1.51-2.84.99-1.47,3-1.12,4.14-2.29.65-.67,1.84-1.19,1.46-2.35-.27-.86-1.28-1.12-2.13-1.25-1.42-.22-2.77-.54-4.09-1.6,5.66-1.61,8.68.43,8.85,5.75.09,3.07,1.2,4.47,4.37,3.2.31.31.62.61.93.92-.29.22-.58.44-.86.66Z"/>
        <path class="cls-3" d="M77.24,219.95c-1.59-.03-3.16.3-4.31,1.35-1.32,1.2-1.83.32-2.49-.58q.5-5.24,5.73-5.27c.87,0,1.73-.04,2.6-.06.73.02,1.46.04,2.19.06.3,1.34-.66,2.42-.79,3.67-.97.28-1.95.55-2.92.83Z"/>
        <path class="cls-9" d="M101.18,212.42c.92.73,1.3,1.74,1.51,2.84.37,1.94,1.34,2.11,2.78.98q1.81-1.42,2.41,1.41c-5.5-.31-10.92,1.32-16.43.78.25-.51.49-1.02.74-1.53.5,0,.99-.02,1.49-.03,1.01.04,1.48-.46,1.48-1.45,3.22,1.45,4.94-.12,6-2.99h.02Z"/>
        <path class="cls-1" d="M92.19,216.9c-.25.51-.49,1.02-.74,1.53-3.78.03-7.44,1.85-11.29.69.13-1.25,1.08-2.32.79-3.67,3.82-.09,7.6.17,11.24,1.45Z"/>
        <path class="cls-8" d="M121.42,226.64c2.87-.05,4.03.75,1.6,3.27-.77.79-.92,1.72-.88,2.75-3.04-1.67-2.45-3.77-.72-6.01Z"/>
        <path class="cls-3" d="M123.62,222.15c-.25.02-.51.03-.76.05-1.63-.49-3.4-.68-4.5-2.23.28-.28.56-.57.83-.85.96-.01,1.92-.03,2.88-.04,1.31.62,1.71,1.71,1.55,3.08Z"/>
        <path class="cls-8" d="M124.38,232.64c1.5-1.13,3-1.1,4.5,0-1.5,2.48-3,1.61-4.5,0Z"/>
        <path class="cls-8" d="M121.42,222.94c0,.74-.01,1.49-.02,2.23-.79-.1-1.94.23-2.04-.96-.14-1.54,1.17-1.17,2.07-1.27Z"/>
        <path class="cls-8" d="M113.78,234.14c0,.75-.01,1.5-.02,2.26-.58-.11-1.15-.25-1.23-.97-.1-.92.51-1.17,1.25-1.29Z"/>
        <path class="cls-9" d="M119.2,219.12c-.28.28-.56.57-.83.85-.56-.1-1.43-.03-1.6-.34-.32-.6.38-.93.88-1.2.5,0,1,0,1.5,0,0,.23.02.47.05.7Z"/>
        <path class="cls-8" d="M111.39,230.97c-.09.21-.14.53-.28.59-.15.06-.4-.15-.61-.23.09-.21.13-.53.28-.59.15-.06.4.14.61.23Z"/>
        <path class="cls-8" d="M119.15,218.42c-.5,0-1,0-1.5,0,0-.25,0-.5,0-.75.61.02,1.17.15,1.49.75Z"/>
        <path class="cls-6" d="M90.68,236.41c-.23.24-.47.47-.7.71,0-.24,0-.47,0-.71,0,0,0,0,0,0,.24,0,.47,0,.71,0Z"/>
        <path class="cls-5" d="M61.5,221.48c-7.55.42-14.95-1.19-22.43-1.66-2.34-1.2-5.11-.18-7.44-1.44-.01-.47-.03-.94-.04-1.41,1.75.1,3.22-2.23,4.77-1.18,2.29,1.54,4.69,1.02,7.06,1.28.27,1.36,1.28,1.45,2.38,1.37,5.45.29,10.8,2.34,16.34.85.05.72.09,1.44.14,2.15,0,0,.02.08.02.08-.27-.01-.53-.02-.8-.03Z"/>
        <path class="cls-9" d="M31.59,216.96c.01.47.03.94.04,1.41-.52.02-1.04.04-1.55.06-.94-.53-1.92-.88-3.02-.64-.98.44-2.55-1.68-3.08.7-2.39.02-4.31.41-3.04,3.58.24.61-.36,1.6-.71,1.23-1.31-1.35-4.61-.14-4.36-3.38.86-1.17,2.79-1.22,3.09-2.97,1.42-.84,1.88-2.25,2.21-3.74.72-.02,1.44-.04,2.15-.06,1.62,3.75,5.46,2.67,8.28,3.8Z"/>
        <path class="cls-1" d="M30.07,218.43c.52-.02,1.04-.04,1.55-.06,2.33,1.26,5.1.23,7.44,1.44-.1,1.88-.14,3.72,1.53,5.11.58.48.98,1.32.31,1.95-.77.73-1.31-.16-1.84-.59-1.61-1.29-4.22-1.58-4.01-4.66.08-1.22-1.54-.96-2.47-.93-1.64.06-2.68-.39-2.52-2.27Z"/>
        <path class="cls-4" d="M61.5,229.66c-1.22,1.06-.55,2.48-.73,3.74-.32.6-.88.73-1.5.75-1.37-1.64-.92-3.58-.5-5.28.33-1.36,1.14-2.25.27-3.97-.96-1.89,1.13-1.87,2.45-1.96,0,2.24,0,4.48,0,6.72Z"/>
        <path class="cls-1" d="M61.5,229.66c0-2.24,0-4.48,0-6.72,0-.49,0-.98.01-1.46.27.01.53.02.8.03-.44,2.7,1.76,5.66-.8,8.15Z"/>
        <path class="cls-2" d="M59.27,234.15c.62-.01,1.18-.14,1.5-.75,1.25,1.05.56,2.48.75,3.74-1.16.13-1.46-1.04-2.24-1.49,0-.5,0-1,0-1.5Z"/>
        <path class="cls-5" d="M44.32,33.75c.2-.79.8-.93,1.49-.91-.24.73-.92.73-1.49.91Z"/>
        <path class="cls-2" d="M113.77,213.89c-3.17,1.27-4.28-.14-4.37-3.2-.16-5.33-3.19-7.37-8.85-5.75,1.33,1.06,2.67,1.38,4.09,1.6.85.13,1.86.39,2.13,1.25.37,1.16-.81,1.68-1.46,2.35-1.14,1.17-3.14.82-4.14,2.29,0,0-.02,0-.02,0-.72-.14-1.88-.07-2.08-.47-1.46-2.94-3.09-1.93-5.31-.81-3.31,1.67-6.76-.7-10.24-.36-1.92.19-1.68-2.16-2.46-3.32-.76-1.14-1.82-1.63-3.12-1.74-1.27.02-2.54.05-3.81.07-.22-.02-.44-.06-.65-.12-.28-1.85-1.31-2.89-3.22-2.92-1.25-.02-2.86,1.55-3.68-.15-1.05-2.14,2.77-.74,2.39-2.73,5.13,1.11,10.32,1.56,15.57,1.39.78-.02,1.58.56,2.37.86,1.5,2.59,4.25.44,6.01,1.52,3.21,1.97,3.91.59,3.77-2.4,1.49-.03,2.99-.06,4.48-.09,4.01.27,8.02.54,12.03.82.24,2.72,2.85,2.63,4.44,3.73.63,1.9-.75,3.09-1.6,4.46-2.1.41-3.66,1.17-2.29,3.72Z"/>
        <path class="cls-3" d="M117.66,205.7c-1.59-1.11-4.2-1.01-4.44-3.73,2.28.29,3.3-.66,2.95-2.97,1.18-.18,2.25-.58,3.02-1.55,1.24-.48,2.47-.97,3.71-1.45.7,3.96,3.58,1.05,5.36,1.54.6.17,1.68-1.08,2.47.12.69,1.03.22,1.96-.58,2.65-1.58,1.35-2.58,3.41-4.81,3.99-3.05-2.17-5.07,1.21-7.68,1.42Z"/>
        <path class="cls-6" d="M111.69,183.23c.85-.39,1.37-1.03,1.46-1.99.13-1.34.56-2.78,2.16-2.21,1.64.58.34,1.84.06,2.8-.17.59-.65,1.2-.56,1.72.25,1.47,1.13,1.36,2.09.56,1.45-.1,2.91-.21,4.36-.31,1.97,2.29,4.12-.18,6.16.23-.01.49-.03.97-.04,1.46-3.61.05-1.78,2.83-2.23,4.46-1.92.75-3.82,1.59-5.78,2.22-.99.32-2.35-.16-2.43,1.54-2.11-1.33-2.57,2.28-4.49,1.51,0-.76,0-1.51,0-2.27.8-.28,1.98-.32,2.32-.87,1.21-1.96,5.04-2.75,4.52-4.38-.94-2.97-4.03-.14-6.13-.7-.03-1.43-2.01-2.11-1.48-3.76Z"/>
        <path class="cls-5" d="M121.26,183.8c-1.45.1-2.91.21-4.36.31,1.4-2.37,2.44-4.88,3-7.59,1.99.85,4.4.28,6.52,2.01-2.76.89-2.6,4.27-5.15,5.27Z"/>
        <path class="cls-3" d="M127.39,185.49c.01-.49.03-.97.04-1.46,1.08-.27,2.15-.63,3.25-.77,1.03-.13,2.28-1.44,3.04-.17.72,1.2,1.18,2.97.43,4.23-.76,1.3-2.08,2.42-3.4,3.17-.71.4-1.34-.78-.83-1.45,2.93-3.94-.42-3.27-2.52-3.55Z"/>
        <path class="cls-10" d="M117.66,205.7c2.61-.21,4.63-3.59,7.68-1.42-.08.23-.14.47-.17.72-1.81.11-2.72,1.2-3.12,2.84-1.61-.06-2.27.81-2.29,2.32-1.37.15-2.07.91-2.09,2.29-1.17-.31-1.39-1.3-1.6-2.29.85-1.37,2.23-2.56,1.6-4.46Z"/>
        <path class="cls-5" d="M128.88,213.89c1.44,2.45.43,3.3-2.05,3.01-1.05-.12-2.07-.52-3.1-.8-1.06-1.1-.29-2.23-.1-3.38.41-2.56,1.61-2.12,2.79-.66.7.87,1.18,1.83,2.46,1.82Z"/>
        <path class="cls-5" d="M116.94,193.71c.08-1.7,1.45-1.22,2.43-1.54,1.96-.63,3.86-1.47,5.78-2.22,0,0,.02.02.02.02.05.51.1,1.03.14,1.54-.16.91-.65,1.48-1.63,1.5-2.57.39-1.17,1.81-.77,2.97,0,0,0,0,0,0-1.24.48-2.47.97-3.71,1.45,0-.49-.01-.99-.02-1.48,1.07-1.31.08-1.35-.87-1.4-.46-.29-.91-.57-1.37-.86Z"/>
        <path class="cls-10" d="M125.14,167.52c-.25.47-.49.94-.74,1.42-1.25-.01-2.5-.03-3.75-.04-1.62-.65-3.24-1.31-5.01-2.02,1.7-1.87,4.23.21,5.76-1.51,1.25-.02,2.49-.04,3.74-.06,0,.74,0,1.48,0,2.22Z"/>
        <path class="cls-3" d="M122.05,207.85c.4-1.65,1.32-2.74,3.12-2.84.05,2.14-.9,3.2-3.12,2.84Z"/>
        <path class="cls-3" d="M117.67,212.46c.02-1.38.73-2.14,2.09-2.29,1.06,2.37-1.14,1.76-2.09,2.29Z"/>
        <path class="cls-3" d="M122.91,195.99c-.4-1.16-1.79-2.58.77-2.97-.43.95,1.83,2.59-.77,2.97Z"/>
        <path class="cls-4" d="M120.64,163.76c.04-.7-.08-1.45.56-2.03.9.71-.02,1.41.2,2.04-.26,0-.51-.01-.77-.02Z"/>
        <path class="cls-6" d="M125.31,191.51c-.05-.51-.1-1.03-.14-1.54.48.07,1.07.11,1.13.7.07.63-.51.73-.99.84Z"/>
        <path class="cls-9" d="M80.97,64.97c.27-.18.54-.37.81-.55.06.1.13.19.19.29-.33.1-.65.2-.98.29,0,0-.02-.03-.02-.03Z"/>
        <path class="cls-1" d="M115.34,127.93c.04-1.03.08-2.07.12-3.1,2.6.57,3.32,4.46,6.64,3.75,1.88,2.02,3.23,4.39,4.53,6.79-.91,2.71-4.04.8-5.41,2.76.1.99,1.86,1.06,1.69,2.39-.25.02-.51.04-.76.06-.76,0-1.52,0-2.28,0,.31-3.41-3.37-5.09-3.6-8.27-.31-1.46-.62-2.92-.93-4.38Z"/>
        <path class="cls-1" d="M125.28,116.39c1.72-.44,2.44-.06,2.56.73.19,1.23-1.03,2.7-1.54,2.67-2.3-.13-3.08,1.27-3.98,2.89-.46.83-1.32,1.74-2.43,1.18-1.29-.66-.28-1.68-.15-2.59.57-3.68,3.24-4.66,5.53-4.89Z"/>
        <path class="cls-9" d="M126.63,135.38c-1.3-2.41-2.65-4.78-4.53-6.79.87-.86,1.71-1.82,3.05-.73,1.5,1.75,2.99,3.51,4.49,5.26,0,.74,0,1.48,0,2.22-1,.02-2,.03-3,.05Z"/>
        <path class="cls-1" d="M115.41,107.65c-1.23-2.93,2.59-4.16,2.29-6.77,2.14.28,2.36,1.54,1.47,3.14-.88,1.55-1.62,3.34-3.76,3.64Z"/>
        <path class="cls-10" d="M115.22,113.49c-.7.36-1.41.72-2.11,1.08-.85-.06-1.71-.09-2.28-.89-1.73-2.2,1.68-2.13,1.59-3.61,2.32,0,2.78,1.54,2.8,3.43Z"/>
        <path class="cls-10" d="M62.91,21.48c-2.08.02-3.18,3.74-5.85,1.54-1.26-1.94-.64-4.1-.59-6.13.07-2.75,1.75-3.81,4.49-3.64,2.98.19,2.91,2.18,2.72,4.24-.13,1.34-.51,2.66-.77,4Z"/>
        <path class="cls-5" d="M77.19,11.13c2.92-.24,2.14,1.91,2.3,3.5.25,2.4-1.29,2.55-3.03,2.48-.83,0-1.09-1.64-2.23-.77-.51.02-1.02.03-1.53.05,0,0-.01,0-.01,0,.01-.5.03-1.01.04-1.51.55-.27.59-.53,0-.81,0,0,.01.02.01.02-.26-.26-.51-.51-.77-.77,0,0,.02,0,.02,0-.02-1.06-.61-1.49-1.61-1.49-1.17-.96-2.35-1.91-3.9-3.18,2.94-.88,4.75,1.68,7.03.96.24.25.48.49.72.74.08,1.06.45,1.93,1.62,2.12.97.15,1.25-.51,1.33-1.32Z"/>
        <path class="cls-5" d="M73.45,21.53c1.15-.05,2.18.31,3.17.87,1.65.93,1.49,2.47,1.26,3.93-.26,1.55-1.65,1.11-2.69,1.25-1.66.23-3.15-.49-4.72-.73-1.7-3.29,1.74-3.69,2.99-5.32Z"/>
        <path class="cls-5" d="M63.83,26.2c-.62-.37-.81-.95-.81-1.62,1.96-4.18,5.62-5.07,10.67-5.23-3.84,2.48-5.47,6.52-9.86,6.85Z"/>
        <path class="cls-9" d="M52.47,20.84c-1.23-.01-2.46-.03-3.7-.03-1.19,0-.99-.65-.79-1.45.4-1.6.51-.52,1.05-.03,1.08.97,1.04-.2,1.17-.83.26-1.26-.33-2.64.42-3.85,2.52.63-.23,4.12,2.58,4.52.06.58.12,1.16.18,1.74,0,0-.05-.04-.05-.04-.28-.01-.57-.02-.85-.03Z"/>
        <path class="cls-5" d="M88.46,23.05c-.01.24-.03.48-.05.73-1.86.19-2.34,1.36-2.1,3.01-.19.66.11,1.76-.74,1.86-1.1.13-1.39-1.07-1.32-1.82.24-2.46,1.25-4.27,4.21-3.78Z"/>
        <path class="cls-3" d="M72.74,14.87c-.01.5-.03,1.01-.04,1.51-.94.23-.36,2.29-1.77,1.68-.78-.34-.49-1.53-.34-2.33.18-.94.58-1.83,1.42-2.42,0,0-.02,0-.02,0,.26.26.51.51.77.77,0,0-.01-.02-.01-.02,0,.27,0,.54,0,.81Z"/>
        <path class="cls-3" d="M80.25,29.78c1.12.17,2.38-.42,3.81.97-1.64-.21-2.86.13-3.84-.93,0,0,.03-.04.03-.04Z"/>
        <path class="cls-3" d="M67.51,29.05c-.76-.26-1.51-.53-2.27-.79.63-.77,1.46-.89,2.28-.49.16.08,0,.83-.01,1.28Z"/>
        <path class="cls-3" d="M72.71,16.38c.51-.02,1.02-.03,1.53-.05-.09.57-.08,1.31-.9,1.16-.27-.05-.42-.72-.62-1.11Z"/>
        <path class="cls-5" d="M89.17,22.34c-.24.24-.49.49-.73.73.24-.24.49-.49.73-.73Z"/>
        <path class="cls-5" d="M21.15,213.23c-.33,1.49-.79,2.9-2.21,3.74-1.36-1.65-3.08-1.97-4.99-1.23-.76.3-1,.99-.77,1.86.38,1.4.8,2.68,2.67,2.35-.25,3.24,3.05,2.02,4.36,3.38.35.37.96-.62.71-1.23-1.27-3.17.64-3.56,3.04-3.58,0,0,.09-.06.09-.06-.1,1.77-.98,3.99,2.2,3.91-.75,2.82-3.75,1.32-5.24,2.73-1.98.52-3.96,1.04-5.94,1.57-1.25-.24-2.49-.48-3.74-.72.74-1.94,1.35-3.9,1.5-6.1-1.39.37-1.72,2.52-3.01,1.91-1.47-.69-.19-2.12-.18-3.25.02-1.76-1.45-4.05,2.17-3.93,1.57.06,2.54-3.63,4.79-.87.21.26,1.3.16,1.68-.15.59-.48.09-1.09-.31-1.57-.47-.57-.93-1.15-1.39-1.73,1.86-1.38,2.89,1.5,4.59.9-.01.69-.02,1.38-.03,2.08Z"/>
        <path class="cls-6" d="M11.35,225.93c1.25.24,2.49.48,3.74.72.51.51,1.02,1.01,1.53,1.52-.01.49-.03.98-.04,1.48-1.21.65-.25,2.4-1.52,3.02-.73.04-1.53-.11-2.17.14-4.43,1.77-3.14-2.61-4.06-4.12-1.27-2.07,1.02-2.39,2.52-2.76Z"/>
        <path class="cls-8" d="M15.06,232.66c1.27-.62.31-2.37,1.52-3.02,3.62.99,4.99,4.06,6.47,7.01.44.87.32,1.77-.58,2.27-1.01.56-1.06-.55-1.55-.99-1.67-1.48-3.81-2.17-5.83-3.06,0-.74-.02-1.48-.02-2.22Z"/>
        <path class="cls-8" d="M16.62,228.17c-.51-.51-1.02-1.01-1.53-1.52,1.98-.52,3.96-1.04,5.94-1.57.41,1.33,2.95.24,2.61,1.84-.4,1.89-2.38,1.11-3.74,1.22-1.09.09-2.19.02-3.28.02Z"/>
        <path class="cls-10" d="M6.87,235.71c2.19-2.94,4.95-.71,7.46-.84-.22.27-.45.55-.67.82-.56.04-1.11.07-1.67.11l-5.12-.09Z"/>
        <path class="cls-8" d="M26.26,222.35c-3.19.08-2.3-2.14-2.2-3.91,1.79.71,1.53,2.58,2.2,3.91Z"/>
        <path class="cls-3" d="M11.99,235.8c.56-.04,1.11-.07,1.67-.11-.13.53-.17,1.24-.93,1.1-.3-.06-.5-.65-.74-1Z"/>
        <path class="cls-3" d="M60.33,10.41c-1.07-.21-2.81.29-2.38-1.48.5-2.01,2.66-1.92,4.29-2.24,1.06-.21,2.22.42,2.08,1.55-.3,2.43-2.48,1.86-4,2.17Z"/>
        <path class="cls-6" d="M52.47,20.84c.28.01.57.02.85.03-.31.74-.59.58-.85-.03Z"/>
        <path class="cls-9" d="M121.74,94.29c-.25.53-.72.62-1.21.56-.46-.06-1.1-.1-.93-.8.13-.55.69-.62,1.19-.55.46.06,1.02.08.96.8Z"/>
        <path class="cls-4" d="M130.43,104.05c.26.43.53.69.55.97.03.51-.27.94-.83.76-.2-.07-.38-.58-.35-.87.02-.25.34-.48.64-.85Z"/>
        <path class="cls-3" d="M28.49,149.61c0,.47,0,.94.01,1.41-2.25,1.29-2.28,2.56.02,3.82.97,1.63-1.91,3.82.75,5.21-1.28,1.36-2.31.6-2.75-.64-.47-1.3-1.22-1.67-2.42-1.63-.99-1.35-2.05-2.59-3.05-.06-.74,1.87-2.28,1.52-3.72,1.55.02-1.12.91-2.08-.23-3.41-1.02-1.2-.77-3.17,1.47-2.95,2.66.26,1.48-1.56,1.78-2.61,2.77.46,5.4-.73,8.14-.7Z"/>
        <path class="cls-6" d="M17.33,159.27c1.44-.03,2.97.32,3.72-1.55,1.01-2.53,2.06-1.29,3.05.06-.65,1-1.29,2-2.29,3.55,2.45-.88,3.99.53,5.8.94.68.15,1.7.07,1.31,1.2-.34.99-1.14.45-1.86.31-5.22-1.02-10.45-1.99-15.67-2.97,0-.27,0-.53,0-.8.24-.24.48-.48.72-.72.51,0,1.02-.02,1.53-.02,1.23,0,2.46,0,3.69,0Z"/>
        <path class="cls-6" d="M31.55,161.56c-.1-.11-.2-.22-.29-.33.11.1.22.19.33.29,0,0-.04.04-.04.04Z"/>
        <path class="cls-10" d="M21.19,211.15c-1.71.59-2.73-2.29-4.6-.91-1.69-3.2-5.62-4.59-6.69-8.29.93-.44,1.44-1.17,1.49-2.2,1.15-.19,2.71.4,2.98-1.52.72,0,1.44,0,2.17-.01-.25,1.49-.5,2.97-.75,4.46,0,0-.06,0-.06,0-.58.13-1.23.29-1.05,1.05.22.91,1.02,1.17,1.86,1.27.52.49,1.04.97,1.56,1.46.06.98.52,1.49,1.55,1.38l3.94.05c.12.75.24,1.49.37,2.24-.21.26-.43.52-.64.78-.71.08-1.42.16-2.12.24Z"/>
        <path class="cls-5" d="M17.33,159.27c-1.23,0-2.46,0-3.69,0-.01-.74-.03-1.49-.03-2.23-.02-6.27.44-6.73,6.74-6.73-.3,1.05.88,2.87-1.78,2.6-2.23-.22-2.49,1.75-1.47,2.95,1.14,1.33.24,2.29.23,3.41Z"/>
        <path class="cls-5" d="M18.14,142.13c-.03,1.7-.07,3.41-.1,5.11-.73.02-1.46.09-2.18.04-.92-.07-2.12.42-2.66-.61-.7-1.32.63-1.8,1.32-2.59.41-.47.4-1.32.58-2,1.01.02,2.02.03,3.03.05Z"/>
        <path class="cls-10" d="M18.14,142.13c-1.01-.02-2.02-.03-3.03-.05-.17-2.22-.33-4.44,1.95-6.22.7,1.42-.11,3.97,2.54,3.94.05,1.11-.51,1.85-1.47,2.33Z"/>
        <path class="cls-8" d="M12.11,159.3c-.24.24-.48.48-.72.72.24-.24.48-.48.72-.72Z"/>
        <path class="cls-10" d="M77.19,11.13c-.08.81-.35,1.47-1.33,1.32-1.17-.18-1.54-1.06-1.62-2.12,1.07-.05,2.05.23,2.95.8Z"/>
        <path class="cls-8" d="M115.3,153.18c.13-.91.71-1.32,1.58-1.39.75.02,1.5.04,2.25.05.1,1.41.85,2.15,2.26,2.21,1.33,2.63,3.35.25,5.05.61,1.79.38,1.65-.92.65-1.97-.59-.61-1.3-1.1-1.96-1.64.25-.99.5-1.99.76-2.98,1.62-.75,4.63-.41,2.99-3.76,0-.63.16-1.19.77-1.52.74,0,1.47,0,2.21,0,1.77,2.57-1.5,3.9-1.48,6.04-.32.58-.86.75-1.48.76-.34.08-.9-.18-.86.47,0,.1.55.17.85.25.04.81-.13,1.7.74,2.24,0,.75,0,1.5,0,2.26-1.93,2.82-4.93,2.87-7.89,3-1.61.07-3.22.02-4.83.03-.25,0-.49-.01-.74-.01-.78-1.13-1.96-.66-3-.74.02-.31.04-.61.06-.92.62-.2.8-.72.94-1.27.93-.2,1.27-.79,1.13-1.7Z"/>
        <path class="cls-5" d="M125.14,167.52c0-.74,0-1.48,0-2.22,2.86-1.31,5.36-.89,7.41,1.59.14,1.28-.21,2.1-1.71,2.19-1,.07-1.64.35-2.07-1.11-.69-2.34-2.41-.2-3.64-.46Z"/>
        <path class="cls-1" d="M129.63,154.8c0-.75,0-1.5,0-2.26,1.5.06,1.5,1.15,1.51,2.23-.51,0-1.01.02-1.52.03Z"/>
        <path class="cls-9" d="M20.35,181.74c.27.73.79,1.21,1.49,1.51-.09,1.92.07,3.65,2.73,2.7.91-.32,1.68-.18,2.45.2,3.18,1.57,4.18.28,3.82-2.86,2.6-1.46,5.39-1.78,8.3-1.44.02,1.58,1.16,1.37,2.18,1.36.28.23.56.46.83.68-.35,2.31-2.75,1.26-3.85,2.35-3.83-.9-5.15,2.17-7.63,4.68,3.45-.18,4.73,1.38,4.68,4.08-.03,1.69,1.02,1.69,2.2,1.6.26,1.15-.69,3,.67,3.33,1.69.41,1.76-1.61,2.3-2.77.05-.11.03-.24.04-.37.74-.02,1.48-.03,2.22-.05.05.99.61,1.44,1.57,1.46-.42,2.1-4.39.6-3.79,3.73-3.63-.53-7.32-.81-10.57-2.8.84-.28,2.14.03,2.15-1.37.01-1.15-1.15-1.07-1.88-1.32-.77-.27-1.62-.3-2.44-.44-1.32-1.17-.08-2.29.24-3.26.65-1.95-.32-2.05-1.73-1.99-.25-.26-.49-.53-.74-.79-1.15-1.12-2.17-2.4-3.76-2.98-.75,0-1.5,0-2.25-.01-.25-1.75-.51-3.49-.76-5.24.5,0,1.01-.01,1.51-.02Z"/>
        <path class="cls-1" d="M23.95,210.13c-.12-.75-.24-1.49-.37-2.24.17-.48.34-.97.51-1.45-.04-2.79.26-5.61-.81-8.3.53-2.46,2.02-.32,3-.63.02.22.04.43.06.65-1.04,1.77-.32,2.42,1.44,3.23,2.55,1.18,5.98,1.45,6.77,5.06-1.25-.25-2.5-.49-3.75-.74-1.63.48-3.57-2.03-4.97.44-.96,1.69,1.59,1.52,1.64,2.84-1.14.4-2.27.8-3.4,1.19l-.13-.06Z"/>
        <path class="cls-5" d="M16.54,198.23c-.72,0-1.44,0-2.17.01.57-2.32-1.6-3.46-2.26-5.26,2.84-1.05.96-3.42,1.44-5.13,3.27.31,4.49,2.54,3.49,5.17-.7,1.85.78,3.63-.51,5.21Z"/>
        <path class="cls-3" d="M24.1,206.44c-.17.49-.34.97-.51,1.45-1.31-.02-2.62-.04-3.94-.05-.11-.91-.62-1.38-1.55-1.38-.52-.49-1.04-.97-1.56-1.46-.27-.77-.54-1.55-.81-2.32,0,0,.06,0,.06,0,1.11.01,2.24.17,3.32,0,2.21-.35,4.14-.96,2.88,2.7-.72,2.07,1.29.88,2.12,1.05Z"/>
        <path class="cls-5" d="M26.29,197.52c-.98.3-2.47-1.84-3,.63-1.13,0-1.87-1.18-1.2-1.54,2.46-1.31,2.15-4.43,4.26-5.84,1.41-.07,2.38.04,1.73,1.99-.32.97-1.56,2.1-.24,3.26-.52.5-1.04,1-1.55,1.5Z"/>
        <path class="cls-10" d="M13.56,187.85c-.48,1.71,1.4,4.08-1.44,5.13-2.07-1.49-2.11-3.73-2.2-5.95,1.35-.3,2.42.61,3.65.82Z"/>
        <path class="cls-1" d="M21.85,187.01c1.58.57,2.61,1.85,3.76,2.98-1.85-.24-4.87,1.01-3.76-2.98Z"/>
        <path class="cls-1" d="M18.18,187.66c.47,0,.94,0,1.41,0-.26.61-.76.9-1.38.73-.52-.14-.3-.47-.03-.73Z"/>
        <path class="cls-3" d="M31.55,112.87c-.71,3.37-1.16,6.87-5.33,7.98-1.35.36-1.51,1.41-.97,2.67.59,1.38.86,2.83.31,4.32-.49.01-1.04.19-1.45.01-1.58-.69-1.47,2.77-2.55,1.37-1.64-2.11-4.94-2.19-5.74-5.09,1.65.5,2.32-1.45,3.75-1.5-.36.9-1.06,1.9.51,2.37,1.25.37,1.04-.79,1.23-1.36,1.12-3.42,3.25-6.12,5.82-8.54,1.3-.05,1.99-.71,2.19-2,.43-2.89,1.44-.63,2.23-.23Z"/>
        <path class="cls-1" d="M27.13,115.1c-2.57,2.42-4.7,5.12-5.82,8.54-.18.56.02,1.73-1.23,1.36-1.57-.46-.87-1.46-.51-2.37.97-3.23,3.38-6.38.48-9.81-.37-.44-.23-1.04.28-1.19.37-.1,1.1.1,1.25.38.4.8.68,1.6,1.76,1.62.07.48.07,1.03.7,1.12.12.02.43-.29.41-.41-.09-.64-.65-.62-1.12-.7.24-2.03,1.83-1.37,3.01-1.51.26.99.53,1.98.79,2.97Z"/>
        <path class="cls-5" d="M27.13,115.1c-.26-.99-.53-1.98-.79-2.97-1.1-1.07-.31-2.53-.76-3.74.14-1.86,1.78-3.28,1.52-5.25,1.67,1.09,3.51,2.07,3.05,4.58.73,1.22,1.45,2.45,2.18,3.67,0,.26,0,.53,0,.79-.26.23-.51.46-.77.69-.8-.39-1.8-2.66-2.23.23-.19,1.29-.89,1.95-2.19,2Z"/>
        <path class="cls-10" d="M27.1,103.15c.26,1.97-1.38,3.39-1.52,5.25-1.08-.37-1.38-1.24-1.45-2.26-.7-1.79-1.94-3.21-3.45-4.89,2.6-.49,4.54-2.36,7.21-2,.48.02.95.05,1.43.07,2.56,3.19-1.77,2.38-2.22,3.83Z"/>
        <path class="cls-10" d="M16.74,113.57c.66,2,.62,3.84,1.23,5.64.24.69.59,2.28-.98,2.23-1.12-.04-2.18-.82-1.84-2.26.45-1.89,1.05-3.74,1.58-5.61Z"/>
        <path class="cls-3" d="M15.84,124.14c-.5,0-1-.01-1.49-.02.51-.78,1.01-.78,1.49.02Z"/>
        <path class="cls-3" d="M125.18,222.99c-.27-.27-.55-.54-.82-.8,2.14-.71,4.32-1.76,6.05.77-1.74.01-3.48.02-5.23.04Z"/>
        <path class="cls-3" d="M130.43,228.91c-1.38-.44-1.74-2.62-4-1.87-1.14.37-1.25-1.49-1.29-2.61,2.22,0,4.45,0,6.67.03,1.08.01,1.56.67,1.46,1.69-.1,1.03-.58,1.3-1.39.51-.1-.57-.09-1.31-.93-1.12-.25.06-.34.76-.51,1.17,0,.74,0,1.47,0,2.21Z"/>
        <path class="cls-6" d="M130.44,226.71c.17-.41.26-1.11.51-1.17.83-.19.83.56.93,1.12-.48.02-.96.03-1.44.05Z"/>
        <path class="cls-10" d="M27.08,127.9c.78,1.4.75,2.93.78,4.46-.83-.39-1.07-1.61-2.21-1.56-.02-.98-.05-1.97-.07-2.95.5.02,1,.03,1.5.05Z"/>
        <path class="cls-8" d="M126.63,135.38c1-.02,2-.03,3-.05.81.85,1.8,1.61,1.49,3.01-.98.41-1.49,1.15-1.5,2.22-2.24,0-4.47-.02-6.71-.03.17-1.33-1.59-1.4-1.69-2.39,1.38-1.96,4.5-.04,5.41-2.76Z"/>
        <path class="cls-3" d="M122.91,140.53c2.24.01,4.47.02,6.71.03,1.51-.02,3.18-.2,2.25,2.24-.74,0-1.47,0-2.21,0-2.38-1.48-5.02-.38-7.51-.72,0-.5,0-.99,0-1.49l.76-.06Z"/>
        <path class="cls-3" d="M131.12,138.34c.31-1.4-.68-2.16-1.49-3.01,0-.74,0-1.48,0-2.22,1.26-1.07,2.81-1.21,2.79.63-.02,1.44,2.15,4.01-1.3,4.6Z"/>
        <path class="cls-1" d="M128.9,150.3c-.3-.08-.85-.15-.85-.25-.03-.64.52-.38.86-.47,0,.24-.01.48-.01.71Z"/>
        <path class="cls-1" d="M116.94,193.71c.46.29.91.57,1.37.85.03.47.06.94.08,1.41-1.35.56-2.54,1.23-2.22,3.02.34,2.31-.68,3.27-2.95,2.97-4.01-.27-8.02-.54-12.03-.82,1.05-1.85.92-3.06-1.62-2.91-4.2.23-8.4.47-12.6.71-.7-4,4.03-2.25,4.96-4.81-1.15-.54-1.86-1.88-3.4-1.89-.02-1.37-.38-2.34-2.08-2.23-1.57.1-3.14,0-4.72,0-1.14-.96-2.13-2.18-3.81-2.2-.98-.08-1.39-.68-1.44-1.6,1.79.22,3.58.56,5.39.09,2.27,1.12,4.54,2.26,7.17,2.21.41,2.25,2.15,2.29,3.87,2.35.5,2.15,1.08,4.19,4.02,3.63.91-.17,2.65.22,2.43-.93-.35-1.82.48-4.55-2.56-5.11-.04-1.09-.14-2.13-1.57-2.25-.41-1.29-.52-2.7-1.54-3.74,0-.24,0-.47,0-.71.62-.01,1.18-.13,1.51-.74.49,0,.99,0,1.48.01,3.48.5,6.19,4.04,10.21,2.6.17-.06,3.22-.02.63,1.66-.19.12-.26.83-.1,1,4.18,4.36-.89,4.98-2.85,6.55-.84.67-2.08.7-1.77,2.19.29,1.36,1.3,1.63,2.52,1.7,1.94.1,3.78.08,5.75.91,1.97.83,1-1.5,1.38-2.41,1.93.78,2.38-2.83,4.49-1.51ZM104.85,190.4c.51-.59,1.95-.08,2.16-1.41.11-.74-.41-1.2-1.11-1.1-.97.14-2.02.39-2.3,1.51-.18.73.28,1.13,1.25,1Z"/>
        <path class="cls-9" d="M93.69,182.45c1.02,1.04,1.13,2.45,1.54,3.74-2.07.77-4.14,1.54-6.21,2.31-2.63.05-4.9-1.08-7.17-2.21.02-1.29.04-2.58.06-3.87,3.92.59,7.85-.79,11.77.03Z"/>
        <path class="cls-10" d="M81.92,182.43c-.02,1.29-.04,2.58-.06,3.87-1.8.47-3.59.12-5.38-.09-1.72-1.04-2.98.48-4.47.78-.76-.24-1.52-.48-2.28-.72.27-1.54,1.06-3,.69-4.64,3.89-.56,7.71-.18,11.5.8Z"/>
        <path class="cls-5" d="M70.42,181.63c.37,1.63-.42,3.1-.69,4.64-2.47,0-4.94.02-7.41.03l-.08-.08c-.05-1.93-1.98-1.41-2.9-2.21-.95-.82-2.78-.33-3.11-2.08,1.73-.09,3.47-.18,5.2-.27,1.78,1.62,3.55,4.09,5.36.03,1.21-.02,2.42-.05,3.64-.07Z"/>
        <path class="cls-10" d="M66.78,181.7c-1.81,4.06-3.58,1.59-5.36-.03,1.79.01,3.57.02,5.36.03Z"/>
        <path class="cls-10" d="M103.31,98.65c.28-.51.56-1.02.84-1.53,2.1-.25,4.4.92,6.29-.98.52-.52,1.14-.16,1.56.36.36.44.19.89-.02,1.36-1.62,3.55-4.54,4.25-7.62,1.79-.38-.3-.7-.66-1.05-.99Z"/>
        <path class="cls-1" d="M110.83,113.67c.56.8,1.43.83,2.28.89.21,1.46,2.1,3.55-1.36,3.62-.88-.95-1.81-1.33-3.24-1.22-1.64.13-2.32-.96-1.35-2.57.81-2.33,2.42-.64,3.68-.72Z"/>
        <path class="cls-5" d="M107.14,106.87c.24-.73.48-1.47.72-2.2,1.59-.81,2.71-.69,2.17,1.45-.34,1.35-.85,2.79-2.69,3.3-.07-.9-.14-1.73-.2-2.55Z"/>
        <path class="cls-1" d="M113.16,94.18l-.18.31c.06-.11.12-.21.17-.32,0,0,0,0,0,0Z"/>
        <path class="cls-3" d="M113.16,187c2.1.56,5.19-2.26,6.13.7.52,1.63-3.32,2.42-4.52,4.38-.34.56-1.52.59-2.32.87.21-1.99-2.29-4.3.71-5.96Z"/>
        <path class="cls-8" d="M96.68,181.02c-.49,0-.99,0-1.48-.01-.3-.29-.34-.59.13-.68.59-.11,1.07.13,1.35.69Z"/>
        <path class="cls-6" d="M113.17,157.07c1.04.08,2.22-.39,3,.74-1.15.35-2.57,1.81-3-.74Z"/>
        <path class="cls-3" d="M32.32,112.19c0-.26,0-.53,0-.79.83.35,1.41-1.32,2.1-.41.33.43.2,1.7-.2,2.07-.98.92-1.43-.18-1.91-.87Z"/>
        <path class="cls-1" d="M122.15,142.08c2.49.34,5.12-.76,7.51.72-.61.33-.76.89-.77,1.52-1.03.23-2.15.29-3.08.74-1.98.97-2.11,2.08.09,3.02-.25.99-.5,1.99-.76,2.98-2.62-.72-2.87,1.52-3.74,2.99-1.42-.06-2.16-.81-2.26-2.21,1.19-.75,2.21-1.55.82-3-.02-.75-.05-1.51-.07-2.26.99-2.56-.86-2.14-2.28-2.18,0,0-.14-.02-.15-.02.22-1.02.15-2.24,1.68-2.31,1.01,0,2.01,0,3.02.01Z"/>
        <path class="cls-5" d="M115.34,127.93c.31,1.46.62,2.92.93,4.38-.86.3-1.13,1.9-2.33,1.29-1.25-.63-.77-1.88-.61-2.92.11-.71.38-1.39.57-2.09.31-.58.84-.71,1.44-.67Z"/>
        <path class="cls-6" d="M122.15,142.08c-1.01,0-2.01,0-3.02-.01.04-.6.15-1.16.74-1.48.76,0,1.52,0,2.28,0,0,.5,0,.99,0,1.49Z"/>
        <path class="cls-1" d="M113.89,143.63c.01-.29.02-.57.03-.86,1.17-.01,2.19.2,2.43,1.61-.82-.25-1.64-.5-2.46-.75Z"/>
        <path class="cls-3" d="M51.78,184.67c1.47.75,4.88-.85,3.75,3.08-3.17-.1-2.76,2.7-2.69,4.21.07,1.8,1.75-.11,2.66.27-.04.72-.08,1.45-.12,2.17-1.27.94-3.06,1.26-3.6,3.06-.75,0-1.5,0-2.26.01.18-2.29.03-4.36-3.04-4.43-.73-.03-1.47-.06-2.2-.09.01-.75.02-1.5.04-2.25,4.21.12,5.58-3.27,7.46-6.03Z"/>
        <path class="cls-5" d="M51.78,184.67c-1.88,2.76-3.24,6.16-7.46,6.03-1.54-2.35-3.66-2.29-5.97-1.43-.5-.87-1-.11-1.51,0l-.06-.05c-.63-1.57,1.61-1.67,1.52-2.97,1.1-1.08,3.5-.03,3.85-2.35,3.34-1.35,6.45.14,9.63.77Z"/>
        <path class="cls-5" d="M55.5,192.23c-.92-.39-2.59,1.52-2.66-.27-.06-1.51-.47-4.31,2.69-4.21,1.09,2.33,2.31,3.39,3.77.28.61-1.3,1.74-1.56,2.94-1.81,0,0,.08.07.08.07.69,2,.65,3.54-1.98,3.99-1.04.18-2.09.78-2.55,1.93-.76,0-1.52,0-2.28.01Z"/>
        <path class="cls-5" d="M41.32,183.22c-1.02,0-2.16.22-2.18-1.36.74.04,1.49.07,2.23.11-.02.42-.03.84-.05,1.25Z"/>
        <path class="cls-6" d="M119.95,148.84c1.39,1.46.37,2.25-.82,3-.75-.02-1.5-.04-2.25-.05.76-1.26.69-3.39,3.07-2.95Z"/>
        <path class="cls-6" d="M117.6,144.4c1.42.04,3.27-.38,2.28,2.18-.95-.53-2.18-.77-2.28-2.18Z"/>
        <path class="cls-6" d="M115.3,153.18c.14.91-.2,1.5-1.13,1.7-.31-1.02.21-1.49,1.13-1.7Z"/>
        <path class="cls-9" d="M28.52,154.84c-2.3-1.26-2.27-2.54-.02-3.82,0,1.27.01,2.55.02,3.82Z"/>
        <path class="cls-6" d="M23.31,210.91c.22-.26.43-.52.64-.78,0,0,.13.05.13.05,1.71,1.93,3.22,4.4,6.39,2.28.25-.17.78-.14,1.08.01,3.29,1.66,4.27-.67,5.24-3.01,1.52-.24,3.03-.48,4.55-.72.55,3.88,3.98,1.89,5.93,2.92,0,1.3,1.06,1.99,1.89,2.56,3.71,2.54,5.52,2.43,7.14-.19.27-.27.54-.53.81-.8,5.13,1.14,9.62-2.15,14.59-2.13.14,0,.27-.64.41-.98.71.04,1.42.09,2.14.13-1.98,3.23-.69,4.16,2.6,3.68.12-.02.25,0,.37,0,.96.01,1.46.5,1.53,1.45-.87.02-1.73.05-2.6.06q-5.22.03-5.73,5.27c-.48-.02-.97-.04-1.45-.05-.26-.44-.5-.41-.74.02-.32.61-.88.73-1.49.76-.75-.25-1.5-.51-2.25-.76-.46-1.02-1.21-1.57-2.38-1.4-5.54,1.49-10.89-.56-16.34-.85-.13-1.61-1.24-1.52-2.38-1.37-2.37-.26-4.77.27-7.06-1.28-1.55-1.04-3.02,1.28-4.77,1.18-2.82-1.13-6.66-.05-8.28-3.8,0-.75,0-1.5,0-2.25Z"/>
        <path class="cls-6" d="M77.97,237.91c-1.14-.08-2.35.22-3.42-.47.53-1.95,2.63-1.33,3.43-2.55,2.94-1.2,6.16-1.13,9.21-2,2.89-.83,1.69,2.07,2.01,3.49-.99.75-1.98,1.51-2.98,2.26-2.77,0-5.43-1.23-8.24-.73Z"/>
        <path class="cls-6" d="M73.49,228.16c-1.04,2.49-.41,5.64-3.02,7.5.43-2.58-.64-5.15,0-7.76.27-1.12-.24-2.76,1.66-2.62,1.88.13,1.17,1.79,1.37,2.88Z"/>
        <path class="cls-4" d="M86.22,238.64c.99-.75,1.98-1.51,2.98-2.26.26,0,.52.01.78.02,0,.24,0,.48,0,.71-1.38,3.31-2.09,3.6-3.76,1.52Z"/>
        <path class="cls-9" d="M62.14,219.28c1.16-.16,1.91.38,2.38,1.4,0,.25,0,.5,0,.75-.75,0-1.49,0-2.24,0-.05-.72-.09-1.44-.14-2.15Z"/>
        <path class="cls-1" d="M64.51,221.44c0-.25,0-.5,0-.75.75.25,1.5.51,2.25.76-.75.94-1.5.95-2.25,0Z"/>
        <path class="cls-9" d="M68.25,220.68c.24-.42.48-.45.74-.02-.25,0-.49.01-.74.02Z"/>
        <path class="cls-8" d="M78.76,215.39c-.07-.95-.57-1.44-1.53-1.45-.18-1.51.6-3.18-.72-4.51,0-.48-.01-.95-.02-1.43.95-.06,1.47-.53,1.43-1.52l.02-.75c1.31.1,2.36.6,3.12,1.73.78,1.17.53,3.51,2.46,3.32,3.48-.33,6.92,2.03,10.24.36,2.22-1.12,3.85-2.13,5.31.81.2.4,1.36.32,2.08.47-1.06,2.88-2.78,4.45-6,2.99-.93.04-1.42.52-1.48,1.45-.5,0-.99.02-1.49.03-3.64-1.28-7.42-1.54-11.24-1.45-.73-.02-1.46-.04-2.19-.06Z"/>
        <path class="cls-1" d="M93.68,216.88c.05-.93.55-1.41,1.48-1.45,0,.99-.47,1.49-1.48,1.45Z"/>
        <path class="cls-9" d="M43.41,217.06c1.14-.15,2.25-.24,2.38,1.37-1.1.07-2.11,0-2.38-1.37Z"/>
        <path class="cls-10" d="M15.86,219.93c-1.87.33-2.29-.95-2.67-2.35-.24-.86,0-1.56.77-1.86,1.91-.74,3.63-.42,4.99,1.23-.29,1.75-2.23,1.8-3.09,2.97Z"/>
        <path class="cls-3" d="M23.31,210.91c0,.75,0,1.5,0,2.25-.72.02-1.44.04-2.15.06.01-.69.02-1.39.04-2.08.71-.08,1.42-.16,2.12-.24Z"/>
        <path class="cls-3" d="M86.97,198.95c4.2-.24,8.4-.47,12.6-.71,2.54-.14,2.67,1.06,1.62,2.91-1.49.03-2.99.06-4.48.09-3.32-.42-6.49.96-9.78.88-.79-.3-1.59-.88-2.37-.86-5.25.17-10.44-.28-15.57-1.39,0-.29-.01-.59-.02-.88.94-.08,1.52-.53,1.54-1.53,2.19.24,4.38.49,6.57.73,1.34,1.33,3.28.61,4.8,1.39.4.2,1.39-.02,1.62-.36.49-.76-.26-1.32-.79-1.8-1.35-1.21-3.42-.28-4.75-1.56,1.1-2.68,3.47-.8,5.14-1.43.33,1.95,1.87,1.47,3.13,1.56-.35,1.14-3.16,2.89.74,2.96Z"/>
        <path class="cls-8" d="M68.96,199c0,.29.01.58.02.88.38,2-3.43.59-2.39,2.73.83,1.7,2.43.13,3.68.15,1.91.03,2.94,1.07,3.22,2.92-2.4.17-5.85.22-6.98-.58-4.49-3.17-8.97-.32-13.31-1.08-1.79-.36-3.59-.69-5.37-1.1-.76-.18-1.99-.06-1.81-1.31.11-.76,1.04-.93,1.79-1.04,2.3-.34,4.6-.68,6.9-1.02,2.03-.6,4.09-.35,6.14-.15,2.24.1,4.57,1.72,6.68-.37.47-.01.95-.02,1.42-.04Z"/>
        <path class="cls-5" d="M53.21,204.03c4.34.76,8.81-2.09,13.31,1.08,1.13.8,4.57.74,6.98.58.21.06.43.1.65.12.03.45.05.91.08,1.36-6-.04-12-.09-18.01-.13.59-2.6-2.42-1.59-3.01-3.01Z"/>
        <path class="cls-8" d="M86.93,202.13c3.29.08,6.45-1.3,9.78-.88.14,2.99-.57,4.37-3.77,2.4-1.76-1.08-4.51,1.07-6.01-1.52Z"/>
        <path class="cls-6" d="M74.23,207.17c-.03-.46-.05-.91-.08-1.36,1.27-.02,2.54-.05,3.81-.07,0,.25-.02.5-.02.75-1,.02-1.44.56-1.44,1.52,0,.48.01.95.02,1.43-.25.02-.5.03-.75.04.1-1.17-1.08-1.49-1.54-2.29Z"/>
        <path class="cls-6" d="M116.18,199c-.33-1.79.87-2.46,2.22-3.02.26,0,.52,0,.79,0,0,.49.01.99.02,1.48-.78.97-1.84,1.37-3.02,1.55Z"/>
        <path class="cls-3" d="M119.18,195.97c-.26,0-.52,0-.79,0-.03-.47-.06-.94-.08-1.41.95.05,1.94.09.87,1.4Z"/>
        <path class="cls-6" d="M72.74,14.87c0-.27,0-.54,0-.81.58.27.55.54,0,.81Z"/>
        <path class="cls-6" d="M72.76,14.09c-.26-.26-.51-.51-.77-.77.26.26.51.51.77.77Z"/>
        <path class="cls-5" d="M15.73,202.68c.27.77.54,1.55.81,2.32-.84-.1-1.65-.36-1.86-1.27-.18-.76.47-.92,1.05-1.05Z"/>
        <path class="cls-5" d="M18.1,206.46c.93,0,1.44.47,1.55,1.38-1.03.12-1.49-.4-1.55-1.38Z"/>
        <path class="cls-6" d="M121.4,154.06c.87-1.47,1.12-3.71,3.74-2.99.66.54,1.37,1.03,1.96,1.64,1,1.04,1.14,2.35-.65,1.97-1.69-.36-3.72,2.02-5.05-.61Z"/>
        <path class="cls-6" d="M125.89,148.08c-2.2-.94-2.07-2.05-.09-3.02.93-.45,2.05-.51,3.08-.74,1.64,3.35-1.37,3-2.99,3.76Z"/>
        <path class="cls-8" d="M74.23,207.17c.46.8,1.64,1.12,1.54,2.29-.33.6-.89.75-1.5.8-.71-.04-1.42-.09-2.14-.13-5.32-1.48-10.62-.57-15.92.16-1.21-.15-2.43-.29-3.64-.43-1.32-2.22-3.5-.7-5.22-1.18-.75-.04-1.5-.09-2.25-.13-.85-1.61-1.89-2.72-3.79-1.34-2-.25-4-.49-6-.74-.25,0-.49,0-.74-.01-.8-3.61-4.22-3.88-6.77-5.06-1.75-.81-2.48-1.47-1.44-3.23,1.07.89,2.42.71,3.65.99,3.24,1.99,6.94,2.27,10.57,2.8,4.75,3.14,10.12,4.36,15.65,5.09,6,.04,12,.09,18.01.13Z"/>
        <path class="cls-10" d="M56.22,207.04c-5.53-.73-10.9-1.95-15.65-5.09-.6-3.13,3.36-1.64,3.79-3.73,1.79.23,3.47-.32,5.17-.74.75,0,1.5,0,2.26-.01,1.43.06,3.18-.33,2.93,2.09-2.3.34-4.6.69-6.9,1.03-.75.11-1.68.28-1.79,1.04-.18,1.24,1.05,1.13,1.81,1.31,1.78.41,3.58.74,5.37,1.1.58,1.42,3.6.42,3.01,3.01Z"/>
        <path class="cls-10" d="M36.84,189.27c.5-.1,1.01-.86,1.51,0-.68,1.93-.95,3.91-.79,5.95,0,.46,0,.93,0,1.39-1.18.08-2.23.08-2.2-1.6.05-2.71-1.23-4.26-4.68-4.08,2.47-2.51,3.79-5.58,7.63-4.68.09,1.3-2.15,1.4-1.52,2.97-.9.75-.97,1.68-.87,2.95,1.3-.93.75-2,.93-2.89Z"/>
        <path class="cls-5" d="M49.53,197.48c-1.7.43-3.38.97-5.17.74-.96-.02-1.52-.47-1.57-1.46,1.21-1.26,4.38-.57,3.7-3.71,3.07.07,3.22,2.14,3.04,4.43Z"/>
        <path class="cls-10" d="M46.49,193.05c.68,3.15-2.49,2.45-3.7,3.71-.74.02-1.48.03-2.22.05-.02-1.04-.55-1.57-1.58-1.59,1.07-2.39,3.83-.83,5.3-2.26.73.03,1.47.06,2.2.09Z"/>
        <path class="cls-10" d="M30.01,199.15c-1.23-.27-2.59-.1-3.65-.99-.02-.22-.04-.43-.06-.65.52-.5,1.04-1,1.55-1.5.82.14,1.67.17,2.44.44.72.25,1.89.17,1.88,1.32-.01,1.4-1.31,1.1-2.15,1.37Z"/>
        <path class="cls-5" d="M38.99,195.22c1.03.03,1.56.55,1.58,1.59-.01.12,0,.26-.04.37-.54,1.16-.61,3.19-2.3,2.77-1.36-.33-.41-2.19-.67-3.33,0-.46,0-.93,0-1.39.47,0,.95,0,1.42,0Z"/>
        <path class="cls-9" d="M36.8,209.47c-.97,2.35-1.95,4.67-5.24,3.01-.3-.15-.83-.18-1.08-.01-3.18,2.12-4.68-.35-6.39-2.28,1.13-.4,2.26-.79,3.4-1.19-.05-1.32-2.6-1.15-1.64-2.84,1.4-2.46,3.34.05,4.97-.44.53,1.41-1.87,3.41.81,4.35,2.56.89,2.95-1.24,3.7-2.83,1.55.04,1.47,1.15,1.48,2.22Z"/>
        <path class="cls-6" d="M35.32,207.25c-.74,1.59-1.14,3.72-3.7,2.83-2.68-.94-.28-2.94-.81-4.35,1.25.25,2.5.49,3.75.74.25,0,.49,0,.74.01,0,.26.01.52.02.78Z"/>
        <path class="cls-9" d="M23.34,113.64c.48.08,1.03.06,1.12.7.02.12-.29.43-.41.41-.63-.09-.63-.64-.7-1.12,0,0,0,0,0,0Z"/>
        <path class="cls-5" d="M68.96,199c-.47.01-.95.02-1.42.04-.01-1.57-.31-2.77-2.25-3.12-2.03-.36-3.69-1.63-5.27-2.94.57-1.14,1.43-1.67,2.72-1.24,1.28.43,2.69,1.14,3.72-.19,1.05-1.35-1.76-1.5-1.21-2.89,1.35-.31,2.55-.36,3.22,1.07,1.26,2.7,2.02.8,2.92-.28.61-.74.62-1.58.61-2.45,1.48-.3,2.75-1.83,4.47-.78.05.92.46,1.52,1.44,1.6.64,2.35-4.26,2.15-2.34,5.09-.35.11-.7.24-1.06.31-.96.19-1.92.33-2.88.52-1.11.22-2.72-.65-3.19.99-.45,1.55,1.43,1.77,2.07,2.75-.03,1-.6,1.45-1.54,1.53Z"/>
        <path class="cls-9" d="M70.51,197.46c-.63-.98-2.52-1.2-2.07-2.75.47-1.64,2.08-.77,3.19-.99.96-.19,1.92-.33,2.88-.52.36-.07.71-.21,1.06-.31-1.92-2.94,2.98-2.74,2.34-5.09,1.68.01,2.67,1.23,3.81,2.2-.6,1.03-.41,1.79.74,2.24,1.16.45,1.38,1.19.63,2.19-1.67.63-4.04-1.25-5.14,1.43-.82.58-.73,1.5-.88,2.33-2.19-.24-4.38-.49-6.57-.73Z"/>
        <path class="cls-5" d="M83.1,194.43c.74-1.01.53-1.74-.63-2.19-1.15-.45-1.34-1.21-.74-2.24,1.57.01,3.15.11,4.72,0,1.71-.11,2.06.86,2.08,2.23-2.52.18-.72,3-2.3,3.75-1.26-.09-2.8.39-3.13-1.56Z"/>
        <path class="cls-9" d="M96.8,188.45c3.04.56,2.21,3.29,2.56,5.11.22,1.14-1.52.75-2.43.93-2.95.56-3.53-1.49-4.02-3.64,1.88.14,3.23-.57,3.9-2.4Z"/>
        <path class="cls-5" d="M96.8,188.45c-.67,1.83-2.02,2.55-3.9,2.4-1.73-.06-3.47-.1-3.87-2.35,2.07-.77,4.13-1.54,6.2-2.31,1.43.12,1.53,1.17,1.57,2.25Z"/>
        <path class="cls-6" d="M86.22,195.99c1.58-.75-.22-3.57,2.3-3.75,1.54.01,2.25,1.35,3.4,1.89-.92,2.57-5.65.82-4.96,4.81-3.9-.07-1.09-1.82-.74-2.96Z"/>
        <path class="cls-3" d="M104.85,190.4c-.97.13-1.43-.27-1.25-1,.28-1.13,1.33-1.38,2.3-1.51.7-.1,1.22.36,1.11,1.1-.21,1.33-1.64.82-2.16,1.41Z"/>
        <path class="cls-9" d="M72,186.99c0,.87,0,1.72-.61,2.45-.9,1.08-1.66,2.98-2.92.28-.67-1.43-1.87-1.38-3.22-1.07-.55,1.39,2.26,1.55,1.21,2.89-1.03,1.32-2.45.62-3.72.19-1.29-.44-2.14.09-2.72,1.24-.79-.11-1.67.06-2.23-.75.46-1.15,1.51-1.75,2.55-1.93,2.63-.46,2.67-2,1.98-3.99,2.47,0,4.94-.02,7.41-.03.76.24,1.52.48,2.28.72Z"/>
        <path class="cls-10" d="M57.78,192.22c.56.81,1.44.64,2.23.75,1.58,1.31,3.25,2.58,5.27,2.94,1.95.35,2.24,1.55,2.25,3.12-2.12,2.09-4.44.47-6.68.37-.06-1.28-.62-1.96-2.02-1.95-2.02.02-3.02-1.22-3.46-3.05.04-.72.08-1.45.12-2.17.76,0,1.52,0,2.28-.01Z"/>
        <path class="cls-9" d="M38.99,195.22c-.47,0-.95,0-1.42,0-.17-2.04.11-4.02.79-5.95,2.31-.85,4.43-.92,5.98,1.43-.01.75-.02,1.5-.04,2.25-1.48,1.43-4.23-.12-5.3,2.26Z"/>
        <path class="cls-5" d="M55.38,194.41c.44,1.83,1.44,3.07,3.46,3.05,1.4-.02,1.96.67,2.02,1.95-2.05-.21-4.1-.45-6.14.14.25-2.42-1.5-2.03-2.94-2.09.54-1.8,2.33-2.12,3.6-3.06Z"/>
        <path class="cls-3" d="M56.2,210.29c5.3-.73,10.6-1.64,15.92-.16-.14.34-.27.98-.41.98-4.97-.02-9.46,3.27-14.59,2.13-.31-.98-.61-1.97-.92-2.95Z"/>
        <path class="cls-3" d="M56.31,214.04c-1.62,2.62-3.44,2.73-7.14.19-.83-.57-1.88-1.25-1.89-2.56,0,0-.01.02-.01.02,1.59.28,3-.53,4.5-.75-.22,3.57,3.39,1.53,4.54,3.1Z"/>
        <path class="cls-10" d="M56.31,214.04c-1.15-1.57-4.76.47-4.54-3.1.27-.36.53-.72.8-1.09,1.21.15,2.43.29,3.64.44.31.98.61,1.97.92,2.95-.27.27-.54.53-.81.8Z"/>
        <path class="cls-5" d="M45.1,208.54c.75.04,1.5.09,2.25.13-.03,1.01-.06,2.01-.08,3.02,0,0,.01-.02.01-.02-1.95-1.03-5.39.96-5.93-2.92,0,0,0,0,0,0,1.25-.07,2.5-.13,3.76-.2Z"/>
        <path class="cls-9" d="M74.26,210.26c.62-.05,1.18-.2,1.5-.8.25,0,.5-.02.75-.04,1.32,1.33.54,3,.72,4.51-.12,0-.25-.02-.37,0-3.29.48-4.58-.45-2.6-3.68Z"/>
        <path class="cls-1" d="M35.32,207.25c0-.26-.01-.52-.02-.78,2,.25,4,.49,6,.74.01.51.02,1.02.04,1.54,0,0,0,0,0,0-1.52.24-3.03.48-4.55.72,0-1.06.07-2.18-1.48-2.22Z"/>
        <path class="cls-9" d="M76.5,208c0-.96.44-1.51,1.44-1.52.04.99-.49,1.46-1.44,1.52Z"/>
        <path class="cls-10" d="M77.08,198.19c.14-.83.06-1.75.88-2.33,1.34,1.28,3.4.35,4.75,1.56.53.48,1.28,1.04.79,1.8-.22.35-1.22.57-1.62.36-1.53-.78-3.47-.06-4.8-1.39Z"/>
        <path class="cls-6" d="M47.27,211.69c.03-1.01.05-2.01.08-3.02,1.72.49,3.89-1.03,5.22,1.18-.27.36-.53.72-.8,1.08-1.5.23-2.91,1.03-4.5.75Z"/>
        <path class="cls-6" d="M41.34,208.74c-.01-.51-.02-1.02-.04-1.54,1.91-1.38,2.94-.28,3.79,1.34-1.25.07-2.5.13-3.76.2Z"/>
        <path class="cls-5" d="M36.84,189.27c-.18.89.37,1.96-.93,2.89-.1-1.27-.04-2.2.87-2.95,0,0,.06.05.06.05Z"/>
      </g>
    </g>
  </g>
</svg>