<?xml version="1.0" encoding="UTF-8"?>
<svg id="Warstwa_2" data-name="Warstwa 2" xmlns="http://www.w3.org/2000/svg" xmlns:xlink="http://www.w3.org/1999/xlink" viewBox="0 0 187.83 263">
  <defs>
    <style>
      .cls-1 {
        fill: #9f6222;
      }

      .cls-1, .cls-2, .cls-3, .cls-4, .cls-5, .cls-6, .cls-7, .cls-8, .cls-9, .cls-10 {
        stroke-width: 0px;
      }

      .cls-2 {
        fill: none;
      }

      .cls-3 {
        fill: #91571e;
      }

      .cls-4 {
        fill: #8e5118;
      }

      .cls-5 {
        fill: #a36527;
      }

      .cls-6 {
        fill: #2b1f1a;
      }

      .cls-11 {
        clip-path: url(#clippath);
      }

      .cls-7 {
        fill: #5f381d;
      }

      .cls-8 {
        fill: #995b1e;
      }

      .cls-9 {
        fill: #7d5a4c;
      }

      .cls-10 {
        fill: #7c4317;
      }
    </style>
    <clipPath id="clippath">
      <rect class="cls-2" width="187.83" height="263"/>
    </clipPath>
  </defs>
  <g id="Warstwa_1-2" data-name="Warstwa 1">
    <g class="cls-11">
      <g>
        <path class="cls-6" d="M41.46,442.28c2.55-3.43,6.86-4.1,10.12-6.4,2.14.41,4.29.82,6.43,1.23.94,1.68,2.28,1.96,4.08,1.41,1.73-.53,1.87-1.75,1.84-3.18q3.98-1.51,2.62-4.83c1.42-.49,2,1.51,3.32,1.11,2.61.05,6.08,1.34,5.25-3.61.76.06,1.52.12,2.28.18,1.43,2.6,3.98,3.59,6.61,4.25.87.22,2.19,1.45,2.95-.05.5-1,.37-2.29-.56-3.12-1.43-1.27-1.53-2.6-.89-4.34.41-1.13.58-2.76-.33-3.59-3.08-2.82-2.04-6.01-.95-9.08,2.8-7.91-.21-15.97.97-24.14,1.49-10.28,1.19-21.06-.19-31.62-.28-2.11-.65-4.23-.33-6.56.82-6.03.38-12.24-1.3-18.03-1.08-3.73-1.71-7.42-2.19-11.2-1.12-8.82,1.17-17.55.39-26.48-.68-7.76.08-15.75.46-23.61.19-3.87-1.19-7.89.69-11.66,1.54-.24,3.1-.32,4.65-.65,2.09-.43,5.27-1.45,5.99,2.7.33,1.88,2.07,3.31,4.07,4,.08,1.2.16,2.4.24,3.61l-.07.07c-.54-.76-1.09-1.52-1.89-2.64-2.1,9.88-1.88,19.58-2.53,29.17-1.1,16.02-.47,31.96,1.07,48,1.58,16.43,1,33.06-.62,49.59-.67,6.81-1.24,13.67-1.12,20.5.13,6.96,2.33,13.68,3.91,20.45.43,1.84.98,3.27-1.68,3.76-1.34.25-2,1.31-.84,2.74,1.02,1.26.73,2.81.62,4.29-6.75,1.76-13.75,2.33-20.58,2.14-10.92-.3-22.04-.18-32.49-4.38Z"/>
        <path class="cls-5" d="M37.77,236.42c.66-8.93,2.6-17.69,3.16-26.64,1.02-16.26,2-32.53,3.72-48.72,1.2-11.28.21-22.64,1.99-33.88.66-4.19,2.7-7.65,4.56-11.27,1.93-.95,3.31,1.96,5.28.76,1,.5,1.76,1.25,2.25,2.25-.9,1.28.6,1.96.74,2.98-1.06.03-2.16.02-2.24,1.51-1.9,0-2.95.56-1.53,2.52.63.86,1.57,1.51,1.53,2.74-.58.32-.73.85-.69,1.47-.62.31-.76.88-.8,1.5-1.36.56-1.58,1.69-1.48,2.98,1.65,6.43,5.24,12.45,3.79,19.54-.51,2.51,1.31,5.05.48,7.7-1.62,5.16.6,10.29.21,15.45-.9,1.42-2.73,2.32-2.44,4.4-1.77.44-1.19,1.91-1.35,3.06-2.81.51-3.82,3.87-6.79,4.25-.89.11-2.09.7-1.87,1.95.21,1.2.73,2.49,2.19,2.71,3.78.56,2.99,2.87,2.05,5.23-.59,1.49-1.95,3.26-1.28,4.52,2.53,4.76.81,9.55.37,14.23-.4,4.26-.45,8.62-1.93,12.79-.52,1.47-2.63,2.58-2.07,3.73,2.26,4.7-1.66,2.59-3.12,2.97-1.62.42-3.16-.42-4.73-.73Z"/>
        <path class="cls-7" d="M140.33,227.89c-.41.75-.66,1.93-1.27,2.18-3.53,1.43-2.71,4.28-2.69,7.04.18,24.13,3.25,48.15,2.37,72.31-.04,1.11-.13,2.23-.2,3.34-1.91.99-1.54,2.04-.08,3.12.11,1.09.22,2.19.33,3.28-5.42-1.87-5.57-6.27-5.25-10.9.01-1.24.03-2.48.04-3.71,1.62-1.78.46-4.06,1.1-6.08,2.3-7.33,1.22-14.92-.11-22.1-1.8-9.75-2.7-19.37-1.78-29.22.32-3.41,0-6.72-4.79-7.34,1.67-.81,4,.49,4.05-2.25.05-2.49.45-5.9-2.04-6.64-4.01-1.18-8.37-.81-12.13,1.75-1.27-1.23-2.58-.95-3.9-.1-3.44.03-6.87.06-10.31.09,6.85-1.63,13.84-2.25,20.81-2.98,7.4-.77,8.93-2.06,10.1-7.91.29-1.44.01-1.91-1.4-1.57-2.98.71-2.88-1.42-2.43-3.05.54-1.97.04-3.4-.64-5.24-2.69-7.31-4.65-14.8-2.65-22.7.04-.73.07-1.46.11-2.19.8-1.79,1.67-3.56,2.36-5.39.55-1.44,2.37-3.3.97-4.36-1.6-1.22-2.38,1.42-3.61,2.23-.77.5-1.45,1-2.37.49-.95-.53-.81-1.28-.63-2.24.37-1.99,1.1-3.82,2.1-5.54,3.89-6.69,1.85-13.78,1.37-20.75-.05-.69-.42-1.77-.89-1.94-2.99-1.03-1.89-3.52-2.32-5.56-.87-4.09,1.15-8.32-.75-12.31.31-2.51-.5-5.13.8-7.54,3.44.22,6.84.54,9.01,3.78.47.01.94.02,1.41.04.02.72.03,1.44.05,2.16-.76.6-.63,1.48-.7,2.29-1.78,3.56-3.75,7.07-3.47,11.26.88,8.45,0,17.03,1.98,25.39.02,3.24.03,6.48.05,9.72.1,1.29-.55,2.73.72,3.8-.31,2.94,1.39,5.47,1.6,8.38.39,5.3.82,10.71,2.2,15.81,1.64,6.1,2.68,12.26,3.7,18.45-1.2.63.02,1.96-.78,2.71Z"/>
        <path class="cls-5" d="M56.42,109.71c.82-1.18,1.87-2.11,3.14-2.78,2.15-.09,4.15-1.18,6.47.17,2.81,1.64,5.35,3.16,7.21,6.11,3.49,5.53,4.43,5.46,9.22,1.07.28-.25.53-.53.82-.76,1.78-1.41,3.15-1.62,4.35.86.64,1.32.42,3.38,2.5,3.8.53,1.74,1.07,3.47,1.6,5.21-1.45.18-2.64-.56-3.87-1.13-1.03-.47-2.01-.41-2.54.69-.49,1.03.41,1.58,1.04,2.13,1.76,1.53,3.92,1.33,6.03,1.32,0,1.24,0,2.49,0,3.73-.85.56-.68,1.43-.69,2.26-1.61,2.35.25,4.58.25,6.88-.03.9-.05,1.81-.08,2.71-.56,3.04-1.13,6.07-1.69,9.11-3.61,2.41-5.15,6.08-5.95,10.11-.55,2.78-1.84,3.99-4.67,2.9-1.04-.4-2.11-.76-3.11-1.25-.89-.44-1.85-1.04-1.67-2.21.16-1.02,1.09-1.27,2.01-1.28,2.2-.03,2.34-.74.98-2.37-2.82-3.37-4.57-7.23-5.71-11.53-.75-2.83-1.73-5.85-4.32-7.82-.04-.29-.08-.58-.12-.87l.12-2.12c1.73-.39,1.98-1.15.58-2.33.03-.46.06-.91.09-1.37.03-.76.07-1.53.1-2.29,2.4-.76,1.99-3.08,2.05-4.63.11-2.53-1.92-4.24-3.92-5.51-1.31-.83-2.64-.35-3.39,1.16l-1.49.74c-1.84-3.53-6.11-5.86-5.31-10.7Z"/>
        <path class="cls-8" d="M56.44,300.78c-.18-.08-.23-.21-.15-.39.06-.35.12-.71.18-1.06,0-.82.15-1.69-.68-2.27-.08-.78.04-1.61-.6-2.24-.1-2.31-.2-4.61-.3-6.92-.03-.38-.05-.77-.08-1.15-.9-9.09-.1-18.27-1.43-27.33-.02-2.81-.03-5.61-.05-8.42.34-3.6.68-7.2,1.02-10.8.71-.25,1.43-.5,2.14-.75-.23,3.32.16,6.63-.55,9.99-.48,2.26.57,4.58,3.03,5.85,1.12.58,2.66.72,3.17,2.24-5.61,2.81-5.83,3.43-3.8,9.57.5,1.52,1.16,2.99,1.16,4.66,0,2.41-.64,5.89,2.39,6.24,3.08.36,3.77-3.19,4.25-5.63.79-4,3.14-6.27,6.81-7.5.25,0,.49,0,.74,0,0,.99,0,1.98,0,2.97-3.04.54-2.4,2.85-2.01,4.69,1.64,7.67,1.31,15.23-1.74,22.44-1.66,3.93-1.96,7.37.83,10.76.89,1.08.74,2.35.69,3.57-.12,2.63-.05,5.27.89,7.72.94,2.44.45,4.63-.47,6.84-.52,1.26-1.31,2.42-1.16,3.88-.69,2.74-2.94,5.49.01,8.22-.08,1.76.78,3.28,1.27,4.9.18.6.23,1.24-.43,1.59-.64.34-1.11.02-1.56-.5-.46-.54-1.03-.99-1.56-1.48-.75-1.49-1.49-2.99-2.24-4.48.12-1.39-.4-2.63-.76-3.94-1.63-6.03-4.58-11.59-5.56-17.92-.69-4.47-.62-9.36-3.44-13.36Z"/>
        <path class="cls-9" d="M84.84,88.79c.63-5.34-2.92-8.8-5.69-12.61.06-.1.18-.28.17-.29-.15-.14-.33-.25-.5-.36,0,0,.05.1.05.09.23-1.24.02-2.45-.17-3.69-.89-5.62-1.84-11.24-1.98-16.95-.15-6.31,2.58-10.43,8.41-11.31,8.42-1.26,13.21-1.01,16.33,5.64-.88,2.36-2.81,2.4-4.85,2.19-3.27-.35-5.07,1.43-6.22,4.23-1.03,2.49-1.47,5.18-.75,7.66.66,2.3.31,3.67-2.27,4.44,2.41,1.16,4.32,2.07,6.57,3.15-3.21,2.16-6.92.85-9.88,2.72,2.24.76,4.57-.31,6.6.8-.51,1.48-2.49.79-2.65,2.45,1.7,0,3.32-.03,4.93.01.83.02,1.82-.27,2.27.79.28.65.02,1.22-.45,1.67-.75.71-1.54.62-2.37.11-3.26-2.01-4.2-.23-4.4,2.72-.06.47-.13.94-.19,1.41-.79.18-1.55.49-.91,1.44.83,1.24,1.91,2.22,3.47,2.55,5.05,1.08,8.4,5.98,13.88,6.19.58.02,1.14.84,1.71,1.28-.03.68-.06,1.36-.08,2.04-.85.56-.76,1.42-.73,2.26,0,0,0,0,0,0-.24.26-.48.51-.72.77,0,0,0,0,0,0-.25.28-.49.55-.74.83-.26.46-.51.91-.77,1.37-1.86,1.55-3.18,3.38-3.1,5.94-.51,1.11-.93,2.27-1.54,3.32-.52.91-.64,2.4-2,2.39-1.16,0-1.2-1.39-1.74-2.17-2.51-3.63-3.93-7.99-7.38-10.99-.95-2.67-.62-5.68-2.19-8.19-.04-1.31-.08-2.62-.12-3.94ZM85.51,54.23c-2.49-2.4-3.64-2.51-5.92-.62,1.96.2,3.84.4,5.92.62Z"/>
        <path class="cls-6" d="M101.47,49.31c-3.12-6.65-7.91-6.9-16.33-5.64-5.83.87-8.57,5-8.41,11.31.14,5.7,1.09,11.33,1.98,16.95.2,1.24.41,2.44.17,3.69-5.28-10.3-8.44-20.87-3.96-32.36,3.09-7.94,9.3-11.79,17.42-12.32,8.05-.53,14.17,3.3,18.16,10.21,2.74,4.74,4.55,9.92,5.71,15.29.91,4.22-.51,8.21-2.07,11.92-1.53,3.63-3.12,7.26-4.65,10.9-1.04-1.61-1.39-3.38-1.39-5.29-.01-7.79-2.4-15.08-4.85-22.35-.31-.93-.77-1.85-1.77-2.3Z"/>
        <path class="cls-10" d="M145.01,106.04c3.45,3.64,6.73,7.44,8.74,12.07,1.36,3.12,1.93,6.5,2.14,9.95.78,12.95.4,25.9.2,38.85-.32,20.95.79,41.81,4.72,62.47.96,5.02.7,10.2.54,15.33-1.17-1.28-2.44-1.06-3.39.1-.78.93-1.53,1.48-2.73,1.27-.36-.81.01-1.06.69-1.62,1.98-1.67,1.96-4.16,1.44-6.4-.54-2.33-2.77-1.37-4.35-1.61,2.85-1.42,3.92-3.64,3.86-6.88-.12-6.17-2.11-11.87-3.98-17.6-2.1-6.45-3.03-13.29-2.38-19.72.4-4.02-.31-6.43-2.47-9.13-.54-.67-1.37-1.46.05-2,2.88-1.1,2.87-3.56,2.69-5.91-.94-12.48-1.07-25-.49-37.47.27-5.68-.16-11.28-.38-16.88-.29-7.31-2.36-11.11-7.33-10.16-.56-2.27,2.93-2.42,2.45-4.65Z"/>
        <path class="cls-7" d="M101.47,49.31c1,.45,1.46,1.36,1.77,2.3,2.45,7.27,4.84,14.56,4.85,22.35,0,1.91.36,3.67,1.39,5.29-.41,3.13-.47,5.69,3.45,7.21,2.26.88,3.78,3.7,5.63,5.64-.44,3.46-.89,6.91-1.33,10.37-.51,1.28-1.03,2.55-1.54,3.83-.53-.4-1-1.02-.75-1.58,1.35-2.97-.17-6.1.59-9.11.2-.79.6-2.27-.79-2.46-1.17-.16-1.49,1.19-1.77,2.07-.29.92-.3,1.95-.32,2.93-.03,1.11-.25,1.98-1.58,2.04-.26-1.98-.51-3.96-.77-5.93.19-1.55,1.5-3.03.37-4.81-1.22.9-1.56,2.05-1.82,3.24-.97.82-1.93,1.64-2.9,2.45-.57-.45-1.12-1.26-1.71-1.29-5.48-.21-8.83-5.11-13.88-6.19-1.57-.34-2.64-1.31-3.47-2.55-.64-.95.12-1.26.91-1.44.81,1.66,2.32,1.64,3.84,1.58,1.25-.05,2.88,0,2.69-1.7-.16-1.45-1.54-2.21-3.1-2-1.09.15-2.17.47-3.25.72.21-2.95,1.14-4.73,4.4-2.72.84.52,1.63.61,2.37-.11.48-.45.73-1.03.45-1.67-.45-1.06-1.44-.78-2.27-.79-1.61-.04-3.23-.01-4.93-.01.16-1.66,2.14-.98,2.65-2.45-2.03-1.11-4.36-.05-6.6-.8,2.96-1.87,6.66-.56,9.88-2.72-2.25-1.08-4.15-1.99-6.57-3.15,2.58-.77,2.93-2.14,2.27-4.44-.71-2.49-.28-5.17.75-7.66,1.16-2.8,2.95-4.58,6.22-4.23,2.04.22,3.97.17,4.85-2.19ZM92.44,62.56c.34,1.82.4,3.36.95,4.69.46,1.12,1.65,1.91,2.88,2.11,1.5.24,1.07-1.29,1.56-2,2.5-3.58,2.99-7.3,1.39-11.39-.44-1.13.31-3.37-1.79-2.79-1.95.53-5.07,1.61-4.75,3.67.35,2.2.68,4.07-.25,5.7Z"/>
        <path class="cls-9" d="M53.38,259.42c1.33,9.07.53,18.24,1.44,27.33-3.73-1.49-2.96-4.63-2.73-7.55.15-1.93,1.27-3.97-.98-6.05-1.23,4.87-4.79,9.18-.54,13.95.16,3.41.55,6.67,4.63,7.72.64.63.52,1.46.6,2.24-.05.84-.17,1.7.68,2.27-.06.35-.12.71-.18,1.06-7.69-.07-9.32-7.01-12.44-11.7-5.13-7.74-6.85-16.45-5.08-25.9.83-4.43-.59-9.14.35-13.7,2.31-.02,4.71.96,6.89-.61.54,1.99,2.41,1.71,3.82,2.22-.24,3.48,1.61,6.12,3.54,8.72Z"/>
        <path class="cls-9" d="M147.1,294.97c-.84,1.46-1.4,3.4-3.78,2.13-.04-2.47,1.54-4.34,2.36-6.5.68-1.79,2.61-3.38,1.22-5.63,2.69-1.82,1.87-4.64,1.8-7.1-.08-2.58-1.11-5-2.22-7.47-2.35,1.57-1.45,3.61-1.16,5.37.37,2.27.46,4.43-.51,6.55-.44.97-1.13,1.69-2.22,1.72-1.23.03-1.73-.97-1.93-1.93-1.72-8.42-3.41-16.82,2.86-24.37,2.41-2.9,3.86-6.33,4.02-10.2,1.99-.88,4.12-.58,6.2-.72-1.84,5.57.78,11.65-2,17.12-.36.71.36,1.38.5,2.06.74,3.43,2.83,6.91,1.92,10.26-1.14,4.19-1.32,8.67-3.83,12.63-1.17,1.83-3.13,3.56-3.23,6.07Z"/>
        <path class="cls-3" d="M117.23,102.46c.44-3.46.89-6.91,1.33-10.37,8.57,2.51,16.67,6.02,23.77,11.55.56.44,1.01,1.03,1.51,1.55.39.31.78.61,1.16.92,0,0,0-.07,0-.07.48,2.23-3,2.38-2.45,4.65,1.66,3.02,2.61,5.77-2,7.14-.92.27-1.22,1.52.21,1.74,4.62.7,7.14,2.78,5.58,7.83-.03.11.02.25.06.37,1.19,4.03.53,8.12.4,12.2-.03,1.03-.42,1.31-1.25,1.41,0-3.6,0-7.19-.01-10.79,0-1.04-.16-2.04-1.27-2.45-1.12-.42-1.6.22-1.72,1.25-.5,0-.99,0-1.49,0-1.55-2.48-3.19-4.54-6.07-1.46-.47-.01-.94-.02-1.41-.04-.12-2.49.4-4.34,3.56-3.44.61.17,1.24.39,1.49-.46.17-.57-.19-1.17-.64-1.15-4.42.18-3.44-2.02-1.94-4.37.99-1.54-1.2-2.03-.95-3.28.1-.12.19-.23.29-.35-.12.1-.24.19-.35.29-1.65.06-1.39,3.31-3.72,2.21-.03-1.7,1.74-2.3,2.25-3.68,1.7-1.17,3.39-2.35,4.96-3.44-.43-1.75-2.02.43-2.36-1.12.44-1.54,4.54-2.3,1.55-4.41-3.83-2.71-7.77-5.24-11.52-8.08-2.9-2.2-5.39-.91-6.09,2.72-.33,1.69-.69,3.22-2.88,3.12ZM137.85,112.46c.02.08,0,.2.06.24.07.05.19.04.29.06l-.08-.4c-.09.04-.18.07-.26.11Z"/>
        <path class="cls-7" d="M147.1,294.97c.1-2.51,2.06-4.24,3.23-6.07,2.52-3.96,2.69-8.43,3.83-12.63.91-3.35-1.18-6.84-1.92-10.26-.15-.68-.86-1.35-.5-2.06,2.77-5.47.15-11.56,2-17.12.49-.25.98-.51,1.47-.76,1.21.21,1.96-.33,2.73-1.27.96-1.16,2.23-1.38,3.39-.1-.59.78-2.02.68-1.81,2.35.75,5.89-.42,11.83.66,17.78,1.63,8.99-2.9,16.32-7.4,23.47-1.54,2.45-2.72,5.37-5.69,6.67Z"/>
        <path class="cls-3" d="M46.02,248.48c-2.18,1.57-4.58.59-6.89.61-3.15-.35-2.45-2.41-1.96-4.39,1.43,2.75,4.44,3.93,7.31,2.81,1.72-.67,1.97-2.42,2.66-3.84.26-.53-.07-1.09-.58-1.12-2.76-.14-4.16-3.28-7.05-3.11-1.24.07-1.71-.79-1.89-1.86.05-.39.1-.77.15-1.16,1.57.31,3.11,1.15,4.73.73,1.46-.38,5.37,1.73,3.12-2.97-.55-1.15,1.55-2.26,2.07-3.73,1.48-4.16,1.53-8.53,1.93-12.79.44-4.68,2.16-9.47-.37-14.23-.67-1.26.69-3.03,1.28-4.52.94-2.36,1.72-4.66-2.05-5.23-1.46-.22-1.98-1.51-2.19-2.71-.22-1.25.98-1.83,1.87-1.95,2.97-.38,3.98-3.74,6.79-4.25,1.56-.21,3.02-1.06,4.66-.68-2.4,4.2-8,4-11.08,7.82,3.53,1.12,5.97-.73,8.51-2.05.93-.48,1.9-.96,2.73-.16.93.91.15,1.98-.4,2.67-1.6,2.04-3.38,3.93-5.09,5.88-2.32,1.22-2.82,2.97-1.51,5.24.64,1.11,1.01,2.34.63,3.58-1.6,5.23-1.9,10.7-2.59,16.04-.59,4.57-4.2,9.54.41,14.05.12.12.01.48.01.73-1.75,1.21-3.76,1.69-6.97,1.77q5.84,1.13,5.47,6.97c-.17,2.73-2.36,1.43-3.69,1.84Z"/>
        <path class="cls-10" d="M87.14,100.91c3.45,3,4.88,7.36,7.38,10.99.54.78.58,2.16,1.74,2.17,1.36,0,1.48-1.49,2-2.39.61-1.05,1.03-2.21,1.54-3.32.94.56,1.93.94,3.05.78-.25.76-.49,1.51-.74,2.27-1.49,2.98-3.63,5.77-2.3,9.5.35.97.21,2.27-1.33,2.55-.53-.83.77-2.88-1.64-2.46-.74-1.99-1.69-3.84-3.47-5.61-.33,2.4,1.66,3.78,1.29,5.73-.51.76-1.02,1.52-1.54,2.28-.47,0-.95-.01-1.42-.02-.53-1.74-1.07-3.47-1.6-5.21.2-1.29.86-2.47.03-3.9-1.27-2.22-3.35-3.87-4.02-6.57-.34-1.38-1.52-.55-2.17.37-1.32,1.86-3.06,3.13-5.2,3.98-2.53,1.01-3.88.25-3.49-2.5.34-2.38.55-4.81,1.99-7.01,1.32-2.02,2.78-4.17,2.39-6.87,1.53-2.02,2.07-4.76,4.45-6.16-.6,2-1.05,4.06-1.83,5.99-1.24,3.07-2.72,6.05-2.42,9.5-.31,1.39-.61,2.77-.92,4.16-.63-.01-1.17.15-1.48.76-.09.04-.18.07-.25.13-.04.03-.03.12-.04.19.09-.11.18-.22.27-.34.65.05,1.21-.08,1.51-.73,1.28.05,2.37-.25,2.93-1.55,1.09-.36,1.58-1.12,1.48-2.26,1.45-.77,2.84-1.58,2.25-3.62.34-.6.9-.79,1.54-.84ZM92.78,114.56c.34-2.53-.41-3.95-2.41-5.36-.1,2.4.76,3.77,2.41,5.36Z"/>
        <path class="cls-8" d="M79.66,95.69c.39,2.7-1.07,4.85-2.39,6.87-1.44,2.2-1.65,4.63-1.99,7.01-.4,2.75.95,3.51,3.49,2.5,2.14-.85,3.88-2.13,5.2-3.98.65-.91,1.83-1.75,2.17-.37.67,2.7,2.74,4.35,4.02,6.57.82,1.43.17,2.61-.03,3.9-2.08-.42-1.86-2.48-2.5-3.8-1.2-2.48-2.57-2.28-4.35-.86-.29.23-.55.51-.82.76-4.78,4.39-5.73,4.46-9.22-1.07-1.86-2.94-4.39-4.47-7.21-6.11-2.32-1.35-4.32-.26-6.47-.17,5.84-5.28,13.13-7.97,20.1-11.24Z"/>
        <path class="cls-3" d="M155.21,246.06c-.49.25-.98.51-1.47.76-2.08.14-4.21-.16-6.2.72-2.97.76-4.27.07-3.79-3.4.28-1.99-.54-4.14-.87-6.22.65,0,1.29,0,1.94.01-.48,1.92,3.16,2.52,1.55,4.75-.87,1.2-.76,2.13.64,2.55,1.78.53,3.48,0,4.73-1.33,1.08-1.14.2-1.92-.81-2.63-1.37-.96-2.09-2.38-2.42-4,1.27-.31,2.76.39,3.83-.85.22,0,.43,0,.65,0,1.58.24,3.81-.72,4.35,1.61.52,2.24.54,4.73-1.44,6.4-.68.57-1.05.82-.69,1.62Z"/>
        <path class="cls-5" d="M37.62,237.58c.18,1.08.65,1.93,1.89,1.86,2.89-.16,4.29,2.98,7.05,3.11.51.03.84.59.58,1.12-.68,1.42-.93,3.17-2.66,3.84-2.87,1.11-5.89-.07-7.31-2.81,0-2.38-.29-4.78.45-7.12Z"/>
        <path class="cls-4" d="M79.86,105.02c-.3-3.45,1.18-6.43,2.42-9.5.78-1.93,1.23-3.99,1.83-5.99.24-.24.49-.49.73-.73.04,1.31.08,2.62.12,3.94-1.21,2.9-1.02,6.02-1.42,9.05-1.23,1.08-2.45,2.16-3.68,3.25Z"/>
        <path class="cls-3" d="M56.42,109.71c-.79,4.84,3.48,7.16,5.31,10.7,0,.25,0,.49,0,.74-.25,0-.51,0-.76,0-.49-1-1.23-1.76-2.24-2.24-.49-1.01-1.25-1.75-2.25-2.25-1.04-1.81-2.77-2.2-4.66-2.29,1.21-1.87,2.82-3.34,4.59-4.66Z"/>
        <path class="cls-3" d="M140.33,227.89c.8-.75-.42-2.07.78-2.71,1.78,1.93,4.8,3.42,2.28,6.85-.35.48-.07,1.42-.08,2.15-.25,0-.51,0-.76,0-.25-1.65-.5-3.29-.74-4.94-.12-.88-.23-1.74-1.48-1.35Z"/>
        <path class="cls-10" d="M142.55,234.18c.25,0,.51,0,.76,0,0,.24.01.49.02.73.15,1.57,1.31,1.5,2.43,1.5,2.19,0,4.39,0,6.58,0-1.06,1.24-2.56.54-3.83.85-1.23.22-2.46.44-3.69.66-.65,0-1.29,0-1.94-.01-.48-1.21-.47-2.47-.33-3.73Z"/>
        <path class="cls-8" d="M51.83,114.37c1.88.09,3.62.48,4.66,2.29-1.97,1.21-3.35-1.71-5.28-.76.02-.59-.12-1.24.63-1.53Z"/>
        <path class="cls-10" d="M145.01,106.11c-.39-.31-.77-.61-1.16-.92.38.31.77.61,1.16.92Z"/>
        <path class="cls-6" d="M78.82,75.52c.17.12.35.22.5.36.02.02-.11.19-.17.29-.16-.19-.27-.41-.33-.65Z"/>
        <path class="cls-7" d="M73,337.43c-.02-.23-.03-.46-.05-.69.56-4.49.35-9.07,1.46-13.51-.21-1.95,1.43-3.33,1.58-5.17.62-.13,1.09-.36,1.37-1.05,2.18-5.35,1.66-11.08,2.1-16.62.38-4.82-3.64-9.39-1.4-14.64.42-.99-.35-2.63-1.33-3.67,0-.74-.02-1.49-.03-2.23,1.08-3.25.32-6-2.22-8.27,0-.49-.01-.97-.02-1.46,4.32-2.42,5.01-6.12,3.7-10.52.03-.22.05-.44.06-.67,1.45-.05,2.9-.1,4.35-.15l.15.15c-1.89,3.77-.51,7.79-.7,11.66-.38,7.87-1.14,15.85-.46,23.61.78,8.93-1.5,17.66-.39,26.48.48,3.78,1.11,7.47,2.19,11.2,1.68,5.79,2.12,12,1.3,18.03-.32,2.33.06,4.46.33,6.56,1.38,10.55,1.68,21.34.19,31.62-1.18,8.17,1.83,16.23-.97,24.14-1.09,3.07-2.12,6.26.95,9.08.91.83.74,2.46.33,3.59-.64,1.74-.54,3.07.89,4.34.93.83,1.06,2.13.56,3.12-.75,1.5-2.08.27-2.95.05-2.62-.65-5.18-1.64-6.61-4.25.71-1.5,1.56-3.39.23-4.54-3.1-2.68-1.48-3.91.69-6.16,1.64-1.71,3.84-4.34,1.81-7.44-.57-.87-.26-1.55.35-2.33,1.28-1.64,1.19-3.84.39-5.32-3.66-6.69-1.65-13.53-.96-20.33.7-6.89.49-13.8.45-20.71,0-.66-.4-1.61-.92-1.93-3.38-2.11-3.28-5.02-1.91-8.12.94-2.12.71-4.22.76-6.43.08-4.02-1.66-6.3-5.31-7.44Z"/>
        <path class="cls-7" d="M97.68,264.11c-.08.29-.16.58-.24.88-2-.69-3.74-2.12-4.07-4-.72-4.16-3.9-3.14-5.99-2.7-1.55.32-3.11.4-4.65.65,0,0-.15-.15-.15-.15.02-.71.04-1.41.06-2.12.01-.51.03-1.01.04-1.52,5.25.36,10.45.87,14.22,5.25l.78,3.72Z"/>
        <path class="cls-7" d="M54.26,198.26c1.71-1.95,3.49-3.85,5.09-5.88.55-.7,1.33-1.76.4-2.67-.83-.81-1.8-.33-2.73.16-2.54,1.32-4.97,3.17-8.51,2.05,3.08-3.82,8.68-3.62,11.08-7.82,1.18-.04,2.47-.14,1.88-1.8-.44-1.25-1.54-1.53-2.71-.79-.81.51-1.55,1.41-2.48.21-.29-2.08,1.55-2.98,2.44-4.4,1.38-1.38,3.22-2.38,3.71-4.5.9-.52.77-1.41.83-2.24.58-.36.7-.91.66-1.53.02-.74.05-1.47.07-2.21.46.01.92.02,1.38.03-.24,5.49-.48,10.99-.72,16.48-1.3,3.74-2.83,7.44-2.7,11.52-.4,2.62-.04,5.34-.95,7.9-.42,1.61-.83,3.22-1.23,4.74-1.55.15-.44-1.82-1.76-1.83-.55,1.3-1.06,2.54-1.58,3.77-1.68-.23-1.7-1.22-.89-2.3,2.12-2.83,1.86-5.28-.9-7.53-.3-.25-.28-.9-.41-1.36Z"/>
        <path class="cls-8" d="M62.44,172.81c-.49,2.12-2.33,3.12-3.71,4.5.4-5.16-1.83-10.28-.21-15.45.83-2.66-.99-5.19-.48-7.7,1.45-7.09-2.14-13.11-3.79-19.54,1.72-.2,2.24.97,2.94,2.26,1.12,2.07,1.39,4.72,3.79,5.99.26,1.25.52,2.49.77,3.74-.82.56-.36,1.23-.27,1.96.39,2.94.88,6.07-.11,8.81-1.69,4.67.87,9.23-.27,13.81-.17.68.64,1.28,1.33,1.63Z"/>
        <path class="cls-10" d="M61.76,146.6c-.26-1.25-.52-2.49-.77-3.74-.26-1.06-.21-2.37-.83-3.15-1.96-2.45-.1-6.97-4.41-8.08.03-.62.18-1.19.8-1.5,1.31.25,2.62.67,3.93.72,2.01.08,2.83.05,1.71,2.64-.92,2.12-1.73,5.42,2.24,6.39.67.94.53,2.36,1.77,2.96,1.62,2.91.82,5.6-.74,8.23-2.94-.08-1.87-3.47-3.7-4.48Z"/>
        <path class="cls-10" d="M60.97,121.15c.25,0,.51,0,.76,0,3.03,1.47,3.95,5.04,6.7,6.79,0,.24.02.48.05.71-.03.76-.07,1.53-.1,2.29-3.81.76-6.63-2.94-10.41-2.3,2.61-2.15-.25-3.52-.73-5.23.08-1.49,1.17-1.48,2.24-1.51.62-.01,1.18-.13,1.5-.75Z"/>
        <path class="cls-7" d="M57.97,128.64c3.78-.64,6.6,3.06,10.41,2.3-.03.46-.06.91-.09,1.37-.69.65-.59,1.5-.59,2.33-.04.71-.08,1.41-.12,2.12-.23.31-.46.61-.69.92-1.86-.42-2.78.21-2.47,2.21-3.97-.97-3.16-4.27-2.24-6.39,1.12-2.59.3-2.57-1.71-2.64-1.32-.05-2.62-.47-3.93-.72-.03-.61.12-1.14.69-1.47,0,0,.37,0,.37,0l.37-.04Z"/>
        <path class="cls-4" d="M55.74,131.63c4.31,1.11,2.45,5.62,4.41,8.08.62.78.57,2.08.83,3.15-2.4-1.27-2.66-3.92-3.79-5.99-.7-1.29-1.22-2.46-2.94-2.26-.1-1.29.12-2.42,1.48-2.98Z"/>
        <path class="cls-4" d="M56.29,181.71c.94,1.2,1.67.31,2.48-.21,1.17-.74,2.26-.46,2.71.79.59,1.66-.7,1.76-1.88,1.8-1.64-.38-3.1.47-4.66.68.16-1.15-.42-2.62,1.35-3.06Z"/>
        <path class="cls-8" d="M57.97,128.64l-.37.04s-.37,0-.37,0c.04-1.23-.9-1.88-1.53-2.74-1.42-1.96-.37-2.52,1.53-2.52.49,1.71,3.35,3.09.73,5.23Z"/>
        <path class="cls-8" d="M60.97,121.15c-.32.61-.88.73-1.5.75-.14-1.02-1.64-1.71-.74-2.98,1.01.48,1.75,1.24,2.24,2.24Z"/>
        <path class="cls-8" d="M97.68,264.11c-.26-1.24-.52-2.48-.78-3.72,1.26-1.02.15-1.63-.42-2.29-1.08-1.25-2.2-2.47-3.31-3.71.24-.25.49-.49.73-.74.25,0,.5,0,.75,0,1.88-.05,3.85,2.59,4.55,1.85,2.46-2.57,5.38-.95,7.96-1.65,1.6-.43,3.79-.51,4.19,1.21.42,1.77-1.81,1.92-3.18,2.32-3.57,1.03-4.96,4.52-2.71,7.37,1.45,1.84,1.95,3.96,2.69,6.07,1.55,4.38,3.72,8.44,6.71,12.03,0,1.74,0,3.49,0,5.23-.47,4.11.49,7.85,2.66,11.38,1.6,2.6,1.77,5.64.5,8.26-3.9,8.06-.8,11.15,4.05,16.41,1.02,1.1,2.22,1.71,3.66,1.24,1.65-.54,1.02-2.07,1.07-3.21.2-4.48-1.72-8.66-1.61-13.24.2-8.74-.36-17.5-.62-26.25-.17-5.73-3.4-9.76-7.47-13.3,0-.5,0-1,0-1.49,1.11-1.25,1.11-2.5,0-3.74,0-1,0-2,0-2.99,1.22-1.24.84-1.94-.74-2.25,0-.5,0-.99,0-1.49.15-4.51,1.62-8.96.19-13.54-.42-1.35-.46-3.07,0-4.38,1.12-3.17,0-5.24-2.57-6.89,1.32-.85,2.63-1.14,3.9.1.97,1.73,2.1,3.32,3.75,4.49-.25,3.68-.27,7.33,1.55,10.72.52.98,1.54,2.62,1.23,2.97-3.13,3.45-.79,6.55.06,9.93.5,1.97.59,4.11,1.13,6.16,1.59,5.98,2.65,12.06,2.72,18.27.08,7.46.23,14.93-.06,22.37-.19,4.76,2.31,8.81,2.73,13.36.08.86.78,1.55,1.81,1.61.01,1.49.02,2.98.04,4.47-.73,1.81-1.5,2.91-4.02,2.38-2.97-.63-4.74,1.25-4.98,4.34-2.92,1.4-3.03,4.03-2.96,6.74.22,1.91,1.43,3.17,3.11,3.56,1.31.3,2.61-.37,2.87-2.04h0c3.21.74,4.85-2.39,7.51-3.02-.26,5.02.23,10,.71,14.98-2.31,1.75-2.6,5.65-6.27,5.92-1.42.1-2.58.79-3.81,1.37-2.21,1.06-4.49,1.85-6.43-.36-1.67-1.89-1.94-7.1-.64-8.79,2.8-3.65,1.81-8.66-2.29-11.62-.25-1-.5-1.99-.75-2.99,1.21-1.1.61-2.55.73-3.85.17-1.82-.26-3.68.56-5.47,2.51-5.53-.78-9.66-3.49-13.91,0-.99,0-1.97,0-2.96,1.9-1.83,2.26-4.03,1.39-6.43-1.28-3.51-.23-7.18-.81-10.72-.76-4.67-2.43-9.07-4.29-13.41-1.6-3.72-3.72-7.21-4.26-11.39-.51-3.91-2.85-5.94-7.01-5.24Z"/>
        <path class="cls-10" d="M123.78,131.65c1.91,3.99-.11,8.22.75,12.31.43,2.04-.66,4.53,2.32,5.56.48.16.85,1.25.89,1.94.48,6.97,2.52,14.06-1.37,20.75-1,1.72-1.73,3.55-2.1,5.54-.18.95-.32,1.71.63,2.24.92.51,1.6.01,2.37-.49,1.23-.8,2.01-3.44,3.61-2.23,1.4,1.07-.42,2.92-.97,4.36-.69,1.83-1.57,3.6-2.36,5.39-2.15-.89-3.78-.54-5.51,1.29-2.79,2.95-5.46,5.98-7.94,9.2-.72.28-1.21.78-1.51,1.49-3.03.27-1.58-1.7-1.5-2.99,1.2-.64.31-2.34,1.5-2.98.97-.04,1.47-.54,1.49-1.51,1.84-1.62,3.23-3.53,3.76-5.97,2.4-1.86,2.97-4.54,2.95-7.3-.04-5.13-2.1-10.15-.78-15.4.41-1.63-.68-1.98-2.33-1.63-2.65.56-5.38.76-8.08,1.12-2.61.52-4.29-.58-5.22-3-.11-6.06-1.75-11.97-1.55-18.1.3-9.21-.91-7.98,7.89-8.08.62,0,1.24-.02,1.87-.03,2.03,0,3.92-1.11,5.99-.73,4.96-.82,1.77,4.28,3.87,5.69,1.41-2.11-.31-4.59,1.29-6.42ZM105.18,148.85c.47,3.15.98,6.3,1.41,9.46.19,1.43,1.15,2.32,2.22,1.53,3.83-2.84,8.05-5.44,7.66-11.31-.12-1.87.44-3.89,1.62-5.58,1.18-1.69,2.22-3.92.74-5.43-1.28-1.31-3.65-1.1-5.49.03q-8.26.24-8.21,8.74c0,.86.03,1.71.05,2.57ZM120.98,142.9c-.55,5.41.82,10.7.64,16.07,1.13-5.4.89-10.77-.64-16.07Z"/>
        <path class="cls-1" d="M113.98,232.57c2.57,1.66,3.69,3.72,2.57,6.89-.46,1.31-.42,3.04,0,4.38,1.43,4.57-.04,9.03-.19,13.54-4.77-1.1-5.97,2.84-7.82,5.69-1.07,1.64.07,3.13,1.09,4.34,3.74,4.48,4.67,9.88,5.24,15.42-2.99-3.59-5.16-7.65-6.71-12.03-.74-2.1-1.23-4.22-2.69-6.07-2.25-2.85-.86-6.34,2.71-7.37,1.37-.4,3.59-.55,3.18-2.32-.41-1.73-2.59-1.64-4.19-1.21-2.58.69-5.51-.93-7.96,1.65-.7.73-2.67-1.91-4.55-1.85.52-3,1.03-5.99,1.55-8.99,0-3.23-.01-6.45-.02-9.68.78-.97,1.99-1.61,2.33-2.94.24,0,.48-.02.72-.05,1.38.91,2.92.73,4.45.68,3.44-.03,6.87-.06,10.31-.09Z"/>
        <path class="cls-8" d="M143.33,234.92c0-.24-.01-.49-.02-.73,0-.73-.27-1.67.08-2.15,2.52-3.44-.5-4.92-2.28-6.85-1.02-6.19-2.06-12.35-3.7-18.45-1.38-5.1-1.81-10.51-2.2-15.81-.21-2.9-1.91-5.44-1.6-8.38,2.35,2.4,5.74,3.61,7.52,6.65-1.13.26-2.44-1.31-3.4.22-1.02,1.62.53,2.43,1.28,3.49,1.89,2.65,3.73,5.06,1.68,8.77-1.15,2.08.26,5.45,2.21,5.9,2.4.56,2.29-2.65,2.61-4.44.79-4.35.11-8.74.04-13.11,2.65-.41,3.26.29,3.2,3.3-.1,4.85-1.43,9.63-.81,14.46.71,5.52,1.56,10.99,4.21,16.08,1.05,2.01,1.23,4.52,1.59,6.83.3,1.94-.22,3.4-2.67,3.51-2.59.12-5.11,1.06-7.75.71Z"/>
        <path class="cls-10" d="M121.63,237.15c-1.65-1.16-2.78-2.76-3.75-4.49,3.76-2.56,8.12-2.93,12.13-1.75,2.49.73,2.09,4.15,2.04,6.64-.06,2.74-2.38,1.44-4.05,2.25,4.79.63,5.11,3.93,4.79,7.34-.92,9.85-.02,19.47,1.78,29.22,1.32,7.18,2.41,14.77.11,22.1-.64,2.02.52,4.3-1.1,6.08-1.22-1.11-.72-2.57-.71-3.88.02-2.7.97-5.64.19-8.04-1.89-5.82-3.08-11.7-3.77-17.74-.53-4.66-1.08-9.33-1.71-13.98-.72-5.35,1.17-10.59-.22-16.15-.96-3.84-2.86-5.81-5.74-7.61Z"/>
        <path class="cls-10" d="M103.68,232.67c-1.53.06-3.07.23-4.45-.68-1.4-1.35-3.27-1.4-5-1.78-1.96-.44-2.97-1.44-2.53-3.54,3.1-.85,5.59,1.59,8.58,1.54,6.6-.1,13.21-.04,19.82-.05.63.03,1.19-.09,1.51-.71.5,0,.99-.02,1.49-.03,4.49-.32,5.04-1.15,2.92-4.9-.66-1.17-.02-1.75.35-2.65,1.53-3.74.49-6.26-3.07-7.47-1.55-.53-2.24-1.81-2.3-3.1-.35-7.47,1.42-14.32,6.47-20.08-2,7.9-.04,15.39,2.65,22.7.68,1.84,1.18,3.28.64,5.24-.45,1.63-.54,3.77,2.43,3.05,1.42-.34,1.69.13,1.4,1.57-1.17,5.85-2.7,7.14-10.1,7.91-6.97.73-13.97,1.35-20.81,2.98Z"/>
        <path class="cls-5" d="M132.85,169.04c-1.99-8.36-1.1-16.94-1.98-25.39,2.51-3.34,3.76-7.06,3.48-11.26.07-.81-.06-1.69.7-2.29,2,1.09,4.02-.55,6.02.05,1.76.81,1.87,2.51,1.4,3.84-2.26,6.39-1.79,13.21-3.27,19.74-.66,2.91-2.09,6.16-.73,9.1,1.43,3.11.9,5.71-.64,8.39-.37.65-.36,1.14.24,1.59,0,.75,0,1.51,0,2.26-2.54-1.31-2.37-4.98-5.22-6.03Z"/>
        <path class="cls-4" d="M121.63,237.15c2.88,1.81,4.77,3.77,5.74,7.61,1.39,5.56-.49,10.8.22,16.15.62,4.65,1.18,9.31,1.71,13.98.69,6.04,1.88,11.92,3.77,17.74.78,2.4-.17,5.34-.19,8.04-.01,1.3-.52,2.77.71,3.88-.01,1.24-.03,2.48-.04,3.71-1.79.32-1.39,1.74-1.44,2.91-.17,3.81.1,7.59.71,11.36-1.03-.06-1.73-.75-1.81-1.61-.42-4.55-2.91-8.6-2.73-13.36.29-7.45.14-14.91.06-22.37-.07-6.2-1.13-12.29-2.72-18.27-.54-2.05-.64-4.18-1.13-6.16-.85-3.37-3.19-6.48-.06-9.93.31-.34-.7-1.99-1.23-2.97-1.82-3.39-1.8-7.04-1.55-10.72Z"/>
        <path class="cls-4" d="M127.47,189.22c-5.05,5.76-6.82,12.61-6.47,20.08.06,1.29.75,2.57,2.3,3.1,3.56,1.21,4.6,3.72,3.07,7.47-.37.9-1.02,1.48-.35,2.65,2.12,3.75,1.57,4.58-2.92,4.9.68-2.6.09-5.29.64-7.95.42-2.08-1.22-2.88-3.13-2.27-1.67.53-3.21,1.39-3.5,3.44-.21,1.51-.99,1.7-1.9.56-.64-.81-1.43-1.31-2.26-1.86-2.93-1.93-3.15-4.19-1.25-7.14,2.35-3.64,5.54-6.67,7.48-10.58.79-1.58,1.64-3.28.31-4.86-1.46-1.74-2.6.28-3.89.62-.47.12-.98.1-1.48.14,2.47-3.22,5.14-6.24,7.94-9.2,1.73-1.83,3.36-2.18,5.51-1.29-.04.73-.07,1.46-.11,2.19Z"/>
        <path class="cls-4" d="M123.78,131.65c-1.6,1.83.12,4.31-1.29,6.42-2.1-1.41,1.09-6.51-3.87-5.69.78-3.72,1.43-7.47,2.36-11.15.91-3.59,2.6-4.18,5.89-2.53.61.31,1.46.14,2.19.19-.69,1.64-.84,3.75-3.56,3.46-.64-.07-.88,1.01-.93,1.76-1.3,2.4-.49,5.03-.8,7.54Z"/>
        <path class="cls-10" d="M124.58,124.12c.05-.75.3-1.83.93-1.76,2.72.29,2.86-1.82,3.56-3.46.77-.49,1.13-1.59,2.26-1.55,2.33,1.1,2.08-2.15,3.73-2.21l.06.06c-.25,1.25,1.93,1.74.95,3.28-1.5,2.35-2.48,4.55,1.94,4.37.45-.02.81.58.64,1.15-.25.86-.88.64-1.49.46-3.16-.9-3.67.95-3.56,3.44-2.17-3.24-5.57-3.56-9.01-3.78Z"/>
        <path class="cls-4" d="M132.85,169.04c2.85,1.05,2.67,4.71,5.22,6.03,0,0,0,0,0,0q.74,4.64-4.07,3.75c-.12-.02-.25,0-.37,0-.24,0-.48-.02-.72-.04-.02-3.24-.03-6.48-.05-9.72Z"/>
        <path class="cls-10" d="M132.9,178.76c.24.02.48.04.72.04,1.76,2.89,4.34,4.76,7.43,6,.57,1.5,2.1,1.45,3.25,1.96,2.64,1.17,1.24,1.83-.25,2.53-.97-.03-1.94-.06-2.91-.1-1.78-3.04-5.18-4.25-7.52-6.64-1.26-1.07-.62-2.51-.72-3.8Z"/>
        <path class="cls-8" d="M141.07,130.14c-2-.6-4.02,1.05-6.02-.05-.02-.72-.03-1.44-.05-2.16,2.88-3.08,4.52-1.02,6.07,1.46,0,.25,0,.5,0,.75Z"/>
        <path class="cls-8" d="M134.35,132.38c.28,4.2-.96,7.93-3.48,11.26-.28-4.2,1.69-7.7,3.48-11.26Z"/>
        <path class="cls-1" d="M56.45,209.45c.52-1.23,1.03-2.47,1.58-3.77,1.32.01.21,1.98,1.76,1.83.4-1.53.81-3.14,1.23-4.74,1.92-.09,2.38-1.64,2.85-3.03,1.28-3.76,2.39-7.56,2.38-11.6,0-.94-.51-2.63,1.48-2.16,2.66.63,2.38-1.24,2.15-2.61-.29-1.69-1.06-3.29-1.57-4.94-.71-2.27-1.23-4.34.84-6.48,2.47-2.55,1.33-6.21-2.14-8.13.04-2.28-.06-4.54-.8-6.73,1.63.18,1.28-2.16,2.67-2.16,3.68.01,2.12-2.31,1.43-3.66-2.21-4.33-2.51-8.95-2.6-13.64,2.58,1.97,3.56,4.99,4.32,7.82,1.14,4.3,2.89,8.16,5.71,11.53,1.36,1.63,1.23,2.34-.98,2.37-.92.01-1.85.26-2.01,1.28-.18,1.17.78,1.77,1.67,2.21.99.5,2.06.85,3.11,1.25,2.83,1.09,4.12-.12,4.67-2.9.8-4.03,2.34-7.7,5.95-10.11-.55,4.29-.34,8.54.73,12.74.04.99.08,1.97.12,2.96-.74,2.49.3,4.99-.07,7.49l-.04,2.26c-1.52,2.64-1.25,5.44-.75,8.27-.02,1.25-.03,2.49-.05,3.74-2.1.39-2.85-3.05-5.24-1.84-4.46,2.26-9.63,2.53-13.36,7-3.77,4.52-5.62,10.32-3.12,15.78,1.75,3.83,5.42,6.11,7.36,9.61,1.64,2.96,3.66,4.51,6.92,4.61.65,1.95.69,3.39-2.11,3.03-1.04-.13-2.26-.36-3.11.69-1.49.02-3.03-.21-4.46.1-4.84,1.03-9.45,1.19-14.06-1.27-1.74-.93-3.99-1.33-6.14-1.07,1.22-5.24,2.44-10.49,3.66-15.73Z"/>
        <path class="cls-10" d="M91.93,139.27c0-2.3-1.85-4.53-.25-6.88.86-.56.73-1.42.69-2.26,0-1.24,0-2.49,0-3.73.35-.28.71-.56,1.06-.84.67.06,1.35.11,2.02.17-.25,3.79-2.22,7.51-.65,11.41.04-4,2.02-7.63,2.07-11.58.47-.27.94-.54,1.41-.8.03,1.29.06,2.58.09,3.87-1.52,3.61-.8,7.63-2.08,11.28-1.12-2.5-2.71-1.76-4.35-.63Z"/>
        <path class="cls-10" d="M90.89,163.83c-1.07-4.2-1.28-8.45-.73-12.74.56-3.04,1.13-6.07,1.69-9.11.45.33.91.67,1.36,1-.12,6.43.28,12.87-.78,19.26-.51.53-1.03,1.05-1.54,1.58Z"/>
        <path class="cls-3" d="M67.71,137.62c.09,4.69.39,9.31,2.6,13.64.69,1.35,2.25,3.67-1.43,3.66-1.39,0-1.04,2.34-2.67,2.16-.52-.92-.86-1.89-.75-2.98,0-1.01,0-2.02,0-3.03,1.56-2.62,2.36-5.32.74-8.23.23-1.73.47-3.45.7-5.18.23-.31.46-.61.69-.92.04.29.08.58.12.87Z"/>
        <path class="cls-8" d="M68.44,127.93c-2.76-1.75-3.67-5.32-6.7-6.79,0-.25,0-.49,0-.74.5-.25.99-.5,1.49-.74,2.17-.14,4.01.29,4.44,2.82.31,1.81.52,3.64.77,5.46Z"/>
        <path class="cls-1" d="M68.44,127.93c-.25-1.82-.46-3.65-.77-5.46-.44-2.53-2.28-2.95-4.44-2.82.75-1.51,2.08-1.99,3.39-1.16,2,1.27,4.03,2.97,3.92,5.51-.07,1.55.34,3.88-2.05,4.63-.03-.24-.05-.47-.05-.71Z"/>
        <path class="cls-8" d="M93.43,125.57c-.35.28-.71.56-1.06.84-2.11,0-4.27.21-6.03-1.32-.64-.55-1.53-1.11-1.04-2.13.53-1.1,1.51-1.17,2.54-.69,1.24.57,2.42,1.31,3.87,1.13.47,0,.95.01,1.42.02.1.72.2,1.44.29,2.16Z"/>
        <path class="cls-6" d="M93.21,142.99c-.45-.33-.91-.67-1.36-1,.03-.91.05-1.81.08-2.71,1.65-1.13,3.24-1.87,4.35.63-.03.48-.05.97-.08,1.45-.6.28-.81.8-.83,1.42-.72.07-1.44.14-2.16.21Z"/>
        <path class="cls-1" d="M67.71,134.63c0-.83-.1-1.68.59-2.33,1.39,1.17,1.14,1.94-.59,2.33Z"/>
        <path class="cls-8" d="M92.37,130.14c.04.83.17,1.7-.69,2.26,0-.82-.16-1.69.69-2.26Z"/>
        <path class="cls-1" d="M72.94,264.87c-3.67,1.23-6.01,3.5-6.81,7.5-.48,2.44-1.17,6-4.25,5.63-3.03-.36-2.38-3.83-2.39-6.24,0-1.67-.66-3.14-1.16-4.66-2.03-6.14-1.8-6.75,3.8-9.57-.51-1.52-2.05-1.66-3.17-2.24-2.46-1.27-3.51-3.59-3.03-5.85.71-3.36.32-6.67.55-9.99.25-.25.5-.51.75-.76.25-.25.5-.5.75-.75.08-.04.18-.06.25-.12.04-.04.04-.13.05-.19-.11.1-.21.2-.32.3-.25.25-.5.5-.75.74l-2.84-.05c0-.7.01-1.41.02-2.12,3.36-.13,5.38-1.78,5.81-5.19,3.13-.36,5.91,1.47,8.98,1.46q-.84,5.16,4.25,6.48c1.19.31,2.38.66,3.52,1.12.72.29,1.21.96,1.05,1.79-.18.93-1.01.91-1.76,1-2.03.27-3.93-.62-5.89-.68-1.5-.04-3.88-.95-4.36.71-.59,2,2.48.84,3.19,2.21-.97,1.16-2.28.79-3.45.66-2.84-.33-6.53,1.97-6.61,4.81-.07,2.74,2.4,3.66,4.72,4.23.61.15,1.21.22,1.59.78-.35.91-2.13.89-1.68,2.14.4,1.09,1.68.92,2.65.82,1.1-.12,2.17-.47,3.26-.67,2.34-.41,3.61.4,3.27,2.96l-.03,3.73Z"/>
        <path class="cls-7" d="M54.4,236.5c0,.7-.01,1.41-.02,2.12,0,.53-.02,1.06-.03,1.58-.34,3.6-.68,7.2-1.02,10.8-1.16-.1-2.33-.2-3.49-.3-1.41-.51-3.27-.23-3.82-2.22,1.33-.41,3.52.89,3.69-1.84q.37-5.84-5.47-6.97c3.22-.07,5.22-.56,6.97-1.77,1.2-.47,2.08-1.86,1.4-2.52-2.66-2.62-.69-5.34-.57-8,2,1.49,4.85.98,6.94,3-3.31-.99-4.45.18-4.08,3.26.11.92-.32,1.91-.5,2.86Z"/>
        <path class="cls-10" d="M74.46,270.12c-.9-.53-.72-1.44-.78-2.27,0-.99,0-1.98,0-2.97,1.03-1.04,1.2-2.43,1.5-3.76,1.04-.42,1.69-1.6,2.98-1.52,1.31,4.4.62,8.1-3.7,10.52Z"/>
        <path class="cls-4" d="M75.18,261.12c-.3,1.33-.47,2.72-1.5,3.76-.25,0-.49,0-.74,0,0-1.24.02-2.48.03-3.73.74,0,1.48-.02,2.22-.03Z"/>
        <path class="cls-4" d="M54.36,240.2c0-.53.02-1.06.03-1.58.95.02,1.9.03,2.85.05,0,0,.02.02.02.02-.25.25-.5.51-.75.76-.71.25-1.43.5-2.14.75Z"/>
        <path class="cls-4" d="M110.29,94.25c.26,1.98.51,3.96.77,5.93-.53,1.92-1.73,1.27-2.9.76,0,0-.04-.04-.04-.04-.2-.24-.4-.48-.6-.72-.28-.31-.56-.61-.84-.92-.27-.7-.55-1.39-.82-2.09.03-.68.06-1.36.08-2.04.97-.82,1.93-1.63,2.9-2.45.05.92.48,1.49,1.45,1.57Z"/>
        <path class="cls-6" d="M106.68,99.27c.28.31.56.61.84.92.2.24.4.48.61.72,0,0,.04.04.04.04.19,1.87-.81,3.02-2.32,3.87-.21.22-.42.44-.63.66l-.13-.07c-1.97-.09-2.23-1.43-2.19-2.99.26-.46.51-.91.77-1.37.25-.28.49-.55.74-.83,0,0,0,0,0,0,.24-.26.48-.51.72-.77,0,0,0,0,0,0,.52-.06,1.03-.12,1.55-.17Z"/>
        <path class="cls-7" d="M83.54,101.77c.4-3.03.2-6.15,1.42-9.05,1.57,2.51,1.24,5.52,2.19,8.19-.64.04-1.2.23-1.54.84-.69,0-1.38.01-2.07.02Z"/>
        <path class="cls-7" d="M102.9,102.42c-.04,1.56.22,2.9,2.19,2.99.15,1.78-1.65,2.4-2.24,3.74-1.12.16-2.11-.22-3.05-.78-.08-2.56,1.24-4.39,3.1-5.94Z"/>
        <path class="cls-6" d="M88,82.27c1.08-.25,2.15-.57,3.25-.72,1.56-.21,2.94.56,3.1,2,.19,1.71-1.44,1.65-2.69,1.7-1.52.06-3.03.08-3.84-1.58.06-.47.13-.94.19-1.41Z"/>
        <path class="cls-7" d="M85.51,54.23c-2.08-.22-3.96-.41-5.92-.62,2.28-1.89,3.43-1.78,5.92.62Z"/>
        <path class="cls-10" d="M106.68,99.27c-.52.06-1.03.12-1.55.17-.03-.84-.12-1.71.73-2.26.27.7.55,1.39.82,2.09Z"/>
        <path class="cls-10" d="M104.41,100.22c-.25.28-.49.55-.74.83.25-.28.49-.55.74-.83Z"/>
        <path class="cls-10" d="M105.13,99.45c-.24.26-.48.51-.72.77.24-.26.48-.51.72-.77Z"/>
        <path class="cls-4" d="M144.05,189.3c1.49-.7,2.89-1.36.25-2.53-1.15-.51-2.68-.46-3.25-1.96,2.22-.56,5.06-.69,1.93-4.01-1-1.07-1.29-2.81-1.9-4.24,1.79-.75,4.64-.3,4.44-3.41-.29-4.53,1.31-9.02.06-13.57-.49-1.76-1.04-3.57-.77-5.47,0-.75,0-1.5,0-2.25.96-.74.96-1.49,0-2.24,0-.5,0-1,0-1.5,2.61-1.1,1.55-2.82.75-4.49,0-.75,0-1.5,0-2.25.83-.1,1.22-.39,1.25-1.41.12-4.08.78-8.16-.4-12.2-.03-.12-.09-.26-.06-.37,1.56-5.05-.96-7.12-5.58-7.83-1.43-.22-1.14-1.46-.21-1.74,4.61-1.37,3.66-4.12,2-7.14,4.98-.96,7.04,2.84,7.33,10.16.22,5.6.65,11.2.38,16.88-.58,12.47-.45,24.99.49,37.47.18,2.35.19,4.81-2.69,5.91-1.42.54-.59,1.33-.05,2,2.17,2.7,2.88,5.11,2.47,9.13-.65,6.43.29,13.27,2.38,19.72,1.86,5.72,3.85,11.42,3.98,17.6.07,3.24-1,5.46-3.86,6.88-.22,0-.44,0-.65,0-2.19,0-4.39,0-6.58,0-1.12,0-2.28.07-2.43-1.5,2.64.35,5.16-.59,7.75-.71,2.45-.12,2.97-1.58,2.67-3.51-.36-2.32-.54-4.82-1.59-6.83-2.65-5.08-3.5-10.56-4.21-16.08-.62-4.83.72-9.62.81-14.46.06-3.01-.55-3.7-3.2-3.3-.61-.02-1.17-.14-1.5-.73Z"/>
        <path class="cls-8" d="M117.23,102.46c2.19.09,2.56-1.43,2.88-3.12.7-3.63,3.19-4.92,6.09-2.72,3.75,2.84,7.69,5.38,11.52,8.08,2.99,2.11-1.11,2.87-1.55,4.41.33,1.55,1.92-.63,2.36,1.12-1.57,1.09-3.27,2.26-4.96,3.44-4.43-1.43.78-2.86.08-4.35-.44-.04-.83-.17-1.16-.08-2.44.65-4.81,1.38-2.29-2.53.9-1.39-.2-2.34-1.2-3.1-4.37-3.37-8.52-1.92-10.1,3.59-.52,1.83-.62,3.82-3.31,3.47l.03-3c.02-.46.04-.92.06-1.38.51-1.28,1.03-2.55,1.54-3.83Z"/>
        <path class="cls-9" d="M92.44,62.56c.93-1.63.6-3.5.25-5.7-.33-2.06,2.8-3.14,4.75-3.67,2.1-.58,1.35,1.66,1.79,2.79,1.6,4.09,1.11,7.81-1.39,11.39-.5.71-.07,2.24-1.56,2-1.23-.2-2.42-.99-2.88-2.11-.55-1.34-.61-2.87-.95-4.69Z"/>
        <path class="cls-10" d="M115.69,106.29c-.02.46-.04.92-.06,1.38-1.06.27-2.13.53-3.19.8-2.69.46-3.34-3.05-5.83-2.99-.25,0-.51-.02-.76-.03.01-.21.01-.42,0-.63,1.51-.85,2.51-2,2.32-3.87,1.17.51,2.37,1.16,2.9-.76,1.33-.06,1.55-.94,1.58-2.04.03-.98.03-2.01.32-2.93.28-.88.61-2.23,1.77-2.07,1.39.19.99,1.67.79,2.46-.76,3.01.76,6.14-.59,9.11-.25.56.22,1.18.75,1.58Z"/>
        <path class="cls-10" d="M110.29,94.25c-.97-.08-1.4-.65-1.45-1.57.25-1.2.6-2.34,1.82-3.24,1.13,1.78-.19,3.27-.37,4.81Z"/>
        <path class="cls-1" d="M115.61,110.67c2.69.35,2.79-1.64,3.31-3.47,1.57-5.51,5.73-6.96,10.1-3.59,1,.77,2.1,1.71,1.2,3.1-2.53,3.91-.15,3.18,2.29,2.53.33-.09.72.04,1.16.08.7,1.48-4.51,2.92-.08,4.35-.51,1.37-2.28,1.97-2.25,3.68-1.13-.04-1.49,1.06-2.26,1.55-.74-.05-1.58.12-2.19-.19-3.29-1.65-4.99-1.06-5.89,2.53-.93,3.68-1.59,7.43-2.36,11.15-2.07-.38-3.96.74-5.99.73.09-2.46,2.34-3.71,3.22-5.73.62-1.43.99-2.92-.22-4.15-1.15-1.16-2.33-.18-3.39.36-4.43,2.22-9.05,3.9-13.87,5.03-.03-1.29-.06-2.58-.09-3.87.07-.43.15-.86.22-1.3,1.54-.28,1.67-1.58,1.33-2.55-1.33-3.73.8-6.52,2.3-9.5,2.15-.8,3.94-1.99,6.25.58,1.39,1.54,4.55,2.25,6.51-.54,0-.24,0-.48.02-.72.24-.03.47-.05.71-.06Z"/>
        <path class="cls-8" d="M144.81,151.84c0,.75,0,1.5,0,2.25-2.69,1.33-1.18,3.47-1.09,5.38.28,5.73,1.8,11.73-3.4,16.33-.75-.25-1.51-.5-2.26-.74,0,0,0,0,0,0,0-.75,0-1.51,0-2.26,3.48-1.6,4.93-4.37,3.42-8.51-1.55-4.24-.76-8.35.04-12.31,1.27-6.3,1.73-12.63,2.32-18.99.14-1.54-.22-2.63-1.29-3.61.13-1.03.6-1.67,1.72-1.25,1.11.42,1.27,1.41,1.27,2.45,0,3.6,0,7.19.01,10.79,0,.75,0,1.5,0,2.25-1.37,1.31-.51,2.99-.75,4.49,0,.5,0,1,0,1.5-.97.74-.97,1.49,0,2.24Z"/>
        <path class="cls-1" d="M142.56,129.39c1.07.98,1.43,2.07,1.29,3.61-.59,6.35-1.05,12.69-2.32,18.99-.8,3.96-1.59,8.07-.04,12.31,1.51,4.14.06,6.91-3.42,8.51-.6-.45-.62-.94-.24-1.59,1.54-2.68,2.08-5.29.64-8.39-1.36-2.94.07-6.19.73-9.1,1.48-6.53,1.01-13.35,3.27-19.74.47-1.34.36-3.04-1.4-3.84,0-.25,0-.5,0-.75.5,0,.99,0,1.49,0Z"/>
        <path class="cls-10" d="M137.85,112.46c.09-.04.18-.07.26-.11.03.13.05.27.08.4-.1-.02-.21,0-.29-.06-.05-.04-.04-.15-.06-.24Z"/>
        <path class="cls-10" d="M135.05,115.14c.12-.1.24-.19.35-.29-.1.12-.19.23-.29.35,0,0-.06-.06-.06-.06Z"/>
        <path class="cls-10" d="M52.04,227.37c-.12,2.67-2.09,5.38.57,8,.68.67-.2,2.05-1.4,2.52,0-.25.11-.61-.01-.73-4.61-4.51-1-9.49-.41-14.05.69-5.34.99-10.82,2.59-16.04.38-1.24,0-2.46-.63-3.58-1.31-2.28-.81-4.02,1.51-5.24.13.46.11,1.11.41,1.36,2.76,2.24,3.02,4.7.9,7.53-.81,1.08-.79,2.07.89,2.3-1.22,5.24-2.44,10.49-3.66,15.73-.25.73-.5,1.46-.75,2.19Z"/>
        <path class="cls-8" d="M114.88,111.45c-1.96,2.79-5.13,2.08-6.51.54-2.31-2.57-4.1-1.38-6.25-.58.25-.76.49-1.51.74-2.27.59-1.34,2.39-1.95,2.23-3.74,0,0,.13.07.13.07.21-.02.42-.03.63-.03.25,0,.51.02.76.03.83,3.76,3.4,5.61,8.26,5.97Z"/>
        <path class="cls-6" d="M83.54,101.77c.69,0,1.38-.01,2.07-.02.59,2.04-.8,2.85-2.25,3.62-1.44.13-1.47,1.19-1.48,2.26-.57,1.3-1.65,1.6-2.93,1.55h0c.31-1.39.61-2.78.92-4.17,1.23-1.08,2.45-2.16,3.68-3.24Z"/>
        <path class="cls-6" d="M98.5,123.46c-.07.43-.15.87-.22,1.3-.47.27-.94.54-1.41.8-.47.06-.94.11-1.42.17-.67-.06-1.35-.11-2.02-.17-.1-.72-.19-1.44-.29-2.16.51-.76,1.02-1.52,1.54-2.28.73-.04,1.46-.08,2.18-.12,2.41-.42,1.11,1.63,1.64,2.46Z"/>
        <path class="cls-4" d="M96.86,121c-.73.04-1.46.08-2.18.12.37-1.95-1.62-3.33-1.29-5.73,1.78,1.77,2.73,3.62,3.47,5.61Z"/>
        <path class="cls-4" d="M92.78,114.56c-1.65-1.59-2.51-2.96-2.41-5.36,2,1.41,2.75,2.83,2.41,5.36Z"/>
        <path class="cls-7" d="M81.88,107.63c.01-1.07.04-2.13,1.48-2.26.1,1.14-.39,1.9-1.48,2.26Z"/>
        <path class="cls-6" d="M78.94,109.18c-.3.66-.86.79-1.51.73l.02.02c.31-.61.85-.77,1.48-.76,0,0,0,0,0,0Z"/>
        <path class="cls-6" d="M77.43,109.92c-.09.11-.18.22-.27.34.01-.06,0-.15.04-.19.07-.06.17-.09.25-.13,0,0-.02-.02-.02-.02Z"/>
        <path class="cls-1" d="M144.82,237.93c1.23-.22,2.46-.44,3.69-.66.33,1.62,1.05,3.05,2.42,4.01,1.02.71,1.89,1.49.81,2.63-1.25,1.33-2.95,1.86-4.73,1.33-1.4-.42-1.51-1.35-.64-2.55,1.61-2.23-2.03-2.84-1.55-4.75Z"/>
        <path class="cls-8" d="M75.18,261.12c-.74,0-1.48.02-2.22.03.34-2.56-.93-3.38-3.27-2.96-1.09.19-2.16.55-3.26.67-.97.1-2.25.27-2.65-.82-.45-1.25,1.33-1.23,1.68-2.14,2.33,0,4.67.08,7-.03,2.59-.12,2.07-1.09.48-2.22,0-.75,0-1.49,0-2.24,1,.25,1.99.49,2.99.74.77-.09,1.76.23,2.07-.83.32-1.12-.44-1.7-1.32-2.16-1.31-3.62-4.56-3.35-7.48-3.75-.71-1.37-3.78-.21-3.19-2.21.48-1.65,2.86-.75,4.36-.71,1.96.06,3.85.94,5.89.68.75-.1,1.58-.07,1.76-1,.16-.83-.34-1.5-1.05-1.79-1.14-.46-2.33-.81-3.52-1.12q-5.09-1.33-4.25-6.48c3.28-.26,6.53-.03,9.75.65-.34,2.71-1.7,5.45,1.12,7.86.99.85-.03,2.03-1.1,2.62-1.71.95-1.76,2.07-.63,3.61.87,1.18,1.43,2.58,2.13,3.88,0,1.5,0,2.99-.01,4.49-2.34-.16-3.8.33-2.22,3.04-.01.22-.03.45-.06.67-1.29-.08-1.94,1.1-2.98,1.52Z"/>
        <path class="cls-4" d="M78.22,258.93c-1.58-2.71-.12-3.2,2.22-3.04.73.26,1.46.51,2.2.77-.02.71-.04,1.42-.06,2.12-1.45.05-2.9.1-4.36.15Z"/>
        <path class="cls-4" d="M93.17,254.39c1.11,1.23,2.23,2.45,3.31,3.71.57.66,1.68,1.28.42,2.29-3.77-4.38-8.96-4.89-14.22-5.25,0-.5,0-1,.01-1.51,2.98-1.55,5.97.3,8.95-.03.32.63.88.78,1.52.79Z"/>
        <path class="cls-10" d="M82.7,253.63c0,.5,0,1-.01,1.51-.01.51-.03,1.01-.04,1.52-.73-.26-1.46-.51-2.2-.77,0-1.5,0-2.99.01-4.49,1.24-1.31.62-2.69.21-4.11-.53-1.83-.11-3.17,2.08-3.38-.02,3.24-.04,6.48-.05,9.72Z"/>
        <path class="cls-8" d="M67.01,163.81c3.47,1.91,4.61,5.58,2.14,8.13-2.08,2.14-1.55,4.21-.84,6.48.51,1.65,1.29,3.26,1.57,4.94.23,1.37.51,3.24-2.15,2.61-2-.48-1.48,1.22-1.48,2.16.01,4.04-1.1,7.84-2.38,11.6-.47,1.39-.93,2.93-2.85,3.03.91-2.56.55-5.27.95-7.9,2.07-3.57,3.42-7.3,2.7-11.52.24-5.49.48-10.99.72-16.48.85-.85,1.86-1.62,1.62-3.05Z"/>
        <path class="cls-4" d="M65.46,151.08c0,1.01,0,2.02,0,3.03-4.73,3.75-1.6,8.41-1.46,12.72-.02.74-.05,1.47-.07,2.21-.96.19-1.85.41-.66,1.53-.06.83.07,1.72-.83,2.24-.69-.35-1.5-.94-1.33-1.63,1.14-4.58-1.42-9.14.27-13.81.99-2.73.5-5.87.11-8.81-.1-.73-.56-1.4.27-1.96,1.82,1,.76,4.39,3.7,4.48Z"/>
        <path class="cls-10" d="M64,166.83c-.15-4.31-3.27-8.97,1.46-12.72-.1,1.08.24,2.05.75,2.98.74,2.19.84,4.45.8,6.73.23,1.43-.77,2.2-1.62,3.05-.46-.01-.92-.02-1.38-.03Z"/>
        <path class="cls-5" d="M64.67,183.34c.72,4.22-.63,7.95-2.7,11.52-.13-4.08,1.39-7.77,2.7-11.52Z"/>
        <path class="cls-10" d="M63.27,170.57c-1.19-1.12-.3-1.34.66-1.53.03.62-.09,1.17-.66,1.53Z"/>
        <path class="cls-7" d="M66.9,137.67c-.24,1.73-.47,3.45-.7,5.18-1.24-.6-1.1-2.02-1.77-2.96-.31-2,.61-2.64,2.47-2.21Z"/>
        <path class="cls-5" d="M117.12,269.36c.1,5.14.18,10.26,2.57,15.03.72,1.44.94,3.22-.29,4.52-1.78,1.89-2.98-.67-4.53-.83,0-1.74,0-3.49,0-5.23-.56-5.54-1.49-10.94-5.24-15.42-1.02-1.21-2.16-2.7-1.09-4.34,1.86-2.85,3.05-6.79,7.82-5.69,0,.5,0,.99,0,1.49.02.83-.14,1.71.74,2.25,0,1,0,2,0,2.99-1.11,1.25-1.11,2.5,0,3.74,0,.5,0,1,0,1.49Z"/>
        <path class="cls-3" d="M93.17,254.39c-.64,0-1.2-.16-1.52-.79,1.66-7.14,2.6-14.29-.04-21.42,1.26.17,2.53.34,3.79.51,0,.86-.12,1.75.78,2.3,0,3.23.01,6.45.02,9.68-2.69,2.5-1.31,6.05-2.29,8.99-.24.25-.49.49-.73.74Z"/>
        <path class="cls-10" d="M93.91,253.65c.99-2.94-.4-6.49,2.29-8.99-.52,3-1.03,5.99-1.55,8.99-.25,0-.5,0-.75,0Z"/>
        <path class="cls-1" d="M117.12,261.13c-.89-.54-.73-1.43-.74-2.25,1.58.31,1.97,1.02.74,2.25Z"/>
        <path class="cls-8" d="M114.13,197.51c.49-.04,1-.02,1.48-.14,1.29-.33,2.44-2.36,3.89-.62,1.32,1.58.47,3.28-.31,4.86-1.94,3.91-5.14,6.94-7.48,10.58-1.9,2.95-1.69,5.21,1.25,7.14.83.55,1.62,1.05,2.26,1.86.9,1.14,1.68.95,1.9-.56.29-2.06,1.82-2.91,3.5-3.44,1.91-.6,3.55.2,3.13,2.27-.54,2.66.05,5.35-.64,7.95-.5,0-.99.02-1.49.02-1.15-1.14-1.34-.22-1.51.71-6.61,0-13.21-.05-19.82.05-2.99.05-5.48-2.4-8.58-1.54-.08-.27-.17-.54-.25-.81,0-.68,0-1.36-.01-2.04.06-1.27.12-2.54.17-3.81l.05-2.29c1.72-1.72-.22-4.28,1.39-6.03,2.39,1.63,5.08,2.56,7.9,2.93,1.91.25,3.67-.83,3.98-2.6.4-2.22-1.69-2.29-3.3-2.53-1.45-.22-3.13.63-4.76-1.04,3.95-.97,5.68-4.2,8.26-6.43-.03,2.46,1.41,2.94,2.99,1.62,1.62-1.35,3.7-2.41,4.48-4.62.29-.71.79-1.21,1.51-1.49Z"/>
        <path class="cls-5" d="M98.36,128.63c4.82-1.13,9.45-2.8,13.87-5.03,1.06-.53,2.24-1.52,3.39-.36,1.21,1.23.84,2.72.22,4.15-.88,2.02-3.14,3.26-3.22,5.73-.62.01-1.24.03-1.87.03-8.8.09-7.59-1.14-7.89,8.08-.2,6.12,1.44,12.03,1.55,18.1-1.05.41-1.09,1.69-1.7,2.22-2.11,1.83-1.82,5.97-5.75,6-.03-7.06,0-14.12-.12-21.17-.03-1.66.62-3.48-.65-5.01.03-.48.05-.97.08-1.45,1.29-3.65.56-7.67,2.08-11.28Z"/>
        <path class="cls-8" d="M112.63,193.02c-1.19.65-.31,2.34-1.5,2.98-.5,0-1,0-1.49,0,.63-2.24,1.48-4.28-2.34-4.62-3.01-.27-2.45-2.19-.78-3.85,1.32-1.31,2.68-3.3,1.02-4.38-1.36-.88-4.65.13-5.05,1.79-1.06,4.41-4.19,3.45-7.04,3.58.6-3.01.17-6.45,3.52-8.33.26-.14.15-.94.21-1.43,3.24-1.24,6.47-2.49,9.71-3.73h.01c-.04.26-.06.5-.11.75-.33,1.6-2.42,3.23-.87,4.71,1.54,1.48,3.14-.26,4.57-1.12,1.17-.71,2.54-1.06,3.14.42.76,1.9,2.34,3.51,2.26,5.74-.53,2.45-1.91,4.35-3.76,5.97-.98.03-1.48.53-1.49,1.51Z"/>
        <path class="cls-4" d="M117.88,185.54c.08-2.23-1.5-3.83-2.26-5.74-.6-1.49-1.97-1.13-3.14-.42-1.43.86-3.03,2.61-4.57,1.12-1.55-1.49.54-3.11.87-4.71.05-.24.07-.49.11-.73,3.94.36,5.13-2.36,5.87-5.4.72-2.95-.7-4.78-3.45-5.67-.89-.29-1.66-.56-1.68-1.66,2.7-.35,5.43-.55,8.08-1.12,1.65-.35,2.74,0,2.33,1.63-1.32,5.26.75,10.27.78,15.4.02,2.76-.54,5.44-2.95,7.3Z"/>
        <path class="cls-8" d="M109.63,162.33c.02,1.1.79,1.37,1.68,1.66,2.74.89,4.17,2.72,3.45,5.67-.74,3.05-1.93,5.76-5.87,5.4,0,0-.01-.01-.01-.01-.3-1.66,2.54-3.16.62-4.69-2.11-1.69-3.97.18-5.66,1.31-2.16,1.46-4.24,3.02-6.93,3.38.02-2.5.04-5,.07-7.51,3.92-.03,3.64-4.17,5.75-6,.61-.53.65-1.81,1.7-2.22.92,2.42,2.61,3.52,5.22,3Z"/>
        <path class="cls-4" d="M113.34,137.55c1.84-1.14,4.2-1.35,5.49-.03,1.48,1.51.43,3.74-.74,5.43-1.18,1.69-1.74,3.71-1.62,5.58.39,5.87-3.83,8.48-7.66,11.31-1.07.79-2.03-.1-2.22-1.53-.43-3.16-.93-6.31-1.41-9.46.83.13,1.99-.03,2.43.46.9,1.01,1.32,2.47,3.07,1.1,1.48-1.17.81-2.32.23-3.59-.51-1.11-1.19-2.79.56-3.02,5.64-.74,2.61-3.78,1.87-6.26Z"/>
        <path class="cls-8" d="M113.34,137.55c.74,2.47,3.77,5.52-1.87,6.26-1.75.23-1.07,1.9-.56,3.02.58,1.27,1.25,2.42-.23,3.59-1.74,1.38-2.16-.08-3.07-1.1-.44-.49-1.6-.33-2.43-.46-.02-.86-.05-1.71-.05-2.57q-.05-8.49,8.21-8.74Z"/>
        <path class="cls-4" d="M109.64,196.01c.5,0,1,0,1.49,0-.09,1.29-1.54,3.26,1.5,2.99-.79,2.21-2.86,3.27-4.48,4.62-1.59,1.32-3.03.84-2.99-1.62.25-.25.5-.5.75-.75.97-.03,1.47-.54,1.48-1.51.96-1.12,2.08-2.14,2.26-3.73Z"/>
        <path class="cls-7" d="M120.98,142.9c1.53,5.3,1.77,10.67.64,16.07.18-5.37-1.19-10.67-.64-16.07Z"/>
        <path class="cls-4" d="M112.63,193.02c.01-.98.51-1.48,1.49-1.51-.02.97-.52,1.47-1.49,1.51Z"/>
        <path class="cls-7" d="M91.45,225.85c.08.27.17.54.25.81-.45,2.1.57,3.11,2.53,3.54,1.73.38,3.6.43,5,1.78-.24.03-.48.04-.72.05-1.09-.04-2.25-.45-3.11.64-1.26-.17-2.53-.34-3.79-.51-.97-.07-1.94-.15-2.91-.22-.07-1.58,2.32-2.8.69-4.61.45-.83,1.15-1.31,2.06-1.48Z"/>
        <path class="cls-10" d="M95.4,232.68c.86-1.09,2.02-.68,3.11-.64-.34,1.33-1.55,1.96-2.33,2.94-.9-.55-.78-1.44-.78-2.3Z"/>
        <path class="cls-5" d="M144.05,189.3c.33.59.89.71,1.5.73.07,4.37.75,8.76-.04,13.11-.33,1.79-.21,5-2.61,4.44-1.95-.45-3.36-3.82-2.21-5.9,2.05-3.71.21-6.12-1.68-8.77-.76-1.06-2.3-1.87-1.28-3.49.96-1.54,2.27.04,3.4-.22.97.03,1.94.06,2.91.1Z"/>
        <path class="cls-4" d="M120.1,228.16c.18-.94.36-1.85,1.51-.71-.33.62-.88.74-1.51.71Z"/>
        <path class="cls-5" d="M138.06,175.06c.75.25,1.51.5,2.26.74.25.25.51.5.76.75.61,1.43.9,3.18,1.9,4.24,3.13,3.33.29,3.45-1.93,4.01-3.09-1.24-5.67-3.11-7.43-6,.12,0,.25-.01.37,0q4.81.89,4.07-3.75Z"/>
        <path class="cls-5" d="M82.67,223.7c-3.27-.11-5.28-1.65-6.92-4.61-1.94-3.5-5.6-5.78-7.36-9.61-2.5-5.46-.65-11.26,3.12-15.78,3.73-4.47,8.9-4.74,13.36-7,2.39-1.21,3.14,2.22,5.24,1.84-1.7,5.57-1.17,11.43-2.23,17.09-.22.79-.44,1.57-.66,2.35-.92.51-.77,1.42-.82,2.25-2.94.46-5.67-.93-8.79-1.22,1.17,3.88,4.7,4.21,7.29,5.73.02,1.5.03,3.01.05,4.51-.01.23-.02.45-.03.68-.25.01-.5.03-.75.04-1.01,1.04-1.15,2.43-1.49,3.74Z"/>
        <path class="cls-10" d="M96.97,167.54c-.02,2.5-.04,5-.07,7.51-.57,2.05-1.48,4.3,2.27,3.73-.06.49.05,1.28-.21,1.43-3.35,1.88-2.92,5.32-3.52,8.33-.8,7.72-1.59,15.44-2.39,23.15-1.61,1.74.33,4.31-1.39,6.03,0,0,0,0,0,0-2.95-2.77-.65-5.97-.75-8.98,2.11-1.17,1.72-2.73.67-4.38,2.88-4.04,1.43-8.84,2.24-13.24.29-1.57.72-3.5-.76-4.96,1.11-.84,2.12-1.73,1.27-3.31-.38-.71-1.05-1.02-1.84-.86-1.58.32-1.58,1.62-1.69,2.84-.21,0-.43-.02-.64-.02-.5-2.82-.77-5.63.75-8.27-.13,1.75.09,3.49,2.28,3.46,2.2-.03,2.11-1.83,2.27-3.53.27-3.03-.94-5.88-.82-8.86,1.62-1.74,1.96-3.46-.08-5.15,1.15-.93.82-2.24.83-3.43.01-5.41,0-10.83-.02-16.24.02-.62.23-1.14.83-1.42,1.27,1.53.62,3.34.65,5.01.12,7.06.09,14.12.12,21.17Z"/>
        <path class="cls-4" d="M52.04,227.37c.25-.73.5-1.46.75-2.19,2.16-.26,4.4.14,6.15,1.07,4.6,2.46,9.22,2.29,14.06,1.27,1.43-.3,2.97-.08,4.46-.1,1.77,2.24,4.22-1.39,6.01.7-.87.57-.76,1.47-.77,2.33-4.73,1.42-9.51,1.62-14.43,1.15-2.64-.25-5.31-2.35-8.04-.29-.43,3.42-2.45,5.06-5.81,5.19.18-.96.61-1.94.5-2.86-.37-3.08.77-4.26,4.08-3.26-2.1-2.01-4.95-1.51-6.94-3Z"/>
        <path class="cls-3" d="M94.64,167.6c-.12,2.98,1.09,5.83.82,8.86-.15,1.7-.07,3.5-2.27,3.53-2.19.03-2.41-1.71-2.28-3.46.01-.75.03-1.5.04-2.25,2.9-1.68.79-4.49,1.5-6.66.73,0,1.46,0,2.19-.01Z"/>
        <path class="cls-4" d="M90.16,184.8c.21,0,.43.01.64.02.29.49.59.98.88,1.47,0,.24-.02.47-.04.71-.76.51-.78,1.03,0,1.55-.74,5.22-1.47,10.44-2.21,15.66-.34.67-.81,1.19-1.56,1.41,1.07-5.65.53-11.52,2.23-17.09.02-1.24.03-2.49.05-3.73Z"/>
        <path class="cls-6" d="M94.64,167.6c-.73,0-1.46,0-2.2.01-.48-.28-.95-.55-1.43-.83-.04-.99-.08-1.97-.12-2.96.51-.53,1.03-1.05,1.54-1.58.71.07,1.42.14,2.13.21,2.03,1.69,1.7,3.41.08,5.15Z"/>
        <path class="cls-8" d="M83.45,228.12c-1.79-2.09-4.24,1.54-6.01-.7.85-1.05,2.07-.82,3.11-.69,2.8.36,2.76-1.09,2.11-3.03.34-1.31.49-2.7,1.49-3.74,0,1.5.02,3.01.03,4.51-.18,1.09.11,2.07.78,2.94-.51.24-1.01.47-1.52.71Z"/>
        <path class="cls-10" d="M91.02,166.79c.48.28.95.55,1.43.83-.71,2.17,1.41,4.98-1.5,6.66.37-2.49-.67-5,.07-7.49Z"/>
        <path class="cls-8" d="M95.45,125.74c.47-.06.95-.11,1.42-.17-.05,3.95-2.03,7.58-2.07,11.58-1.57-3.9.4-7.62.65-11.41Z"/>
        <path class="cls-8" d="M94.56,162.46c-.71-.07-1.42-.14-2.13-.21,1.05-6.39.66-12.84.78-19.26.72-.07,1.44-.14,2.16-.2,0,5.41.03,10.83.02,16.24,0,1.2.32,2.5-.83,3.43Z"/>
        <path class="cls-5" d="M72.96,253.64c1.59,1.12,2.1,2.09-.48,2.22-2.33.11-4.67.03-7,.03-.39-.56-.98-.63-1.59-.78-2.33-.57-4.8-1.49-4.72-4.23.08-2.84,3.77-5.14,6.61-4.81,1.17.14,2.48.5,3.45-.66,2.92.4,6.17.13,7.48,3.75-1.1.79-.64,1.96-.75,2.99-1-.25-1.99-.49-2.99-.74-.95-.26-2.32-1.56-2.72.09-.43,1.76,1.47,1.82,2.72,2.15Z"/>
        <path class="cls-7" d="M60.21,231.3c2.73-2.06,5.4.04,8.04.29,4.93.47,9.7.28,14.43-1.15.74.74,1.48,1.49,2.22,2.23-.48.26-.96.52-1.44.78-.5-.02-1.01-.03-1.51-.05-1,0-2.01,0-3.01,0-3.22-.69-6.47-.91-9.75-.65-3.07,0-5.85-1.82-8.98-1.46Z"/>
        <path class="cls-4" d="M57.98,237.92c.11-.1.21-.2.32-.3-.02.07-.01.15-.05.19-.07.06-.16.08-.25.12,0,0-.01-.01-.01-.01Z"/>
        <path class="cls-4" d="M57.99,237.93c-.25.25-.5.5-.75.75,0,0-.02-.02-.02-.02.25-.25.5-.5.75-.74,0,0,.01.01.01.01Z"/>
        <path class="cls-10" d="M108.13,100.91c-.2-.24-.4-.48-.61-.72.2.24.4.48.61.72Z"/>
        <path class="cls-4" d="M105.85,105.45c-.21,0-.42,0-.63.03.21-.22.42-.44.63-.66.02.21.02.42,0,.63Z"/>
        <path class="cls-3" d="M141.08,176.55c-.25-.25-.51-.5-.76-.75,5.2-4.59,3.68-10.6,3.4-16.33-.09-1.91-1.6-4.05,1.09-5.38-.27,1.9.28,3.7.77,5.47,1.25,4.55-.35,9.04-.06,13.57.2,3.12-2.65,2.67-4.44,3.41Z"/>
        <path class="cls-3" d="M144.82,148.1c.24-1.5-.62-3.18.75-4.49.81,1.67,1.86,3.39-.75,4.49Z"/>
        <path class="cls-3" d="M144.81,151.84c-.96-.75-.96-1.5,0-2.24.96.75.96,1.5,0,2.24Z"/>
        <path class="cls-7" d="M115.61,110.67c-.24,0-.47.02-.71.05-.82-.75-1.64-1.5-2.45-2.26,1.06-.27,2.13-.53,3.19-.8,0,1-.02,2-.03,3Z"/>
        <path class="cls-4" d="M112.44,108.47c.82.75,1.64,1.5,2.45,2.26,0,.24-.02.48-.02.72-4.87-.35-7.43-2.2-8.26-5.97,2.49-.06,3.14,3.46,5.83,2.99Z"/>
        <path class="cls-4" d="M78.94,233.42c1,0,2.01,0,3.01,0,.39,3.03-1.16,6.37,1.48,9.03,0,.6-.11,1.14-.69,1.47-2.19.21-2.6,1.55-2.08,3.38.41,1.42,1.03,2.8-.21,4.11-.7-1.3-1.26-2.7-2.13-3.88-1.13-1.54-1.09-2.66.63-3.61,1.08-.6,2.09-1.78,1.1-2.62-2.82-2.41-1.46-5.15-1.12-7.86Z"/>
        <path class="cls-1" d="M72.96,253.64c-1.25-.33-3.14-.4-2.72-2.15.4-1.65,1.77-.34,2.72-.09,0,.75,0,1.49,0,2.24Z"/>
        <path class="cls-1" d="M75.95,252.15c.11-1.03-.35-2.21.75-2.99.87.46,1.64,1.04,1.32,2.16-.31,1.06-1.3.74-2.07.83Z"/>
        <path class="cls-1" d="M82.75,243.91c.58-.33.68-.88.69-1.47,0-2.99.02-5.98.03-8.98.48-.26.96-.52,1.44-.78,1.28-.16,2.72.52,3.79-.73.97.07,1.94.14,2.91.22,2.64,7.14,1.7,14.28.04,21.43-2.98.33-5.97-1.52-8.95.03.02-3.24.04-6.48.05-9.72Z"/>
        <path class="cls-5" d="M93.06,211.69c.8-7.72,1.59-15.44,2.39-23.15,2.86-.13,5.98.82,7.04-3.58.4-1.66,3.69-2.67,5.05-1.79,1.66,1.07.31,3.06-1.02,4.38-1.67,1.66-2.23,3.58.78,3.85,3.81.34,2.97,2.38,2.34,4.62-.18,1.59-1.29,2.62-2.26,3.73-.97.03-1.47.53-1.48,1.51-.25.25-.5.5-.75.75-2.58,2.23-4.31,5.46-8.26,6.43,1.62,1.68,3.3.82,4.76,1.04,1.61.25,3.69.31,3.3,2.53-.32,1.78-2.07,2.85-3.98,2.6-2.83-.37-5.51-1.29-7.9-2.93Z"/>
        <path class="cls-6" d="M84.97,227.41c-.67-.87-.95-1.84-.78-2.94,1.6-1,2.9-2.78,5.18-2.02.55.43,1.09.87,1.64,1.3.14.02.28.04.42.06,0,.68.01,1.36.01,2.04-.92.17-1.62.65-2.06,1.48-1.47.03-2.94.05-4.42.08Z"/>
        <path class="cls-10" d="M91.67,217.72c-.02.76-.04,1.53-.05,2.29-.22-.01-.44-.02-.66,0-.13-1.13-2.74-1.14-1.39-2.81.67-.83,1.24.88,2.1.52h0Z"/>
        <path class="cls-7" d="M90.96,220c.22,0,.44,0,.66,0-.06,1.27-.11,2.54-.17,3.81-.14-.02-.28-.04-.43-.06-.03-1.02-.07-2.04-.1-3.05,0-.24.02-.47.04-.7Z"/>
        <path class="cls-5" d="M99.17,178.78c-3.75.58-2.83-1.68-2.27-3.73,2.69-.36,4.76-1.93,6.93-3.38,1.69-1.14,3.55-3.01,5.66-1.31,1.92,1.53-.91,3.03-.62,4.69-3.24,1.24-6.47,2.49-9.71,3.73Z"/>
        <path class="cls-8" d="M105.9,201.26c.01-.98.51-1.48,1.48-1.51-.02.97-.51,1.48-1.48,1.51Z"/>
        <path class="cls-10" d="M84.97,227.41c1.47-.03,2.94-.05,4.42-.08,1.63,1.81-.75,3.03-.69,4.61-1.07,1.24-2.51.57-3.79.73-.74-.74-1.48-1.49-2.22-2.23,0-.86-.1-1.75.77-2.33.51-.24,1.01-.47,1.52-.71Z"/>
        <path class="cls-3" d="M90.96,220c-.02.23-.03.47-.04.7-1.14.03-1.5.75-1.53,1.75-2.29-.76-3.58,1.02-5.18,2.02,0-1.5-.02-3.01-.03-4.51.25-.01.5-.03.75-.04.1-.06.29-.15.29-.17-.07-.18-.17-.34-.26-.51-.02-1.5-.03-3.01-.05-4.51,1.37-1.21.37-3.22,1.5-4.51.04-.83-.1-1.73.81-2.25,1.12.79,2.41.77,3.7.76.1,3.01-2.2,6.21.75,8.98-.86.35-1.43-1.36-2.1-.52-1.34,1.67,1.27,1.68,1.39,2.81Z"/>
        <path class="cls-8" d="M86.4,210.22c-1.13,1.29-.13,3.3-1.5,4.51-2.59-1.52-6.12-1.85-7.29-5.73,3.12.29,5.85,1.68,8.79,1.22Z"/>
        <path class="cls-6" d="M90.92,208.73c-1.29.01-2.57.03-3.7-.76.22-.78.44-1.57.66-2.35.75-.22,1.22-.74,1.56-1.41.71.05,1.43.09,2.15.14,1.05,1.66,1.44,3.21-.67,4.38Z"/>
        <path class="cls-8" d="M84.95,219.24c.09.17.19.33.26.51,0,.02-.19.11-.29.17,0-.23.01-.46.03-.68Z"/>
        <path class="cls-8" d="M91.59,204.35c-.72-.05-1.43-.09-2.15-.14.74-5.22,1.47-10.44,2.21-15.67,0-.52,0-1.03,0-1.55.02-.24.03-.47.04-.71.46-.05.92-.09,1.37-.14,1.48,1.45,1.05,3.38.76,4.96-.81,4.41.64,9.2-2.24,13.24Z"/>
        <path class="cls-6" d="M93.06,186.15c-.46.05-.92.09-1.37.14-.29-.49-.59-.98-.88-1.47.11-1.22.11-2.52,1.69-2.83.79-.16,1.46.15,1.84.86.84,1.57-.16,2.47-1.27,3.31Z"/>
        <path class="cls-10" d="M91.65,186.99c0,.52,0,1.03,0,1.55-.77-.52-.75-1.04,0-1.55Z"/>
        <path class="cls-10" d="M83.47,233.46c0,2.99-.02,5.98-.03,8.98-2.65-2.65-1.1-6-1.48-9.03.5.02,1.01.03,1.51.05Z"/>
        <path class="cls-10" d="M89.38,222.45c.03-1,.39-1.72,1.53-1.75.03,1.02.07,2.04.1,3.05-.54-.43-1.09-.87-1.63-1.3Z"/>
      </g>
    </g>
  </g>
</svg>