<?xml version="1.0" encoding="UTF-8"?>
<svg id="Warstwa_2" data-name="Warstwa 2" xmlns="http://www.w3.org/2000/svg" xmlns:xlink="http://www.w3.org/1999/xlink" viewBox="0 0 156.52 239.5">
  <defs>
    <style>
      .cls-1 {
        fill: #30353e;
      }

      .cls-1, .cls-2, .cls-3, .cls-4, .cls-5, .cls-6, .cls-7, .cls-8, .cls-9, .cls-10, .cls-11, .cls-12, .cls-13, .cls-14, .cls-15, .cls-16, .cls-17, .cls-18, .cls-19, .cls-20, .cls-21, .cls-22, .cls-23, .cls-24, .cls-25, .cls-26, .cls-27, .cls-28, .cls-29, .cls-30, .cls-31 {
        stroke-width: 0px;
      }

      .cls-2 {
        fill: #36383c;
      }

      .cls-3 {
        fill: #0c0d0d;
      }

      .cls-4 {
        fill: #20242b;
      }

      .cls-5 {
        fill: #252b37;
      }

      .cls-6 {
        fill: #424952;
      }

      .cls-7 {
        fill: #202633;
      }

      .cls-8 {
        fill: #292e36;
      }

      .cls-9 {
        fill: #1c1c1c;
      }

      .cls-10 {
        fill: #212020;
      }

      .cls-11 {
        fill: #454951;
      }

      .cls-12 {
        fill: #42474e;
      }

      .cls-13 {
        fill: #2c313b;
      }

      .cls-14 {
        fill: #3f4247;
      }

      .cls-15 {
        fill: #2a303e;
      }

      .cls-16 {
        fill: none;
      }

      .cls-17 {
        fill: #29303d;
      }

      .cls-18 {
        fill: #40464f;
      }

      .cls-19 {
        fill: #4f4235;
      }

      .cls-20 {
        fill: #837060;
      }

      .cls-21 {
        fill: #262a31;
      }

      .cls-22 {
        fill: #1a1b1d;
      }

      .cls-23 {
        fill: #282829;
      }

      .cls-24 {
        fill: #44494f;
      }

      .cls-25 {
        fill: #31353e;
      }

      .cls-26 {
        fill: #635449;
      }

      .cls-32 {
        clip-path: url(#clippath);
      }

      .cls-27 {
        fill: #897666;
      }

      .cls-28 {
        fill: #3e4148;
      }

      .cls-29 {
        fill: #232730;
      }

      .cls-30 {
        fill: #131416;
      }

      .cls-31 {
        fill: #373d48;
      }
    </style>
    <clipPath id="clippath">
      <rect class="cls-16" width="156.52" height="239.5"/>
    </clipPath>
  </defs>
  <g id="Warstwa_1-2" data-name="Warstwa 1">
    <g class="cls-32">
      <g>
        <path class="cls-30" d="M137.99,118.34c.51,3.75,1.5,7.51-.09,11.24-2.08,3.16-2.6,6.53-1.97,10.3,1.12,6.7,1.5,13.51,2.91,20.18,1.12,5.33-.29,6.97-5.82,7.17-3.41-.36-6.76-1.26-10.24-1.05-1.97.12-4.26,1.08-5.5-1.54.32,2.02-.72,3.01-2.57,3.38-1.81-.59-1.77-2.27-1.99-3.67-.63-3.87-2.64-5.42-5.42-2.99-5.34,4.67-11,.35-16.36,1.6-1.3.3-2-1.23-2.32-2.51-.33-1.3-1.06-2.3-2.4-2.6-1.42-.32-3.53-1.08-4.05.43-.66,1.91,1.66,1.52,2.8,1.91.97.33,2.22.63,2.32,1.63.33,3.1,2.55,4.15,4.89,5.42,2.05,1.11,3.67,3.07,2.69,5.54-1.06,2.66-3.46,3.73-6.11,3.58,1.29.72,3.49,1.05,2.66,3.7-3.87,1.47-7.82.35-11.74.38-.38-.01-.77-.07-1.14-.15-2.32-.59-4.7-.2-7.05-.35-3.4-.22-4.39-1.47-3.81-4.8.09-.49.25-.96.4-1.44.48-1.56,1.15-3.27-.37-4.5-1.39-1.13-2.85-.13-4.14.58-1.37.76-2.55.72-3.73-.36-1.53-1.39-3.37-1.8-6.03-1.68,1.96,1.94,3.89,2.67,5.79,3.44,2.88,1.17,3.39,2.46,1.89,5.1-1.52,2.66-3.59,4.54-6.95,3.83-4.5-.95-8.86,1.05-13.33.58-1.85.25-4.02-1.31-5.52.97-.38.4-.8.72-1.29.97-4.37,2.04-7.41-.75-10.37-3.11-1.78-1.41-1.32-3.2.32-4.81,2.73-2.69,6.03-1.63,9.47-1.47-.94-4,.09-7.42,1.56-10.94,1.57-3.76.5-7.74-1.63-10.99-1.73-2.65-2.54-5-1.27-7.98.64-1.51.48-3.2.46-4.81-.03-2.26,1.1-3.99,2.2-5.83,1.52-2.57.84-4.41-1.55-4.66-2.11-.22-4.43-.45-3.76-3.27.63-2.63,2.76-2.91,5.06-1.79.23.11.48.14,1.15,0-.91-7.17,3.95-12.92,5.12-19.71.08-.49.31-1.13.73-1.26,2.87-.94,4.25-3.49,6.29-5.36,2.62-2.41,5.52-4.98,9.5-5.22,2.85-.29,5.51-1.5,8.4-1.65,1.49-.08,2.54-.92,2.78-2.55.14-.97.26-1.96,1.43-2.76,1.11,1.98,1.84,4.23,4.39,4.65.46.08.96.53,1.41.38,2.8-.97,5.62-.16,8.43-.17,4.97-.01,8.61-2.33,11.65-6.3,2.08-2.72,4.21-5.95,8.4-5.94,6.84,1.23,11.9,5.88,17.65,9.21,2.81,3.11,2.67,3.62-1.34,4.53-.57.13-1.25-.09-1.54.69-1.29,3.36-3.12,2.3-4.94.38-1.48,4.45-6.41,6.58-6.27,11.63,2.15.4,3.24,2.18,3.19,4.66-.05,2.45.99,5.26,2.81,5.55,2.27.36,4.06-2.19,4.75-4.53.67-2.29,2.02-3.95,3.65-5.52,4.27-4.1,9.66-2.62,11.62,3.05,1.34,3.86,1.83,8,3.81,11.65Z"/>
        <path class="cls-22" d="M141.6,239.6c.13,6.84.8,13.63,1.32,20.44.38,4.89-3.18,8.99-5.66,13.01-2.8,4.51-6.4,8.54-9.74,12.7-2.54,3.16-4.33,3.17-7.51.26-1.28-1.7-.21-3.41-.03-5.11,1.62-3.12,2.69-6.45,5.93-8.67,2.27-1.56,1.54-4.52.88-6.93-.48-1.76-1.16-3.45-.99-5.32-.36,2.96.81,5.98-.33,8.93-.64,1.65-1.1,3.34-3.18,3.69-2.75.35-4.53-1.22-5.88-3.24-1.68-2.52-3.66-4.72-6-6.61-.78-.63-1.44-1.39-1.91-2.28-.7-1.34-1.43-2.7-.41-4.2.96-1.42,2.34-1.67,3.96-1.45,1.01.14,2.46.91,2.8-.74.31-1.48-1.13-1.71-2.19-2.01-2.89-.82-3.46-2.92-3.14-5.54.25-2,1.29-3.74,1.94-5.67-1.2-.19-3.25.29-3.06-1.28.4-3.4-1.44-7.2,1.76-10.53-3.99.6-3.58-2.26-3.95-4.67-.37-2.43-.66-4.74,2.39-6.32-3.91-1.89-7.58-2.6-11.26-2.43-3.35.16-6.74-.02-10.07.58-1.84.34-3.58-.13-4.97-1.18-5.58-4.17-12.16-3.96-18.58-4.38-2.61-.17-5.23.09-7.85-.14-.38-.04-.75-.12-1.12-.22-7.34-1.9-14.92-3.05-21.7-6.74-.98-.53-2.07-.93-2.87-1.73-1.54-1.53-1.62-2.8.82-3.43,5.86,2.25,12.32,2.54,18.01,5.37,3.82,1.71,7.9,2.38,11.99,2.96,3.28.85,6.6.14,10.66.59-6.1-2.57-11.65-3.5-17.43-3.46-2.1.02-4.62-.25-2.87-3.6,3.36-.96,6.76-1.51,10.26-.98,4.31.65,8.69-.11,13,.56,4.65,1.01,9.47.97,14.07,2.24,2.45.9,4.91,1.42,7.43.24.69-.19,1.41-.28,2.12-.32,3.58-.04,7.17.12,10.76-.09,1.14-.07,1.92-.42.24-1.18-.33-.08-.64-.19-.96-.29-1.66-.52-3.41-.71-5.04-1.28-1.78-.63-2.25-1.94-.35-2.78,3.44-1.52,4.02-4.01,3.18-7.25-.09-.8,1.27-1.43.46-2.19-.51-.48-1.37.1-2.08.14-1.35.07-2.69.22-4.03.18-1.27-.04-2.52-.23-2.48-1.97,1.13-1.77.94-2.81-1.41-3.23-1.43-.25-3.91.11-3-2.83,5.27-.77,10.65-1.43,15.52,1.18,2.48,1.32,4.54-1.16,6.73.09,1.32,5.79,1.18,11.7,1.53,17.57.15,2.51.25,4.94,2.18,6.84.45.41.79.89,1,1.46.41,1.95-.31,3.8-1.46,5.07-1.66,1.82-2.02,3.73-1.76,5.97-.38,5.41,1.38,10.58,1.82,15.9.27,3.31.3,6.64.52,10.6,2.47-2.95,4.36-5.45,4.77-8.78.41-1.56,1.34-2.42,3-1.93,1.47.44,1.11,1.77,1.13,2.84.03,1.25-.15,2.52.16,3.73,1.08,4.21-.09,7.37-4.12,9.27-1.9.89-1.85,1.99-.64,2.93,6.06-3.74,5.69-10.1,6-16.12.12-2.35,1.2-3.06,3.21-3.15.62-.03,1.25-.04,1.87-.05q6.12-.09,6.34,5.89c.01.38.08.74.26,1.07Z"/>
        <path class="cls-17" d="M54.92,245.62c-.68.71-1.3,1.49-2.07,2.1-1.47,1.18-4.01,2.18.14,3.24,1.9.48,1.28,2.25.77,3.43-.63,1.47-1.6,2.79-2.5,4.13-.5.74-1.29,1.79-.74,2.34,3.33,3.27-.46,4.34-1.75,6.21-.69,1-2.84,1.7-1.46,3.24,1.48,1.65,3.01.12,4.19-.86,1.36-1.14,1.88-3.29,4.31-3.39-.6,2.44-2.99,3.95-3.17,6.48-2.34,6.39-5.41,12.46-8.06,18.71-1.11,2.62-2.69,4.05-5.72,3.32-2.89-.7-5.89,1.21-8.76-.29-1.44-.87.31-3.54-2.16-3.83,1.87-4.6-.3-9.04-.56-13.56-1.89-4.46-2.61-9.05-1.57-13.83-.86-6.62,2.47-13.03.98-19.68.15-1.58.12-3.16.24-4.74,1.06-6.53,2.97-12.94,2.66-19.65,2.53-2.15,5.21-.12,7.82-.18,3.87-.09,2.19,4.1,3.73,5.87.41-.1.43-.28.37-.6-.28-1.38-1.82-2.84-.51-4.11,1.28-1.25,3.47-.92,4.56,0,4.63,3.96,10.7,3.07,15.86,5.13,1.1,3.39-.72,6.88.62,10.4.93,2.44-2.12,2.02-3.3,2.74-.24,1.05.37,1.58.77,2.19.76,1.16,1.83,2.51.41,3.62-1.4,1.1-2.56-.31-3.5-1.21-2.53-2.41-5.1-4.41-9.03-2.38,5.39-.13,7.79,1.59,7.44,5.16Z"/>
        <path class="cls-29" d="M54.92,245.62c-.96-3.13-3.53-4.79-6.61-4.19-1.06.21-2.42,1.04-2.86-.45-.49-1.65,1.37-1.44,2.24-1.82,3.99-1.72,6.84.23,9.46,3.03.66.71,1.46,2.34,2.57,1.3,1.08-1.01-.37-1.95-1.08-2.73-.85-.93-1.9-1.84-1.31-3.23.62-1.46,1.83-.72,2.9-.55,1.75.29,1.53-1.09,1.21-1.9-.7-1.81-3.11-3.41-.23-5.51.15-.11-1.72-2.86.42-4.18-.3-1.62.45-2.94,1.96-2.85,1.24.07,1.09,1.73,1.18,2.81.1,1.24.03,2.49.05,3.73.04,2.26-.99,5.02,3.44,4.23,1.56-.28,3.48,1.72,5.51,2.34,2.01.62,2.03-.32,2.45-1.41.48-1.22.24-2.45-.06-3.67-.38-1.57-1.02-3.12-1.06-4.72-.08-3.15-1.53-3.67-4.52-3.63-5.23.08-10.29-1.62-15.29-3.09-2.33-.68-3.19-2.86-2.85-5.1.38-2.5,2.63-2.31,4.46-2.26,1.61.04,3.22.11,5.53-.03-.2,0-.68-.67-.54-.19.02.05-.1.11-.35.1-2.18-.05-4.74,1.02-5.91-2,6.22-.28,12.41.15,18.57.82,2.15.23,4.26.74,6.1,2.36,4.83,4.24,10.64,1.92,16.01,1.74,4.44-.15,8.48,1.23,12.67,2.06.63.12,1.03.68,1.12,1.36.09.73-.28,1.14-.97,1.33-5.25,1.46-1.45,5.26-1.54,7.68-.1,2.74,2.65.47,4.12.66.33.04.65.18,1,.28-.23,1.42-1.47,1.66-2.32,2.31-.69.53-1.82,1.36-1.43,1.99,1.43,2.31.47,4.36-.07,6.59-.31,1.3.75,1.67,1.94,1.15.76-.33,1.07-1.4,2.51-1.24-.92,2.34-1.99,4.54-2.65,6.85-.79,2.78-1.19,5.49,3.19,5.61,2.27.06,2.67,1.84,2.29,3.78-.41,2.09-1.78,1.59-3.15,1.12-1.51-.52-3.09-1.38-4.33.48-1.21,1.82.19,3.49,1.14,4.27,3.3,2.7,5.99,5.84,8.42,9.29.98,1.39,2.58,1.83,4.27,1.79-1.39,2.74-1.01,5.85-1.84,8.71.45,1.87-.8,3.53-.7,5.35-1.37,2.4,1.22,4.32.82,6.6.47.94.27,1.92.22,2.9-1.68,1.11-2.47-.09-3.28-1.26-1.58-4.33-5.83-3.33-8.99-4.5-.3-.94.53-1.25.97-1.79,2.23-2.73,2.27-4.12-.63-6.06-2.45-1.63-3.3-4.19-4.81-6.38-3.12-3.94-7.42-6.99-9.12-12.02,3.06-.89,5.99-.02,8.82.89,2.25.73,1.35-.83,1.55-1.65-.15-3.11-2.76-3.59-4.9-4.16-2.62-.7-4.08-2.21-4.78-4.69-.28-1.01-.52-2.2.47-2.73,4.74-2.52,2.16-6.35.98-9-1.33-3.01-2-5.44-.43-8.37.58-1.09.18-2.01-1.12-2.19-2.22-.31-4.03-2.01-6.43-1.79-1.09.1-2.5.04-2.54-1.5-.05-1.55,1.22-2.05,2.55-2.18,2.15-.21,4.44.56,6.58-.87-3.56-2-7.33-1.86-11.04-1.87-2.43,0-4.51.96-4.97,3.62-.43,2.47.21,4.24,3.26,4.77,2.27.4,1.76,2.37.86,3.87-.63,1.05-1.43,1.61-.24,3.1,1.66,2.08-.66,3.17-2.06,3.85-2.35,1.13-3.25,2.23-1.77,4.82.83,1.46.94,3.37-.41,4.91-1.25-1.53-2.52-3-4.46-3.79-.75-.3-1.53-.98-1.89-1.69-2.23-4.47-3.69-5.02-7.87-2.75-.37-1.29-.74-2.57-1.11-3.87-.21.06-.54.06-.62.2q-1.61,2.78-8.72,5.2Z"/>
        <path class="cls-10" d="M57.89,92.14c-3.79.4-6.03,3.72-9.37,5.03-.59.23-.76,1.48-1.17,2.24-.41.75-.82,2.06-1.32,2.1-6.73.55-4.26,7.1-6.58,10.49-1.97,2.88-3.58,7-2.04,11.31.46,1.28-1.27,2.47-2.68.9-1.09-1.22-2.04-1.83-3.41-.58-.65.59-1.42,1.36-.87,2.24.8,1.28,2.07,1.66,3.56,1.07.94-.37,2.3-.74,2.61.4.53,1.99,1.2,4.58-.44,6.02-2.26,1.97-2.28,4.22-2.24,6.72.01.99.27,2.19-.18,2.94-2.01,3.42-.13,5.53,1.48,8.56,2.04,3.84,3.12,8.73.45,13.18-1.59,2.65-2.26,5.22-.22,7.96,1.01,1.37.11,1.83-1.09,1.74-1.84-.13-3.66-.49-5.5-.69-2.46-.27-4.42,1.34-5.03,3.08-.68,1.91,1.66,2.76,3.25,3.79,2.44,1.59,4.82,2.34,7.61,1.34,2.14,2.4.38,4.42-.98,6.08-.91,1.12-2.24.04-3.12-.92-1.74-1.93-3.76-3.53-5.73-5.22-2.25-1.94-4.45-3.1-7.4-2.03.02-1.16-.15-1.9-1.7-1.5-1.11.29-2.2,1.02-3.45.6,0-.5.02-.99.02-1.49.56-3.5,2.94-5.17,7.91-5.11,1.86.02,3.7-.15,5.3-.13-3.48.53-6.93-1.37-10.69-1.18-2.3.11-1.41-2.04-1.21-3.43.47-9.56,1.9-18.99,3.25-28.45.86-6.07.84-12.26,2.08-18.31.27-1.33.55-2.67.83-4,1.49-.63,3.34-.82,1.73-3.36-.83-1.31-1.17-3.25-.36-4.98-.12-.24-.09-.45.1-.64,2.95-.93,3.62,1.38,4.38,3.26.6,1.49.89,3.1,1.58,4.58.84,1.81,2.31,2.65,4.19,2.55,2.1-.11,1.42-1.98,1.69-3.19.3-1.35.52-2.79,1.52-3.76,2.67-2.6,2-5.52.7-8.28-1.34-2.87-2.37-6.1-5.67-7.57-.45-.2-.61-.75-.33-1.28,3.97-6.79,9.51-11.55,17.27-13.48,1.28,1.25,1.14,3.33,2.61,4.48,1.2,3.5,3.37,5.7,7.37,5.44.71.27,1.52.46,1.32,1.51Z"/>
        <path class="cls-15" d="M89.32,202.95c-4.73-.86-9.59-.89-14.24-2.23,1.11-1.31,2.74-.71,4.42-1.18-5.64-.98-10.97-1.93-16.11-3.72-.47-.16-1.13-.54-1.41-.32-3.66,2.81-9.31.71-12.32,5.01-.51,1.01-.28,2.1-.31,3.16-.06.31-.22.57-.46.78-5.83-2.27-12.24-2.57-17.95-5.25-4.69-4.86-5.15-4.71-7.71,1.76-.85,2.14-.77,4.35-1.13,6.52-2.42.99-3.19-1.11-4.28-2.4-1.18-1.4-2.21-2.43-3.7-.43-.25.41-.61.77-.7,1.26-.2,1.15-.77,2.72.79,3.06,1.53.33,1.06-1.55,1.63-2.35,1.99-.95,2.99.58,3.94,1.76,1.77,2.18,3.85,3.74,6.7,4.11,1.05,2.44-.88,3.32-2.43,3.6-4.29.77-4.23,4.37-5.25,7.3.83,1.43,3.33,1.27,3.34,3.49-.19.33-.43.6-.73.82-2.7,1.47-5.44.58-7.93-.33-2.68-.98-2.59-3.63-1.66-5.72,1.29-2.89.8-5.5-.22-8.21.23-9.73-.35-19.47.6-29.19,1.47-1.75,2.84-3.62,5.27-4.14,2.26-1.25,3.86-1.3,5.68,1.26,1.32,1.87,4.06,2.72,5.95,4.33,1.11.94,2.63,1.79,1.62,3.62-.96,1.73-2.43,1.31-3.89.71-.46-.19-.84-.24-.35-.11,0,0-.01.09-.02.13,5.18,1.56,5.31,1.49,8.24-3.27,1.18-1.93,2.74-3.49,4.72-4.63.92-.34,1.88-.39,2.85-.39,1-.01,1.98.11,2.91.51,1.16.7,2.29,1.44,3.73,1.44,5.57.01,10.99,1.48,16.52,1.84.7.04,1.87.94,1.52-1.02-.14-.79,1.2-1.16,2.05-1.18,1.67-.03,3.06-.88,4.56-1.42,7.56-.78,15.03.42,22.53.87,2.34,2.06.44,2.71-1.19,3.04-6.62,1.32-13.07,4.09-20.06,2.44-.46-.11-.99-.06-1.7.51,2.5,1,4.79,1.9,7.39,1.51.99-.15,1.99-.25,2.97,0,1.19.3,2.63.46,3.02,1.85.5,1.8-1.83,1.22-2.28,2.37,1.05,1.02,2.34.6,3.53.68,1.42.1,3.25-.68,3.92,1.2.71,2-1.45,2.21-2.68,3.25,6.75.34,13.28-.29,19.78.31h0c1.88,1.64,1.41,2.45-.92,2.61-3.18.22-6.4-.45-9.56.38-.75,0-1.5.02-2.25.03-2.25.76-4.5.59-6.74,0Z"/>
        <path class="cls-4" d="M141.6,239.6c-.62-.57-.74-1.33-.61-2.07.61-3.58-1.28-4.02-4.3-4-3.41.03-6.33-.38-5.98,4.67.16,2.35-.51,4.91-.74,7.34-.18,1.83-.6,2.76-1.98,3.82-1.85,1.42-3.55,3.1-4.29,5.41-1.61-.58,1.17-3.66-2.29-3.09-1.07.18-.47-1.62.17-1.83,7.56-2.45,6.64-8.37,5.95-14.21-.08-.64.73-1.55-.41-1.87-1.28-.35-1.82.42-1.97,1.58-3.79,1.07-4.88.62-5.54-2.96-.91-4.86-1.87-9.73-2.24-14.67-.13-1.71-.83,0-1.02-.41-.69-2.65.38-4.62,2.1-6.6.9-1.03,1.08-2.7,1.58-4.07,2.91.35,2.02,2.42,1.86,4.32,4.3-2.46,7.22-6.25,10.48-9.67,1.52-.99.85-2.06.12-3.15-1.31-1.96-1.61-3.9.25-5.73,1.03-1.01.88-2.23.66-3.49-.21-1.22-.68-1.92-1.97-1.09-3.01,1.93-6.07.12-9.1.12-.86,0-1.78-.41-1.81-1.52-.02-.88.72-1.24,1.43-1.52,1.04-.41,2.13-.68,3.19-1.05,2.04-.72,2.99-2.39,2.97-4.32-.02-2.08-1.96-2.27-3.55-2.59-.85-.17-1.73-.22-2.48-.74-1.43-1.82-2.23-3.89-2.49-6.18.51-1.65,1.85-1.37,3.08-1.29,2.49.16,4.94-.66,7.45-.29,1.62.24,2.06-1.09,2.61-2.2,5.67-.02,7.31-2.93,4.77-8.03-1.32-2.66-1.23-5.83-1.53-8.65-.48-4.5-1.07-8.99-1.59-13.48-.32-2.74,1.05-5.02,3.51-6.5,1.06,10.57,1.78,21.15,1.66,31.78.41,2.31.63,4.64-.14,6.9-.75,2.19.98,3.64,1.41,5.47,1.46,9.8.98,19.67.7,29.49-.24,8.2,1.29,16.08,2.54,24.06.42,2.69,2.77,5.97-1.99,7.72-1.19.44-.03,3.03-.47,4.59Z"/>
        <path class="cls-4" d="M97.05,37.57c-3.2.08-3.7-3.06-4.9-4.8-1.5-2.16-2.03-3.34-3.97-.69-.32.44-1.09.93-1.54.83-3.32-.72-3.99,1.22-4.08,3.85-3.8.48-7.66.46-11.42,1.33-.86.2-1.75,0-2.2-.96.58-2.2,2.43-2.45,4.23-2.77,1.84-.15,3.69.14,5.7-.38-4.05-2.33-8.94-3.3-11.92-7.27.97,2.38-.21,3.2-2.23,3.41-2.71.28-5.49-.23-8.16.66-.34.12-.86.17-1.04-.19-1.43-2.92-4.73-4.74-5.45-7.85-.65-2.79.7-5.64,2.71-7.85,1.69-1.85,3.23-3.78,4.23-6.09,7.07-3.96,14.57-4.29,22.17-2.22,9.57,2.61,14.13,9.95,16.87,18.79.59,1.9,1.36,3.99.18,5.77-1.68,2.53,2.67,4.05.8,6.42Z"/>
        <path class="cls-9" d="M27.94,277.27c1.54,3.13,1.3,6.64,2.07,9.93.34,1.43-1.16,2.29-2.07,3.25-1.64,1.64-2.44,0-3.2-.95-5.36-6.67-10.23-13.66-13.92-21.42-1.88-3.95-1.04-8.09-.58-12.1.6-5.22.03-10.43.43-15.62.1-1.27-.71-1.72-1.39-2.39.71-2.14,2.58-1.49,4.04-1.57,5.57-.33,5.69-.4,6.67-5.7.27-1.46.43-3,1.98-3.79h.03c.67-.99,1.68-1.37,2.78-1.63,1.04-.25,2.19-.18,3.15-1-1.01.54-1.86.29-2.7-.18-2.66-3.28-2.37-5.5.98-7.56,1.51.36,3.5-.18,4.01,2.1,1.35,7.03-1.16,13.62-2.32,20.36-1.66,1.17.04,2.81-.58,4.12,2.26,3.66.69,7.64.21,11.22-.33,2.47-1.62,4.63-.07,7.11.36.58-.4,1.05-.93,1.36-2.06,5.07-3.64,10.09,1.42,14.46Z"/>
        <path class="cls-8" d="M137.99,118.34c-1.44-.06-1.92-1.19-2.12-2.26-.51-2.7-1.89-5.22-2.2-7.84-.52-4.25-3.3-6.03-6.65-6.14-3.32-.11-5.99,3.14-6.6,5.74-1.01,4.33-3.97,5.98-7.35,8.35-.41-3.41-3.79-5.5-2.69-9.26.14-.47-.04-3.23-2.78-1.95-1.53.72-1.26-2.24-1.21-2.29,2.34-2.28,2.12-6.3,5.41-7.9.51-.25,1.39-.58,1.18-1.27-.55-1.81.12-3.12,1.78-3.42,2.22-.41.61,1.58,1.14,2.27.52.68,1.35.63,2.05.32,1.04-.46.38-.72.04-1.46-1.15-2.54,1.41-1.3,1.88-1.25,3.58.42,4.14-.86,2.38-3.73,1.92.09,3.31,1.1,3.95,2.81,1.68,4.54,4.73,8.21,7.93,11.58,3.2,3.37,3.07,7.41,3.61,11.38.28,2.08.17,4.21.24,6.31Z"/>
        <path class="cls-25" d="M57.03,8.81c.38,1.87-.07,3.49-1.66,4.61-2.86,2.02-3.63,5.2-4.73,8.21-.44,1.18.43,1.81,1.05,2.57,1.35,1.67,3.69,2.64,3.76,5.25,0,.23.62.69.71.64,3.01-1.77,6.31-.33,9.42-.88.87-.15,1.11-.6,1.11-1.54,0-.84-2.35-.23-.87-1.52.79-.69,1.66.02,2.37.47.94.6,2.64,1.66,2.7,1.77,2.04,3.96,8.42,1.39,9.56,6.85h-6.8c.74-2.52,2.28-1.26,3.47-1.1-2.33-1.34-4.92.19-7.43.32-4.57.24-9.21.07-13.7,1.46-1.79.56-3.5.92-3.39,3.17.12,2.28-.35,4.87,2.32,6.24,1.08.56,2.43.73,3,2.04-3.17,2.27-6.23,1.26-6.71-2.44-.38-2.89-1.48-5.78-.5-8.75.27-.83,0-1.88-.79-1.47-2.45,1.26-4.22-.78-6.34-.93-.73-.31-.71-.9-.58-1.53,1.27-1.54,2.29-3.18,2.03-5.31,1.19-.95,1.25-2.38,1.44-3.68.97-6.71,4.36-11.6,10.57-14.45Z"/>
        <path class="cls-1" d="M29.33,94.19c5.51,2.56,6.83,7.79,8.22,12.96.28,1.03.08,2.13-.61,2.81-2.36,2.33-3.37,5.05-3.05,8.34.08.83-.48,1.66-1.31,1.34-1.98-.75-4.72.13-5.86-2.46-.69-1.57-1.46-3.2-1.68-4.88-.32-2.42-1.43-3.86-3.76-4.42-.44-2.66,1.45-4.33,2.73-6.22,1.71-2.53,3.54-4.99,5.32-7.48Z"/>
        <path class="cls-13" d="M21.97,226.91c-.46,1.78-1.59,3.69-1.27,5.31.95,4.8-2.54,4.52-5.27,5.1-2.01.43-4.2-.58-6.16.65-1.97-.46-1.08-1.85-.92-2.96,1.07-7.2,2.16-14.41,3.24-21.61,1.61,1.72,3.1,3.86,2.17,6.07-.94,2.22-2.72,4.7-.88,6.43,1.82,1.72,4.91,1.82,7.64,1.31.48-.09.96-.2,1.44-.31Z"/>
        <path class="cls-30" d="M101.29,75.78c-.69,2.68-2.06,4.41-4.98,5.34-2.76.88-4.44,3.83-7.26,4.98-1.24.51-2.37,1.31-3.63,2.03-.7-1.25.31-1.67.81-2.22,3.1-3.37,6.74-6.23,9.35-10.08.62-.92,1.51-1.67,2.77-1.67.98.54,1.96,1.07,2.94,1.61Z"/>
        <path class="cls-12" d="M13.65,167.63c0,1.95.32,2.64,2.88,2.62,4.37-.04,8.74,1.14,13.08,2.09-4.48,1.45-9.14.59-13.65,1.83-2.21.61-2.93,1.65-3.63,3.31-.28-3.38.4-6.63,1.31-9.86Z"/>
        <path class="cls-3" d="M17.45,180.46c-1.81,1.16-3.06,3.11-5.25,3.76-.26-1.76-.26-3.51.11-5.25,1.11-.74,2.12-1.51,3.64-1.56,2.1-.07,1.76,1.05,1.52,2.31.26.17.34.34.25.5-.09.16-.18.24-.27.24Z"/>
        <path class="cls-1" d="M21.17,108.53c.01,1.75.45,3.4,1.07,5.03.44,1.14,2.61,1.7,1.33,3.36-1.14,1.48-2.5-.1-3.77-.05.09-2.84.43-5.64,1.37-8.34Z"/>
        <path class="cls-5" d="M140.82,173.74c-1.42-1.93-4.74-3.1-1.74-6.58,1.02-1.18.36-3.82.47-5.79.9,4.07.94,8.24,1.27,12.37Z"/>
        <path class="cls-30" d="M45.02,26.94c2.07,2.82.81,4.37-2.03,5.31-.06-2.05-.58-4.28,2.03-5.31Z"/>
        <path class="cls-3" d="M105.42,146.73c.53-2.87.62-5.27-.09-7.7-.75-2.54-.21-4.98.93-7.23,1.12-2.23,3.11-2.03,4.64-.67,2.8,2.48,4.2,11.55,2.63,15.13-.84,1.92-2.16,2.78-4.35,2.82-5.15.08-6.12.99-7.15,5.92-.4,1.92-5.11,3.8-7.46,2.51-2.59-1.42-5.48-2.14-7.91-3.96-3.75-2.81-4.55-6.03-2.08-10.08,1.53-2.51-.42-6.19-3.38-6.43-1.04-.08-2.37.46-2.91-.98-.34-.9-.1-1.81.73-2.3,1.14-.68,2.7-.9,3.49.07,2.71,3.36,5.22.08,7.79-.05.95-.05,1.23-1.05.87-2.07-.46-1.29-.85-2.6-1.25-3.91-1.14-3.72-.37-5.25,3.25-6.48,3.99-1.36,4.42-2.92,1.81-6.09-.73-.88-1.23-1.53-2.36-.59-.66.55-1.59,1.17-2.16.05-.39-.76.43-1.49,1.06-1.75,2.15-.9,4.22-1.76,3.81-4.7,3.46.37,4.39-3.91,7.53-4.1,1.17-.07,2.36.08,2.75,1.39.32,1.06.56,2.34-.65,3.03-1.37.79-1.25,2.39-2.13,3.41-.86.98-.71,2.06.44,2.41,3.3.99,3.84,4.4,5.92,6.44.56.54,1.25,1.54.59,2.32-.36.43-1.36.39-2.08.44-1.86.14-3.98-1.32-5.15,1.8-.81,2.16-.3,3.76-.08,5.81.41,3.7.38,7.48,1.05,11.21.26,1.44-.06,3,1.91,4.35Z"/>
        <path class="cls-10" d="M75.43,115.08c2.4-.99,3.34-2.31,2.05-4.4-.88-1.43-.42-2.92.63-3.65,1.76-1.24,1.22,1.22,2.04,1.65.33.17.61.42.95.57,2.92,1.28,3.25,3.33.52,4.95-2.57,1.52-3.31,2.44.11,3.53,1.51.48,1.84,1.66,1.42,2.97-.52,1.62-1.95,2.25-3.49,2.38-1.74.15-1.43-1.29-1.57-2.35-.12-.9.27-2.37-1.28-2.11-1.38.23-.87,1.49-.69,2.45.67,3.63-1.99,5.94-3.71,8.46-1.78,2.6-2.5,4.37.76,6.33,2.1,1.26,2.31,3.55,1.65,5.85-1.8.11-2.09-1.41-2.92-2.23-1.02-1.02-1.9-1.89-3.52-.95-1.11.65-2.82,1.68-3.49-.13-.6-1.61-1.1-4.18,1.18-4.89,3.86-1.21,2.71-4.6,3.64-7.06.39-1.03-.56-1.88-1.44-2.38-1.2-.69-1.85.31-2.41,1.09-.42.59-.49,1.41-.88,2.03-.53.84-1.22,1.66-2.37,1.54-1.2-.13-1.61-1.01-1.72-2.1-.14-1.36-.78-2.56-2.14-2.68-1.54-.13-1.41,1.37-1.69,2.42-.51,1.89-2.93,2.27-3.65,4.32-.66-1.43-1.28-2.87-1.98-4.27-.73-1.45-.97-3.4-3.61-1.75-1.58.99-1.82-1.52-2.74-2.37-.69-.64-.9-1.58-.16-2.34,1-1.01,1.77.1,2.63.43,2.83,1.1,4.13-1.66,5.1-2.97.89-1.2-1.8-2.48-2.92-3.69-.38-.41-.97-.07-1.22.39-.53,1.01-.82,2.99-2.27.86-.69-1.01-2.97-2.31-.31-3.81,1.92-1.09.55-2.23-.02-3.39-.42-.84-1.25-1.89-.05-2.62.91-.56,2.06-1.01,3.13-.11.96.8.86,1.83.28,2.69-1.95,2.93-1.44,3.95,2.16,3.2,2.39-.5,3.84.34,3.52,3.15-.16,1.35-.06,2.74,0,4.11.04,1.03.28,2.27,1.57,2.01.98-.2,1.45-1.41,1.25-2.44-.23-1.21-.88-2.34-1.1-3.55-.36-1.98-1.97-4.49,1.72-5.15.37-4.34,4.66-4.62,7.09-6.84.8-.73,1.11-1.47.82-2.63-.26-1.03-.62-2.78.38-3.08,1.27-.39,2.96-.04,4.28.49,1.51.6,1.17,1.75-.05,2.5-1.13.69-2.23,1.54-1.96,2.87.33,1.65,1.91.44,2.88.8,1.34.51,2.46.27,2.62-1.53.06-.73.28-1.63,1.27-1.41.52.12,1.01.7,1.34,1.19.46.68.39,1.48-.24,2.04-.83.74-1.79,1.34-2.63,2.06-.9.78-1.7,1.75-.45,2.79,2.18,1.8,2.86,3.94,1.73,6.8Z"/>
        <path class="cls-3" d="M120.01,170c1.01,1.9,1.84,3.86,2.25,5.99-.02,1.52-1.03,2.15-2.3,2.28-1.79.19-3.02,1.35-4.44,2.21-2.8,1.94-5.38,1.59-8.48.16-4.38-2.02-9.3-.59-13.97-.9-.5.46-1,.39-1.49-.02-1.23-2.02-2.79-3.52-5.53-2.91.49-1.82,1.43-1.38,2.44-1.29,2.55.23,5-.84,5.74-3.09.78-2.39-1.21-4.13-3.42-5.02-2.23-.9-4.93-1.1-3.95-4.82.32-1.21-1.31-1.56-2.49-1.56-1,0-2.01,0-2.87-.62-1.56-1.11-1.72-2.63-.25-3.64,2.78-1.9,7.72.39,8.29,3.82.25,1.49.98,2.17,2.16,1.71,2.27-.88,4.36-.07,6.55.11,2.64.21,5.61,1.73,7.75-1.85.6-1.01,3.36-1.22,5.29-1.04,1.98.18,3.09.79,2.38,3.05-.6,1.9.25,3.57,1.11,5.2,1.73.8,3.73.96,5.25,2.24Z"/>
        <path class="cls-23" d="M91.57,179.72c.5,0,.99.01,1.49.02,1.26,1.54,3.01,1.59,4.76,1.48,1.48-.09,1.93.8,2.2,1.98.33,1.48-.67,1.64-1.71,1.77-1.43.45-.86-1.13-1.5-1.48-8.01.47-15.95-1.26-23.96-.75-3.01,1.6-6.29.52-9.42.81-6.06.56-12.24,1.05-18.25-.8-1.01-.01-2.01-.02-3.02-.03-.35-1.07-3.78-.59-1.49-2.98,5.25.5,10.42-1.87,15.77-.32,1.76.51,5.26-3.81,5.14-5.67-.07-1.14-.75-1.41-1.73-1.5-2.59-.22-4.33-2.29-6.66-3.14-.7-.26-1.29-.89-.94-1.76.3-.76,1.04-1.15,1.82-1.02,1.7.27,3.88.13,4.96,1.13,2,1.85,3.36,2.42,5.68.54.63-.51,2.69-1.34,3.99.31,1.11,1.42,1.46,2.84.83,4.49-.27.7-.71,1.33-.9,2.04-.69,2.56-.5,4.32,2.99,4.2,2.39-.08,4.94-.8,7.23.66-1.55,1.46-3.56.32-5.25.94,1.7-.61,3.71.54,5.26-.93,4.24,0,8.47,0,12.71,0Z"/>
        <path class="cls-3" d="M60.41,164.25c1.75-1.1,2.61-2.58,3.35-4.29,1.48-3.4,3.83-3.56,6.22-.64.7.86,1.23,1.89,2.02,2.65,1.7,1.62,3.43,2.26,4.59-.59.35-.85.58-1.72,1.79-1.29,1.66.59,2.63,1.84,3.15,3.45.36,1.1-.41,1.6-1.29,1.89-.94.31-2.06.97-2.84.71-5.42-1.83-11.19-.1-16.99-1.89Z"/>
        <path class="cls-23" d="M17.45,180.46c0-.25.01-.49.02-.74,2.51-2.07,4.4-1.94,6.89.63,2.18,2.25,5.07,3.9,7.1,6.43,1.35,1.68,2.2,1.49,2.48-.63.19-1.41,1.75-2.57.74-4.18.25-.25.5-.5.75-.75,2.32-2.16,3.42-1.28,3.76,1.51-2.07,2.74-4.96,4.87-6.09,8.31-.23.72-.92,1.47-1.68,1.11-2.43-1.13-5.38-.67-7.91-2.61,1.54-1.24,2.83-1.02,4.06-.05,1.04.82,1.83.49,2.54-.38,1.01-1.24-.14-1.85-.89-2.31-2.1-1.28-3.75-3.23-6.13-4.09-.45-.16-1.19-.39-1.24-.68-.53-3.29-2.55-2.17-4.4-1.57Z"/>
        <path class="cls-5" d="M120.01,170c-2.01-.13-4.25.25-5.25-2.24,3.97-1.33-.37-4.51,1.2-6.3.85-.1,1.19.4,1.25.83.55,3.68,2.86,3.41,5.71,2.96,3.29-.52,6.55.58,9.82,1.01,1.38,2.73.26,3.74-2.45,3.26-3.49-.62-6.85.47-10.28.49Z"/>
        <path class="cls-3" d="M95.27,108.15c-2.21-1.54-1.28-3.43-1.44-5.02-.38-3.89-1.77-4.71-4.97-2.69-1.52.96-3.08.89-4.62.32-1.25-.46-2.82-1.05-2.15-2.86.67-1.82,2.03-.93,3.07-.34,1.3.74,1.99-.07,2.92-.74,3.83-2.8,4.62-1.77,7.46,1.63,3.18,3.82-.6,6.33-.27,9.7Z"/>
        <path class="cls-3" d="M36.91,139.86c.22-1.84.43-4.18,2.1-5.52,2.21-1.77,2-3.6.86-5.55-1.17-2-.13-2.93,1.37-3.86.67-.41,1.4-.83,1.98-.12.33.4.41,1.18.3,1.72-.29,1.45-1.09,2.71-1.43,4.19-.56,2.5-.91,4.62,2,5.86.72.31,1.22,1.13.62,1.84-1.7,2.01-4.08,3.21-6.38,4.21-1.12.49-1.33-1.39-1.41-2.78Z"/>
        <path class="cls-3" d="M41.65,177.57c-1.99-.55-3.9-.87-3.96-3.38-.05-2.18,1.2-2.8,3.09-2.69,1.1.06,1.74-.52,2.5-1.26,1.98-1.9,3.81-1.07,5.41.69.33.36.8,1.11.38,1.24-3.14.93-4.01,5.07-7.43,5.39Z"/>
        <path class="cls-3" d="M56.55,158c-2.48-2.09-3.72-.83-4.44,1.95-.11.43-.96.78-1.54.96-1.1.34-2.27,1.99-3.29.79-1.33-1.57.68-2.46,1.57-3.14,2.34-1.8,4.11-4.33,6.96-5.47,1.44-.57,2.7-.21,3.8.74.68.59.38,1.34.07,2.05-.56,1.28-1.61,1.82-3.13,2.12Z"/>
        <path class="cls-10" d="M56.39,136.98c0-2.11,1.16-3.91,2.55-3.78,1.56.14,2.69,2.23,2.56,3.93-.15,1.94-1.46,4.56-3.1,4.44-2.22-.16-1.18-3.22-2.01-4.59Z"/>
        <path class="cls-3" d="M30.71,175.98c1.8.04,3.92-.28,4.16,2.08.14,1.42-1.05,2.69-2.7,2.32-1.83-.42-4.44-.45-4.61-2.91-.13-1.86,1.96-1.33,3.14-1.49Z"/>
        <path class="cls-3" d="M45.8,146.61c-.93,2.08-2.88,1.77-4.14,2.63-.81.55-1.84.91-2.72.12-.58-.52-.17-1.27.24-1.62,1.65-1.42,3.66-1.74,5.77-1.57.32.03.62.31.86.43Z"/>
        <path class="cls-3" d="M48.7,102.58c1.77-3.41,3.71-4.33,6.92-3.11-1.9,1.97-4.02,2.47-6.92,3.11Z"/>
        <path class="cls-10" d="M39.18,182.73c-1.13-.81-1.73-2.94-3.76-1.51.73-4.1,3.64-.48,5.25-1.49-1.19,1.84,2.06,1.46,1.49,2.98-.99,0-1.98.01-2.98.02Z"/>
        <path class="cls-3" d="M135.63,161.24c-.04,1.22-.71,1.83-1.82,1.94-.97.1-1.7-.23-1.75-1.35-.04-1.1.38-1.97,1.53-2.15,1.17-.19,1.81.49,2.04,1.57Z"/>
        <path class="cls-3" d="M77.38,144.86c-.91-1.97-1.03-3.91-.08-6.89.89,3.01,1.38,4.94.08,6.89Z"/>
        <path class="cls-10" d="M52.96,107.04c-.81-.12-1.49-.47-1.53-1.31-.05-1.07.73-1.5,1.67-1.48.79,0,1.47.46,1.51,1.29.06,1.07-.74,1.41-1.66,1.51Z"/>
        <path class="cls-3" d="M119.34,125.79c-2.82-2.24-2.84-2.36-1.21-5.69.4,1.85.73,3.4,1.21,5.69Z"/>
        <path class="cls-10" d="M40.47,152.12c1.21.31,2.11,1.09,2.35,2.44.12.66-.62,1.6-.78,1.46-1.01-.92-1.93-1.97-2.69-3.11-.2-.3.46-.78,1.12-.79Z"/>
        <path class="cls-3" d="M40.77,114.33c1.62.24,2.73.66,2.74,2.24,0,.25-.47.74-.63.7-1.37-.28-2.09-1.16-2.11-2.94Z"/>
        <path class="cls-10" d="M48.1,128.91c-.08.66-.26,1.27-1.1,1.03-.65-.19-.98-.75-.96-1.41.02-.72.43-1.13,1.18-1.01.78.13.84.77.88,1.39Z"/>
        <path class="cls-3" d="M58.3,148.22c-.15.78-.8.77-1.4.73-.68-.05-1.17-.41-1.09-1.16.08-.79.67-.97,1.33-.83.62.13,1.09.51,1.16,1.26Z"/>
        <path class="cls-3" d="M76.78,149.34c-.23-1.39-.28-2.36.84-2.81.19-.08.75.23.83.47.48,1.38-.43,1.89-1.67,2.34Z"/>
        <path class="cls-29" d="M26.47,217.14c-3.1,1.93-2.69,4.24-.75,6.73-2.49,2.42-5,1.49-7.5.02-.21-.12-.53-.2-.62-.38-.71-1.47,2.52-7.69,4.1-7.84,2.12-.2,4.28-.26,4.72-3.03-.74-2.38-4.1-2.5-4.48-5.19-1.95-4.53.94-8.15,2.67-11.74,1.11-2.3,4.78-1.2,5.58,1.39.22.7.5,1.39.75,2.08-2.43.85-1.06,1.69.1,2.26,3.42,1.69,6.69,3.64,10.49,4.54,4.5,1.06,8.92,2.43,13.38,3.67-2.25,1.66-4.76.75-7.42.84,3.92.76,2.88,3.74,3.01,6.17.04.83-.58,1.58-1.32,1.56-2.61-.05-5.11,1.49-7.71.72-4.56-1.34-9.42-.57-13.95-2.07-.35-.12-.73.04-1.05.26Z"/>
        <path class="cls-2" d="M26.47,217.14c.1-1.2.66-1.39,1.76-1.01,4.59,1.59,9.56.41,14.23,2.09,2.03.73,4.36-1.59,6.78-.63.11.04.44-.49.67-.76-2.61-1.12,1.83-4.12-1.35-5.07-1.16-.35-2.33-.64-4.46-1.22,4.1-1.5,7.53-.56,10.81-.88.25,0,.49.01.74.01,1.53,1.28,3.25,1.55,5.18,1.14,1.46-.31,2.9-.25,4.2,1.12-2.85,1.36-5.75.41-8.51.74-1.22.15-3.14-.67-3.31,1.33-.13,1.66.11,3.94,2.15,4.33,5.66,1.07,11.12,3.69,17.04,2.87,2.52-.35,3.59.26,3.44,2.77-.12,2.04.53,3.96,1.18,5.8,1.24,3.5-.02,6.16-2.61,9.37-.02-3.02-1.11-3.83-3.31-2.62-.28.15-1.04.06-1.06-.04-.9-4.15-2.72-2.68-5.03-1.1-1.03.7-1.11-.88-1.11-1.67-.03-3.48-.01-6.96-.01-10.68-1.25.48-1.69,1.48-2.25,2.36-3.56.66-6.82-2.26-10.49-.84-.9.35-1.6-.66-2.09-1.33-1.9-2.64-4.65-2.93-7.93-3.06.72,1.78,1.33,3.32,1.96,4.84.24.58.61,1.21-.09,1.63-.58.35-1.21.1-1.71-.34-1.24-1.08-2.62-2.18-1.94-4.07.85-2.35-.96-2.92-2.25-2.69-2.48.45-4.58-.72-6.88-.9-.99-1.16-2.7-.51-3.75-1.5Z"/>
        <path class="cls-5" d="M115.52,180.47c.3-2.06,1.56-3.09,3.57-2.95,1.44.1,2.3-.65,3.17-1.54,1.12.02,2.28-.13,3.36.09,1.74.35,4.03,1.17,3.8,2.93-.23,1.87-.35,4.51-2.95,5.39-1.75.59-3.5,1.18-5.25,1.77,3.58.24,7.14,3.72,10.67.04,1.1-1.15,2.24-1.03,2.22.6-.03,2.31,1.89,4.91-1.31,6.93-1.8,1.13-.42,3.11.67,4.18,1.98,1.96,1.35,3.16-.72,4.28-1.95-1.27-3.55,0-4.46,1.24-2.18,2.98-4.67,3.75-7.97,2.23-.33-.15-.72.02-1.03.23-2.09-1.08-3.08-2.88-3-5.13.26-6.79-1.3-13.5-.78-20.3Z"/>
        <path class="cls-7" d="M96.81,183.48c.5.49,1,.99,1.5,1.48.23,1.88,1.72,1.74,2.79,1.35,1.42-.52,2.64-.07,3.94.14,2.45-.55,2.08.78,1.5,2.25,2.52,5.11.37,6.74-4.27,9.16,2.16,1.08,4.67.62,6.51,2.07-6.87,1.6-13.9.12-20.81,1.02-.74.1-1.29-.2-1.37-.89-.1-.88.55-1.34,1.33-1.53,1.28-.31,3.5-.27,3.18-1.76-.43-2.03-2.56-.03-3.86-.58-.21-.09-.49,0-.74-.01-1.71-.06-4.17.32-4.39-1.74-.27-2.48,2.53-1.25,4.23-1.97-1.64-1.07-3.31-2.11-4.67-1.39-3.14,1.66-5.67-1.23-8.62-.71-.88.15-2.17-1.18-2.05-2.3.14-1.37,1.62-.92,2.47-.81,3.03.39,6.26.72,9.09.35,4.84-.62,9.83-1.61,14.23-4.13Z"/>
        <path class="cls-6" d="M48.9,200.7c1.05-2.71,3.81-4.46,6.98-4.29.71.04,1.59.7,2.06-.04,2.68-4.28,6.21-1.38,8.89-.59,4.26,1.25,8.55,2.02,12.9,2.67.84.13,1.96-.04,1.86,1.21-.09,1.2-1.22.99-2.05,1.02-1.49.04-2.97.03-4.46.05-7.97.09-15.95-.63-23.92,0-.76.56-1.51.62-2.26-.02Z"/>
        <path class="cls-24" d="M119.29,205.9c.41-2.45,2.01-.91,2.78-.59,2.13.89,3.69.47,4.59-1.57.88-1.98,2.85-2.25,4.39-3.15,1.94-1.13,1.53.62,1.69,1.59-2.99,3.62-6.38,6.83-10.1,9.7-.6.46-1.05,1.68-2.09.75-.74-.66-.18-1.32.25-1.95,1.09-1.6,1.04-3-.78-4.04-.24-.25-.49-.5-.73-.74Z"/>
        <path class="cls-29" d="M48.9,200.7c.75,0,1.51.01,2.26.02-.19,2.62,1.71,2.27,3.27,2.2,5.9-.28,11.52.9,16.95,3.11.88.36,1.85.62,2.78,2.13-4.75-.32-9.04.85-13.3-.69.22-.3.74-.43.83-.66.23-.58-.42-.37-.63-.4-4.09-.74-8.27-1.04-12.15-2.72-.67-1-.69-1.99,0-2.99Z"/>
        <path class="cls-28" d="M48.9,203.68c5.74.04,11.15,1.95,16.79,2.9-1.5,1.24-3.24.64-4.83.88-4.21-.12-8.3-.77-11.97-3.03,0-.25,0-.5.01-.75Z"/>
        <path class="cls-7" d="M98.31,202.93c2.8-1.56,5.82-.47,8.73-.71,1.62-.13,2.87-.2,1.75-2.28,1.26.15,3.28-.5,3.27,1.39,0,1.59-1.94,1.57-3.3,1.58-3.48.03-6.97.01-10.45.01Z"/>
        <path class="cls-7" d="M89.32,202.95c2.25,0,4.5,0,6.74,0-2.25,1.83-4.5,1.26-6.74,0Z"/>
        <path class="cls-23" d="M106.54,188.7c0-1.09,0-2.17-1.5-2.25.98-1.06,2.55-1.2,3.16-.32.91,1.33-.76,1.89-1.65,2.57Z"/>
        <path class="cls-31" d="M79.6,252.33c-.1-2.3.48-4.68-1.6-6.62-1.32-1.23-.28-2.18,1.01-2.8,1.22-.58,2.46-1.14,3.61-1.85,1.36-.84,2.08-1.68-.27-2.24-2.43-.58-1.83-1.46-.15-2.44,1.11-.65,2.08-1.57,1.8-3-.4-1.99-1.83-.27-2.71-.64-2.44-1.01-2.4-3.15-2.46-5.3-.09-3.15,2.1-4.63,4.52-4.93,4.52-.56,9.06.16,13.44,1.5.41.13,1,.6,1.01.93.03.81-.65,1.48-1.34,1.61-2.03.38-4.02,1.08-6.18.42-1.03-.32-2.76-.21-2.76,1.08,0,1.79,1.55.75,2.55.73,2.87-.07,5.03,2.33,7.98,2.3.9-.01.84,1.21.29,2.12-1.63,2.7-2.68,5.19-.06,8.25,1.59,1.86.84,5.01,2.09,7.39.41.79-.49,1.5-1.37,1.91-1.09.51-3.22.29-2.45,2.38.65,1.74.91,4.22,3.48,4.31,2.91.11,4.76,1.93,6.71,3.61,2.09,1.8.22,1.65-.97,1.78-3.04.39-5.48-1.76-8.39-2-2.24-.18-3.44.25-2.1,2.73,2.49,2.96,5.02,5.89,7.43,8.91.69.87,1.26,1.8,2.29,2.32-.43,2.05-.78,2.41-2.15,1.37-4.35-3.33-9.01-6.37-12.07-11.11-1.01-2.68-3.07-4.62-5.25-6.18-2.51-1.8-4.37-4-5.95-6.55Z"/>
        <path class="cls-27" d="M57.92,47.38c-5.89-1.88-7.68-4.77-6.14-9.75.31-1,.55-2,1.65-2.26,7.73-1.86,15.6-2.24,23.52-2.03.42.01.83.45,1.34.74-1.53.96-3.4-.21-4.64,1.18-1.66,0-3.12.58-4.44,1.55-.48,3.02-2.36,5.64-2.48,8.8-.04,1.07-1.13,1.54-2.12,1.82-2.23-.29-4.47,1.56-6.69-.04Z"/>
        <path class="cls-26" d="M64.61,47.42c.36-.89,1.66-1.28,1.47-2.43-.57-3.37,1.39-5.73,3.13-8.19,2.04,1.16,3.91-.24,5.84-.48,2.56-.32,5.07-.73,7.52.44.05,1.23-.13,2.53.2,3.67.9,3.04-.72,3.72-3.2,3.78-1.99-2.45-5.69-1.87-7.85-4.26-.39,2.19,1.39,4.91-1.16,6.8-1.15.77-2.52-.27-3.68.44-.74.24-1.38,1.35-2.26.24Z"/>
        <path class="cls-20" d="M70.65,46.45c.19-.71.51-1.41.55-2.13.1-1.81-1.64-3.85.7-5.37.15-.1.59-.06.61,0,.95,3.64,6.84.66,7.06,5.26-1.31,1.02-2.69,1.87-4.47,1.61-1.4.77-2.77,1.76-4.45.64Z"/>
        <path class="cls-21" d="M69.85,69.7c-6.65,1.99-14.54-.4-17.17-5.2,5.08,2.09,10.2,4.05,15.85,3.77.91-.05,1.23.63,1.32,1.44Z"/>
        <path class="cls-25" d="M70.65,46.45c1.48-.21,2.96-.43,4.45-.64-.42,1.21-.56,2.93-2.54,1.96-1.86-.91-3.91.62-5.69-.58,1.07-1.21,2.53-.44,3.78-.73Z"/>
        <path class="cls-21" d="M101.29,75.78c-3.87,4.77-9.65,6.93-14.3,10.62,4.11-3.79,7.79-7.97,11.37-12.23-.99-1.72-2.27-3.2-3.79-4.47.85,5.76-.86,8.49-6.67,10.02-3.95,1.04-7.9,2.07-11.68,3.64-1.05.44-2.49.48-2.05-.82,1.99-5.96-2.65-4.3-5.21-4.52-2.09-.18-3.92-.37-5.27-2.15-.72-.96-2.29-1.61-1.81-3.02.53-1.57,2.15-.72,3.3-.9,1.79-.29,4.26.88,4.68-2.25-1.04-.58-2.22-.54-3.26-.36-5.56.96-9.65-2.14-13.91-4.84-.5-.01-.99-.02-1.49-.04-.51.2.64,1.86-.82,1.06-1.13-.62-2.02-1.67-3.02-2.52-1.44.13-2.4-.76-2.89-1.84-.63-1.42.24-1.65,1.44-1.18.24-1.87-.48-3.8.71-5.62.94-1.45-.86-1.27-1.38-1.87-1.52,2.11-.91,4.8-1.94,7.04-.94,2.03.23,3.95,1.65,4.41,3.37,1.08,4.84,5.09,8.81,5.17,1.47.03.94,1.49.74,2.67-.78,4.68-3.83,7.23-7.89,8.95.33,1.78-.84,4.29,2.28,4.71,4.11-.49,5.82.87,7.48,5.96.62.04,1.19.16,1.53.76,2.07.49,3.78-1.13,5.64-1.13,3.92,0,7.09-.46,6.59-5.72,1.02,4.51,4.08,6.18,8.42,4.76.68-.22,1.46-.62,2.09-.48,8.14,1.8,12.87-.92,16.18-5.91,1.9-2.86,4.65-5.06,7.79-6.62-.98-.75-2.1-1.14-3.31-1.27Z"/>
        <path class="cls-14" d="M48.88,85.42c.88-1.62,2.45-2.18,3.65-.99,1.89,1.87,5.45,3.07,3.83,6.95-5.22.02-6.58-1.06-7.48-5.96Z"/>
        <path class="cls-18" d="M45.18,182.74c9.22,0,18.45,0,27.67-.01-.53,1.2-1.56,1.34-2.72,1.56-.86.16-3.78-1.44-2.09,1.87.27.53-.52.51-1.02.46-6.6-.72-13.2-1.39-19.79-2.15-.91-.11-2.06-.33-2.04-1.72Z"/>
        <path class="cls-11" d="M21.94,207.44c1.15,2.03,5.33,1.44,4.48,5.19-3.26,1.46-4.82-1.18-6.6-2.91-1.2-1.17-1.92-2.83-3.84-3.08-1.16-.32-2.43-.53-2.27-2.21,0-1.21.16-2.25,1.76-2.24,1.21.01,2.06.34,2.69,1.54.84,1.59,1.64,3.37,3.77,3.71Z"/>
        <path class="cls-29" d="M13.71,204.44c.76.74,1.51,1.47,2.27,2.21.57,1.24,1.3,2.58-.4,3.45-.97.5-2.6.76-2.92-.35-.51-1.76-1.52-4,1.05-5.31Z"/>
        <path class="cls-13" d="M18.22,223.89c2.5,1.2,5,.44,7.5-.02,1.05.16,2.18-.35,3.29.5-1.85,2.35-4.8,1.48-7.01,2.53-.56-1.88-3.22-1.12-3.78-3.01Z"/>
        <path class="cls-3" d="M133.99,171c3.02-.03,6.28,4.26,5.36,7.1-.49,1.52-1.33,2.42-3.34,1.87-3.99-1.1-7.03-3.49-9.77-6.4-1.12-1.19-.95-1.96.82-2.07,2.34-.14,4.72.37,6.93-.5Z"/>
        <path class="cls-22" d="M139.59,231.38c-.87-.2-2.51.44-1.93-1.59.35-1.23-.53-1.81-1.16-2.52-.88-1-.95-1.99-.02-2.96.84-.88,1.59-1.95,3.04-1.85,1.68.12,1.25,1.48,1.52,2.49.29,1.06.88,2.04,1.18,3.1.62,2.19-.27,3.32-2.63,3.33Z"/>
        <path class="cls-15" d="M78.87,179.72c-2.27,3.23-5.12.86-7.73.88,2.47-1.27,5.14-.67,7.72-.89,0,0,.01,0,.01,0Z"/>
        <path class="cls-19" d="M54.14,37.21c2.46-1.68,4.8-1.48,7.46.61-2.89,1.13-5.07-.86-7.46-.61Z"/>
        <path class="cls-30" d="M98.64,38.26c-.64.03-1.25-.04-1.6-.69-.48-.89-1.37-1.46-1.9-2.3-2.3-3.65-4.24-6.86-9.69-3.55-2.35,1.43-3.8,2.18-3.57,4.91-.15,1.19-.23,2.39-.06,3.57.27,1.91-.62,2.93-2.39,3.35-1.41.65-2.87,1.18-4.3,1.77-2.33,2.77-5.4.77-8.08,1.26-1.01.15-2.01.2-3.01,0-2.12.17-4.25.34-6.38.34-3.91,1.14-4.83.55-5.6-3.35-.46-2.33-.86-4.65-.5-7.03.18-1.21-.02-2.6-1.44-2.51-2.21.13-4.33-1.31-6.53-.26.01.49.21,1.08.01,1.46-1.46,2.78,2.79,4.95.79,7.75,2.32.25,1.6,1.86,1.64,3.31.07,2.12-.46,4.12-.78,6.17.83,2.46-.76,4.91-.08,7.37.22.03.47.09.74.2.41,1.1.98,2.06,2.18,2.46,1.2.43,2.82.21,3.11,2.03-.12.05-.15.18-.14.35.07.04.14.08.21.12.49.22,1,.39,1.53.48,3.98,1.74,8.02,3.23,12.4,3.64,1.01.1,2.28-.44,3.01.85-1.13,1.68-2.93.75-4.41,1.06-2.68.56-3.39,1.96-1.85,4.2,1.64,2.38,3.85,3.77,6.9,3.71,2.45-.05,4.82.03,4.68,3.65-.06,1.52,1.39,2.05,2.75,1.6,4.83-1.61,9.9-2.53,14.54-4.59,4.69-2.08,5.88-5.74,3.78-9.89-.34-1.61-3.21-2.86-1.88-4.21,1.48-1.5,2.4-3.46,3.87-4.69,2.05-1.71,2.11-3.69,1.63-5.64-1.27-5.12-1.11-9.95,1.82-14.47,1.14-1.76.71-2.51-1.35-2.42Z"/>
      </g>
    </g>
  </g>
</svg>