<?xml version="1.0" encoding="UTF-8"?>
<svg id="Warstwa_2" data-name="Warstwa 2" xmlns="http://www.w3.org/2000/svg" viewBox="0 0 239.15 445.77">
  <defs>
    <style>
      .cls-1 {
        fill: #2e221c;
      }

      .cls-1, .cls-2, .cls-3, .cls-4, .cls-5, .cls-6, .cls-7, .cls-8, .cls-9, .cls-10, .cls-11, .cls-12 {
        stroke-width: 0px;
      }

      .cls-2 {
        fill: #5f3a1e;
      }

      .cls-3 {
        fill: #91571e;
      }

      .cls-4 {
        fill: #7f4519;
      }

      .cls-5 {
        fill: #7d5b4d;
      }

      .cls-6 {
        fill: #8d5218;
      }

      .cls-7 {
        fill: #9a5d1d;
      }

      .cls-8 {
        fill: #a36527;
      }

      .cls-9 {
        fill: #975b1d;
      }

      .cls-10 {
        fill: #7d4417;
      }

      .cls-11 {
        fill: #a46626;
      }

      .cls-12 {
        fill: #a06320;
      }
    </style>
  </defs>
  <g id="Warstwa_1-2" data-name="Warstwa 1">
    <path class="cls-8" d="M239.15,409.35c-.35-10.12.34-20.43-1.38-30.31-5.62-32.37-8.42-64.92-8.54-97.73-.1-28.11-.35-56.23.09-84.34.31-20-5.07-37.34-20.17-51.02-.34-.56-.57-1.24-1.04-1.66-14.59-13.16-31.72-21.47-50.56-26.51-3.11-3.17-5.74-7.16-9.44-9.32-6.21-3.64-9.74-8.06-8.69-15.45,4.38-10.48,9.01-20.86,12.98-31.49,1.22-3.26,1.34-7.34.7-10.82-2.3-12.5-6.47-24.4-13.79-34.92-5.3-7.62-12.35-12.98-21.63-14.85-25.53-5.16-46.24,11.69-48.27,38.59-1.27,16.81,4.12,31.72,11.22,46.35,1.4,2.02,2.71,4.11,4.22,6.03,4.5,5.73,8.3,11.69,7.53,19.45.07.54.14,1.09.21,1.63-.07-.54-.14-1.09-.21-1.63-.95.87-1.9,1.73-2.85,2.6-2.4,3.55-4.81,7.1-7.21,10.65-4.69,2.08-9.59,3.79-14.03,6.32-7.74,4.41-15.19,9.32-22.75,14.02-2.66,2.33-5.31,4.65-7.97,6.98h0c-3.16,3.66-6.33,7.32-9.49,10.98-8.16,13.01-10.37,27.47-10.68,42.49-.23,11.48-.61,22.97-1.4,34.42-1.29,18.59-3.03,37.14-4.47,55.72-1.34,17.42-2.29,34.87-3.86,52.27-1.42,15.72-3.45,31.38-5.21,47.07-.18.69-.37,1.39-.55,2.08-.36,4.68-.72,9.35-1.07,14.03-.78,3.61-.9,6.92,3.73,8v26.78h28.98c-.42-3.04-.85-6.09-1.27-9.13-4.54-3.78-6.3-8.79-6.44-14.52,1.88.3,3.77.6,5.65.9.26,4.54.53,9.08.79,13.62.42,3.05.85,6.09,1.27,9.13,11.98,0,23.96,0,35.94.01,1.33,0,2.66,0,3.99,0-.13-.69-.13-1.28-.06-1.81h0c-.08.53-.07,1.12.06,1.81,2.66,0,5.31,0,7.97-.01,2,0,3.99,0,5.99.01,7.65,0,15.3,0,22.95-.01-.23-.57-.45-1.1-.66-1.61h0c.21.51.42,1.04.66,1.61,2,0,4,0,6,0-.15-.85-.29-1.71-.44-2.56h0c.15.85.29,1.71.44,2.56,4.66,0,9.32,0,13.98,0h7.99c5.33,0,10.66,0,15.99,0,4.66,0,9.32,0,13.98-.01,2.33,0,4.65,0,6.98.01,3,0,5.99,0,8.99,0h8.95c-.64-17.03-1.22-33.64-1.92-50.25-.23-5.46-.47-10.7,5.49-13.75,1.12-.57,1.59-2.42,2.37-3.68.69.94,1.74,1.79,1.99,2.83.71,2.97,1.1,6.02,1.62,9.04.25,2.65.5,5.3.75,7.94h0c.5,3.89,1.39,7.78,1.42,11.67.05,6.29.86,7.26,7.11,6.5-.04,6.96-2.85,12.84-6.9,18.32-2.51,3.4-4.66,7.07-7.47,11.39h38.26c0-10.45-.1-20.38.1-30.31.03-1.55,1.41-3.07,2.17-4.61-.19-.46-.4-.82-.62-1.11.22.29.42.66.62,1.11.33-.5.95-1.01.93-1.5Z"/>
    <path class="cls-11" d="M2.04,394.86c1.76-15.69,3.79-31.35,5.22-47.07,1.57-17.4,2.52-34.85,3.87-52.27,1.44-18.58,3.18-37.13,4.47-55.72.79-11.45,1.17-22.94,1.41-34.42.31-15.02,2.52-29.48,10.69-42.49,3.92,1.1,7.91,2.03,11.73,3.42,1.04.38,1.93,2.04,2.27,3.28.46,1.67.33,3.5.46,5.27-.98,1.02-1.97,2.04-2.95,3.06-4-.08-4.39,1.74-2.62,4.84.95,1.65,1.73,3.4,2.59,5.11-.38,1.01-.75,2.02-1.13,3.03-.31.33-.62.66-.93.99-.99,2.36-1.97,4.72-2.96,7.07.91,3.51,1.96,6.98,2.71,10.52,1.53,7.26,4.34,14.63,3.95,21.82-.48,8.97,3.75,18.05-.56,26.88-.32.66-.01,1.64.06,2.47.61,6.75,1.23,13.5,1.86,20.25-1.68,3.01-3.36,6.02-5.04,9.02-.49.43-1.29.79-1.43,1.32-1.65,6.43-7.59,8.32-12.15,11.69-1.81,1.34-3.35,3.04-5.01,4.58,1.69,1.78,3.08,4.49,5.14,5.16,4.25,1.39,5.33,3.36,3.49,7.34-2.31,4.99-5.35,9.93-1.38,15.59.65.93.45,2.59.36,3.9-.63,8.73-.96,17.5-2.13,26.15-.87,6.45-2.43,12.89-4.55,19.04-.83,2.42-2.76,4.13-1.58,7.16,1.12,2.87-.38,4.38-3.52,4.09-4.11-.38-8.22-.71-12.33-1.06Z"/>
    <path class="cls-11" d="M37.21,151.92c2.66-2.33,5.32-4.65,7.99-6.98,1.4.32,2.81.99,4.19.91,9.09-.51,14.82,5.32,19.76,11.36,10.23,12.53,8.64,11.93,20.05,2.13,4.15-3.57,6.1-3.09,8.37,1.96.96,2.14,3.1,3.75,4.7,5.61.66,2.99,1.33,5.98,1.99,8.96-1.79-.03-3.59-.21-5.36-.06-1.84.16-3.65.63-5.47.97.93,1.71,1.48,4.35,2.88,4.93,3.08,1.28,6.6,1.53,9.93,2.2,1.09,8.09-4.23,15.97-.79,24.14-.03,1.91-.06,3.83-.09,5.74-1.07,6.04-2.15,12.07-3.22,18.11-1,.52-2.47.79-2.93,1.62-2.67,4.82-5.68,9.58-7.5,14.73-2.96,8.41-4.52,9.52-12.76,5.93-2.08-.91-3.79-2.66-5.68-4.03,1.98-1.49,3.96-2.97,5.92-4.47.24-.19.39-.5.74-.96-.36-.77-.62-1.77-1.2-2.52-5.23-6.77-8.9-14.13-11.06-22.56-1.17-4.58-4.9-8.51-7.47-12.74-.36-1.02-.73-2.04-1.09-3.06.67-3.96,1.33-7.93,2-11.89-.31-2.01-.62-4.02-.93-6.03.06-13.55-1.77-15.71-12.42-14.68-3.73-6.33-10.36-11.07-10.55-19.34Z"/>
    <path class="cls-2" d="M199.11,378.08c-.77,1.26-1.25,3.11-2.37,3.68-5.97,3.04-5.73,8.29-5.5,13.75.7,16.61,1.28,33.22,1.92,50.25h-8.97c0-11.28-.09-22.57.05-33.85.06-4.73-.51-8.89-6.98-11.16,7.76-1.02,5.74-5.91,5.88-9.72.13-3.71-1.6-7-5.21-7.53-7.49-1.11-15.21-2.02-21.76,3.48-2.35-.08-4.7-.15-7.05-.23-5.61.02-11.22.05-16.83.07,13.19-1.96,26.34-4.28,39.59-5.76,9.7-1.09,13.36-3.84,15.66-13.51.72-3.04.25-4.68-2.98-4.57-4.61.15-4.52-2.67-4.26-5.97.18-2.22.51-4.71-.25-6.69-5.41-14-8.07-28.39-6.91-43.42.36-2.66.72-5.31,1.08-7.97,2.28-4.58,4.71-9.09,6.74-13.78.5-1.15-.26-2.86-.44-4.31-1.37.44-2.79.77-4.1,1.36-2.4,1.07-4.73,2.29-7.08,3.45,0-2.61-.66-5.44.12-7.8,1.86-5.65,6.32-11.1,6.25-16.58-.17-12.36,4.51-25.92-6.04-36.67-.21-.22-.34-.6-.35-.92-.32-6.27-.55-12.54-.96-18.81-.22-3.33-.76-6.64-1.15-9.96.33-4.99.67-9.98,1-14.97,6.8-1.27,12.38,1.75,17.88,5.07.68,1.96,1.37,3.92,2.05,5.87-1.82,4.38-4.09,8.64-5.34,13.17-1.34,4.87-2.27,9.99-2.41,15.02-.2,6.92.25,13.89.87,20.8.76,8.36,1.99,16.68,3.01,25.02,0,6.32,0,12.65,0,18.97.34,3.04.67,6.08,1.01,9.12.98,4.17,2.19,8.3,2.9,12.52,2.02,12.01,3.79,24.07,5.74,36.1,1.97,12.12,6.53,23.88,5.19,36.47Z"/>
    <path class="cls-5" d="M92.12,111.35c.77-7.76-3.04-13.73-7.54-19.45-1.52-1.93-2.83-4.02-4.23-6.03.13-2.89.58-5.81.32-8.66-1.03-11.04-2.79-22.03-3.32-33.09-.51-10.55,5.06-16.88,15.39-18.82,4.38-.82,8.9-1.31,13.34-1.25,9.1.12,15.31,4.88,17.42,12.72-2.48,1.04-4.92,2.87-7.44,2.98-10.6.45-18.21,10.61-14.97,21.02,1.43,4.58,1.37,8.13-3.59,10.6,3.71,2.04,7.06,3.88,10.4,5.72-.09.4-.18.8-.26,1.2-5.22,1.1-10.44,2.19-15.66,3.29.09.33.19.66.28,1,3.41.39,6.82.78,11.31,1.3-2.52,1.85-3.84,2.82-5.16,3.79.1.44.2.88.3,1.32,3.57,0,7.15-.17,10.69.11.93.07,1.75,1.54,2.61,2.36-1.06.81-2.03,1.9-3.23,2.32-.75.26-1.86-.49-2.8-.79-5.73-1.86-6.86-1.12-7.66,5.02-.14,1.25-.29,2.5-.43,3.74-2.03,2.62-.45,5.41,3.58,7.14,4.52,1.95,8.84,4.34,13.33,6.37,4.46,2.02,9.03,3.8,13.53,5.74,1.34.58,2.6,1.35,3.89,2.03-.36,2.93-.72,5.86-1.08,8.8-1.34,1.68-2.69,3.35-4.03,5.02-3.99,3.03-6.34,6.87-5.94,12.07-2.11,3.72-4.21,7.44-6.32,11.16-1.22-.71-1.62-.8-1.77-1.04-3.19-5.43-6.14-11.02-9.61-16.28-1.93-2.93-4.71-5.31-7.11-7.94-1.1-5.3-2.19-10.6-3.29-15.9-.32-2.53-.64-5.05-.96-7.58Z"/>
    <path class="cls-1" d="M123.49,36.77c-2.11-7.84-8.32-12.6-17.42-12.72-4.45-.06-8.97.43-13.34,1.25-10.33,1.94-15.9,8.27-15.39,18.82.53,11.06,2.29,22.05,3.32,33.09.27,2.85-.19,5.77-.32,8.66-7.11-14.63-12.51-29.54-11.24-46.35C71.14,12.62,91.88-4.23,117.46.93c9.3,1.88,16.36,7.23,21.67,14.85,7.33,10.53,11.51,22.42,13.82,34.92.64,3.47.51,7.55-.71,10.82-3.98,10.63-8.62,21.01-13.01,31.49-.68-2.69-1.93-5.37-1.96-8.06-.16-15.41-4.65-29.87-9.42-44.25-.53-1.61-2.86-2.63-4.36-3.92Z"/>
    <path class="cls-4" d="M209.09,145.94c15.14,13.68,20.52,31.02,20.21,51.02-.43,28.11-.19,56.23-.09,84.34.12,32.81,2.93,65.36,8.56,97.73,1.72,9.89,1.03,20.19,1.38,30.31.02.49-.61,1-.93,1.5-1.36-3.24-3.46-1.98-5.52-.9-1.84.97-3.68,1.96-5.52,2.94.97-1.48,1.94-2.95,2.91-4.43,2.35-3.57,3.11-7.55.88-11.18-1.03-1.68-3.79-2.29-5.76-3.38,4.46-4.05,5.96-9.29,4.9-14.93-1.84-9.72-4.34-19.32-6.36-29.01-1.98-9.52-4.28-19.03-5.41-28.67-1.26-10.8,2.64-22.43-6.77-32,7.21-2.04,7.92-6.94,7.58-12.41-.66-10.57-1.7-21.14-1.85-31.72-.16-10.94.84-21.89.81-32.84-.04-14.28-.34-28.56-1.02-42.82-.59-12.25-4.52-16.53-13.9-16.6,1.97-2.32,3.93-4.64,5.9-6.97Z"/>
    <path class="cls-2" d="M123.49,36.77c1.5,1.29,3.83,2.31,4.36,3.92,4.77,14.38,9.26,28.85,9.42,44.25.03,2.69,1.27,5.37,1.96,8.06-1.05,7.39,2.49,11.81,8.71,15.45,3.7,2.16,6.34,6.15,9.46,9.32-1.04,6.39-2.09,12.77-3.13,19.16-1.02,2.33-2.05,4.67-3.07,7,.05-6.66.18-13.33.09-19.99-.02-1.3-.9-2.59-1.39-3.89-1.18.9-2.89,1.56-3.42,2.75-.84,1.9-.65,4.25-1.38,6.22-.53,1.42-1.86,2.54-2.83,3.8v-19.43c-3.8,3.64-6.93,6.63-10.05,9.63-1.29-.68-2.55-1.45-3.89-2.03-4.5-1.94-9.07-3.72-13.53-5.74-4.49-2.03-8.81-4.43-13.33-6.37-4.03-1.73-5.61-4.53-3.58-7.14,1.9,3.7,5.38,3.57,8.6,3.04,1.62-.27,3.01-1.94,4.5-2.97-1.03-1.34-1.9-3.63-3.12-3.82-3.1-.49-6.36-.05-9.55.01.8-6.14,1.94-6.88,7.66-5.02.94.31,2.05,1.06,2.8.79,1.2-.42,2.16-1.51,3.23-2.32-.87-.82-1.69-2.29-2.61-2.36-3.54-.28-7.12-.11-10.69-.11-.1-.44-.2-.88-.3-1.32,1.32-.97,2.64-1.93,5.16-3.79-4.49-.52-7.9-.91-11.31-1.3-.09-.33-.19-.66-.28-1,5.22-1.1,10.44-2.19,15.66-3.29.09-.4.18-.8.26-1.2-3.35-1.84-6.7-3.68-10.4-5.72,4.96-2.46,5.02-6.02,3.59-10.6-3.25-10.42,4.36-20.57,14.97-21.02,2.52-.11,4.96-1.94,7.44-2.98ZM119.18,42.78c-5.09.64-10.27.5-11.59,5.28-1.32,4.76-.92,10.09-.68,15.15.13,2.86,1.01,5.9,2.36,8.42,1.61,3.01,5.78,3.14,7.24.45,2.5-4.61,5.59-9.1,4.69-14.85-.71-4.53-1.27-9.09-2.01-14.45Z"/>
    <path class="cls-12" d="M132.3,386.82c5.61-.02,11.22-.05,16.83-.07,1.68,2.95,5.27,6.35,4.69,8.76-1.74,7.24.5,14.09.33,21.08-.14,5.78-.63,11.55-.97,17.33-7.25-.85-12.02,2.49-15,11.83-2.67,0-5.33,0-8,0-1.36-4.53.62-7.72,4.34-9.92,2.12-1.26,4.62-1.88,6.77-3.09.81-.46,1.68-1.88,1.53-2.68-.15-.8-1.51-1.96-2.36-1.97-5.3-.08-11.19-1.29-15.77.59-5.51,2.26-9.32,1.45-13.5-1.71.99-5.67,1.97-11.33,2.96-16.99.03-6.31.06-12.63.09-18.94,2.31-1.36,4.49-3.42,6.97-3.91,3.58-.7,7.38-.25,11.09-.29Z"/>
    <path class="cls-7" d="M199.11,378.08c1.34-12.6-3.22-24.35-5.19-36.47-1.96-12.03-3.72-24.08-5.74-36.1-.71-4.22-1.92-8.35-2.9-12.52,4.63,3.31,9.26,6.63,13.89,9.94-1.83.46-4.18.4-5.31,1.55-.72.73-.22,3.73.73,4.87,5.18,6.23,8.58,12.36,3.93,20.66-1.68,2.99,2.22,8.54,5.37,8.82,4.71.42,4.32-3.39,4.46-6.14.45-8.92.6-17.86.86-26.79,4.1-1.3,5.92-.06,5.35,4.45-.61,4.85-1.1,9.73-1.33,14.62-.79,16.77,1.76,32.84,9.17,48.16,1.82,3.77,1.53,8.71,1.51,13.11,0,1.22-2.4,3.28-3.91,3.49-5.21.74-10.52.83-15.79,1.17-.49-.32-.98-.64-1.48-.96-.52-3.02-.91-6.07-1.62-9.04-.25-1.04-1.31-1.89-1.99-2.83Z"/>
    <path class="cls-12" d="M69.19,445.77c-12,0-24,0-36-.01-.42-3.04-.85-6.09-1.27-9.13-.26-4.54-.53-9.08-.79-13.62,1.04-9.69,2.08-19.37,3.11-29.06,6.81.81,9.33-3.58,10.96-9.05,5.66,1,11.33,2.01,16.99,3.01-1.89,7.24.36,10.57,8.07,11.98,3.85.7,7.6,1.56,9.05,6.47-1.53.25-2.49.6-3.4.52-4.58-.43-9.17-.83-13.71-1.52-3.08-.47-5,.39-5.94,3.35,1.81,1.17,3.38,2.19,4.95,3.2-2.88.34-5.76.71-8.65,1.02-4.64.5-8.69,4.19-9.37,8.23-.9,5.33,2.88,6.75,6.54,8.54,1.63.79,2.99,2.13,4.47,3.22-.62.79-1.23,1.57-1.85,2.36.71.54,1.38,1.42,2.15,1.54,1.62.25,3.31.19,4.95.08q9.72-.66,9.74,8.88Z"/>
    <path class="cls-3" d="M154.27,136.94c1.04-6.39,2.09-12.77,3.13-19.16,18.87,5.04,36.03,13.34,50.65,26.51.47.42.7,1.1,1.04,1.66-1.97,2.32-3.93,4.64-5.9,6.97.51,1.72,1.01,3.45,1.53,5.17,1.1,3.61.54,6.45-3.25,8.26-1.25.6-2.11,2.02-3.14,3.06,1.25.52,2.46,1.24,3.76,1.52,5.84,1.24,9.4,5.05,9.06,9.51-.23,3.05-.05,6.13-.04,9.2.01,5.64.11,11.28-.04,16.91-.02.81-1.23,1.6-1.88,2.39-.01-5.98.2-11.97-.18-17.92-.1-1.6-1.99-3.09-3.06-4.63-.92.85-1.85,1.7-2.77,2.55-5.02.65-10.03,1.31-15.05,1.96-.68-1.96-1.37-3.92-2.05-5.87-.84-7.45,6.07-3.81,9.82-6.59-1.57-.9-2.52-1.83-3.58-1.97-4.38-.6-5.44-2.02-2.94-5.61,2.61-3.74,1.87-6.22-1.18-8.51-2.17,1.27-4.11,2.41-6.05,3.55,1.01-1.98,2.02-3.97,3.03-5.95,3.3-2.42,6.6-4.84,10.21-7.49-1.29-1.13-2.17-1.9-3.08-2.69,1.41-1.8,2.61-3.32,4.61-5.85-9.87-6.66-19.22-13.39-29.02-19.38-3.77-2.3-5.8,1.81-7.52,4.53-.76,1.2-.87,2.82-1.17,4.28-.56,2.74-2.16,3.97-4.96,3.61Z"/>
    <path class="cls-3" d="M2.04,394.86c4.11.35,8.22.68,12.33,1.06,3.14.29,4.64-1.22,3.52-4.09-1.18-3.03.75-4.74,1.58-7.16,2.12-6.15,3.68-12.59,4.55-19.04,1.17-8.66,1.5-17.43,2.13-26.15.09-1.3.3-2.97-.36-3.9-3.97-5.67-.93-10.6,1.38-15.59,1.84-3.98.75-5.95-3.49-7.34-2.06-.67-3.45-3.38-5.14-5.16,1.66-1.54,3.2-3.24,5.01-4.58,4.56-3.37,10.5-5.25,12.15-11.69.13-.53.94-.88,1.43-1.32,2.06-.51,4.1-1.34,6.18-1.41,1.31-.04,2.87.83,3.9,1.76.48.44.36,2.58-.16,2.91-4.78,3.06-9.73,5.86-14.58,8.82-3.2,1.96-6.32,4.06-10.45,6.73,7.49,2.76,11.81-.97,16.58-2.96,1.49-.62,3.28-.56,4.93-.81-.33,1.79-.17,3.89-1.07,5.3-2.56,4.01-5.55,7.74-8.38,11.58-4.89,2.52-5.68,4.78-3.78,9.44.9,2.23,2.01,4.82,1.67,7.04-1.61,10.57-3.57,21.08-5.63,31.57-1.76,8.95-5.13,17.87.85,26.55.08.11.02.33.03.49-3.89,1.34-7.77,2.68-11.4,3.93.48.17,1.5.76,2.58.88,5.21.56,6.44,3.72,6.91,8.54.59,5.98-3.35,6.53-7.23,7.66-4.64.34-9.28.69-13.93,1.03-4.64-1.08-4.52-4.39-3.74-8,1.11.99,2.17,2.03,3.33,2.95,3.65,2.87,7.59,3.99,11.94,1.62,3.56-1.94,5.44-8.32,2.82-9.58-4.55-2.19-9.28-4.01-13.84-6.18-1.23-.58-2.12-1.88-3.17-2.84.18-.69.37-1.39.55-2.08Z"/>
    <path class="cls-7" d="M102.26,166.92c-1.6-1.85-3.74-3.47-4.7-5.61-2.27-5.05-4.21-5.53-8.37-1.96-11.41,9.81-9.82,10.4-20.05-2.13-4.93-6.04-10.67-11.87-19.76-11.36-1.37.08-2.79-.59-4.19-.91,7.58-4.7,15.05-9.61,22.79-14.02,4.44-2.53,9.35-4.24,14.05-6.32-.94,3.75-1.67,7.57-2.87,11.23-1.17,3.57-3.41,6.88-4.05,10.51-.55,3.1.5,6.48.85,9.73,3.14-.98,6.61-1.43,9.33-3.09,2.98-1.81,5.28-4.75,8.18-7.49,1.62,2.92,2.78,5.25,4.16,7.45,1.41,2.24,3.57,4.16,4.4,6.56.77,2.23.2,4.92.22,7.41Z"/>
    <path class="cls-10" d="M156.18,386.98c6.55-5.5,14.27-4.58,21.76-3.48,3.6.53,5.34,3.82,5.21,7.53-.13,3.81,1.88,8.69-5.88,9.72,6.46,2.27,7.04,6.43,6.98,11.16-.14,11.28-.05,22.56-.05,33.85-3,0-6,0-9,0-.34-4.45-.94-8.91-.93-13.36,0-4.79,1.12-9.61.82-14.37-.59-9.37-2.65-18.22-12.88-22.11-2-2.98-4.01-5.96-6.01-8.94Z"/>
    <path class="cls-10" d="M102.26,166.92c-.02-2.49.54-5.17-.22-7.41-.83-2.4-2.99-4.32-4.4-6.56-1.38-2.2-2.54-4.53-4.16-7.45-2.9,2.74-5.2,5.67-8.18,7.49-2.73,1.66-6.19,2.11-9.33,3.09-.34-3.25-1.4-6.64-.85-9.73.64-3.63,2.89-6.94,4.05-10.51,1.2-3.67,1.93-7.48,2.87-11.23,2.41-3.55,4.82-7.1,7.22-10.65-.13,1.83.05,3.74-.43,5.47-2.1,7.57-4.4,15.09-6.62,22.63-.46,2.83-.92,5.67-1.4,8.6,3.41-.32,13.14-10.23,13.36-13.25.04-.49-.02-.99-.03-1.48.74-.37,1.48-.73,2.22-1.1,2.4,2.63,5.17,5.01,7.11,7.94,3.46,5.25,6.41,10.84,9.61,16.28.14.25.55.34,1.77,1.04,2.11-3.72,4.21-7.44,6.32-11.16,1.64.65,3.29,1.29,4.93,1.94-.3,1.35-.6,2.71-.9,4.06-2.9,5.81-6.94,11.31-4.25,18.51.3.81-1.19,2.3-1.85,3.48-1.31-1.34-2.62-2.68-3.93-4.03-1.83-3.56-3.66-7.11-5.49-10.67-.46.23-.92.47-1.38.7.99,3.53,1.99,7.05,2.98,10.58-1.09,1.5-2.18,3-3.27,4.5-1.25-.7-2.5-1.41-3.75-2.11-.66-2.99-1.33-5.98-1.99-8.96ZM104.69,151.28c-.74.42-1.48.83-2.23,1.25,1.33,2.46,2.65,4.92,3.98,7.37l2.21-1.2c-1.32-2.47-2.64-4.95-3.96-7.42Z"/>
    <path class="cls-7" d="M69.19,445.77q-.02-9.56-9.74-8.88c-1.65.11-3.33.17-4.95-.08-.78-.12-1.44-1-2.15-1.54.62-.79,1.23-1.57,1.85-2.36,5.93-.61,11.87-1.23,18.28-1.89-1.55-2.78-2.46-4.39-3.61-6.45,1.6-.28,2.52-.47,3.44-.61,1.72-.26,3.44-.49,5.17-.73-.42-2.09-.38-4.44-1.34-6.24-3.32-6.18-9.4-4.97-14.94-5.09-1.57-1.02-3.14-2.03-4.95-3.2.94-2.96,2.86-3.82,5.94-3.35,4.54.69,9.13,1.09,13.71,1.52.92.09,1.87-.27,3.4-.52-1.45-4.91-5.2-5.76-9.05-6.47-7.71-1.41-9.96-4.74-8.07-11.98,6,.34,12,.68,18,1.03.45,4.63-2.11,9.8,1.68,13.79,2.17,2.28,1.66,3.89-.31,5.17-4.03,2.62-3.35,5.49-1.17,8.81,1.08,1.66,1.91,3.49,2.85,5.24,0,2.99,0,5.98-.01,8.97-4.82.36-5.87,2.86-4,7.02-2.1,2.54-6.95,2.96-6.03,7.82-1.33,0-2.67,0-4,0Z"/>
    <path class="cls-7" d="M156.18,386.98c2,2.98,4.01,5.96,6.01,8.94.92,7.92-.31,16.28,5,23.32.53.71-.16,2.32-.26,3.52-.33,3.97-1.05,7.96-.85,11.9.19,3.72,1.37,7.4,2.11,11.09-4.67,0-9.33,0-14,.01-.34-3.94-.68-7.89-1.02-11.83.34-5.78.82-11.55.97-17.33.18-7-2.07-13.85-.33-21.08.58-2.4-3.01-5.81-4.69-8.76,2.35.08,4.7.15,7.05.23Z"/>
    <path class="cls-5" d="M221.22,445.77h-23.6c2.82-4.32,4.97-7.99,7.49-11.39,4.06-5.49,6.87-11.36,6.92-18.32,3.77-.38,7.54-.77,11.31-1.15-.7,10.29-1.41,20.57-2.11,30.86Z"/>
    <path class="cls-2" d="M221.22,445.77c.7-10.29,1.41-20.57,2.11-30.86,1.28-.67,2.56-1.34,3.85-2.01,1.84-.98,3.67-1.97,5.52-2.94,2.06-1.09,4.16-2.34,5.52.9-.76,1.54-2.14,3.06-2.17,4.61-.2,9.93-.1,19.86-.1,30.31h-14.72Z"/>
    <path class="cls-6" d="M168.2,445.74c-.74-3.69-1.92-7.37-2.11-11.09-.2-3.94.52-7.93.85-11.9.1-1.2.79-2.81.26-3.52-5.32-7.04-4.09-15.4-5-23.32,10.24,3.9,12.29,12.75,12.88,22.11.3,4.75-.81,9.57-.82,14.37,0,4.45.6,8.91.93,13.36-2.33,0-4.66,0-6.99-.01Z"/>
    <path class="cls-3" d="M227.17,412.9c-1.28.67-2.57,1.34-3.85,2.01-3.77.38-7.54.77-11.31,1.15-6.26.76-7.07-.21-7.12-6.5-.03-3.89-.92-7.78-1.43-11.67,1.22,0,2.45-.01,3.67-.02.74,1.25,1.68,2.42,2.18,3.76.51,1.35.58,2.86.85,4.31.33,1.81.09,4.65,1.12,5.22,3.19,1.78,6.76.97,8.81-2.04.78-1.15-.12-3.8-.84-5.52-1.11-2.65-2.71-5.09-4.11-7.62,1.69-.35,3.38-.71,5.06-1.06,1.66-.34,3.33-.67,4.99-1.01,1.97,1.09,4.74,1.71,5.76,3.38,2.22,3.63,1.46,7.61-.88,11.18-.97,1.48-1.94,2.95-2.91,4.43Z"/>
    <path class="cls-11" d="M1.49,396.94c1.05.97,1.94,2.26,3.17,2.84,4.56,2.17,9.29,3.98,13.84,6.18,2.61,1.26.74,7.64-2.82,9.58-4.34,2.37-8.29,1.25-11.94-1.62-1.16-.92-2.23-1.96-3.33-2.95.36-4.68.72-9.35,1.08-14.03Z"/>
    <path class="cls-9" d="M37.21,151.92c.19,8.26,6.82,13.01,10.55,19.34,10.65-1.03,12.47,1.13,12.42,14.68-4.09-4.28-8.18-8.56-11.89-12.45-2.46.55-4.3.96-6.13,1.38-.12-1.76,0-3.6-.45-5.27-.34-1.24-1.23-2.9-2.27-3.28-3.82-1.39-7.8-2.32-11.73-3.42,3.17-3.66,6.34-7.32,9.51-10.98Z"/>
    <path class="cls-6" d="M82.22,142.05c2.22-7.54,4.52-15.06,6.62-22.63.48-1.73.3-3.64.43-5.47.95-.87,1.9-1.73,2.85-2.6.32,2.53.64,5.05.96,7.58-1.01,5.62-2.01,11.23-3.02,16.85-2.61,2.09-5.23,4.18-7.84,6.28Z"/>
    <path class="cls-4" d="M220.21,394.92c-1.69.35-3.38.71-5.06,1.06-2.67.63-5.34,1.26-8,1.9-1.22,0-2.45.01-3.67.02-.25-2.65-.5-5.3-.75-7.94.49.32.98.64,1.47.96,1.07,1.02,2.03,2.74,3.23,2.93,4.22.65,8.52.77,12.78,1.09Z"/>
    <path class="cls-2" d="M34.08,321.85c2.82-3.84,5.82-7.57,8.38-11.58.91-1.42.75-3.52,1.07-5.3-1.65.25-3.43.19-4.93.81-4.77,1.99-9.09,5.72-16.58,2.96,4.13-2.67,7.24-4.77,10.45-6.73,4.85-2.96,9.8-5.75,14.58-8.82.52-.33.64-2.48.16-2.91-1.03-.93-2.59-1.8-3.9-1.76-2.07.06-4.12.9-6.18,1.41,1.68-3.01,3.36-6.02,5.04-9.02,2.37-2.99,4.74-5.97,7.11-8.96.99-3.65,1.98-7.3,2.97-10.94.95-.02,1.89-.03,2.84-.05-.59,10.68-1.19,21.37-1.78,32.05-1.67,6.64-3.35,13.28-5.02,19.92.38,8.78-1.26,17.17-4.58,25.9-1-1.47-1.63-2.42-2.68-3.97-1.17,2.83-2.04,4.93-2.91,7.03-3.06.06-3.57-1.26-1.81-3.56,3.95-5.17,3.8-9.88-1.29-14.24-.54-.47-.63-1.47-.93-2.22Z"/>
    <path class="cls-7" d="M49.29,271.93c-2.37,2.99-4.74,5.97-7.11,8.96-.62-6.75-1.24-13.5-1.86-20.25-.07-.83-.38-1.81-.06-2.47,4.31-8.83.08-17.91.56-26.88.38-7.19-2.43-14.56-3.95-21.82-.74-3.54-1.79-7.02-2.71-10.52,4.78.7,4.67,5.3,6.7,8.24,1.47,2.12,3.5,3.85,5.29,5.76.36,2.98.72,5.96,1.07,8.94-.08,7.73-.1,15.45-.27,23.17-.08,3.79-.59,7.57-.62,11.36-.03,4.1.1,8.22.54,12.29.12,1.15,1.58,2.15,2.42,3.22Z"/>
    <path class="cls-10" d="M47.22,221.89c-.36-2.98-.72-5.96-1.07-8.94-2.62-7.19-2.83-15.41-9.03-21.07.31-.33.62-.66.93-.98,2.61.35,5.21.79,7.84,1.04,2.89.28,3.65,1.83,2.99,4.45-2.09,8.29.51,14.12,8.21,18.46,1.09,5.25,1.85,10.45-1.89,15.09-1.44-1.18-2.98-2.25-4.28-3.57-1.35-1.37-2.47-2.97-3.69-4.48Z"/>
    <path class="cls-2" d="M57.08,214.84c-7.7-4.34-10.29-10.17-8.21-18.46.66-2.62-.1-4.17-2.99-4.45-2.62-.25-5.22-.69-7.84-1.04.37-1.01.75-2.02,1.12-3.03,1-.32,2-.64,3-.96,6.31,1.69,12.62,3.38,18.93,5.06-.67,3.96-1.33,7.93-2,11.89-.67,3.66-1.35,7.33-2.02,10.99Z"/>
    <path class="cls-10" d="M61.11,191.96c-6.31-1.69-12.62-3.38-18.93-5.06,2.34-4.1-1.11-6.27-2.97-8.98.99-1.02,1.97-2.04,2.95-3.06,1.84-.41,3.67-.82,6.13-1.38,3.71,3.89,7.8,8.17,11.89,12.45.31,2.01.62,4.02.93,6.03Z"/>
    <path class="cls-6" d="M37.12,191.88c6.2,5.65,6.41,13.88,9.03,21.07-1.78-1.9-3.82-3.63-5.29-5.76-2.03-2.93-1.92-7.54-6.7-8.24.99-2.36,1.97-4.71,2.96-7.07Z"/>
    <path class="cls-7" d="M39.2,177.92c1.86,2.71,5.31,4.88,2.97,8.98-1,.32-2,.64-3,.96-.86-1.71-1.65-3.45-2.59-5.11-1.77-3.09-1.38-4.92,2.62-4.84Z"/>
    <path class="cls-12" d="M53.31,292.99c.59-10.68,1.19-21.37,1.78-32.05,1.04-1.89,2.88-3.75,2.95-5.67.18-4.43-.5-8.89-.83-13.34,1.56-1.31,2.93-3.08,4.73-3.85,4.97-2.12,5.06-2.46,2.6-7.28-3.81-7.48-5.36-15.47-4.35-23.88,2.57,4.22,6.3,8.15,7.47,12.74,2.16,8.43,5.84,15.78,11.06,22.56.58.75.84,1.75,1.2,2.52-.35.47-.5.78-.74.96-1.96,1.5-3.94,2.98-5.92,4.47,1.88,1.37,3.59,3.12,5.68,4.03,8.24,3.59,9.8,2.48,12.76-5.93,1.82-5.16,4.82-9.91,7.5-14.73.46-.83,1.92-1.09,2.93-1.62.41,8.03.82,16.07,1.23,24.1.17,1.31.34,2.62.5,3.93.11,4.99.21,9.99.32,14.98,0,1.67,0,3.34,0,5.01-3.97,4.55-3.32,9.71-1.97,14.97-.02,2.34-.04,4.69-.06,7.03-.96-.2-2.26-.06-2.83-.64-3.31-3.41-6.72-2.61-10.45-.82-2.22,1.07-4.69,1.62-7.05,2.42-6.86,2.33-12.86,5.69-17.14,11.93-7.35,10.7-9.61,23.73,1.06,35.34,4,4.34,7.23,9.4,10.66,14.24,2.85,4.03,7.65,5.98,11.77,4.52.76.8,1.51,1.59,2.27,2.39.26,1.52.53,3.05.8,4.58-.69.68-1.37,1.36-2.06,2.05-1.89,0-3.78-.02-5.66.04-1.42.05-2.85.38-4.27.32-3.52-.15-7.03-.71-10.53-.65-5.03.09-10.23,1.58-15.03.7-7.36-1.34-14.44-4.19-21.64-6.41.39-2.78.62-5.59,1.2-8.32,1.54-7.26,3.23-14.49,4.86-21.74.87-2.1,1.74-4.2,2.91-7.03,1.05,1.55,1.68,2.49,2.68,3.97,3.32-8.73,4.97-17.13,4.58-25.9,4.92-3.75,7.23-12.9,5.02-19.92Z"/>
    <path class="cls-4" d="M105.44,208.06c-3.44-8.17,1.89-16.05.79-24.14.69-.71,1.38-1.42,2.07-2.13,1.32.11,2.64.23,3.96.34.41,6.96-4.07,13.79-.27,20.87l3.17-21.01c.98-.39,1.95-.78,2.93-1.16.05,2.03.09,4.07.14,6.1-.69,3.54-1.35,7.1-2.09,10.63-.66,3.15-1.42,6.29-2.14,9.43-3.09-1.54-5.94-1.19-8.56,1.08Z"/>
    <path class="cls-4" d="M103.36,256.01c-.41-8.03-.82-16.07-1.23-24.1,1.07-6.04,2.15-12.07,3.22-18.11.97.43,1.93.85,2.9,1.28-.36,12.28-.71,24.56-1.07,36.85-1.27,1.36-2.55,2.73-3.82,4.09Z"/>
    <path class="cls-3" d="M60.19,206.91c-1.01,8.41.53,16.4,4.35,23.88,2.46,4.83,2.37,5.16-2.6,7.28-1.8.77-3.17,2.53-4.73,3.85-.68-1.67-1.35-3.33-2.03-5,0-2.33,0-4.66,0-6.99,3.75-4.64,2.98-9.84,1.89-15.09.67-3.66,1.35-7.33,2.02-10.99.36,1.02.72,2.04,1.09,3.06Z"/>
    <path class="cls-7" d="M108.3,181.79c-.69.71-1.38,1.42-2.07,2.13-3.34-.67-6.85-.91-9.93-2.2-1.4-.58-1.95-3.23-2.88-4.93,1.82-.34,3.63-.81,5.47-.97,1.77-.15,3.57.02,5.36.06,1.25.7,2.5,1.41,3.75,2.11.1,1.27.2,2.54.3,3.8Z"/>
    <path class="cls-1" d="M108.25,215.08c-.97-.43-1.93-.85-2.9-1.28.03-1.91.06-3.83.09-5.74,2.61-2.26,5.47-2.62,8.56-1.08,0,1.63.02,3.27.02,4.9-.64.97-1.29,1.95-1.93,2.92-1.28.09-2.56.18-3.84.27Z"/>
    <path class="cls-10" d="M167.2,194.91c.39,3.32.93,6.63,1.15,9.96.41,6.26.64,12.54.96,18.81.02.31.14.7.35.92,10.55,10.75,5.88,24.31,6.04,36.67.07,5.48-4.39,10.94-6.25,16.58-.78,2.36-.12,5.19-.12,7.8,2.36-1.16,4.69-2.38,7.08-3.45,1.31-.58,2.73-.91,4.1-1.36.18,1.45.94,3.15.44,4.31-2.04,4.68-4.46,9.2-6.74,13.78-5.47-.84-9.66,1.22-13.05,5.47-3.92,4.91-7.99,9.69-11.99,14.53-1.33,1-2.66,2.01-3.99,3.01-4.03.16-2.79-2.83-2.97-4.97,1.72-2.08,3.8-3.97,5.07-6.3,2.68-4.88,8.68-8,7.93-14.7,1.97-2.63,5.07-5.04,5.64-7.94.88-4.45.1-9.25-.14-13.89-.32-6.25-1.26-12.52-1.05-18.75.16-4.74-.53-6.03-5.27-5.34-4.74.69-9.49,1.27-14.24,1.9-4.03.39-7.61-.31-9.99-4.02-.03-1.49.01-2.99-.09-4.47-.95-13.32-2.07-26.62-2.83-39.95-.32-5.67.83-6.4,6.66-6.61,4.1-.15,8.19-.59,12.28-.91,3.66-.36,7.31-.71,10.97-1.07,3.03-.22,5.05.49,5.16,4.19.06,2.1,1.07,4.16,1.64,6.25.35-.05.69-.1,1.04-.15.73-3.42,1.46-6.85,2.19-10.27ZM131.21,226.9c.91,5.86,1.57,11.77,2.89,17.54.31,1.33,3.15,3.33,4.28,3.02,6.82-1.85,14.36-13.4,14.95-20.68.35-4.31,1.75-8.7,3.52-12.68,1.44-3.25,4.05-6.11.6-9.32-3.3-3.08-6.87-2.62-10.28.1-2.15.01-4.29.01-6.44.03-6.88.07-9.51,2.7-9.55,9.61-.03,4.13,0,8.25.02,12.38ZM162.39,244.82c2.72-9.64,2.28-19.17-1.48-28.56l1.48,28.56Z"/>
    <path class="cls-11" d="M188.14,190.88c5.02-.65,10.03-1.31,15.05-1.96.67,2.15,2.06,4.36,1.88,6.43-.97,11.35-2.29,22.67-3.54,33.99-.89,7.99-4.05,15.97-1.19,24.01,2.72,7.66,3.06,14.24-4.92,18.99-.92.55-1.32,1.97-1.81,2.73-3.25-3.54-6.29-6.86-9.33-10.17-1.02-8.34-2.25-16.66-3.01-25.02-.62-6.91-1.08-13.88-.87-20.8.15-5.04,1.07-10.15,2.41-15.02,1.25-4.54,3.52-8.79,5.34-13.17Z"/>
    <path class="cls-10" d="M132.3,386.82c-3.71.04-7.51-.41-11.09.29-2.48.49-4.66,2.55-6.97,3.91-.7-1.34-1.4-2.67-2.1-4.01,1.83-.71,3.65-1.42,5.48-2.13-2.66-1.66-5.53-1.78-7.59-3.13-2-1.32-3.15-3.91-4.68-5.94,6.48,1.04,12.98,2.99,19.45,2.92,13.79-.15,27.74,2.07,41.37-1.83,7.24-.11,8.18-1.63,6-8.3-.65-1.98-.37-4.51.21-6.59,1.99-7.17.73-10.16-5.6-13.93-1.89-1.13-4.41-3.51-4.34-5.22.32-7.69.66-15.56,2.61-22.94,1.25-4.72,5.3-8.7,8.09-13.02-1.16,15.02,1.5,29.41,6.91,43.42.76,1.97.43,4.47.25,6.69-.26,3.3-.35,6.11,4.26,5.97,3.23-.1,3.7,1.53,2.98,4.57-2.3,9.67-5.95,12.42-15.66,13.51-13.24,1.48-26.4,3.8-39.59,5.76Z"/>
    <path class="cls-6" d="M173.15,306.9c-2.8,4.31-6.85,8.3-8.09,13.02-1.95,7.38-2.29,15.25-2.61,22.94-.07,1.71,2.45,4.1,4.34,5.22,6.33,3.77,7.6,6.76,5.6,13.93-.58,2.08-.85,4.61-.21,6.59,2.18,6.68,1.24,8.19-6,8.3.32-4.29.89-8.58.86-12.86-.01-2.12-.5-5.12-1.91-6.11-1.4-.98-4.75-.7-6.29.39-2.63,1.85-4.51,4.75-6.87,7.4-1.97-1.61-3.94-3.34-6.03-4.92-4.04-3.05-5.15-7.99-2.48-12.24,1.23-1.96,2.85-3.66,4.16-5.58,3.93-5.73,8.09-11.34,11.5-17.37,1.04-1.84.51-5.14-.46-7.24-.38-.81-3.96-.23-6.08-.12-1.13.06-2.25.44-3.38.67,4-4.84,8.07-9.62,11.99-14.53,3.39-4.25,7.58-6.31,13.05-5.47-.36,2.66-.72,5.31-1.08,7.97Z"/>
    <path class="cls-9" d="M184.26,264.9c3.04,3.32,6.09,6.63,9.33,10.17.48-.76.89-2.18,1.81-2.73,7.98-4.75,7.65-11.33,4.92-18.99-2.86-8.04.3-16.02,1.19-24.01,1.26-11.32,2.58-22.64,3.54-33.99.18-2.08-1.21-4.28-1.88-6.43.92-.85,1.85-1.7,2.77-2.55,1.07,1.54,2.96,3.03,3.06,4.63.38,5.95.17,11.95.18,17.92.05,2.98.05,5.96.17,8.94.07,1.78,1.12,4.02.38,5.23-3.53,5.81-3.43,12.44-2.15,18.18,1.87,8.4,1.98,16.68,1.42,24.99-.35,5.19,1.07,12.2-7.34,13.32-.22.03-.34.87-.5,1.33-1.96-1.4-3.92-2.81-6.28-4.5-.31,1.49-.55,1.98-.48,2.41,1.01,6.05.85,6.18-5.08,5.34-.99-.14-2.08.46-3.12.72-.65-.34-1.29-.69-1.94-1.03,0-6.32,0-12.65,0-18.97Z"/>
    <path class="cls-6" d="M167.2,194.91c-.73,3.42-1.46,6.85-2.19,10.27-.35.05-.69.1-1.04.15-.58-2.08-1.58-4.15-1.64-6.25-.11-3.7-2.13-4.41-5.16-4.19,1.04-5.17,1.85-10.41,3.16-15.51,3.14-12.21,2.27-12.84,14.42-10.48.48.09.99.06,1.49.09-.37,3.45-1.45,6.14-5.4,7.12-1.12.28-1.77,2.49-2.63,3.82-.33,4.99-.67,9.98-1,14.97Z"/>
    <path class="cls-10" d="M168.21,179.94c.86-1.33,1.5-3.54,2.63-3.82,3.95-.98,5.03-3.67,5.4-7.12,1.97-1.04,3.95-2.08,5.92-3.12,1.94-1.14,3.87-2.27,6.05-3.55,3.05,2.29,3.79,4.76,1.18,8.51-2.5,3.59-1.44,5,2.94,5.61,1.06.15,2.01,1.08,3.58,1.97-3.76,2.78-10.67-.86-9.82,6.59-5.5-3.32-11.08-6.34-17.88-5.07Z"/>
    <path class="cls-4" d="M184.27,283.87c.65.34,1.29.69,1.94,1.03,4.32,3.36,8.63,6.71,12.95,10.07,2.11,1.39,4.09,3.04,6.36,4.1,3.06,1.43,3.24,2.84.66,4.84-2.34-.33-4.68-.65-7.02-.98-4.63-3.32-9.26-6.63-13.89-9.94-.34-3.04-.67-6.08-1.01-9.12Z"/>
    <path class="cls-6" d="M132.21,123.03c3.13-2.99,6.25-5.99,10.05-9.63,0,6.69,0,13.06,0,19.43-1.75.73-3.49,1.45-5.23,2.18-1.97-1.06-3.93-2.12-5.9-3.18.36-2.93.72-5.86,1.08-8.79Z"/>
    <path class="cls-1" d="M98.32,98c3.19-.07,6.45-.51,9.55-.01,1.21.19,2.09,2.49,3.12,3.82-1.49,1.03-2.88,2.7-4.5,2.97-3.22.53-6.7.66-8.6-3.04.14-1.25.29-2.5.43-3.74Z"/>
    <path class="cls-2" d="M126.1,150.86c-1.64-.65-3.29-1.29-4.93-1.94-.41-5.2,1.94-9.04,5.94-12.07-.03,2.98.46,5.61,4.12,6.09-1.71,2.64-3.42,5.27-5.13,7.91Z"/>
    <path class="cls-1" d="M131.22,142.95c-3.66-.49-4.15-3.11-4.12-6.09,1.34-1.68,2.69-3.35,4.03-5.03,1.97,1.06,3.93,2.12,5.9,3.18-1.66,2.59-3.33,5.18-4.99,7.78-.27.07-.54.12-.82.16Z"/>
    <path class="cls-2" d="M90.06,135.77c1.01-5.62,2.01-11.23,3.02-16.85,1.1,5.3,2.19,10.6,3.29,15.9-.74.37-1.47.73-2.21,1.1-1.36-.05-2.73-.1-4.09-.15Z"/>
    <path class="cls-6" d="M206.18,303.91c2.58-2,2.4-3.42-.66-4.84-2.26-1.05-4.25-2.71-6.36-4.1,2.25-.68,4.5-1.36,6.75-2.03-.81-1.84-1.67-3.67-2.41-5.54-.84-2.13-1.56-4.31-2.33-6.47.17-.46.28-1.3.5-1.33,8.42-1.13,6.99-8.14,7.34-13.32.56-8.31.45-16.59-1.42-24.99-1.28-5.75-1.38-12.37,2.15-18.18.74-1.22-.31-3.46-.38-5.23-.12-2.98-.12-5.96-.17-8.94.66-.8,1.86-1.58,1.88-2.39.15-5.63.05-11.27.04-16.91,0-3.07-.2-6.15.04-9.2.34-4.46-3.22-8.27-9.06-9.51-1.3-.28-2.51-1-3.76-1.52,1.04-1.04,1.89-2.46,3.14-3.06,3.78-1.81,4.34-4.65,3.25-8.26-.52-1.72-1.02-3.44-1.53-5.17,9.38.07,13.31,4.35,13.9,16.6.68,14.26.98,28.55,1.02,42.82.03,10.95-.97,21.9-.81,32.84.15,10.58,1.18,21.15,1.85,31.72.34,5.48-.36,10.38-7.58,12.41,9.41,9.58,5.51,21.2,6.77,32,1.12,9.64,3.42,19.14,5.41,28.67,2.02,9.69,4.51,19.29,6.36,29.01,1.07,5.64-.44,10.88-4.9,14.93-1.66.34-3.33.67-4.99,1.01-4.27-.32-8.57-.44-12.78-1.09-1.2-.18-2.16-1.91-3.23-2.93,5.27-.34,10.58-.43,15.79-1.17,1.51-.21,3.91-2.27,3.91-3.49.02-4.4.31-9.35-1.51-13.11-7.41-15.32-9.96-31.39-9.17-48.16.23-4.88.72-9.77,1.33-14.62.57-4.51-1.25-5.76-5.35-4.45-1.01-.66-2.01-1.33-3.02-1.99Z"/>
    <path class="cls-7" d="M154.27,136.94c2.79.36,4.39-.88,4.96-3.61.3-1.45.41-3.08,1.17-4.28,1.72-2.72,3.75-6.83,7.52-4.53,9.8,5.99,19.14,12.71,29.02,19.38-2,2.54-3.19,4.06-4.61,5.85.9.79,1.79,1.56,3.08,2.69-3.61,2.65-6.91,5.07-10.21,7.49-3.63-2.96-.43-5.72.71-8.72-3.01-.22-5.58-.4-8.71-.63.85-1.97,1.69-3.39,2.04-4.93.3-1.3.55-3.59-.07-3.96-3.59-2.15-7.31-4.99-11.23-5.43-4.5-.51-7.81,3.06-9.51,7.42-.59,1.53-.94,3.17-1.29,4.78-.71,3.24-2.49,4.96-5.96,4.46,0-.67,0-1.33,0-2,0-2.32.02-4.65.02-6.97,1.02-2.33,2.05-4.67,3.07-7Z"/>
    <path class="cls-5" d="M119.18,42.78c.74,5.36,1.31,9.92,2.01,14.45.9,5.75-2.19,10.23-4.69,14.85-1.46,2.7-5.63,2.56-7.24-.45-1.35-2.53-2.22-5.56-2.36-8.42-.24-5.05-.63-10.39.68-15.15,1.32-4.79,6.5-4.64,11.59-5.28Z"/>
    <path class="cls-10" d="M151.2,143.94c0,2.32-.02,4.65-.02,6.97-5.21-.99-10.03-2.75-13.98-6.52-.77-.74-2.01-.98-3.03-1.46-.71-.05-1.42-.1-2.14-.15,1.67-2.59,3.33-5.18,4.99-7.78,1.74-.72,3.49-1.45,5.23-2.18.97-1.26,2.3-2.38,2.83-3.8.73-1.98.54-4.32,1.38-6.22.53-1.19,2.24-1.85,3.42-2.75.49,1.3,1.37,2.59,1.39,3.89.09,6.66-.04,13.32-.09,19.99Z"/>
    <path class="cls-3" d="M112.14,387.01c.7,1.34,1.4,2.67,2.1,4.01-.03,6.32-.06,12.63-.09,18.94-.98,1.44-2.57,2.78-2.83,4.35-.7,4.16-.83,8.41-1.18,12.63.62,1.82,1.02,3.77,1.93,5.43,1.32,2.42,5.16,3.74,3.11,7.55-7.61-7.15-16.81-9.54-26.98-9.07,0-1.32.02-2.64.03-3.95,4.53.13,9.13-.16,13.58.53,3.26.51,3.85-.53,4.49-3.34,2.8-12.44,2.75-24.81-.08-37.21,1.98.04,3.95.09,5.93.13Z"/>
    <path class="cls-4" d="M110.14,426.94c.35-4.22.48-8.47,1.18-12.63.26-1.56,1.85-2.9,2.83-4.35-.99,5.67-1.97,11.33-2.96,17-.35,0-.7-.01-1.05-.02Z"/>
    <path class="cls-11" d="M206.18,303.91c1.01.66,2.01,1.33,3.02,1.99-.26,8.93-.41,17.87-.86,26.79-.14,2.76.25,6.57-4.46,6.14-3.15-.28-7.05-5.83-5.37-8.82,4.65-8.3,1.25-14.43-3.93-20.66-.95-1.15-1.45-4.14-.73-4.87,1.13-1.15,3.48-1.1,5.31-1.55,2.34.33,4.68.65,7.02.98Z"/>
    <path class="cls-11" d="M61.19,411.91c5.53.12,11.62-1.09,14.94,5.09.97,1.8.92,4.14,1.34,6.24-1.72.24-3.45.47-5.17.73-.92.14-1.84.32-3.44.61,1.15,2.05,2.06,3.67,3.61,6.45-6.41.66-12.35,1.28-18.28,1.89-1.48-1.09-2.85-2.43-4.47-3.22-3.66-1.78-7.44-3.21-6.54-8.54.68-4.03,4.73-7.73,9.37-8.23,2.89-.31,5.77-.68,8.65-1.02Z"/>
    <path class="cls-6" d="M32.06,371.94c7.2,2.21,14.29,5.06,21.64,6.4,4.8.88,10-.61,15.03-.7,3.51-.07,7.02.49,10.53.65,1.41.06,2.84-.27,4.27-.32,1.89-.07,3.77-.03,5.66-.04-.34,1.65-.68,3.3-1.01,4.95-11.55,2.47-23.05,3.26-34.72.29-2.45-.62-5.49,1.1-8.26,1.74-1.63,5.47-4.15,9.86-10.96,9.05.48-4.75-2.15-10.64,6.19-12.98-4.6-1.26-7.92-2.17-11.23-3.08.96-1.98,1.91-3.97,2.87-5.95Z"/>
    <path class="cls-2" d="M29.19,377.89c3.31.91,6.63,1.82,11.23,3.08-8.34,2.34-5.71,8.23-6.19,12.98-1.04,9.69-2.08,19.37-3.11,29.06-1.89-.3-3.77-.6-5.66-.9-2.46-1.39-4.92-2.77-7.38-4.16,3.88-1.14,7.82-1.69,7.23-7.66-.47-4.82-1.7-7.97-6.91-8.54-1.08-.12-2.11-.71-2.58-.88,3.63-1.25,7.51-2.59,11.4-3.93,1.24-1.4,3.72-3.87,3.56-4.05-4.08-4.7-2.04-9.92-1.58-15Z"/>
    <path class="cls-2" d="M45.2,384.9c2.77-.64,5.82-2.36,8.26-1.74,11.67,2.97,23.17,2.18,34.72-.29.98,1.64,1.97,3.28,2.95,4.93-.37.34-.75.67-1.12,1-1.26.02-2.52.05-3.78.07l-6.04.07c-6-.34-12-.68-18-1.03-5.66-1-11.33-2.01-16.99-3.01Z"/>
    <path class="cls-12" d="M151.17,152.91c3.48.51,5.26-1.22,5.96-4.45.35-1.61.7-3.25,1.29-4.78,1.7-4.36,5.01-7.93,9.51-7.42,3.92.45,7.64,3.28,11.23,5.43.62.37.37,2.66.07,3.96-.35,1.53-1.19,2.95-2.04,4.93,3.13.23,5.7.41,8.71.63-1.14,3-4.35,5.76-.71,8.72-1.01,1.98-2.02,3.97-3.03,5.95-1.98,1.04-3.95,2.08-5.92,3.12-.5-.03-1.01,0-1.49-.09-12.15-2.37-11.28-1.73-14.42,10.48-1.31,5.1-2.12,10.34-3.16,15.51-3.66.36-7.31.71-10.97,1.07,1.12-2.31,2.24-4.62,3.37-6.92,1.08-2.2,2.68-4.29,3.11-6.6.29-1.57-.66-3.79-1.8-5.04-.69-.75-2.93-.57-4.25-.14-2.65.86-5.09,2.39-7.74,3.25-6.85,2.25-13.77,4.28-20.66,6.4-.05-2.03-.09-4.07-.14-6.1.08-.29.16-.59.22-.88.22-.39.44-.78.67-1.18.04-.62.08-1.24.12-1.86.66-1.17,2.16-2.66,1.85-3.48-2.69-7.19,1.34-12.7,4.25-18.51,4.84-1.96,9.03-2.25,13.4,1.95,3.43,3.3,7.41,1.97,9.6-1.94.99-.68,1.98-1.35,2.98-2.03Z"/>
    <path class="cls-10" d="M29.19,377.89c-.46,5.07-2.5,10.29,1.58,15,.16.18-2.31,2.65-3.56,4.05,0-.17.05-.38-.03-.49-5.99-8.67-2.61-17.6-.85-26.55,2.06-10.49,4.02-21.01,5.63-31.57.34-2.22-.76-4.81-1.67-7.04-1.89-4.66-1.11-6.92,3.78-9.44.3.75.38,1.75.93,2.22,5.09,4.36,5.24,9.07,1.29,14.24-1.76,2.3-1.25,3.62,1.81,3.56-1.63,7.24-3.32,14.47-4.86,21.74-.58,2.74-.81,5.55-1.2,8.32-.96,1.98-1.91,3.97-2.87,5.95Z"/>
    <path class="cls-7" d="M148.19,154.94c-2.19,3.9-6.17,5.24-9.6,1.94-4.37-4.21-8.56-3.91-13.4-1.95.3-1.35.6-2.71.9-4.06,1.71-2.64,3.42-5.27,5.12-7.91.28-.04.55-.09.82-.16.71.05,1.42.1,2.14.15,1.39,7.84,7.33,10.35,14.02,12Z"/>
    <path class="cls-1" d="M90.06,135.77c1.36.05,2.73.1,4.09.15.01.49.06.99.03,1.48-.22,3.01-9.95,12.93-13.36,13.25.48-2.93.94-5.76,1.4-8.6,2.61-2.09,5.23-4.18,7.84-6.28Z"/>
    <path class="cls-1" d="M119.09,176.9c-.04.62-.08,1.24-.12,1.86-.22.39-.44.78-.67,1.17-.06.3-.14.59-.22.88-.98.39-1.95.77-2.93,1.16-.97.05-1.93.09-2.9.14-1.32-.11-2.64-.22-3.96-.34-.1-1.27-.2-2.54-.3-3.8,1.09-1.5,2.18-3,3.27-4.5.99.01,1.97.02,2.96.03.31-.21.61-.41.92-.62l.02-.02c1.31,1.34,2.62,2.68,3.93,4.03Z"/>
    <path class="cls-6" d="M114.23,173.52c-.99,0-1.97-.02-2.96-.03-.99-3.53-1.99-7.06-2.98-10.58.46-.23.92-.47,1.38-.7,1.83,3.56,3.66,7.11,5.49,10.67,0,0-.02.02-.02.02-.31.21-.61.41-.92.62Z"/>
    <path class="cls-6" d="M104.69,151.28c1.32,2.47,2.64,4.95,3.96,7.42l-2.21,1.2c-1.33-2.46-2.65-4.92-3.98-7.37.74-.42,1.48-.83,2.23-1.25Z"/>
    <path class="cls-6" d="M80.19,388.94c2.01-.02,4.03-.04,6.04-.07-.01,2.78-.43,5.64.09,8.32.45,2.33,1.96,4.45,3,6.66-.39,1.7-.79,3.39-1.18,5.09-3.91.8-4.12,3.33-3.68,6.74.26,2-.78,4.17-1.24,6.27-.94-1.75-1.76-3.58-2.85-5.24-2.18-3.33-2.86-6.2,1.17-8.81,1.97-1.28,2.48-2.89.31-5.17-3.78-3.98-1.22-9.16-1.68-13.79Z"/>
    <path class="cls-4" d="M83.23,421.95c.46-2.1,1.49-4.27,1.24-6.27-.44-3.41-.23-5.94,3.68-6.74.03,5.98.05,11.97.08,17.95,0,1.32-.02,2.64-.03,3.95-.02.7-.03,1.4-.05,2.09-1.64-.67-3.29-1.35-4.93-2.02,0-2.99,0-5.98.01-8.97Z"/>
    <path class="cls-12" d="M207.14,397.88c2.67-.63,5.34-1.27,8-1.9,1.39,2.53,3,4.97,4.11,7.62.72,1.72,1.62,4.37.84,5.52-2.05,3.01-5.61,3.82-8.81,2.04-1.02-.57-.78-3.42-1.12-5.22-.27-1.44-.34-2.95-.85-4.31-.5-1.34-1.43-2.51-2.18-3.76Z"/>
    <path class="cls-6" d="M55.19,229.93c0,2.33,0,4.66,0,6.99-3.49,2.42-5.51,5.64-4.97,10,.58,4.7,1.35,9.38,2.04,14.07-.99,3.65-1.98,7.3-2.97,10.94-.84-1.07-2.29-2.08-2.42-3.22-.44-4.07-.57-8.19-.54-12.29.03-3.79.54-7.57.62-11.36.17-7.72.19-15.45.27-23.17,1.22,1.5,2.33,3.11,3.69,4.48,1.3,1.32,2.84,2.39,4.28,3.57Z"/>
    <path class="cls-10" d="M52.25,260.99c-.69-4.69-1.46-9.37-2.04-14.07-.54-4.36,1.48-7.58,4.97-10,.68,1.67,1.35,3.33,2.03,5,.33,4.45,1.01,8.91.83,13.34-.08,1.93-1.91,3.78-2.95,5.67-.95.02-1.89.03-2.84.05Z"/>
    <path class="cls-11" d="M53.31,292.99c2.21,7.02-.1,16.17-5.02,19.92,1.67-6.64,3.35-13.28,5.02-19.92Z"/>
    <path class="cls-11" d="M88.19,368.91c-4.12,1.47-8.92-.49-11.77-4.52-3.43-4.84-6.67-9.9-10.66-14.24-10.68-11.61-8.41-24.64-1.06-35.34,4.28-6.23,10.28-9.6,17.14-11.93,2.35-.8,4.83-1.35,7.05-2.42,3.73-1.79,7.14-2.59,10.45.82.56.58,1.86.45,2.83.64-1.33,10.98-2.65,21.95-3.98,32.93-.6,1.62-1.2,3.25-1.8,4.87l-1.2,4.18c-5.12-.6-10.24-1.21-15.35-1.81-.26.34-.52.67-.78,1.01,1.39,1.61,2.53,3.56,4.21,4.74,2.79,1.95,5.93,3.41,8.93,5.07,1.37,6.01-1.92,10.85-4,15.99Z"/>
    <path class="cls-4" d="M112.09,214.81c.64-.97,1.29-1.95,1.93-2.92.71,2.26,2,4.51,2.03,6.78.2,14.42.12,28.83.13,43.25-.01,4.66-.03,9.32-.04,13.98-3.31,6.6-2.7,7.82,3.99,8.07-.25.91-.2,2.23-.79,2.66-5.35,3.82-5.45,9.67-6.17,15.29-.28.4-.77.78-.81,1.21-1.44,14.93-2.83,29.86-4.24,44.79-.32,1.68-.5,3.39-.98,5.02-.51,1.71-1.3,3.33-1.97,4.99-.33,0-.67,0-1,0,0-5.36,0-10.72,0-16.08,3.33-2.36,3.45-5.44,1.99-8.87,1.34-9.96,2.7-19.91,3.99-29.87.38-2.97-1.19-4.31-4.07-4.31,2.69-1.23,5.85-2.3,4.92-6.13-.27-1.12-2.94-2.8-3.22-2.58-1.69,1.32-3,3.12-4.44,4.75-.38.02-.75.04-1.13.06-1.35-5.25-2-10.41,1.97-14.97.19,2.48-.88,5.49,3.25,6.01,3.97.49,4.85-1.96,5.19-4.96.22-1.92.3-3.9.11-5.83-.4-4.08-1.02-8.13-1.55-12.19,2.76-3.14,3.78-6.45,1.01-10.13.32-11.95.65-23.9.9-35.85.01-.72-.65-1.45-1-2.17Z"/>
    <path class="cls-3" d="M104.19,341.84c0,5.36,0,10.72,0,16.08,0,0,0,0,0,0-.88.18-1.76.37-3.15.65,1.2,1.7,2.11,2.97,2.81,3.96-1.01,1.99-1.84,3.63-2.68,5.28-3.57,1.16-7.13,2.32-10.7,3.48-.76-.8-1.51-1.59-2.27-2.39,2.08-5.14,5.37-9.99,4-15.99,1-3,1.99-6.01,2.99-9.01.4-1.39.8-2.79,1.2-4.18,2.6.7,5.21,1.4,7.81,2.11Z"/>
    <path class="cls-3" d="M111.19,262.97c.53,4.06,1.15,8.12,1.55,12.19.19,1.92.11,3.9-.11,5.83-.34,3-1.22,5.45-5.19,4.96-4.13-.52-3.07-3.53-3.25-6.01,0-1.67,0-3.34,0-5.01,5.18-2.97,2.21-7.99,3.01-12.05,1.33.03,2.66.06,4,.09Z"/>
    <path class="cls-10" d="M91.13,387.8c-.98-1.64-1.97-3.28-2.95-4.93.34-1.65.67-3.3,1.01-4.95.69-.68,1.37-1.36,2.06-2.05,3.64.34,7.29.69,10.93,1.03-.65,2.97-1.3,5.93-1.95,8.9-3.04.66-6.07,1.33-9.11,1.99Z"/>
    <path class="cls-6" d="M102.21,294.9c.38-.02.75-.04,1.13-.06.63,1.28,1.26,2.57,1.89,3.85.14,1.43.56,2.89.36,4.27-1.39,9.95-2.9,19.88-4.38,29.81-1.01.69-2.02,1.39-3.04,2.08,1.33-10.98,2.65-21.95,3.98-32.93.02-2.34.04-4.69.06-7.03Z"/>
    <path class="cls-1" d="M102.18,376.91c-3.64-.34-7.29-.69-10.93-1.03-.27-1.53-.53-3.05-.79-4.58,3.57-1.16,7.13-2.32,10.7-3.48,1.32.72,2.65,1.44,3.97,2.16,0,1.63-.01,3.26-.02,4.89-.98.68-1.95,1.36-2.93,2.04Z"/>
    <path class="cls-1" d="M111.19,262.97c-1.33-.03-2.66-.06-4-.09-1.11-.98-2.22-1.95-3.33-2.93-.17-1.31-.34-2.62-.5-3.93,1.27-1.36,2.55-2.73,3.82-4.09,1.67.3,3.34.61,5.01.91,2.78,3.69,1.75,7-1.01,10.13Z"/>
    <path class="cls-4" d="M103.86,259.95c1.11.98,2.22,1.95,3.33,2.93-.8,4.07,2.17,9.08-3.01,12.05-.11-4.99-.21-9.99-.32-14.98Z"/>
    <path class="cls-11" d="M116.19,261.92c-.01-14.42.07-28.84-.13-43.25-.03-2.27-1.32-4.52-2.03-6.78,0-1.63-.02-3.27-.03-4.9.71-3.14,1.47-6.27,2.13-9.43.74-3.53,1.4-7.09,2.09-10.63,6.89-2.12,13.81-4.16,20.66-6.4,2.65-.87,5.09-2.4,7.74-3.25,1.33-.43,3.57-.61,4.25.14,1.14,1.25,2.09,3.47,1.8,5.04-.43,2.31-2.03,4.4-3.11,6.6-1.14,2.3-2.25,4.61-3.37,6.92-4.09.31-8.18.76-12.28.91-5.83.21-6.98.94-6.66,6.61.76,13.33,1.88,26.64,2.83,39.95.11,1.49.07,2.98.09,4.47-2.35,2.7-4.57,5.53-7.08,8.07-2.13,2.15-4.6,3.97-6.91,5.94Z"/>
    <path class="cls-9" d="M112.26,182.13c.97-.05,1.93-.09,2.9-.14-1.06,7-2.11,14.01-3.17,21.01-3.8-7.09.68-13.91.27-20.87Z"/>
    <path class="cls-9" d="M112.19,252.83c-1.67-.3-3.34-.61-5.01-.91.36-12.28.71-24.56,1.07-36.85,1.28-.09,2.56-.18,3.84-.27.35.72,1.01,1.46,1,2.17-.25,11.95-.58,23.9-.9,35.85Z"/>
    <path class="cls-7" d="M105.11,374.88c0-1.63.01-3.26.02-4.89.02-3.7.05-7.4.07-11.09-.01-.32-.02-.65-.01-.97.67-1.66,1.46-3.28,1.97-4.99.48-1.63.67-3.34.99-5.02.94.3,1.87.6,2.8.91,4.22,1.36,8.36,3.03,12.67,3.99,3.13.7,7.61-2.95,7.46-5.71-.22-4.19-3.39-4.09-6.5-4.23-2.34-.11-4.65-.74-7.7-1.27,3.12-2.66,5.42-4.68,7.79-6.62,2.13-1.74,4.33-3.39,6.5-5.07,1.6.71,3.6,2.4,4.74,1.94,4.5-1.79,8.11-4.81,9.29-9.91,1.33-1,2.66-2.01,3.99-3.01,1.12-.24,2.24-.62,3.38-.67,2.12-.1,5.7-.69,6.08.12.97,2.1,1.5,5.41.46,7.24-3.41,6.03-7.57,11.64-11.5,17.37-1.31,1.91-2.93,3.62-4.16,5.58-2.67,4.25-1.56,9.19,2.48,12.24,2.09,1.58,4.06,3.31,6.03,4.92,2.36-2.65,4.25-5.56,6.87-7.4,1.54-1.08,4.9-1.37,6.29-.39,1.41.99,1.89,3.98,1.91,6.11.03,4.28-.54,8.57-.86,12.86-13.63,3.9-27.58,1.68-41.37,1.83-6.47.07-12.96-1.89-19.45-2.92-.06-.31-.14-.62-.24-.93Z"/>
    <path class="cls-7" d="M113.18,301.92c.72-5.63.82-11.47,6.17-15.29.59-.42.54-1.75.79-2.66,6-2.03,12.01-4.05,18.01-6.07-.58,1.52-1.32,3.01-1.7,4.58-.35,1.46-.97,3.64-.28,4.37.88.93,2.99,1.01,4.53.9,1.22-.08,2.61-.73,3.54-1.56,3.78-3.35,6.24-1.67,8.03,2.03,1.2,2.48,1.99,5.15,2.97,7.74.74,6.71-5.25,9.83-7.93,14.7-1.28,2.33-3.36,4.21-5.08,6.3-.67,0-1.35-.02-2.02-.02.91-3.53,2.49-7.24-2.82-8.81-7.48-2.21-7.28-2.1-2.49-8.67,1.22-1.68,1.74-5.07.86-6.79-1.1-2.14-8.39-.74-9.09,1.85-2,7.44-7.31,8.02-13.48,7.41Z"/>
    <path class="cls-6" d="M155.23,295.96c-.97-2.59-1.77-5.26-2.97-7.74-1.79-3.71-4.25-5.38-8.03-2.03-.93.83-2.32,1.48-3.54,1.56-1.54.1-3.64.02-4.53-.9-.69-.73-.07-2.91.28-4.37.38-1.57,1.12-3.06,1.7-4.58.01-.32.03-.65.04-.97,7.08-.16,10.16-3,11.81-10.91,1.02-4.85-1.23-8.22-7.05-11.1-1.14-.56-1.87-1.96-2.78-2.98,4.75-.63,9.5-1.21,14.24-1.9,4.75-.69,5.44.6,5.27,5.34-.21,6.23.73,12.49,1.05,18.75.24,4.64,1.02,9.44.14,13.89-.57,2.91-3.68,5.31-5.64,7.94Z"/>
    <path class="cls-7" d="M140.17,251.94c.92,1.01,1.64,2.41,2.78,2.98,5.82,2.88,8.07,6.25,7.05,11.1-1.66,7.91-4.73,10.75-11.81,10.91.3-.93.48-1.92.93-2.77,1.12-2.09,3.11-3.79.49-6.44-2.75-2.78-5.1-1.2-7.53-.02-1.61.78-2.91,2.18-4.51,2.97-3.75,1.85-7.61,3.5-11.42,5.23.01-4.66.03-9.32.04-13.98,2.32-1.97,4.78-3.78,6.91-5.94,2.51-2.54,4.73-5.36,7.08-8.07,2.38,3.71,5.96,4.42,9.99,4.02Z"/>
    <path class="cls-6" d="M147.18,204.89c3.4-2.72,6.97-3.18,10.28-.1,3.44,3.21.84,6.07-.6,9.32-1.76,3.98-3.17,8.37-3.52,12.68-.59,7.28-8.14,18.83-14.95,20.68-1.13.31-3.98-1.69-4.28-3.02-1.32-5.76-1.99-11.68-2.89-17.54,2.03.87,4.34,1.38,6.03,2.7,2.38,1.86,4.38,1.39,5.26-.87.71-1.82.51-4.37-.18-6.27-1.09-2.97-1.72-4.77,2.4-5.72,5.34-1.24,5.9-2.94,3.86-8.13-.49-1.23-.93-2.48-1.39-3.72Z"/>
    <path class="cls-7" d="M147.18,204.89c.46,1.24.91,2.49,1.39,3.72,2.04,5.19,1.48,6.9-3.86,8.13-4.12.95-3.49,2.75-2.4,5.72.7,1.9.9,4.46.18,6.27-.88,2.25-2.89,2.72-5.26.87-1.68-1.32-4-1.83-6.03-2.7,0-4.13-.04-8.25-.01-12.38.04-6.91,2.67-9.54,9.55-9.61,2.15-.02,4.29-.02,6.44-.03Z"/>
    <path class="cls-6" d="M140.2,316.93c.67,0,1.35.02,2.02.02.19,2.14-1.06,5.13,2.97,4.97-1.18,5.1-4.79,8.12-9.29,9.91-1.14.45-3.14-1.24-4.74-1.94.95-1.7,1.74-3.5,2.87-5.07,1.95-2.71,4.1-5.27,6.17-7.9Z"/>
    <path class="cls-2" d="M162.39,244.82l-1.48-28.56c3.76,9.39,4.2,18.92,1.48,28.56Z"/>
    <path class="cls-2" d="M105.11,374.88c.1.31.18.62.24.93,1.53,2.03,2.68,4.62,4.68,5.94,2.06,1.36,4.93,1.47,7.59,3.13-1.83.71-3.65,1.42-5.48,2.13-1.98-.04-3.95-.09-5.93-.13-1.99-.35-3.98-.71-5.97-1.07.65-2.97,1.3-5.93,1.95-8.9.98-.68,1.95-1.36,2.93-2.04Z"/>
    <path class="cls-11" d="M201.17,280.93c.77,2.16,1.49,4.34,2.33,6.47.74,1.87,1.6,3.69,2.41,5.54-2.25.68-4.5,1.35-6.75,2.03-4.32-3.36-8.63-6.71-12.95-10.07,1.04-.26,2.13-.86,3.12-.72,5.93.84,6.09.71,5.08-5.34-.07-.43.17-.92.48-2.41,2.36,1.69,4.32,3.1,6.28,4.5Z"/>
    <path class="cls-6" d="M148.19,154.94c-6.68-1.65-12.63-4.16-14.02-12,1.02.47,2.26.72,3.03,1.46,3.94,3.77,8.77,5.53,13.98,6.52,0,.67,0,1.33,0,2-.99.68-1.98,1.35-2.98,2.03Z"/>
    <path class="cls-12" d="M100.24,385.81c1.99.36,3.98.71,5.97,1.07,2.84,12.4,2.89,24.77.08,37.21-.63,2.82-1.23,3.85-4.49,3.34-4.45-.69-9.05-.4-13.58-.53-.03-5.99-.05-11.97-.08-17.95.39-1.7.79-3.39,1.18-5.09.23-5.02.46-10.03.69-15.05.37-.33.75-.67,1.12-1,3.04-.66,6.07-1.33,9.11-1.99Z"/>
    <path class="cls-4" d="M90.01,388.8c-.23,5.02-.46,10.03-.69,15.05-1.04-2.21-2.55-4.33-3-6.66-.52-2.68-.1-5.54-.09-8.32,1.26-.02,2.52-.05,3.78-.07Z"/>
    <path class="cls-10" d="M118.31,179.94c.22-.39.45-.78.67-1.17-.22.39-.45.78-.67,1.17Z"/>
    <path class="cls-10" d="M114.23,173.52c.31-.21.61-.41.92-.62-.31.21-.61.41-.92.62Z"/>
    <path class="cls-7" d="M95.18,343.91c-1,3-1.99,6.01-2.99,9.01-2.99-1.66-6.14-3.12-8.93-5.07-1.69-1.18-2.83-3.14-4.21-4.74.26-.34.52-.67.78-1.01,5.12.6,10.24,1.21,15.35,1.81Z"/>
    <path class="cls-1" d="M98.18,334.86c1.01-.69,2.02-1.39,3.04-2.08,1.65.06,3.31.13,4.96.19,1.46,3.43,1.35,6.51-1.99,8.87-2.6-.7-5.21-1.4-7.81-2.11.6-1.63,1.2-3.25,1.8-4.87Z"/>
    <path class="cls-11" d="M140.2,316.93c-2.07,2.62-4.22,5.19-6.17,7.9-1.13,1.57-1.92,3.37-2.87,5.07-2.17,1.69-4.37,3.33-6.5,5.07-2.37,1.94-4.67,3.96-7.79,6.62,3.06.53,5.37,1.16,7.7,1.27,3.11.15,6.28.05,6.5,4.23.15,2.77-4.33,6.41-7.46,5.71-4.31-.96-8.45-2.62-12.67-3.99-.93-.3-1.87-.6-2.8-.91,1.4-14.93,2.8-29.86,4.24-44.79.04-.42.53-.81.81-1.21,6.17.61,11.48.03,13.48-7.41.7-2.59,7.99-3.99,9.09-1.85.88,1.72.36,5.11-.86,6.79-4.79,6.58-4.99,6.46,2.49,8.67,5.31,1.57,3.73,5.29,2.82,8.81Z"/>
    <path class="cls-11" d="M116.15,275.9c3.81-1.73,7.67-3.38,11.42-5.23,1.6-.79,2.91-2.19,4.51-2.97,2.43-1.17,4.78-2.76,7.53.02,2.62,2.65.64,4.35-.49,6.44-.46.85-.63,1.84-.93,2.77-.01.32-.03.65-.04.97-6,2.02-12.01,4.05-18.01,6.07-6.7-.24-7.3-1.47-3.99-8.07Z"/>
    <path class="cls-7" d="M106.17,332.97c-1.65-.06-3.31-.13-4.96-.19,1.47-9.94,2.99-19.87,4.38-29.81.19-1.38-.23-2.85-.36-4.27.28.06.57.1.86.1,2.88,0,4.46,1.34,4.07,4.31-1.29,9.96-2.65,19.91-3.99,29.87Z"/>
    <path class="cls-1" d="M106.09,298.79c-.29,0-.58-.04-.86-.1-.63-1.28-1.26-2.57-1.89-3.85,1.44-1.64,2.76-3.44,4.45-4.75.29-.22,2.95,1.46,3.22,2.58.94,3.83-2.23,4.9-4.92,6.13Z"/>
    <path class="cls-3" d="M105.19,357.92c0,.32,0,.65.01.97-.34-.32-.68-.64-1.02-.97,0,0,0,0,0,0,.33,0,.67,0,1,0Z"/>
    <path class="cls-10" d="M104.18,357.92c.34.32.68.65,1.02.97-.02,3.7-.05,7.39-.07,11.09-1.32-.72-2.65-1.44-3.97-2.16.84-1.65,1.67-3.3,2.68-5.28-.7-.99-1.6-2.26-2.81-3.96,1.39-.29,2.27-.47,3.15-.65Z"/>
  </g>
</svg>