<?xml version="1.0" encoding="UTF-8"?>
<svg id="Warstwa_2" data-name="Warstwa 2" xmlns="http://www.w3.org/2000/svg" xmlns:xlink="http://www.w3.org/1999/xlink" viewBox="0 0 187.83 251.91">
  <defs>
    <style>
      .cls-1 {
        fill: #888588;
      }

      .cls-1, .cls-2, .cls-3, .cls-4, .cls-5, .cls-6, .cls-7, .cls-8, .cls-9, .cls-10 {
        stroke-width: 0px;
      }

      .cls-2 {
        fill: #949094;
      }

      .cls-3 {
        fill: none;
      }

      .cls-4 {
        fill: #86604f;
      }

      .cls-5 {
        fill: #1e1c1b;
      }

      .cls-6 {
        fill: #918d8f;
      }

      .cls-11 {
        clip-path: url(#clippath);
      }

      .cls-7 {
        fill: #787477;
      }

      .cls-8 {
        fill: #5e5d60;
      }

      .cls-9 {
        fill: #564036;
      }

      .cls-10 {
        fill: #292a2b;
      }
    </style>
    <clipPath id="clippath">
      <rect class="cls-3" width="187.83" height="251.91"/>
    </clipPath>
  </defs>
  <g id="Warstwa_1-2" data-name="Warstwa 1">
    <g class="cls-11">
      <g>
        <path class="cls-8" d="M78.06,56.59c3.09-2.57,2.22-6.11,2.28-9.41.1-5.68,2.2-8.12,7.92-8.59,1.99-.16,2.69-1.17,3.01-2.83.77-4.06-1.99-7.78-6.37-8.59,4.39-2.75,8.9-1.35,11.27,2.71,3.16,5.4,4.32,11.06,3.91,17.32,1.78-2.29,1.54-6.05,5.37-6.37,2.78,3.16,1.89,10.84-1.71,14.71-3.08,3.32-4.59,13.53-2.69,17.4.55,1.12,1.56,1.23,2.42,1.74,2.09,1.22,4.55,1.93,5.87,4.22.43,2.13.92,4.26.69,6.46-.55,0-1.09-.01-1.64-.02-.25-1.04-.51-2.08-.76-3.12-.44-1.93-1.92-4.19-3.19-1.76-1.19,2.29-3.43,2.85-4.56,4.74-.78.05-1.56.1-2.34.15-.72-2.6-2.64-3.52-5.12-3.61-.49-.02-1.22.3-1.43.07-3.26-3.48-7.86-4.56-11.84-6.74-.63-.35-1.82-.94-1.23-2.04.31-.58,1.25-1.3,1.77-1.2,6.04,1.15,7.24-3.3,8.78-7.39.13-.36.38-.67.57-1.01.88-.02,1.72.08,2.23-1.01,1.63-3.44-1.9-3.45-3.18-4.96,1.91-1.66,2.68-4.04,3.68-6.2,1.36-2.93-.72-5.68-3.95-5.73-2.81-.04-5.66,4.08-4.33,6.58.8,1.51.71,2.93.64,4.46-2.02-.43-4.03,1.93-6.06.04Z"/>
        <path class="cls-5" d="M129.15,245.9c2.06,27.07,3.26,54.16,2.05,81.32-.77,17.34,1.91,34.43,4.01,51.56.72,5.92,1.13,11.88,1.58,17.83.61,7.93,3.04,15.48,4.69,23.19.72,3.33.86,6.66,1.14,10.01.35,4.13-.47,6.93-5.69,6.29,1.15,2.59,2.14,4.81,3.12,7.02-1.15,1.88-.94,2.22,1.96,3.24v-.02c-.25,1.41.36,2.56,1.3,3.47,3.59,3.46,5.16,7.66,4.89,12.6-8.8.63-17.6,1.31-26.41,1.87-4.62.29-7.94-2.96-6.91-7.37.88-3.77.25-7.45.58-11.15.16-1.81.28-3.62.47-5.42.21-1.92,2.66-5.07-2.41-3.85-1.44.35-1.25-1.36-1.36-2.3-.94-7.73-2.06-15.44-2.68-23.2-.88-11.01-3.53-21.77-4.47-32.75-1.71-20.03-7.33-39.54-7.88-59.73-.35-12.97-.74-25.96-3.43-38.73-1.6-7.61-3.2-15.23-4.85-22.83-.15-.71-.72-1.33-1.3-2.37-1.96,11.91-2.85,23.52-3.19,35.15-.65,22.63.87,45.18,3.65,67.63,2.18,17.67.72,35.26-.24,52.88-.32,5.96-.89,11.91-1.43,17.86-.16,1.76-.2,3.74-2.96,3.51-1.32-.11-1.31.78-.99,1.84,1.66,5.37.85,11.02,1.77,16.5.85,5.04-2.3,7.89-7.69,7.1-4.39-.64-8.62-1.42-12.79.95-.91.52-2.31.42-3.44.27-7.14-.99-14.29-2.02-21.25-4,1.01-1.93-.75-2.98-1.39-4.39-1.08,1.41-4.12.4-4.03,3.27-.75-.16-1.52-.27-2.25-.49-1.66-.5-3.95-1.2-3.8-2.91.18-2.07.81-4.61,3.56-5.4,1.23-.36,2.38-.98,3.6-1.39,7.03-2.36,13.02-6.37,18.37-11.42,4.68-1.16,9.37-1.21,14.05,0,4.47,3.09,8.82,3.34,12.33.43-4.26-.86-8.31-.31-12.31-.45.47-3.04-.73-4.35-3.86-3.9-.87.12-1.86.04-2.66-.28-.89-.36-1.64-1.63-.2-1.82,5.84-.77,3.78-2.49,2.19-6.45-1.44-3.6-1.43-8.29-2.14-12.5-.44-2.61-.4-5.14-1.93-7.47-.97-1.47-.3-10.28.93-10.64,3.8-1.11,2.94-4.02,2.98-6.62.04-3.37-.01-6.75.02-10.12.01-1.2-.08-3.1-.88-3.2-4.79-.63-2.72-4.18-2.99-6.61-.24-2.22-.96-3.1-3.23-2.24-.69.26-1.54.12-2.32.16-.78-1.49-.71-3.08-.61-4.69,4.71-1.32.49-5.05,1.91-7.51.69-1.18-1.5-2.94-3.39-3.43-.24-1.55-.48-3.1-.71-4.65,1.15-.03,2.55-.09,2.53-1.53-.02-1.73-1.6-1.55-2.83-1.61-1.39-1.86-.46-4.16-1.13-6.15.85-.13,1.88-.18,1.74-1.39-.14-1.22-1.23-.93-2.03-1.04-.89-2.78-1.2-5.67-1.48-8.56,1.39-.4,2.63,1.26,4.03.35.19-.69-.21-.96-.64-1.28-.84-.62-2.56-.86-1.62-2.47.52-.88,1.62-1.46,2.7-.85,1.15.65,3.69,1.1,2.86,2.49-2.13,3.56.45,5.08,2.11,7.26.96,1.26,2.25,2.87.1,4.32-1.19.8-4-.36-3.72,1.7.3,2.25,2.61-.19,3.9.54.45.25.85.61,1.33.8.93.36,1.92-.4,1.74-.94-1.57-4.5,5.37-8.62.56-13.19,1.13-5.12-.38-9.23-3.05-13.88-2.59-4.52.57-10.17,2.7-14.61,1.07-2.22.87-4.71,2.3-6.62,2.54-3.39,2.4-5.62-.61-8.29-1.3-1.15-.86-2.28.18-3.32,1.88-1.91,2.22-4.14,1.73-6.72-.6-3.14.7-6.27.17-9.55-.19-1.18.67-4.58,3.86-4.4.8.05,1.62-.15,1.67-1.18.05-.88-.51-1.46-1.29-1.75-1.45-.56-2.93-1.02-4.38-1.58-.63-.24-1.17-.71-1-1.46.23-1.05,1.03-.85,1.84-.77,4.67.5,4.92.26,4.99-4.58.01-.91-.08-1.84.07-2.72.26-1.61,1.77-2.08,2.44-1.01,1.01,1.6,2.88,1.28,3.72,2.17,3.98,4.24,2.67-.25,3.11-1.77.23-.77-.33-1.69.59-2.67.13.72.06,1.3.32,1.65.67.92.01,3.16,1.92,2.7,1.66-.4.44-1.94.36-2.99-.19-2.77.63-4.63,3.88-4.3.78,1.53,1.56,3.07,2.33,4.6-.06,1.2-.11,2.38,1.61,2.39.28.45.56.89.84,1.34-3.91,3.88,3.69,7.32.44,11.19-.01.01.16.19.25.28,1.17,1.2,2.12,2.92,3.54,3.5,3.1,1.27,3.25,3.77,2.45,5.99-1.19,3.33.8,4.47,2.94,5.71,2.65,1.54,3.21,4.17,1.1,6.51-.85.94-.91,1.94-.57,2.85.79,2.15.25,4.41.7,6.52.56,2.65-1.59,6.73,3.42,7.43.21.03.38,1.16.38,1.79.02,6.6,1.31,13.14.81,19.76-.23,3.09-.19,5.75,3.81,6.84,2.43.66,4.27,5.65,2.94,6.8-1.9,1.63-3.77.07-5.54-.87-.19-.1-.48-.01-.72-.01-.95,4.46-.93,4.39,2.95,5.12,2.01.38,3.81.82,3.69,3.83-.12,2.82-.75,4.09-3.75,3.79-1.09-.11-2.92-.78-3.16,1.17-.2,1.63,1.46,1.97,2.61,2.45,1.31.55,2.77.76,4.04,1.37,2.1,1,3.25-.78,4.3-1.71,1.3-1.14-.07-1.98-1.12-2.92-1.23-1.1-1.24-3.07.1-4.12,1.78-1.41,2.16-3.51,1.41-4.85-1.73-3.07-.05-5.73.09-8.57.19-3.75,0-7.53.06-11.29.08-4.22-1.01-8.32-1.18-12.56-.22-5.43-1.66-10.88-2.12-16.43-.26-3.2-.62-6.85-2.9-9.42-1.32-1.49-1.88-2.61-1.14-4.41.46-1.12.28-2.26,0-3.43-1.54-6.7-1.37-13.57-2.04-20.36l7.05-.53c2.87.86,5.66-.66,8.52-.28,3.84.24,5.28,2.5,5.12,6.1ZM118.01,372.03c1.08,1.04.21,2.08,0,3.15-.28,1.4-.63,2.95.35,4.12,2.55,3.05,1.8,6.69,2.28,10.17.35,2.52-.25,5.24.77,7.46.67,1.45,1.39,2.28.13,3.62-.78.83-.66,1.69.48,2.13,1.29.49,1.61,1.66,1,2.48-1.16,1.56-.89,3.07-.59,4.72.13.71.13,1.47-.82,1.92-2.63,1.26-2.66,1.65-.7,4.15.46.59.77,1.48,1.75,1.1.74-.29.66-1.09.58-1.69-.3-2.25.37-3.99,2.3-5.31.93-.63.83-1.82.84-2.87.04-5.42-.67-10.66-3.39-15.48-.35-.61-.47-1.51-.34-2.22,1.42-7.56-.03-14.86-1.93-22.11-.3-1.14-.82-2.22-.29-3.38.64-1.4-.12-2.22-1.14-2.92-.92-.64-2.03-.72-2.97-.24-1.34.69-.98,2.06-.64,3.1.72,2.21.82,4.19-.57,6.27-.79,1.18-.97,3,.49,3.82,1.98,1.12.79-2.18,2.4-2.02ZM114.22,343.76c-.51,1.98,2.29,2.96.96,4.49-2.72,3.12.07,5.86-.16,9.06,5.12-3.15,4.53-10.63-.79-13.55ZM124.13,424.52c1.17.85-.34,3.6,2.14,3.64,1.19.02,1.74-1.55,1.51-2.72-.26-1.34-.68-2.92-2.43-3.06-1.3-.11-1.25.99-1.21,2.13ZM127.98,417.07c-.3-1.46-.49-3.94-2.25-3.68-1.99.3.21,2.27-.14,3.5-.07.24,0,.51.01.76.06.88-.05,2.07,1.19,1.99,1.48-.09,1.03-1.47,1.19-2.57Z"/>
        <path class="cls-8" d="M129.15,245.9c.16-3.6-1.28-5.86-5.12-6.1-.23-2.12,3.1-1.32,2.67-2.52-1.21-3.34-.02-7.27-1.9-10.09-1.88-2.83-2.89-6-4.67-8.85-1.53-2.44-3.21-5.67-2.83-8.25.71-4.89-1.67-4.89-4.98-4.62-1.27-.82-.19-1.6.04-2.39,1.43,0,2.85,0,4.28-.01,1.84-.01,2.64-1.51,1.65-2.51-3.46-3.52-1.08-5.75,1.06-8.53,1.48-1.91,2.35-4.24-.69-6.19-2.16-1.38-2.04-5.32-5.66-5.38-.18,0-.6-.96-.48-1.34,1.45-4.77,2.13-9.86,4.87-14.13,2.16-3.37,3.04-7.88.66-10.84-2.04-2.54-1.29-4.26.05-6.52,1.48-2.5,3.55-4.87,2.75-8.2-.84-3.51-1.57-7.05-1.49-10.7.03-1.62-.45-2.84-2.42-2.72-.51,0-1.02,0-1.53,0,2.83-1.55,6.09-2.52,3.39-7.16-1.06-1.81-.36-5.1,3.52-4.56.33,6.3,1.75,12.44,2.83,18.63.1,3.19,1.49,6.14,1.35,9.44-.28,6.71-.1,13.44-.12,20.16-.83.67-.71,1.52-.45,2.4-.24,2.09-.5,4.18.43,6.19,0,1.56.02,3.12.03,4.68-.3,1.91.69,3.6.98,5.4-.13,1.11-.48,2.26.54,3.17.06.51.11,1.01.17,1.52,1.01,2.53.08,5.38,1.28,7.88.15,2.56.29,5.13.44,7.69-.22.65-.13,1.21.47,1.62.07,2.07.14,4.13.21,6.2.21,3.14.43,6.28.64,9.42-.32,2.15.77,4.09.89,6.17-.1,1.12-.47,2.29.66,3.15.03.51.07,1.02.1,1.53.21,1.52.49,3.03.63,4.56.3,3.31,2.2,4.56,5.29,3.95,3.03-.6,6.02-1.38,9-2.21,1.62-.45,3.71-.13,4.47-2.31,1.12-.14,2.61.11,1.77-1.91-.44-1.07-.6-2.26-1.11-3.29-2-4.04-4.08-8.04-6.13-12.05,0-3.09,0-6.18,0-9.27,2.76-1.13,1.49-3.22,1.01-4.92-.99-3.53-2.03-6.98.23-10.43.25-.38.28-1.02.2-1.51-.9-5.09-1.06-10.25-1.62-15.36-.35-3.21-.9-6.75-4.5-8.42,0-1.01.01-2.02.02-3.02,1.55-.17,1.55-1.27,1.44-2.43.56-3.89,1.13-7.78,1.69-11.67,3.45-5.71-.39-11.13-1.57-16.19-1.68-7.23-.58-14.26-.96-21.33-.32-5.89-.16-6.67-6.18-6.86-1.92-.41-3.59.81-5.44.85.01-.31.03-.61.04-.92.52-.26,1.04-.51,1.57-.77,4.16-1.99,8.33.5,12.5-.03,1.2,1.07,1.86,2.36,2.14,3.98,2.11,12.28,3.05,24.53,2.76,37.1-.5,21.9-.18,43.89,2.82,65.69.88,6.42,2.45,12.73,4.14,18.99.66,2.46,1.83,4.87-1.55,6.67-1.22.65.02,3.67-2.44,4.19-.04-.62-.08-1.23-.12-1.85-.43-1.85-1.92-1.29-3.11-1.35-4.42-.23-8.44,1.73-12.7,2.4-.99.1-2.84-.91-2.7.87.32,4.07-2.44,4.52-5.23,5.18Z"/>
        <path class="cls-2" d="M32.83,145.38c0-1.05.02-2.09.03-3.14.68-.08,1.21-.33,1.46-1.06,2.72-7.6,2.98-15.62,3.54-23.51.34-4.77,1.91-6.5,6.63-6.12,3.14.26,5.16,2.72,8.6,3.27-1.41-2.5-3.55-3.27-5.28-4.38-3.25-2.09-3.5-3.08-.86-6.1,1.95-2.23,4.93-2.68,7.36-4.09.5-.29,2.03.06,2.1.36.75,3.07,4.43,4.27,4.63,7.81.11,1.94.83,4.03,2.08,5.75.13.85-.15,1.84.86,2.36h0c0,.86-.2,1.8.79,2.34v-.02c.07,1.09-.39,2.32.78,3.14h-.02c-.09,1.76.12,3.42,1.57,4.67.42,3.72,2.41,7.09,2.42,10.9-1.46,1.33-.61,2.77-.35,4.28.45,2.52-.99,4.22-3.34,4.1-2.69-.13-4.47-2.15-4.84-4.8-.88-6.27-4.43-11.36-7.13-16.82,0-.52,0-1.04,0-1.56-.39-2.01,1.13-4.65-1.39-5.91-1.34-.67-4.03-1.15-4.4.54-.48,2.16-.79,5.25,2.67,6.15-.71,3.75-.83,7.65-3.71,10.71-1.09,1.15-.65,2.78-.59,4.37.31,8.24,3.01,16.5-.01,24.73-.55,1.51-.38,2.79.82,3.86.95.85,1.23,1.93,1.18,3.14,0,1.03,0,2.06-.01,3.1-1.61.08-1.58,1.22-1.52,2.38-1.02.43-1.55,1.2-1.59,2.31-1.78.16-2.98,1.44-4.28,2.42-1,.75-2.12,2.01-1.45,3.25.59,1.1,2.1.64,3.17.23,1.79-.69,3.27-.63,4.25,1.26-.07.45-.14.89-.21,1.34-1.42.18-2.18.96-2.21,2.41-1.59,1.31-3.16,2.66-4.79,3.91-.76.58-1.2,1.06-1.2,2.18,0,6.19-.21,12.37-.27,18.56-.01,1.49-.2,3-1.21,4-2.23,2.21-2.04,5.22-1.67,7.57.49,3.13-.27,5.83-.83,8.7-.37,1.9-.67,3.81-1.01,5.71-.5-.04-1-.09-1.51-.13-1.14-1.98-2.83-2.01-4.73-1.35-.5-.09-1-.17-1.49-.26-.02-.44-.04-.88-.06-1.32-.14-1.46.17-2.84.76-4.16,2.31-5.15,2.98-10.55,3.35-16.16.2-3.08-.1-6.24.84-9.4,1.69-5.68,1.93-11.77,1.71-17.57-.16-4.3.31-7.97,1.75-11.95,1.54-4.23,3.19-8.84.16-13.29-.7-3.94-.15-7.87-.04-11.81.06-2.37.72-4.97-1.49-6.89Z"/>
        <path class="cls-10" d="M85.88,230.37c-3.25-.33-4.07,1.53-3.88,4.3.07,1.05,1.3,2.6-.36,2.99-1.9.46-1.24-1.78-1.92-2.7-.26-.35-.19-.93-.32-1.65-.92.98-.37,1.9-.59,2.67-.44,1.52.87,6.01-3.11,1.77-.84-.9-2.72-.57-3.72-2.17-.67-1.06-2.18-.6-2.44,1.01-.14.89-.05,1.81-.07,2.72-.08,4.84-.32,5.08-4.99,4.58-.81-.09-1.61-.28-1.84.77-.16.75.37,1.22,1,1.46,1.45.56,2.93,1.02,4.38,1.58.77.3,1.33.87,1.29,1.75-.05,1.03-.87,1.22-1.67,1.18-3.19-.18-4.05,3.22-3.86,4.4.53,3.28-.76,6.41-.17,9.55.49,2.57.15,4.81-1.73,6.72-1.03,1.05-1.47,2.17-.18,3.32,3.01,2.68,3.15,4.91.61,8.29-1.43,1.91-1.23,4.4-2.3,6.62-2.13,4.44-5.29,10.09-2.7,14.61,2.67,4.65,4.17,8.76,3.05,13.88,4.82,4.57-2.12,8.69-.56,13.19.19.54-.81,1.3-1.74.94-.47-.18-.88-.54-1.33-.8-1.29-.73-3.6,1.71-3.9-.54-.27-2.07,2.53-.9,3.72-1.7,2.15-1.45.86-3.06-.1-4.32-1.66-2.18-4.24-3.7-2.11-7.26.83-1.39-1.71-1.84-2.86-2.49-1.08-.62-2.19-.04-2.7.85-.94,1.61.77,1.85,1.62,2.47.43.32.83.59.64,1.28-1.4.9-2.65-.75-4.03-.35-.89-6.94-1.16-13.91-1.18-20.89.08-2.29-.19-4.4-2.09-6.07-1.13-1-.75-1.78.78-1.88.89-.06,1.46-.42,1.28-1.72-1.5,0-3.17.45-4.56-.65-.97-.77-2.02-1.44-.39-2.57,1.53.12,2.94.66,4.35,1.71v-3.79c0-8.07.06-16.14-1.47-24.11,1.56-5.43.54-10.92.37-16.39,2.77-.55,5.47,1.44,8.26.2l2.27-.27c4.77.52,7.76-2.27,9.47-6.04,4.59-10.11,8.78-20.41,13.13-30.63.5-.21,1-.43,1.5-.64,2.54,8.23,5.34,16.38,7.13,24.82Z"/>
        <path class="cls-4" d="M74.93,79.08c.27-4.32-.1-8.37-3.44-11.72-1.73-1.74-2.57-4.14-2.88-6.62-.68-5.38-2.98-10.46-3-15.96,1.67-3.58.32-7.34.66-11,.33-1.5.5-3.06,1.01-4.5.64-1.8,2.6-2.96,3.94-2.14,4.68,2.85,9.12,1.28,13.67.04,4.38.81,7.15,4.53,6.37,8.59-.32,1.66-1.01,2.67-3.01,2.83-5.71.47-7.82,2.91-7.92,8.59-.06,3.3.81,6.84-2.28,9.41-5.06,1.5-7.06,4.5-5.44,8.13.87-.25.96-1.11,1.35-1.74,1.99-3.17,5.09-3.9,8.37-3.14,2.44.56,6.1-.62,6.68,3.58-.19.33-.44.65-.57,1.01-1.55,4.1-2.75,8.55-8.78,7.39-.51-.1-1.46.63-1.77,1.2-.59,1.1.6,1.69,1.23,2.04,3.98,2.18,8.57,3.26,11.84,6.74.21.22.95-.09,1.43-.07,2.48.1,4.4,1.01,5.12,3.61-.28.29-.55.58-.83.87-2.87.84-5.56,1.98-7.19,4.72-1.83,3.63-3.68,3.78-7.58.58-.25-1.97-2.2-1.89-3.35-2.77-1.39-1.07-3.61-.71-4.49-2.64-.26-2.41,2-4.52.83-7.03Z"/>
        <path class="cls-9" d="M101.18,83.75c.8-2.73,2.03-5.34,1.02-8.22-.43-.68-.83-1.44-.96-2.24,0-.02,0-.03,0-.04-.06-.09-.12-.18-.18-.29-1.9-3.88-.39-14.08,2.69-17.4,3.6-3.87,4.49-11.55,1.71-14.71-3.83.31-3.59,4.08-5.37,6.37.41-6.26-.75-11.92-3.91-17.32-2.38-4.06-6.88-5.46-11.27-2.71,4.38.8,7.15,4.53,6.37,8.59-.32,1.66-1.01,2.67-3.01,2.83-5.71.47-7.82,2.91-7.92,8.59-.06,3.3.81,6.84-2.28,9.41,2.03,1.89,4.03-.46,6.06-.04.07-1.52.17-2.95-.64-4.46-1.33-2.5,1.52-6.62,4.33-6.58,3.24.05,5.31,2.81,3.95,5.73-1,2.16-1.78,4.54-3.68,6.2,1.28,1.51,4.81,1.52,3.18,4.96-.52,1.09-1.35.99-2.23,1.01-.19.33-.44.65-.57,1.01-1.55,4.1-2.75,8.55-8.78,7.39-.51-.1-1.46.63-1.77,1.2-.59,1.1.6,1.69,1.23,2.04,3.98,2.18,8.57,3.26,11.84,6.74.21.22.95-.09,1.43-.07,2.48.1,4.4,1.01,5.12,3.61.78-.05,1.56-.1,2.34-.15.35-.58.81-1.03,1.31-1.45Z"/>
        <path class="cls-4" d="M40.87,285.51c-1.63,1.13-.58,1.8.39,2.57,1.39,1.1,3.06.65,4.56.65.18,1.3-.39,1.66-1.28,1.72-1.54.1-1.91.88-.78,1.88,1.9,1.68,2.17,3.78,2.09,6.07-8.71-.07-10.02-8-13.68-13.21-4.56-6.48-5.3-14.01-4.85-21.82.36-6.31.07-12.65.07-18.98,1.79.08,3.62.5,5.32.51,3.93.04,4.97,1.68,5.01,5.38.02,2.24.86,4.86,3.65,5.79.79,1.09,1.59,2.17,2.38,3.25,1.54,7.97,1.48,16.04,1.47,24.11-3.83-.11-5.32-2.25-4.39-6.89.46-2.33.6-4.38-1.05-6.51-2.24,5.58-3.7,10.78,1.09,15.48Z"/>
        <path class="cls-4" d="M137.33,295.04c-.28-.04-.56-.08-.83-.12-.16-5.05,3.41-8.79,4.67-13.34,1.83-5.1-.23-9.81-1.51-14.59.78-1.54,1.35-3.13.13-4.67-.72-.92-1.85-.96-2.81-.44-1.72.93-1.27,2.67-1.21,4.14.2,4.84.53,9.68.81,14.52-1.61,1.22-2.78.59-3.12-1.11-1.73-8.55-3.99-17.19,2.8-24.83,1.72-1.93,2.75-4.36,3.57-6.79.55-1.65,1.08-3.58-1.03-4.79.46-1.06,1.39-.98,2.3-.94,1.33-.3,2.91.57,4.02-.82l-.05.03c1.88-.07,2.45.85,2.3,2.65-.59,6.79-1.61,13.53-1.27,20.44.11,2.18,1.51,3.67,1.36,5.79-.33,4.65-1.34,9.12-2.93,13.47-.96,2.63-3.08,4.79-3.18,7.77,0,0,.07-.07.07-.07-2.7-.25-3.09,2.05-4.09,3.69Z"/>
        <path class="cls-5" d="M105.46,40.84c-3.83.31-3.59,4.08-5.37,6.37.41-6.26-.75-11.92-3.91-17.32-2.38-4.06-6.88-5.46-11.27-2.71-4.55,1.24-8.99,2.81-13.67-.04-1.35-.82-3.3.33-3.94,2.14-.51,1.44-.69,2.99-1.01,4.5-1.39-1.1-.31-2.71-.82-3.99,3.1-10.46,9.74-14.28,21.04-12.71,12.41,1.72,19.16,9.11,18.96,23.77Z"/>
        <path class="cls-1" d="M63.13,114.17c-1.25-1.72-1.97-3.81-2.08-5.75-.2-3.54-3.88-4.74-4.63-7.81-.07-.29-1.6-.65-2.1-.36-2.43,1.41-5.41,1.86-7.36,4.09-2.64,3.02-2.39,4.01.86,6.1,1.73,1.12,3.87,1.89,5.28,4.38-3.45-.55-5.47-3.02-8.6-3.27-4.72-.38-6.29,1.34-6.63,6.12-.56,7.89-.83,15.91-3.54,23.51-.26.72-.78.97-1.46,1.06-.18-11.76,1.05-23.25,6.11-34.11,2.66-5.72,7.53-9.18,12.34-12.63,4.42-3.17,9.22-5.79,13.86-8.66.94.27,1.89.54,2.83.81-.05,2.09-.09,4.17-.13,6.26-5.91,2.71-6.11,3.53-5.04,9.59.82,4.61,2.5,8.91,3.73,13.36.48,1.75,1.17,3.46-.21,5.11-.27,0-.54,0-.81.01,0,0,.02,0,.02,0-.09-1.09.38-2.32-.79-3.14,0,0,.01.02.01.02,0-.87.17-1.8-.79-2.35,0,0,0,0,0,0,0-.89.18-1.85-.86-2.36Z"/>
        <path class="cls-7" d="M110.04,85.37c.22-2.2-.26-4.33-.7-6.46.62.1,1.4,0,1.82.34,7.02,5.72,16.11,7.78,23.31,13.11,4.27,3.16,9.1,5.97,10.67,11.67-4.17.53-8.34-1.96-12.5.03-2.03-6.08-7.61-11.44-13.09-10.1.19-.97.46-1.93.53-2.91.06-.73-.02-1.77-.79-1.95-1.17-.27-.55,1.49-1.5,1.69-1.65-3.76-6.37-.8-8.36-3.82.2-.54.4-1.07.6-1.61Z"/>
        <path class="cls-9" d="M141.35,291.42c.11-2.98,2.22-5.14,3.18-7.77,1.59-4.35,2.6-8.82,2.93-13.47.15-2.13-1.26-3.61-1.36-5.79-.34-6.91.68-13.64,1.27-20.44.16-1.8-.42-2.73-2.3-2.65,2.39-1.51,5.28-1.44,7.82-2.48.04.62.08,1.23.12,1.85-.03,7.75-.55,15.54.04,23.24.64,8.35-2.83,15.03-7.05,21.54-1.35,2.09-2.02,4.85-4.65,5.99Z"/>
        <path class="cls-6" d="M34.37,164.09c3.03,4.45,1.37,9.06-.16,13.29-1.45,3.98-1.92,7.65-1.75,11.95.22,5.8-.02,11.89-1.71,17.57-.94,3.16-.64,6.32-.84,9.4-.37,5.61-1.04,11.01-3.35,16.16-.59,1.31-.89,2.7-.76,4.16-1.01,0-2.02,0-3.03,0,1.89-8.43,4.22-16.77,4.92-25.43.4-5.03.98-10.06,1-15.09.04-7.63,1.71-15.09,2.06-22.68,2.09-.69,1.43-2.77,1.89-4.16.57-1.72,0-3.81,1.74-5.17Z"/>
        <path class="cls-8" d="M41.38,256.06c-2.8-.92-3.63-3.55-3.65-5.79-.04-3.71-1.08-5.34-5.01-5.38-1.7-.02-3.53-.43-5.32-.51-.26-.27-.52-.54-.78-.81,2.9-.54,5.67.34,8.49.76.82.12,1.91.31,2.18-.93.17-.78-.41-1.1-1.09-1.26-3.43-.8-6.86-1.61-10.29-2.41-.55-.44-1.11-.88-1.66-1.32.54-.15,1.08-.3,1.63-.46.5.09,1,.17,1.49.26,1.4,1.05,2.95,1.61,4.73,1.35.5.04,1,.09,1.51.13,3.43,1.08,7.11,1.37,10.24,3.34-3.43.65-5.7,4.81-4.38,8.05.67,1.65,2.09,3.01,1.94,4.99Z"/>
        <path class="cls-1" d="M34.37,164.09c-1.73,1.36-1.17,3.45-1.74,5.17-.46,1.4.21,3.48-1.89,4.16.46-9.36,2.04-18.64,2.09-28.04,2.21,1.92,1.55,4.53,1.49,6.89-.1,3.94-.66,7.88.04,11.81Z"/>
        <path class="cls-7" d="M152.89,238.81c-2.54,1.04-5.43.97-7.82,2.48,0,0,.05-.03.05-.03-1.35.22-2.85-.29-4.02.82-.91-.04-1.84-.12-2.3.94-1.61-.49-1.35-2-1.71-3.16,4.26-.67,8.27-2.63,12.7-2.4,1.19.06,2.69-.5,3.11,1.35Z"/>
        <path class="cls-8" d="M68.01,87.65c-.94-.27-1.89-.54-2.83-.81,2.81-3.14,5.79-6.08,9.76-7.77,1.18,2.51-1.09,4.62-.82,7.03-1.31-.59-2.62-2.89-3.93,0-1.12-.04-1.42,1.07-2.17,1.55Z"/>
        <path class="cls-7" d="M25.89,239.72c3.43.81,6.86,1.62,10.29,2.41.69.16,1.26.48,1.09,1.26-.27,1.24-1.36,1.06-2.18.93-2.82-.41-5.59-1.29-8.49-.76-2.2-.92-.7-2.53-.71-3.85Z"/>
        <path class="cls-5" d="M65.46,29.78c.51,1.28-.57,2.89.82,3.99-.34,3.66,1.01,7.42-.66,11-2.26-4.97-1.86-9.97-.16-14.99Z"/>
        <path class="cls-1" d="M25.85,237.94c-.54.15-1.08.3-1.63.46-1.27.05-1.87-.45-1.47-1.78,1.01,0,2.02,0,3.03,0,.02.44.04.88.06,1.32Z"/>
        <path class="cls-1" d="M109.44,86.97c1.99,3.02,6.71.06,8.36,3.82,0,1.12-.04,2.24-.01,3.36.02.67-.33,1.76.78,1.66.8-.07.75-1.17.98-1.86,5.48-1.34,11.06,4.02,13.09,10.1-.52.26-1.04.51-1.57.77-.8.23-1.6.45-2.4.68-.88-2.85-3.09-4.75-5.33-6.32-1.31-.92-3.71-2.63-5.11-.29-1.71,2.84-3.06,5.99-3.49,9.36-.13,1.05.48,2.68,1.61,1.28,2.51-3.12,4.6-1.93,6.91-.05.01.25.02.5.02.75-.28.28-.56.55-.84.83-2.38-1.26-4.17-.14-4.99,1.89-.78,1.96-1.31,4.32-.98,6.35.41,2.51,1.07,4.53-2.15,5.45-.41.12-1.08.99-.51,1.6.49.53,1.17.26,1.62-.34.51,0,1.02,0,1.53,0-.03,1.55.55,3.52-.19,4.57-4.2,5.95-3.46,13.39-6.29,19.77-1.25,2.81-1.38,6.61.3,9.42,2.13,3.56,1.72,6.79.52,10.33-1.43,4.27-3.3,8.44-3.59,13.01-.17,2.61-.5,5.46,3.62,5.27.48-.02,1.47.87,1.41,1.03-1.06,2.81,1.9,6-1.12,8.75-1.54,1.41-1.41,3.55.75,4.91-.22.79-1.31,1.57-.04,2.39.36,1.84,1.89,4.01.15,5.46-3.38,2.82-2.35,5.44,0,7.82,4.04,4.09,3.3,8.96,2.62,13.78-.37,2.61-.63,5.09.43,7.56-2.35.18-4.7.35-7.05.53-.53-.13-1.06-.26-1.59-.39-.09-2.18,1.43-2.09,2.91-2.06,2.82.04,2.99-1.22,1.87-3.45-.92-1.84-1.99-3.79-2.17-5.77-.28-3.09-1.54-4.4-4.58-5.19-4.87-1.27-5.66-3.15-4.13-8.03.58-1.84,1.65-3.52,2.41-5.31,1.13-2.68.17-8.45-1.77-9.85-2.52-1.82-4.31.48-6.33,1.4-.35.16-.71.33-1.05.51-1.73.89-2.7.57-2.74-1.57-.05-2.62,0-5.09,1.96-7.28,1.7-1.91,3.5-4.35,1.81-6.93-1.52-2.33-2.64-6.05-7.04-4.09-1.1.49-2.71-.84-1.61-1.98,1.56-1.62,1.54-3.78,2.75-5.46,2.12-2.97,1.7-3.62-2.2-3.87-1.12-.12-2.24-.24-3.35-.36-.46-1.37.73-2.44.68-3.73l-.02.02c1.55-.1,1.68-1.16,1.58-2.36l-.02.02c1.84-.25,2.11-1.69,2.36-3.14l-.02.02c4.65-2.52,4.24-7.49,5.52-11.6,2.68-8.59,5.17-17.23,7.74-25.85h0c.75-.27.83-.88.78-1.56h0c.95-.33,1.27-1.12,1.67-1.97,2.3-4.88,4.81-9.66,6.98-14.6,1.36-3.11,4.89-4.74,5.38-8.34-.77-1.08-.27-3.15-2.44-3.15-1.52-1.05-3.05-2.11-4.57-3.16.07-1.52.15-3.04.22-4.56Z"/>
        <path class="cls-10" d="M106.88,240.23c.53.13,1.06.26,1.59.39.67,6.79.5,13.66,2.04,20.36.27,1.17.45,2.31,0,3.43-.75,1.8-.18,2.92,1.14,4.41,2.27,2.57,2.63,6.22,2.9,9.42.46,5.55,1.9,11.01,2.12,16.43.17,4.24,1.25,8.34,1.18,12.56-.07,3.76.13,7.53-.06,11.29-.14,2.84-1.82,5.5-.09,8.57.75,1.33.37,3.44-1.41,4.85-1.34,1.06-1.33,3.02-.1,4.12,1.06.95,2.43,1.78,1.12,2.92-1.05.92-2.2,2.71-4.3,1.71-1.27-.61-2.73-.82-4.04-1.37-1.14-.48-2.81-.81-2.61-2.45.24-1.95,2.07-1.28,3.16-1.17,3,.3,3.63-.97,3.75-3.79.13-3.01-1.67-3.45-3.69-3.83-3.89-.73-3.9-.66-2.95-5.12.25,0,.54-.09.72.01,1.77.94,3.64,2.5,5.54.87,1.33-1.14-.52-6.14-2.94-6.8-4-1.09-4.04-3.75-3.81-6.84.5-6.62-.79-13.16-.81-19.76,0-.62-.17-1.76-.38-1.79-5.01-.7-2.85-4.78-3.42-7.43-.45-2.11.09-4.37-.7-6.52-.34-.92-.28-1.92.57-2.85,2.11-2.33,1.55-4.97-1.1-6.51-2.14-1.24-4.13-2.38-2.94-5.71.8-2.22.65-4.72-2.45-5.99-1.42-.58-2.38-2.3-3.54-3.5-.09-.09-.26-.27-.25-.28,3.25-3.87-4.35-7.31-.44-11.19,2.36,1.5,5.09,1.14,7.67,1.5,2.84.41,5.69.41,8.54.03Z"/>
        <path class="cls-7" d="M115.52,240.09c-1.06-2.47-.8-4.95-.43-7.56.69-4.82,1.42-9.69-2.62-13.78-2.35-2.38-3.38-5,0-7.82,1.74-1.45.21-3.63-.15-5.46,3.32-.26,5.7-.26,4.98,4.62-.38,2.59,1.3,5.81,2.83,8.25,1.78,2.84,2.79,6.02,4.67,8.85,1.88,2.82.69,6.75,1.9,10.09.44,1.21-2.9.4-2.67,2.52-2.86-.38-5.65,1.14-8.52.28Z"/>
        <path class="cls-1" d="M98.34,240.2c-2.58-.36-5.31,0-7.67-1.5-.28-.45-.56-.89-.84-1.34-.15-1.05-.72-1.82-1.61-2.39-.78-1.53-1.56-3.07-2.33-4.6-1.79-8.44-4.59-16.59-7.13-24.82-.26-3.67.91-7.42-.69-11,0-.53-.01-1.06-.02-1.6.28,0,.56-.01.83-.02.5.01,1.01.03,1.51.04,0,.26,0,.53,0,.79-.62,1.52-.29,2.86.78,4.05-.53,2.25-1.51,4.44-.79,6.83.48,3.06,1.69,5.86,3.12,8.58,1.51,5.15,3.22,10.25,4.49,15.46,1.35,5.56,5.03,8.01,10.33,8.73,0,.93.02,1.86.02,2.8Z"/>
        <path class="cls-10" d="M88.22,234.97c.88.56,1.46,1.33,1.61,2.39-1.71,0-1.67-1.19-1.61-2.39Z"/>
        <path class="cls-1" d="M145.19,149.27c-.56,3.89-1.13,7.78-1.69,11.67-1.6.15-1.55,1.27-1.45,2.43,0,1.01-.01,2.02-.02,3.02-.26,1.62-1.3,3.11-.39,4.89,2.34,4.6,3.32,9.31,2.26,14.59-.3,1.49-.64,3.53-.24,5.22,1.27,5.27.52,10.92,3.06,15.94,0,3.09,0,6.18,0,9.27-.35,2.76.04,5.49,1.55,7.75,1.96,2.94,2.93,6.2,3.92,9.5-.75,2.18-2.84,1.86-4.47,2.31-2.97.83-5.97,1.61-9,2.21-3.09.61-4.98-.64-5.29-3.95-.14-1.53-.41-3.04-.63-4.56,1.78,1.09,4.56,1.54,3.52,4.58-.2.58-1.86,1.19-.89,1.9,1.63,1.19,3.71.73,5.57.21.82-.23,1.74-.61,1.38-1.9-1.15-4.15.87-8.13.73-12.26-.18-4.99,2.92-10.56-2.91-14.41-.27-.18-.46-.68-.45-1.03.1-3.78-1.47-7.31-1.65-11.05-.19-3.82-2.19-5.34-5.72-4.09-1.12.4-2,1.49-2.99,2.27-1.2-2.5-.27-5.35-1.28-7.88.98.07,1.62.7,2.31,1.3,1.29,1.11,3.19,2.68,4.38,1.53,1.42-1.36,3.18-3.02,3.28-5.41.05-1.1-.13-2.39-1.27-2.56-4-.6-6.55-4.13-10.4-4.96,0-1.56-.02-3.12-.03-4.68,1.79.16,2.88,1.62,4.36,2.36,1.64.82,5.94-.6,5.51-1.76-1.33-3.6-.02-8.13-2.99-10.9-1.8-1.68-2.26-3.19-2.2-5.33.07-2.59.03-5.17.03-7.76,1-.05,1.52-.57,1.54-1.58.04-2.88-.25-5.79.79-8.57,1.24-.98.48-2.44.87-3.61,1.25-3.71.48-6.54-3.33-8.18-1.07-.46-1.28-1.45-1.51-2.51-1.08-5.07.54-10.4-1.53-15.36,1.04-.72,2.07-1.44,3.11-2.17,1.85-.04,3.52-1.26,5.44-.86,3.79,12.46,2.46,25.55,4.57,38.24.51,3.07,1.13,5.17,4.13,6.13Z"/>
        <path class="cls-7" d="M112.36,203.08c-2.16-1.35-2.29-3.5-.75-4.91,3.01-2.75.06-5.94,1.12-8.75.06-.16-.94-1.05-1.41-1.03-4.12.19-3.79-2.66-3.62-5.27.3-4.57,2.16-8.74,3.59-13.01,1.19-3.55,1.61-6.77-.52-10.33-1.68-2.81-1.54-6.61-.3-9.42,2.83-6.38,2.08-13.82,6.29-19.77.74-1.05.16-3.02.19-4.57,1.96-.12,2.45,1.11,2.42,2.73-.08,3.65.65,7.19,1.49,10.7.8,3.32-1.27,5.7-2.75,8.2-1.34,2.26-2.09,3.97-.05,6.52,2.38,2.96,1.49,7.47-.66,10.84-2.73,4.27-3.41,9.36-4.87,14.13-.12.38.3,1.33.48,1.34,3.62.06,3.5,4,5.66,5.38,3.04,1.95,2.17,4.28.69,6.19-2.14,2.77-4.52,5.01-1.06,8.53.98,1,.19,2.5-1.65,2.51-1.43.01-2.85,0-4.28.01Z"/>
        <path class="cls-2" d="M129.38,193.77c.99-.78,1.87-1.87,2.99-2.27,3.54-1.25,5.54.28,5.72,4.09.19,3.74,1.75,7.27,1.65,11.05,0,.35.18.85.45,1.03,5.83,3.85,2.73,9.43,2.91,14.41.15,4.13-1.88,8.1-.73,12.26.36,1.29-.56,1.67-1.38,1.9-1.87.52-3.95.97-5.57-.21-.97-.71.7-1.32.89-1.9,1.03-3.04-1.75-3.49-3.52-4.58-.03-.51-.07-1.02-.1-1.53,2.25-1.57,1.5-2.51-.66-3.15-.12-2.08-1.21-4.02-.89-6.17,3.09-1.81,2.85-5.27-.64-9.42-.07-2.07-.14-4.13-.21-6.2,1.14-.92.47-1.31-.47-1.62-.15-2.56-.29-5.13-.44-7.69Z"/>
        <path class="cls-2" d="M133.41,137.58c-1.04,2.79-.75,5.7-.79,8.57-1.02.03-1.54.56-1.54,1.58,0,2.59.04,5.18-.03,7.76-.06,2.13.4,3.64,2.2,5.33,2.97,2.77,1.65,7.3,2.99,10.9.43,1.15-3.87,2.58-5.51,1.76-1.48-.74-2.56-2.2-4.36-2.36-.93-2.01-.67-4.1-.43-6.19,1.42-.56,1.61-1.35.45-2.4.01-6.72-.16-13.45.12-20.16.14-3.3-1.25-6.25-1.35-9.44.91-.02,1.9.21,2.71-.09,3.41-1.26,4.41.59,4.82,3.44.07.46.48.86.73,1.29Z"/>
        <path class="cls-6" d="M133.41,137.58c-.25-.43-.66-.84-.73-1.29-.42-2.85-1.42-4.7-4.82-3.44-.8.3-1.8.07-2.71.09-1.08-6.19-2.49-12.33-2.82-18.64.04-1.07.07-2.15.1-3.22.28-.28.56-.55.84-.83.26-.25.52-.5.78-.75l-.02.02.79-.79h0c.26-.26.52-.52.78-.78h0c.77,0,1.55-.01,2.32-.02,2.07,4.96.45,10.29,1.53,15.36.23,1.06.43,2.05,1.51,2.51,3.81,1.64,4.58,4.47,3.33,8.18-.39,1.17.37,2.63-.87,3.61Z"/>
        <path class="cls-7" d="M145.19,149.27c-3.01-.97-3.62-3.07-4.13-6.13-2.11-12.69-.78-25.78-4.57-38.24,6.02.19,5.86.97,6.18,6.86.38,7.07-.72,14.1.96,21.33,1.17,5.06,5.02,10.48,1.57,16.19Z"/>
        <path class="cls-7" d="M146.72,207.03c-2.54-5.02-1.78-10.67-3.06-15.94-.41-1.69-.06-3.73.24-5.22,1.06-5.28.08-9.99-2.26-14.59-.9-1.77.13-3.27.39-4.89,3.61,1.67,4.15,5.21,4.51,8.42.56,5.12.72,10.28,1.62,15.36.09.48.06,1.12-.2,1.51-2.26,3.45-1.22,6.9-.23,10.43.48,1.69,1.74,3.79-1.01,4.92Z"/>
        <path class="cls-2" d="M126.4,175.79c3.85.83,6.4,4.35,10.4,4.96,1.14.17,1.32,1.47,1.27,2.56-.1,2.39-1.87,4.05-3.28,5.41-1.2,1.15-3.1-.41-4.38-1.53-.69-.6-1.33-1.23-2.31-1.3-.06-.51-.11-1.01-.17-1.52.8-.09,1.54-.31,1.46-1.3-.09-1.2-.93-1.68-2.01-1.87-.29-1.81-1.28-3.49-.98-5.4Z"/>
        <path class="cls-7" d="M122.43,111.07c-.03,1.07-.07,2.14-.1,3.22-3.88-.54-4.58,2.75-3.53,4.56,2.7,4.64-.55,5.61-3.39,7.16-.45.6-1.12.87-1.62.34-.57-.61.1-1.48.51-1.6,3.22-.92,2.56-2.95,2.15-5.45-.33-2.03.2-4.39.98-6.35.81-2.03,2.61-3.15,4.99-1.89Z"/>
        <path class="cls-7" d="M152.17,233.54c-.99-3.29-1.95-6.55-3.92-9.5-1.51-2.26-1.89-4.99-1.55-7.75,2.05,4.01,4.14,8.01,6.13,12.05.51,1.03.67,2.22,1.11,3.29.83,2.02-.66,1.77-1.77,1.91Z"/>
        <path class="cls-1" d="M130.5,209.28c3.5,4.15,3.73,7.61.64,9.42-.21-3.14-.43-6.28-.64-9.42Z"/>
        <path class="cls-7" d="M127.92,107.91c-.77,0-1.55.01-2.32.02.55-1.41,2-1.68,3.07-2.42.8-.23,1.6-.45,2.4-.68-.01.31-.03.61-.04.92-1.04.72-2.08,1.45-3.11,2.17Z"/>
        <path class="cls-1" d="M127.38,181.19c1.07.19,1.92.67,2.01,1.87.07.99-.67,1.21-1.46,1.3-1.02-.91-.67-2.06-.54-3.17Z"/>
        <path class="cls-1" d="M132.03,224.87c2.16.64,2.91,1.59.66,3.15-1.13-.86-.76-2.04-.66-3.15Z"/>
        <path class="cls-1" d="M126.39,162.53c1.16,1.04.98,1.84-.45,2.4-.26-.87-.38-1.72.45-2.4Z"/>
        <path class="cls-7" d="M142.05,163.37c-.11-1.16-.15-2.28,1.45-2.43.11,1.16.11,2.26-1.45,2.43Z"/>
        <path class="cls-1" d="M129.82,201.46c.94.31,1.61.7.47,1.62-.6-.41-.69-.97-.47-1.62Z"/>
        <path class="cls-6" d="M53.86,124.32c2.7,5.47,6.26,10.55,7.13,16.82.37,2.65,2.16,4.67,4.84,4.8,2.35.12,3.79-1.58,3.34-4.1-.27-1.51-1.11-2.95.35-4.28.5.79,1,1.57,1.5,2.36,0,0-.02-.02-.02-.02.61,10.43,3.41,20.27,7.87,29.67l.82,2.25c-.32.39-.58.85-.96,1.16-.8.65-2.56.5-2.17,2.14.47,1.96,1.49-.25,2.24.15,1.22.66.77,1.36.07,2.08-4.61-.43-8.01,3.28-12.48,3.56-3.54.21-5.07,2.92-6.32,6-1.81,4.45-1.05,10.17-6.2,13.04-4.88-.53-1.51-3.58-.9-4.59,1.19-1.98,2.18-3.81,2.32-6.17.23-3.84,2.24-7.41,1.79-11.41-.13-1.13.65-2.21,1.49-3.06,2.43-2.47,2.72-6,1.6-8.47-2.28-5.05-1.49-9.7-.26-14.62.66-2.63.37-5.08-2.59-6.57-1.6-.81-3.32-2.33-2.57-4.32,1.23-3.31-.3-6.04-1.1-8.97-.68-2.5-1.2-4.99.21-7.43Z"/>
        <path class="cls-1" d="M53.86,124.32c-1.41,2.44-.89,4.94-.21,7.43.8,2.93,2.33,5.66,1.1,8.97-.74,1.99.97,3.52,2.57,4.32,2.96,1.49,3.25,3.94,2.59,6.57-1.23,4.93-2.02,9.57.26,14.62,1.12,2.48.84,6-1.6,8.47-.84.85-1.62,1.94-1.49,3.06.44,4-1.56,7.57-1.79,11.41-.14,2.36-1.14,4.19-2.32,6.17-.6,1.01-3.97,4.06.9,4.59-.03,1.12-.54,1.92-1.59,2.35-2.08.24-3.74-.37-4.7-2.36-.06-1.44.43-2.74.85-4.11,2.5-8.11,5.33-16.15,5.45-24.79-.01-.5-.02-1-.03-1.5,0-1.56,0-3.12.01-4.67,2.27-.41,2.65-1.42,1.59-3.54-2.08-4.16-3.69-8.47-3.23-13.32.16-1.69.72-3.66-.8-5.15-.19-.19-.96-.18-1.01-.06-.85,1.86-.37,3.74-.13,5.66.42,3.4,1.56,6.9.65,10.22-.79,2.87-1.25,5.73-1.59,8.65-.03,1-.06,1.99-.08,2.99-.28.01-.56.02-.84.03.05-1.21-.23-2.29-1.18-3.14-1.2-1.08-1.37-2.36-.82-3.86,3.02-8.22.33-16.49.01-24.73-.06-1.59-.51-3.21.59-4.37,2.89-3.05,3.01-6.96,3.71-10.71.5-2.42,1.94-1.1,3.12-.78,0,.52,0,1.04,0,1.56Z"/>
        <path class="cls-1" d="M43.82,243.03c-3.13-1.97-6.82-2.27-10.24-3.34.33-1.9.64-3.81,1.01-5.71.56-2.87,1.32-5.57.83-8.7-.37-2.35-.55-5.36,1.67-7.57,1.01-1,1.19-2.51,1.21-4,.06-6.19.26-12.37.27-18.56,0-1.12.44-1.59,1.2-2.18,1.64-1.25,3.2-2.6,4.79-3.91.89.57.69,1.49.73,2.33-.26.26-.52.52-.78.78-.58.24-1.3.34-1.7.75-1.32,1.32.23,2.65.13,4-.4,5.21,1.09,10.55-1.35,15.63-.45.94-.95,2.96.67,3.29,1.47.3,1.97-1.6,2.08-2.76.22-2.23,1.5-4.22,1.55-6.34.09-3.64,2.15-3.91,4.88-3.62-2.48,4.34-3.82,8.92-3.21,14,.16,1.3-.63,2.51-1.52,3.48-3.61,3.89-4.76,8.75-5.39,13.79-.5,4.02.91,5.12,4.69,6.34,2.33.75,5.71-1.17,7.04,2.4-2.78,1.24-5.49-.75-8.26-.2,0,0-.3.1-.3.1Z"/>
        <path class="cls-8" d="M44.51,192.16c.26-.26.52-.52.78-.78,2.4-.99,2.31-2.75,1.49-4.75.07-.45.14-.89.21-1.34,1.53-.13,1.17-1.92,2.2-2.49.89-.39,1.82-1.17,1.41-2-2.18-4.44,1.25-6.84,3.31-9.76-.13,8.63-2.96,16.68-5.45,24.79-.42,1.37-.91,2.67-.85,4.11-.42.54-.84,1.09-1.9,2.46,1.36-4.3-1.52-6.98-1.19-10.24Z"/>
        <path class="cls-7" d="M53.9,171.05c-2.06,2.92-5.49,5.32-3.31,9.76.41.83-.52,1.61-1.41,2-.1-.84-.46-1.55-1.38-1.5-2.42.15-2.67-1.33-2.51-3.17.04-1.11.58-1.88,1.59-2.31,1.14-.39,2.93-.36,1.52-2.38,0-1.03,0-2.06.01-3.1.28-.01.56-.02.84-.03,1.53-.26,3.06-.51,4.6-.77.01.5.02,1,.03,1.5Z"/>
        <path class="cls-1" d="M45.3,178.13c-.16,1.84.09,3.32,2.51,3.17.92-.06,1.28.66,1.38,1.5-1.03.57-.67,2.36-2.2,2.49-.98-1.89-2.46-1.95-4.25-1.26-1.07.41-2.58.86-3.17-.23-.67-1.24.45-2.5,1.45-3.25,1.3-.98,2.5-2.26,4.28-2.42Z"/>
        <path class="cls-6" d="M53.86,122.76c-1.19-.32-2.62-1.64-3.12.78-3.46-.91-3.15-4-2.67-6.15.37-1.69,3.06-1.21,4.4-.54,2.52,1.26,1,3.9,1.39,5.91Z"/>
        <path class="cls-7" d="M71.03,139.92c-.5-.79-1-1.57-1.5-2.36-.01-3.81-2-7.18-2.42-10.9,0,0,.03-.02.03-.02,3.22,3.86,3.3,8.64,3.9,13.27Z"/>
        <path class="cls-7" d="M46.78,186.64c.82,2,.91,3.76-1.49,4.75-.04-.84.17-1.76-.73-2.33.04-1.45.79-2.24,2.21-2.41Z"/>
        <path class="cls-1" d="M32.07,239.55c-1.78.25-3.32-.31-4.73-1.35,1.89-.66,3.59-.63,4.73,1.35Z"/>
        <path class="cls-1" d="M48.42,173.45c1.4,2.02-.38,1.99-1.52,2.38-.06-1.15-.09-2.29,1.52-2.38Z"/>
        <path class="cls-7" d="M65.54,121.99c.27,0,.54,0,.81-.01.23,1.56,1.11,3.02.78,4.68,0,0-.03.02-.03.02-1.45-1.25-1.66-2.91-1.57-4.68Z"/>
        <path class="cls-7" d="M64.76,118.86c1.17.82.7,2.05.79,3.14-1.17-.82-.71-2.05-.79-3.14Z"/>
        <path class="cls-7" d="M63.98,116.52c.96.55.78,1.48.79,2.35-.99-.54-.79-1.48-.79-2.35Z"/>
        <path class="cls-7" d="M63.13,114.17c1.04.51.87,1.47.86,2.36-1.01-.52-.73-1.52-.86-2.36Z"/>
        <path class="cls-2" d="M52.38,243.13c-1.33-3.57-4.72-1.65-7.04-2.4-3.77-1.22-5.18-2.31-4.69-6.34.62-5.04,1.78-9.89,5.39-13.79.89-.96,1.68-2.18,1.52-3.48-.61-5.08.73-9.66,3.21-14,.63-.05,1.22-.16,1.52-.82,1.05-.43,1.56-1.22,1.59-2.35,5.15-2.87,4.39-8.59,6.2-13.04,1.25-3.08,2.78-5.79,6.32-6,4.47-.27,7.87-3.98,12.48-3.56-.03.78-.05,1.55-.07,2.33-1.91.28-3.63,1.61-2.92,3.25,1.42,3.26.8,6.84,2.16,10.02,0,.53.01,1.06.02,1.6.03,3.63-.06,7.26-.99,10.8-.84.16-1.34.7-1.66,1.46-2.75,6.76-6.48,13.06-8.66,20.11-1.87,6.06-4.53,11.87-11.2,14.36-.69.26-.85.91-.92,1.58l-2.27.27Z"/>
        <path class="cls-1" d="M54.65,242.86c.07-.67.23-1.32.92-1.58,6.67-2.49,9.33-8.31,11.2-14.36,2.18-7.05,5.91-13.35,8.66-20.11.31-.77.81-1.3,1.66-1.46.06.28.12.56.17.84-4.35,10.22-8.54,20.52-13.13,30.63-1.71,3.77-4.7,6.56-9.47,6.04Z"/>
        <path class="cls-7" d="M77.25,206.19c-.06-.28-.11-.56-.17-.84.93-3.55,1.01-7.17.99-10.8,1.59,3.58.43,7.34.69,11-.5.21-1,.43-1.5.64Z"/>
        <path class="cls-5" d="M81.94,91.52c3.9,3.2,5.75,3.05,7.58-.58,1.46.97,2.93,1.94,4.39,2.92-1.3,2.64-2.6,5.27-3.89,7.91-.86,1.07-1.21,2.32-.94,3.63.97,4.62.25,9.22.13,13.85-.19,7.41-1.06,14.86.47,22.25-2.32,8.57-4.64,17.14-6.96,25.71-.46-.04-.92-.08-1.39-.12-.97-3.84-1.95-7.67-2.92-11.51-.17-1.8-.34-3.59-.5-5.39.39-2.38,1.27-4.69.9-7.16-.17-3.67,1.2-7.26.59-10.96.52-8.33.86-16.67,2.4-24.9,1.56-2.97.36-5.48-1.31-7.91-.05-1.28-.26-2.48-1.68-2.99-.05-.6-.1-1.2-.15-1.79,1.09-.99,2.18-1.98,3.28-2.97Z"/>
        <path class="cls-6" d="M81.94,91.52c-1.09.99-2.18,1.98-3.28,2.97-1.64,1.32-3.38,2.56-3.78,4.86,0,0,0,0,0,0-.51.3-1.02.6-1.53.9-2.24-1.83-1.76-4.9-3.23-7.08-.28-2.35-.92-4.7.03-7.05,1.32-2.89,2.62-.59,3.93,0,.88,1.93,3.1,1.58,4.49,2.64,1.15.88,3.09.8,3.35,2.77Z"/>
        <path class="cls-1" d="M93.91,93.85c-1.46-.97-2.93-1.94-4.39-2.92,1.63-2.74,4.31-3.87,7.19-4.72.61,2.33,2.55,1.13,3.91,1.48.54,2.07,1.09,4.15,1.63,6.22-.27.53-.53,1.06-.8,1.58-2.75.54-4.96-1.41-7.54-1.65Z"/>
        <path class="cls-5" d="M78.07,56.6c2.03,1.89,4.03-.46,6.06-.04,1.12,1.19,2.68.46,3.96.9,1.28,1.51,4.81,1.52,3.18,4.96-.52,1.09-1.35.99-2.23,1.01-.58-4.2-4.24-3.02-6.68-3.58-3.28-.75-6.38-.03-8.37,3.14-.39.63-.48,1.48-1.35,1.74-1.63-3.63.38-6.63,5.44-8.13Z"/>
        <path class="cls-7" d="M100.62,87.7c-1.36-.35-3.3.85-3.91-1.48.28-.29.55-.58.83-.87.78-.05,1.56-.1,2.34-.14.28.8.57,1.59.85,2.39,0,0-.1.1-.1.1Z"/>
        <path class="cls-4" d="M88.09,57.46c-1.29-.44-2.84.29-3.96-.9.07-1.52.17-2.95-.64-4.46-1.33-2.5,1.52-6.62,4.33-6.58,3.24.05,5.31,2.81,3.95,5.73-1,2.16-1.78,4.54-3.68,6.2Z"/>
        <path class="cls-8" d="M101.45,95.5c.27-.53.53-1.06.79-1.58,2.77-2.34,3.89-5.86,6.15-8.58.55,0,1.09.01,1.64.02-.2.54-.4,1.07-.6,1.61-.07,1.52-.15,3.04-.22,4.56-3.69,1.68-3.81,5.62-5.46,8.6-1.54-.02-2.92.33-3.88,1.67-1.15-.03-1.93-.61-2.44-1.6.21-2.53,4.1-1.9,4.01-4.68Z"/>
        <path class="cls-7" d="M108.4,85.35c-2.26,2.71-3.38,6.23-6.15,8.58-.54-2.07-1.08-4.15-1.63-6.22,0,0,.1-.1.1-.1.91-.3,3.03,2.39,2.67-1.4-.17-1.77,1.31-4.25,4.23-3.97.26,1.04.51,2.08.76,3.12Z"/>
        <path class="cls-8" d="M107.63,82.23c-2.92-.28-4.4,2.19-4.23,3.97.36,3.79-1.76,1.1-2.67,1.4-.28-.8-.56-1.59-.85-2.39,1.13-1.89,3.37-2.45,4.56-4.74,1.27-2.43,2.75-.17,3.19,1.76Z"/>
        <path class="cls-9" d="M141.1,242.08c1.17-1.11,2.67-.59,4.02-.82-1.11,1.39-2.69.51-4.02.82Z"/>
        <path class="cls-6" d="M77.91,150.2c.17,1.8.34,3.59.5,5.38-1.13-.3-2.26-.59-3.39-.89-1.25-4.96-1.57-10.16-4.01-14.8,0,0,.02.02.02.02-.6-4.63-.68-9.41-3.9-13.27.33-1.66-.55-3.11-.78-4.68,1.39-1.65.7-3.36.21-5.11-1.23-4.45-2.91-8.75-3.73-13.36-1.07-6.06-.87-6.88,5.04-9.59.58,2.54,1.16,5.08,1.74,7.62.47,8.28,2.25,16.35,3.92,24.44,1.05,7.54,3.43,14.89,3,22.63-.05.93.6,1.34,1.38,1.59Z"/>
        <path class="cls-8" d="M69.61,101.53c-.58-2.54-1.16-5.08-1.74-7.62.04-2.09.09-4.17.13-6.26.75-.48,1.05-1.59,2.17-1.55-.95,2.35-.31,4.7-.03,7.05-1.12,1.21-.8,2.69-.5,4.02.34,1.5,1.14,2.91-.03,4.36Z"/>
        <path class="cls-1" d="M119.55,93.96c-.23.69-.18,1.79-.98,1.86-1.11.09-.77-1-.78-1.66-.03-1.12,0-2.24.01-3.36.95-.2.33-1.96,1.5-1.69.77.18.84,1.22.79,1.95-.07.98-.35,1.94-.53,2.91Z"/>
        <path class="cls-6" d="M98.34,240.2c0-.93-.02-1.86-.02-2.8.12-1.49.93-2.65,1.77-3.82.66-.92,1-2.26.07-2.82-4.78-2.86-4.13-7.71-5.13-12.17-1.21-5.45-5.15-9.63-11.52-5.38-1.44-2.71-2.64-5.51-3.12-8.58,5.18-.11,3.46-4.12,3.9-6.91,1.08-1.32,1.42-2.94.34-4.18-1.25-1.43-2.81,0-4.23.21,0-.26,0-.53,0-.79.27-3.12.54-6.25.81-9.37.62-.12,1.27-.22,1.37-1,.13-1.02-.59-1.24-1.37-1.37.53-1.63.34-3.51,1.68-4.86,4.1-.2,4.96-1.28,4.07-5.08,3.9.25,4.32.9,2.2,3.87-1.2,1.68-1.18,3.84-2.75,5.46-1.1,1.15.51,2.47,1.61,1.98,4.4-1.96,5.52,1.76,7.04,4.09,1.69,2.58-.11,5.03-1.81,6.93-1.95,2.19-2.01,4.66-1.96,7.28.04,2.13,1.02,2.46,2.74,1.57.35-.18.7-.34,1.05-.51,2.01-.92,3.8-3.22,6.33-1.4,1.94,1.4,2.9,7.17,1.77,9.85-.75,1.79-1.83,3.47-2.41,5.31-1.53,4.88-.73,6.76,4.13,8.03,3.04.79,4.3,2.1,4.58,5.19.18,1.98,1.25,3.93,2.17,5.77,1.12,2.23.95,3.49-1.87,3.45-1.48-.02-3-.12-2.91,2.06-2.85.37-5.69.38-8.54-.03Z"/>
        <path class="cls-6" d="M103.76,100.13c1.65-2.97,1.77-6.92,5.46-8.6,1.52,1.05,3.05,2.11,4.57,3.16.34,1.06.68,2.13,1.01,3.19-.13,1.44-1.43,2.08-2.13,3.13-4.52,6.75-8.54,13.74-10.47,21.74,0,0,0,0,0,0-.89.21-.95.83-.78,1.56,0,0,0,0,0,0-2.5,1.77-3.1,4.59-3.93,7.24-1.98,6.4-3.85,12.83-5.81,19.24-1.13,3.67-2.35,7.31-3.52,10.97l.02-.02c-1.86.24-2.06,1.72-2.36,3.14,0,0,.02-.02.02-.02-1.03.45-1.53,1.26-1.58,2.36,0,0,.02-.02.02-.02-.52,0-1.04.01-1.56.02,2.32-8.57,4.64-17.14,6.96-25.71,1.14-.86,1.27-2.23,1.53-3.43,1.85-8.82,4.8-17.29,7.85-25.74.69-1.9,2.01-3.66,1.61-5.87.62-.37.77-.97.78-1.64v.02c.76-1.57,1.54-3.14,2.31-4.71Z"/>
        <path class="cls-2" d="M128.68,105.51c-1.08.74-2.53,1.01-3.07,2.42h0c-.26.26-.52.52-.78.78,0,0,0,0,0,0-.26.26-.53.53-.79.79,0,0,.02-.02.02-.02-.27,0-.53,0-.8,0-2.31-1.88-4.4-3.07-6.91.05-1.13,1.4-1.74-.23-1.61-1.28.43-3.38,1.78-6.52,3.49-9.36,1.41-2.34,3.8-.63,5.11.29,2.24,1.57,4.45,3.47,5.33,6.32Z"/>
        <path class="cls-8" d="M88.16,161.75c1.18-3.66,2.4-7.3,3.52-10.97,1.96-6.4,3.83-12.84,5.81-19.24.82-2.66,1.43-5.48,3.93-7.24-2.57,8.62-5.06,17.26-7.74,25.85-1.28,4.1-.87,9.08-5.52,11.6Z"/>
        <path class="cls-8" d="M102.2,122.75c1.93-8,5.96-14.99,10.47-21.74.7-1.05,2-1.69,2.13-3.13.47-.02.95-.03,1.42-.04-.5,3.6-4.02,5.24-5.38,8.34-2.16,4.94-4.68,9.72-6.98,14.6-.4.85-.72,1.64-1.67,1.97Z"/>
        <path class="cls-10" d="M86.96,171.28c.89,3.8.02,4.88-4.07,5.09-.99-1.01-2.04-1.99-1.63-3.62.78-.61,1.57-1.22,2.35-1.83,1.12.12,2.24.24,3.35.36Z"/>
        <path class="cls-8" d="M83.6,170.92c-.78.61-1.57,1.22-2.35,1.83-.32-.64-.88-.86-1.55-.92-.27-.75-.55-1.5-.82-2.25.24-.26.48-.52.72-.79.91-.23,1.28-1.01,1.74-1.7.46.04.92.08,1.39.12.52,0,1.04-.01,1.56-.02.05,1.3-1.14,2.36-.68,3.73Z"/>
        <path class="cls-8" d="M85.82,164.87c.29-1.42.5-2.9,2.36-3.14-.25,1.45-.51,2.89-2.36,3.14Z"/>
        <path class="cls-7" d="M116.23,97.84c-.48.01-.95.03-1.42.04-.34-1.06-.67-2.13-1.01-3.19,2.16,0,1.66,2.07,2.44,3.15Z"/>
        <path class="cls-8" d="M84.26,167.21c.05-1.1.55-1.91,1.58-2.36.1,1.21-.03,2.26-1.58,2.36Z"/>
        <path class="cls-8" d="M101.42,124.31c-.17-.73-.1-1.36.78-1.56.05.68-.03,1.29-.78,1.56Z"/>
        <path class="cls-7" d="M123.26,109.49c.27,0,.53,0,.8,0-.26.25-.52.5-.78.75,0-.25,0-.5-.02-.75Z"/>
        <path class="cls-2" d="M83.5,213.22c6.38-4.25,10.31-.07,11.52,5.38.99,4.47.34,9.31,5.13,12.17.93.56.59,1.9-.07,2.82-.83,1.16-1.65,2.33-1.77,3.82-5.3-.71-8.97-3.16-10.33-8.73-1.27-5.21-2.97-10.31-4.49-15.46Z"/>
        <path class="cls-7" d="M79.7,171.83c.66.06,1.23.29,1.55.92-.4,1.63.64,2.62,1.63,3.62-1.33,1.35-1.14,3.23-1.68,4.86,0,.79,0,1.58,0,2.38-.27,3.12-.54,6.25-.81,9.37-.5-.01-1.01-.03-1.51-.04-.03-4.42-.05-8.83-.08-13.25.02-.78.05-1.55.07-2.33.7-.72,1.15-1.42-.07-2.08-.74-.4-1.77,1.81-2.24-.15-.39-1.63,1.37-1.49,2.17-2.14.38-.31.65-.77.96-1.16Z"/>
        <path class="cls-6" d="M78.81,179.68c.02,4.42.05,8.83.08,13.25-.28,0-.55.01-.83.02-1.37-3.18-.75-6.75-2.16-10.02-.71-1.64,1.01-2.97,2.92-3.25Z"/>
        <path class="cls-2" d="M84.28,197.74c-.44,2.79,1.27,6.79-3.9,6.91-.72-2.39.26-4.59.79-6.83,1.04-.02,2.07-.05,3.11-.07Z"/>
        <path class="cls-10" d="M84.28,197.74c-1.04.02-2.07.05-3.11.07-1.07-1.19-1.4-2.53-.78-4.05,1.42-.22,2.99-1.63,4.23-.21,1.08,1.24.74,2.86-.34,4.18Z"/>
        <path class="cls-6" d="M131.09,147.73c0-1.02.52-1.55,1.54-1.58-.01,1.01-.53,1.53-1.54,1.58Z"/>
        <path class="cls-7" d="M124.83,108.71c.26-.26.52-.52.78-.78-.26.26-.52.52-.78.78Z"/>
        <path class="cls-7" d="M124.04,109.51c.26-.26.53-.53.79-.79-.26.26-.53.53-.79.79Z"/>
        <path class="cls-7" d="M79.6,168.79c-.24.26-.48.52-.72.79-4.46-9.4-7.26-19.25-7.87-29.67,2.44,4.63,2.76,9.84,4.01,14.8.73,4.96,3.22,9.34,4.58,14.09Z"/>
        <path class="cls-7" d="M52.29,202.3c-.3.65-.89.77-1.52.82-2.73-.29-4.79-.02-4.88,3.62-.05,2.12-1.34,4.11-1.55,6.34-.11,1.16-.61,3.06-2.08,2.76-1.62-.33-1.12-2.35-.67-3.29,2.44-5.08.95-10.43,1.35-15.63.1-1.34-1.45-2.68-.13-4,.41-.41,1.13-.51,1.7-.75-.34,3.26,2.55,5.94,1.19,10.24,1.06-1.37,1.48-1.91,1.9-2.46.96,1.99,2.62,2.6,4.7,2.36Z"/>
        <path class="cls-7" d="M49.36,167.33c.34-2.92.8-5.77,1.59-8.65.91-3.32-.22-6.82-.65-10.22-.24-1.92-.72-3.8.13-5.66.06-.12.82-.13,1.01.06,1.52,1.49.96,3.46.8,5.15-.46,4.86,1.15,9.16,3.23,13.32,1.06,2.12.67,3.14-1.59,3.54-.81-1.35-1.62-2.08-2.65-.15-.5.94-.38,2.37-1.88,2.6Z"/>
        <path class="cls-8" d="M49.36,167.33c1.5-.23,1.37-1.65,1.88-2.6,1.03-1.93,1.84-1.2,2.65.15,0,1.56,0,3.12-.01,4.67-1.53.26-3.06.51-4.6.77.03-1,.06-1.99.08-2.99Z"/>
        <path class="cls-1" d="M100.67,106.45c.4,2.21-.92,3.97-1.61,5.87-3.05,8.45-6,16.92-7.85,25.74-.25,1.2-.39,2.57-1.53,3.43-1.54-7.38-.67-14.84-.47-22.25.12-4.63.84-9.23-.13-13.85-.27-1.31.08-2.56.94-3.63,2.59.02,4.37-3.79,7.43-1.58.51,1,1.29,1.58,2.44,1.6.94.8,1.83,1.62,1.56,3.04,0,0,.01-.02.01-.02-.68.34-.78.97-.78,1.64Z"/>
        <path class="cls-1" d="M81.81,107.18c-1.54,8.23-1.88,16.57-2.4,24.9-1.02.04-2.04.08-3.05.12-.26-2.15-1.85-3.96-1.56-6.24-1.01-7.06-2.03-14.12-3.04-21.18,1.53,0,2.31-.77,2.38-2.29.24-.03.48-.05.73-.09,2.95.68,4.43,3.5,6.96,4.78Z"/>
        <path class="cls-7" d="M97.45,100.19c-3.06-2.22-4.84,1.59-7.43,1.58,1.3-2.64,2.6-5.27,3.89-7.91,2.58.24,4.79,2.19,7.54,1.65.09,2.78-3.8,2.16-4.01,4.68Z"/>
        <path class="cls-8" d="M74.79,125.95c-.29,2.28,1.31,4.09,1.57,6.24.08,3.78.86,7.4,2.46,10.84.37,2.47-.52,4.79-.9,7.16-.79-.25-1.43-.66-1.38-1.59.42-7.73-1.96-15.09-3-22.63.42,0,.84-.02,1.26-.02Z"/>
        <path class="cls-1" d="M79.6,168.79c-1.35-4.75-3.85-9.14-4.58-14.09,1.13.29,2.26.59,3.39.89.98,3.84,1.95,7.67,2.92,11.51-.46.69-.83,1.47-1.74,1.7Z"/>
        <path class="cls-7" d="M81.81,107.18c-2.53-1.28-4.01-4.1-6.96-4.78-.02-.26-.04-.52-.06-.78.03-.76.07-1.52.1-2.28,0,0,0,0,0,0,.53,0,1.07.02,1.6.02,1.33-.03,2.67-.06,4-.1,1.67,2.43,2.87,4.94,1.31,7.91Z"/>
        <path class="cls-7" d="M78.82,143.03c-1.61-3.43-2.39-7.06-2.46-10.84,1.02-.04,2.04-.08,3.05-.12.61,3.7-.76,7.29-.59,10.96Z"/>
        <path class="cls-8" d="M76.49,99.36c-.53,0-1.07-.02-1.6-.02.39-2.29,2.14-3.53,3.78-4.86.05.6.1,1.2.15,1.79-.77,1.03-1.55,2.06-2.32,3.09Z"/>
        <path class="cls-8" d="M76.49,99.36c.77-1.03,1.55-2.06,2.32-3.09,1.42.51,1.63,1.71,1.68,2.99-1.33.03-2.67.06-4,.1Z"/>
        <path class="cls-8" d="M74.8,101.62c.02.26.04.52.06.78-.24.03-.48.06-.73.09-1.38.16-3.78-.75-2.38,2.29,1.02,7.06,2.03,14.12,3.04,21.18-.42,0-.84.02-1.26.02-1.67-8.09-3.45-16.16-3.92-24.44,1.18-1.46.37-2.87.03-4.36-.3-1.33-.62-2.81.5-4.02,1.46,2.18.98,5.25,3.22,7.08-.82,1.8.53,1.35,1.42,1.38Z"/>
        <path class="cls-8" d="M74.8,101.62c-.89-.03-2.25.42-1.42-1.38.51-.3,1.02-.6,1.53-.9-.03.76-.07,1.52-.1,2.28Z"/>
        <path class="cls-7" d="M101.44,104.84c.27-1.42-.62-2.25-1.56-3.04.96-1.33,2.34-1.69,3.88-1.66-.77,1.57-1.55,3.14-2.32,4.71Z"/>
        <path class="cls-1" d="M81.21,183.6c0-.79,0-1.58,0-2.38.78.13,1.5.36,1.37,1.37-.1.79-.76.88-1.37,1Z"/>
        <path class="cls-7" d="M100.67,106.45c0-.67.1-1.29.78-1.64-.02.66-.16,1.26-.78,1.64Z"/>
        <path class="cls-7" d="M71.74,104.78c-1.4-3.04,1.01-2.13,2.38-2.29-.07,1.52-.86,2.29-2.38,2.29Z"/>
      </g>
    </g>
  </g>
</svg>