<?xml version="1.0" encoding="UTF-8"?>
<svg id="Warstwa_2" data-name="Warstwa 2" xmlns="http://www.w3.org/2000/svg" xmlns:xlink="http://www.w3.org/1999/xlink" viewBox="0 0 187.83 251.91">
  <defs>
    <style>
      .cls-1 {
        fill: none;
      }

      .cls-1, .cls-2, .cls-3, .cls-4, .cls-5, .cls-6, .cls-7, .cls-8 {
        stroke-width: 0px;
      }

      .cls-2 {
        fill: #a38b81;
      }

      .cls-3 {
        fill: #81685d;
      }

      .cls-4 {
        fill: #131213;
      }

      .cls-5 {
        fill: #221f21;
      }

      .cls-9 {
        clip-path: url(#clippath);
      }

      .cls-6 {
        fill: #90766b;
      }

      .cls-7 {
        fill: #675148;
      }

      .cls-8 {
        fill: #34302e;
      }
    </style>
    <clipPath id="clippath">
      <rect class="cls-1" width="187.83" height="251.91"/>
    </clipPath>
  </defs>
  <g id="Warstwa_1-2" data-name="Warstwa 1">
    <g class="cls-9">
      <g>
        <path class="cls-4" d="M167.09,361.9c-.06.63-.12,1.27-.18,1.9-.66.4-.75.83-.08,1.31-.05.87-.1,1.74-.15,2.6-1.41.26-2.04,1.08-1.48,2.45.46,1.12.35,2.24.36,3.38-1.52-.2-3.04-.4-4.57-.6-2.36-3.66-6-4.01-9.85-3.79-4.38-.28-7.12,2.9-10.4,4.93-2.31.91-2.55-.87-2.89-2.33-1.77-7.64-3.09-15.34-2.78-23.22.1-2.56-.34-4.9-1.32-7.27-7.4-18-11.77-36.86-13.98-56.08-1.16-10.09-2.74-20.08-5.37-29.74-2.13-7.85-4.07-15.71-5.87-23.63-.6-2.64-2.25-3.16-4.78-1.87-1.49-.16-2.04.64-2.07,2-5.61,5.74-11.96,10.61-18.23,15.57-6.31,4.99-11.58,11.09-17.12,16.81-3.24,3.35-4.38,8.8-4.48,13.9-1.36,2.08-.2,4.55-1,6.75-.19.51.65,1,1.33,1.11.18.86.23,1.71-.12,2.54-.93.28-1.42.87-1.42,1.89,0,5.5-.57,11.01-.45,16.48.07,3.42-.35,7.05.99,10.41-.08.86-.16,1.73-.24,2.59-2.14,1.65-2.46,7.56-.54,9.84,0,.43,0,.85,0,1.28-2.32.47-2.49,2.19-2.49,4.12,0,1.89.43,3.36,2.55,3.74,0,2.17.01,4.34.02,6.52-.68.08-1.61-.14-1.75.83-.17,1.15.61,1.64,1.65,1.8l-.16,3.87c-.37.2-.96.32-1.07.62-1.26,3.21-.31,6.45.07,9.67.01.12.79.14,1.22.21,0,.43,0,.86,0,1.29-.18.19-.36.37-.54.56-.71.23-1.42.46-2.14.69-2.79-.35-5.58-.7-8.37-1.05-4.19-.57-8.33-1.38-12.34-2.74-.44-1.22-1.72-1.41-2.57-2.12.39-1.46.83-2.92.64-4.46,1.51-.68,4.33,1.63,4.57-1.99-.13-.81-.25-1.64-1.31-.7l-5.87-.65c-.69-.73-1.79-.98-2.22-.2-1.55,2.83-1.89.04-2.66-.49-1.34-.92-.16-3.36-2.28-3.84,0-.44-.01-.87-.02-1.31.9-1.13,1.11-2.23-.11-3.28-.37-1.5-.44-3.01-.24-4.54.74-.18,2.02.42,2.02-.88,0-1.19-.89-1.9-2.2-1.76-.02-.65-.05-1.3-.07-1.95,1.52-.66,3.39,1.43,4.68-.49,1.61-2.38.25-6.73-2.4-8.1,1.02-2.25,1-4.6.89-7.01-.43-9.87-2-19.53-4.85-28.98-.3-1.01-.82-2.02-.5-3.14,1.14,0,2.05-.52,2.82-1.31.71-.72,1.56-.83,2.29-.19,1,.89,2.19,1.37,3.12.45.94-.92-.31-1.93-.58-2.9-.12-.41-.22-.82-.32-1.23-.08-1.1.43-1.59,1.44-2.17,3.37-1.97,3.84-4.37,1.45-7.64-1.52-2.07-.84-3.26.94-4.56,1.51-1.1,3.72-1.55,4.03-3.9,1.95-1.1,3.9-2.21,5.85-3.31,2.06-.49,3.28-1.68,3.27-3.91.43-.22.86-.44,1.29-.66,2.16-.41,2.66-2.21,3.27-3.92.43-.87,1.08-1.53,1.96-1.96,1.9-.26,2.67-1.43,2.62-3.26h0c2.79-.13,4.11-2.13,5.12-4.29.41-.87.45-1.77,1.55-2.22,2.67-1.09,4.15-3.27,5.06-5.91-.37-1.58,1.29-2.46,1.32-3.9,1.04-.58,1.9-1.3,1.95-2.62,0-.21,0-.43.02-.64,2.58-1.41,3.81-4,5.16-6.36,1.12-1.98.44-3.17-2.1-2.41-1.27.38-3.08.15-2.2-1.37,2.31-3.95-.83-3.98-2.95-4.79-.79-.3-1.79-.19-1.78-1.43,0-1.17.63-1.77,1.76-1.93,1.66-.23,1.38-1.03.51-1.9-.83-.83-1.53-1.85-2.78-2.14.9-2.29,2.06-4.41,2.63-6.91.86-3.81.36-6.99-2.1-9.94-1.11-1.33-1.26-2.86-1.04-4.58.6-4.72.99-9.47,1.56-14.2.21-1.75-.43-2.06-1.9-1.48-.24-1.8,1.06-2.68,2.16-3.72,1.81-1.71,1.59-7.06-.55-7.67-2.4-.69-3.76-2.35-5.41-3.84-.69-.62-1.46-1.69-2.41-.63-.74.83.16,1.57.73,2.19,3.5,3.88,4.82,8.23,2.93,13.31-.18.48-.05,1.07-.07,1.61-.36.26-.72.53-1.07.79-.5-.04-.99-.08-1.49-.12-.05-.2-.07-.41-.07-.62-.02-.9-.04-1.79-.06-2.69.39-2.29-.28-4.09-2.37-5.24-.97-3.15-4.98-6.25-8.16-6.3-2.19-.04-4.99,2.73-5.82,5.75-.5.24-.58.71-.62,1.19-.55.46-1.11.9-1.9.75.47-2.96.64-6.01,1.5-8.86.72-2.38,3.62-3.58,4.15-6.27,3.62-1.61,7.1-1.21,10.69.33,1.64.7,3.88,1.43,4.61-1.51.52-.4,1.59-.96.11-1.28-1.29-.28-2.69-.05-4.04-.05-1.18-.18-2.5.38-3.61-.5.77-1.56,2.75.03,3.36-1.85-3.56-.85-5.95-2.49-6.41-6.68-.24-2.24.51-3.83,1.41-5.34.9-1.5,2.31-.04,3.44.4.97.37,1.67.06,2.33-.6.92-.92,1.74-1.99,2.79-2.72,2.36-1.63,2.71-3.26.1-5.33,1.7.55,2.84.17,3.49-1.16.72-1.46-.57-2.15-1.34-2.98-1.73-1.84-3.15-3.72-3.03-6.52.08-1.77-3.79-4.8-4.89-4.09-.82.53-1.37,2.15-2.51.92-.96-1.03.09-2.23.62-3.26.28-.55.96-.93.6-1.79-1.97.11-3.97.23-5.97.34-1.21-5.42-.58-10.77.55-16.11.19-.88.55-1.63,1.3-2.16,2.47-.2,2.66,1.41,2.56,3.25v1.3c-.05,2.26.22,4.26,3.27,3.91.86,1.31,1.73,2.62,2.59,3.94.01,1.25.11,2.44,1.61,3.03.5-1.46-.16-2.27-.94-3.04.03-3.27-1.27-6.03-3.27-8.52.12-2.05-.3-4.15.44-6.78,2.37,3.18,1.79,6.96,4.12,9.41.12.95.29,1.86,1.42,2.38,1.82-2.57.98-5.5,1.19-8.26,1.8-2.15,3.82-4.57,3.74-7.27-.12-3.68,1.45-5.9,4.11-7.84.37.1.74.19,1.11.29.34.84,1.04,1.21,1.88,1.38,0,.18.03.35.11.51.32,1.08.65,2.15.97,3.23-.18,2.05-.31,4.1-.54,6.14-.36,3.2-1.16,6.38.98,9.36,1.64,2.28,3.05,4.73,5.13,6.67.12.38.23.77.35,1.15-1.5,2.6.71,1.81,1.83,2.01.19.03.39.04.58.04.08.3.16.61.23.91-.9,1.81,1.15,2.94,1.04,4.58-.07,1.1-.14,2.4-1.35,2.64-1.11.23-1.09-1.06-1.41-1.83-.47-1.14-.57-2.71-2.47-2.36-.73-.33-1.04-1.01-1.48-1.61-.52-.74-1.06-1.89-2.21-1.28-1.16.62-.85,1.75-.56,2.84.47,1.74,1.37,3.09,2.96,3.95,0,1.47-.31,2.46-2.08,1.47-3.28-1.84-6.73-3.36-7.23-7.92-.18-1.66-1.98-2.77-3.44-3.71-.53-.34-1.1.13-1.31.63-.75,1.8-.15,3.61.87,4.91,1.48,1.88,1.99,3.45.48,5.51-.72.99-.31,2.09.58,2.92.64.6,1.46,1.33,2.25,1.09,1.29-.39.83-1.82.99-2.79.12-.77-.6-1.95.79-1.98,1.36-.03,2,1.19,2.45,2.31.41,1.01,1.87,2.28.52,3.13-1.44.91-1.48,1.64-.75,2.83.9,1.45,2.26,2.39,3.89,2.61,1.57.22,1.57-1.24,2.15-2.27.74-1.31.83-4.63,4.14-1.83,1.25,1.06,3.81,1.89,6.35,1.09,1.85-.58,4.02-.57,6.02-1.05.85-.2,1.84-.27,1.41.82-.64,1.62-1.69,3.11-2.76,4.51-.35.46-1.7.19-1.38,1.31.33,1.13,1.41.69,2.22.7,5.2.03,10.08-1.85,15.16-2.53.62-.08,1.36.11,1.69-.63.11-.24.07-.7-.1-.87-.62-.67-1.45-.56-2.07-.11-1.47,1.08-3.21,1.19-4.88,1.57-.49.11-1.13.13-1.45-.43-.34-.61.2-.99.52-1.4.84-1.08,2.31-1.73,2.37-3.36,2.48-1.85,5.37-3.2,7.17-5.88,2.43-.95,4.28-2.4,4.56-5.23.46-2.14,1.66-3.81,3.26-5.23,1.47,0,2.96.11,4.42-.03,1.89-.19,3.56-.79,3.43-3.22,1.99-2.81,4.44-5.3,5.87-8.5,1.21-.09,2.18-.71,2.34-1.87.15-1.1-.98-1.53-1.76-2.11-1.09-.8-2.06-1.4-3.49-.51-1.38.85-3.21.06-2.68-1.25.88-2.16,2.38-4.61,4.82-5.23,2.53-.65,5.06.78,7.54,1.45,1.65.44.66,1.98.69,3.08,0,.23.41.46.65.68,5.27,4.9,8.68,10.98,11.25,17.62.51,1.32.83,3.07,2.83,3.17.15,1.1-.43,2.35.65,3.26-.03,1.57.77,2.91,1.18,4.36,1.33,4.64,5.2,8.38,4.78,13.66-.08,1.03.93,1.62,1.76,2.19,3.59,2.46,5.08,6.08,5.27,10.24.08,1.72,1.68,3.78.39,5-2.12,1.99-.83,3.13.4,4.4,1.58,1.64,1.79,3.26.02,4.74-1.56,1.31-1.2,2.5-.35,3.96,1.2,2.07.85,3.97-1.07,5.41-2.08,1.55-2.32,3.51-1.61,5.79,0,0-.06.05-.06.05-1.1-.3-2.29-1.58-3.3-.65-2.39,2.21-5.18,4.25-5.47,7.95-3.04,2.52-6.49,4.37-10.04,6.04-.93.96-3.16.94-2.9,2.67.63,4.07.66,8.38,3.45,11.84-.74.84-1.47,1.68-2.21,2.52-1.21-.35-.11-2.92-1.93-2.31-1.35.45-.71,2.11-.62,3.19.32,3.84.85,7.66,1.2,11.49.12,1.26.2,2.4,1.74,2.66.07.87.14,1.73.2,2.6-1.47,1.96-1.66,4.27-1.09,6.44.72,2.75.4,5.25-.44,7.88-1.13,3.52.64,7.66,3.97,9.86-.07.85-.15,1.7-.22,2.56-1.31.76-1.12,1.67-.25,2.64,0,4.8,0,9.59-.01,14.39-.85.72-.84,1.39.14,1.98,1.34,8.23,2.92,16.42,3.96,24.69,1.33,10.49,5.47,20.28,7.26,30.63.31,1.81.7,3.6,1.06,5.4-.99,2.97.16,5.46,1.75,7.86,1.74,7.53,3.23,15.1,3.43,22.86-.9,1.09-.9,2.17.02,3.24.06,1.54.07,3.07-.49,4.54-.66.54-1.4,1.01-1.97,1.63-.65.69-1.5,1.56-.99,2.53.44.85,1.58.35,2.4.51ZM111.52,174.56c-2.02-.54-3.89.74-5.88.52-.82-.46-.72-1.25-.73-2,.65-.44,1.3-.88,1.95-1.31,1.33-.06,1.32-1.01,1.3-1.96.58-1.04,1.31-1.9,2.61-1.98,1.03,1.22.18,3.07,1.38,4.6,1.11-2.25,2.13-4.11-.1-5.9.38-.77.92-1.56-.1-2.25-.74-.5-1.37-.21-2.06.22-2.51,1.58-5.05,3.11-7.58,4.66-1.57.26-3.21,1.4-2.36,2.7,2.62,4.01-.93,5.03-2.92,6.58-1.37,1.07-3.17,1.77-4.9-.1-1.59-1.73-3.35-1.67-4.92.32-.64.81-1.4,1.85-2.68,1.43-1.07-.35-2.05-.5-2.3.8-.27,1.43.77,2.27,1.99,2.5,1.15.22,2.41.25,3.55,0,2.98-.66,5.44.91,8.1,1.61-.34.78-.63,1.58-1.02,2.34-.43.83-.69,1.68.27,2.23,1.13.65,1.1-.48,1.41-1.07.67-1.27,1.92-1.15,3.08-1.25.45.05.89.1,1.34.15.94.12,2.01-.26,2.72.73.01.23.02.45.03.68-1.5,2.05-3.5,3.79-4.02,6.46-.4.76-.74,1.56-1.23,2.26-.51.74-1.13,1.6-.48,2.32,1.01,1.12,1.55-.57,2.4-.68,1.77-.21,2.84-2.02,4.68-2.05-.08.45-.16.9-.24,1.35-1.47,2.41-4.18,4.44-2.45,7.85-.6.27-.73.79-.74,1.38-.43,0-.86,0-1.29,0-2.72,0-5.44-.01-8.15,0-.67,0-1.43.09-1.46.92-.04.85.7.92,1.38,1.01,1.39.18,2.78.62,4.15.56,1.65-.08,3.58-1.1,3.82,1.67.17,1.92,2.82,2.83,2.07,4.9-1.17,3.23.79,4.9,3.1,5.87,5.1,2.14,5.3,7.12,6.65,11.24.59,1.81.74,3.78,2,5.3,2.86,3.43.59,8.55,3.91,11.83.14.14-.11.87-.37,1.16-.98,1.11-.34,2-.06,3.21.71,3.02,3.22,4.65,4.74,7.01,1.66,2.58,3.57,4.86,2.44,8.24-.37,1.12-.31,2.47.48,3.45,1.19,1.5.93,2.51-.43,3.8-.95.9-2.62,2.78-.02,3.43,2.45.61,2.79,3.29,4.85,3.92,4.99,1.52-1.77,3.47.22,5.07.05.04,0,.21,0,.32-.52.27-.66.76-.7,1.3-.42,0-.85,0-1.27.03-1.13.05-2.53-.29-3.02,1.13-.54,1.56.88,2.26,1.79,3.05,1.02.89,2.2,1.6,3.31,2.39-.05,1.09.58,1.35,1.46,1.07,2.41-.77,4.62-1.84,5.71-4.37l.26.02s.26,0,.26,0c.23-.22.47-.44.7-.65h0c1.21-.09,2.25.18,3.33.88,1.85,1.19,3.47-.63,5.19-.94,1.01-.18.84-2.31.13-3.68-1.46.88-2.58,3.21-3.88,2.16-1.17-.95-1.88-.71-3.01-.73-1.67-.03-2.99-.8-3.09-2.86-.13-2.57,1.69-1.03,2.63-1.36,1.54,1.06,3.51.24,5.13,1.44.23-3.09-2.45-1.48-3.44-2.57.86-1.88,1.22-4.54,2.71-5.58,4.4-3.1-.08-2.34-1.11-3.09-.06-4.4-.33-4.57-4.26-2.74-.37.17-.67.51-1.01.77-1.4-.07-2.75.41-4.09.49-1.46.09-3.49,1.29-4.38-1.15.02-.93.45-1.59,1.31-1.96,3.68-.18,5.39-4.24,9.01-4.6.6-.06.67-.78.39-1.34-2.33-4.6-1.59-9.56-1.51-14.39.09-5.28-.6-9.79-6.76-11.22-.93-.21-2.06-1.27-1.6-2.13.81-1.53.71-3.16,1.16-4.7,2.75,1.23,3.21-1.78,4.76-2.71,2-1.2,1.49-3.68-.82-4.22-2.6-.61-5.31-1.06-7.85.45-.79.47-1.71.76-2.35-.06-.57-.73.09-1.4.54-2.02,1.01-1.39,2.72-2.72,2.86-4.2.3-3.2,2.41-5.28,3.92-7.64,2.62-4.08,2.16-6.42-2.38-8.59-.5-.24-1.18-.53-1.07-1.07.69-3.14-2.36-4.02-3.52-6.03,1.09-2.17,2.18-4.34,3.27-6.5,1.56-1.07,2.91-2.43,3.13-4.32.39-3.3,2.38-5.18,5.15-6.4,1.63-.71,2.05-1.78,2.16-3.5.28-4.18-2.1-7.05-4.42-10-.68-.97-1.19-2.17-2.68-2.12-2.94-.26-4.72,1.73-6.64,3.44-1.42.75-3.02,1.2-4.13,2.48-2.4,1.3-5.29.68-7.68,2-.6.1-1.19.19-1.79.29ZM136.88,110.36c0-.53.12-1.01.64-1.29,2.51-2.31,3.21-5.88,5.74-8.2.39-.36.05-1.26-.47-1.73-.46-.42-1.03-.47-1.44-.01-1.81,2.03-4.48,2.26-7.08,3.24,1.1,1.34,3.65,1.85,1.94,4.08-.85.04-1.71-.02-1.93,1.16-.5,2.61-.87,5.22-.68,7.89.09,1.26.68,1.97,1.96,2.05,2,1.29,4.2.46,6.31.56.54.03,1.06-.37,1.19-.94.11-.48-.23-.85-.73-.85-3.44,0-4.49-1.94-4.27-5.05.04-.61-.62-.81-1.18-.91ZM97.72,150.21c-3.49.33-6.32,2.44-9.52,3.57-1.06.37-1.05,1.59-.84,2.56.32,1.47,1.34.58,2.06.46,3.39-.55,6.46-2.05,9.61-3.32,3.75-.85,7.4-1.99,10.69-4.11-4.13-.86-8.03.39-12,.85ZM106.85,158.03c-2.42.8-5.22.54-7.17,2.63-3.89-.26-6.22,3.11-9.56,4.16-.79.25-1.56,1.52-1.13,2.44.5,1.08,1.74.63,2.6.33,1.06-.37,2.22-.12,3.18-.46,1.85-.67,4.23.21,5.58-1.88,4.2-.4,6.72-3.61,9.81-5.88,1.61-.1,2.3-1.47,3.29-2.41.42-.4.61-.96.18-1.43-.25-.28-.89-.62-1.06-.5-1.79,1.23-4.54.63-5.71,3ZM149.26,359.89c.09.67.25,1.31,1.12,1.16.2-.03.55-.47.5-.59-.3-.78-1.04-.48-1.62-.57.18-1.47,1.34-1.89,2.48-1.88,1.39.01,2.34-.71,3.39-1.37.58,2.07,1.84,1.42,2.92.6,1.74-1.32,2.88-3.03,2.79-5.77-2.08,1.88-3.89,3.51-5.69,5.14-1.03-2.51-3.39-2.27-5.44-2.58-1.72-.26-4.42.25-4.97-.64-.8-1.29-1.11-1.25-1.99-.6-1.18.87-.51,1.8.26,2.42,2.04,1.62,4.17,3.13,6.26,4.68ZM142.73,338.33c-.79.2-1.53-.93-2.5.05.55.96,1.33,1.9,2.43,1.22,1.75-1.09,3.56-.3,5.31-.59,1.35,1.82,3.25,1.32,5.04,1.16.44-.04.88-.63.61-.94-.94-1.1-1.93-2.25-3.67-1.79-.11.03-.29-.22-.44-.34.34-1.09,2.49-1.54,1.26-2.9-.86-.96-2.2-.49-3.25.29-.64.47-1.39.9-1.95.02-.43-.69.18-1.13.71-1.57,1.15-.95,1.15-2.3-.4-2.1-1.96.26-3.25-.95-4.9-1.27-.88-.17-1.7-.54-2.37.28-.66.81.09,1.35.46,1.99,1.24,2.15,2.43,4.32,3.63,6.48ZM146.04,139.86c-.56-1.08-1.35-2.43-2.47-2.33-1.52.13-.53,1.77-.84,2.69-.14.4-.18,1.07-.43,1.15-2.98,1.04-2.53,4.03-3.5,6.17-.51,1.12-1.4,3.02-.06,3.45,1.67.53,1.77-1.76,2.37-2.89.77-1.47.02-3.59,1.89-4.87.69,1.71.33,3.24.39,4.73.12,2.9,1.83,4.34,4.31,5.45,2.08.92,3.58.89,5.11-.95.75-.9,1.98-.99,3.3-.56,2.78.92,5.48,1.29,6.13-2.8.17-1.06,1.29-1.36,2.08-1.92,2.05-1.43,3.21-3.49,2.21-5.87-1.57-3.71-7.95-5.41-11.8-3.31,1.66.93,3.42,1.66,5.37,3.7-2.62,0-4.42.09-6.21-.02-2.5-.16-2.78.48-1.45,2.63,2.07,3.35,1.49,4.23-2.46,4.57-.14-1.61-.22-3.24-.45-4.84-.3-2.08-.84-4.05-3.5-4.2ZM150.77,366.43c2.66.16,3.61-.71,2.85-1.07-1.97-.94-3.45-2.65-5.47-3.35-.66-.23-2.13.41-1.85,1.3.65,2.08-1.06,2.28-1.97,3.18-.53.52-1.95.68-1.13,1.87.68,1,1.63.44,2.25-.13,1.64-1.51,3.66-1.63,5.33-1.8ZM38.38,342.67c-1.99-.66-3.67-.38-5.3-.36-.73,0-1.15.48-1.16,1.24-.01.98.6,1.25,1.44,1.3,1.88.11,3.43-.53,5.02-2.18ZM140.65,321.69c2.95.7,4.83.08,6.25-1.9-1.93.31-3.92.37-6.25,1.9ZM69.04,82.59c-1.11,2.68-.46,4.27.76,5.75-.49-1.63.23-3.41-.76-5.75ZM136.1,96.66c-1.49.44-2.21.97-2.24,2.37,1.4-.11,1.98-.76,2.24-2.37ZM91.05,124.29c-.06-.53-.43-.72-.88-.72-.48,0-.81.34-.8.81.01.62.38.97,1.04.85.5-.09.65-.47.63-.94ZM69.27,79.85c.18.08.4.26.53.21.13-.05.17-.33.25-.52-.18-.08-.4-.26-.53-.21-.13.05-.17.33-.25.52ZM71.14,75.51c.08-.18.26-.4.2-.54-.05-.13-.33-.17-.51-.25-.08.18-.26.4-.21.53.05.13.33.17.52.25Z"/>
        <path class="cls-5" d="M66.61,203.02c1.25.28,1.95,1.31,2.78,2.14.87.88,1.15,1.67-.51,1.9-1.12.16-1.75.76-1.76,1.93,0,1.23.99,1.12,1.78,1.43,2.13.82,5.27.84,2.95,4.79-.89,1.52.93,1.75,2.2,1.37,2.53-.76,3.22.43,2.1,2.41-1.34,2.36-2.57,4.95-5.16,6.36-.11-.31-.12-.77-.33-.89-.75-.43-8.12,1.74-8.53,2.46-.34.6-.47,1.36-.09,1.87,2.66,3.53-.17,4.39-2.58,5.55-2.88,1.38-5.87,2.6-8.53,4.33-2.53,1.65-2.32,5.9-6.61,6.48-1.86.25-2.56,3.77-2.53,5.96.03,2.88-1.3,4.66-3.22,6.37-1.39,1.24-2.35,2.64-.85,4.47-.31,2.36-2.52,2.8-4.03,3.9-1.78,1.3-2.46,2.48-.94,4.56,2.39,3.27,1.92,5.67-1.45,7.64-1,.59-1.52,1.07-1.44,2.17-1.9-.06-3.84.17-5.65-.68-.13-.7-.36-1.42.3-2.01.62,0,1.23-.02,1.37-.81.11-.6-.24-.92-.75-1.11-.15-8.06,1.85-15.71,5.21-22.89,3.07-6.57,6.87-12.81,10.82-18.92,2.42-3.75,6.15-6.15,9.65-8.6,5.63-3.95,10.34-8.32,12.24-15.27.67-2.44,2.34-4.61,3.55-6.91Z"/>
        <path class="cls-7" d="M75.72,74.54c-.32-1.08-.65-2.15-.97-3.23.67-.03,1.34-.05,2-.08,1.48.5,2.01-1.41,3.33-1.32-.09,1.89.99,2.46,2.39,1.56,1.94-1.25,3.69-2.81,5.4-4.37.45-.41-.58-.69-.67-1.18,2.29-1.6,2.78-3.95,2.72-6.53.75.02,1.49.06,2.24.07.81.01,1.9,1.11,2.31-.54.25-1.02,1.47-1.98.91-2.93-.63-1.06-1.71.17-2.61.16-.74-.01-1.49,0-2.23,0,.89-1.73,1.77-3.46,2.66-5.19,1.57-.09.96-1.72,1.67-2.39.84-.79,1.19-1.64.2-2.41-1.13-.87-1.97-.24-2.55.86-1.58.48-3.41,1.93-4.05-1.09.76-.45,2.15.28,2.4-.92.22-1.07-.93-1.15-1.69-1.41.22-.35.53-1.03.66-1,3.14.79,3.03-1.66,3.73-3.51.76-2.02-1.39-4.67,1.44-6.25.35-.19-.05-1.22-.48-1.75-.51-.61-.92-1.32-.49-2.08,1.5-2.65.86-5.12-.59-7.6-1.37,2.33-4.87,1.36-6.18,3.93-.4,0-.81,0-1.21,0,.03-1.6-.76-3.58,2.44-2.85,1.38.32,3.88-.27,1.82-2.95-.65-.85-1.08-1.84-1.06-2.96,9.16,2.14,12.91,9.45,13.6,17.81.18,2.15.17,4.32.37,6.48.11,1.22.03,2.49,2.02,2.66,1.45.12,1.41,1.6.91,2.82-2.02.23-3.27,1.4-3.95,3.26-.86,2.33-1.71,4.67-2.56,7.01-.28,1.35-1.29,2.71.04,4.05.57,3.68,1.71,7.33.59,11.09-.83-.23-2.19,1.61-2.5-.5-.25-1.73-1.64-2.77-1.97-4.94-2,3.42-4.95,4.68-7.67,6.1-1.95,1.02-1.77,2.77-1.84,4.14-.07,1.42,1.02,3.07,2.81,3.03,2.27-.05,3.17,1.37,3.86,3.17q2.04-1.76,5.35-1.05c-.24.84-.47,1.68-.71,2.52-.2.42-.4.84-.6,1.26-.19.03-.37.05-.56.08-1.52-.91-3.05.48-4.57-.03-.23-.64-.45-1.29-.68-1.93-.02-.81-.26-1.61-1.12-1.71-1.11-.13-1.36.78-1.49,1.68-2.97.14-5.8-.02-7.32-3.2.41-.97,2.52-.93,1.7-2.55-.72-1.42-2.15-1.52-3.59-1.32-1.56-.02-1.99-2.13-3.65-1.96ZM97.7,64.49c-.17-.34-.3-.6-.42-.85-.23.13-.58.22-.67.42-.18.39-.09.83.41.9.19.03.42-.28.68-.47Z"/>
        <path class="cls-5" d="M157.09,101.23c-2-.1-2.32-1.85-2.83-3.17-2.57-6.64-5.97-12.72-11.25-17.62-.23-.22-.64-.45-.65-.68-.03-1.1.96-2.64-.69-3.08-2.48-.67-5.01-2.1-7.54-1.45-2.45.63-3.95,3.07-4.82,5.23-.53,1.31,1.3,2.1,2.68,1.25,1.43-.89,2.4-.28,3.49.51.78.57,1.92,1,1.76,2.11-.16,1.16-1.13,1.78-2.34,1.87-.79-.38-1.75-.94-2.26.14-1.3,2.74-4.22,4.79-3.61,8.35.14,2.43-1.54,3.03-3.43,3.22-1.46.14-2.94.03-4.42.03,1.77-3.36,3.32-6.84,6.02-9.65,1.31-1.36,2.52-2.99-.79-3.41h0c-.54-.68,1.66-2.23-.59-2.26-2.93-.05-5.86.29-8.57-1.31-1.16-.69-2.32-.38-3.24.63-.72.8-1.62,1.05-2.64.99-2.99-6.9,3.37-14.06,9.34-12.01.53.18,1.13.3,1.47-.2.46-.67.11-1.2-.54-1.59-.58-.34-1.01-.8-1.11-1.5,5.83-.01,11.48,1.42,16.77,3.49,5.67,2.21,9.63,7.01,12.95,11.99,1.85,2.77,4.58,4.96,5.61,8.28-1.15.1-1.24.64-.96,1.7.4,1.53,1.11,2.42,2.79,2.25.84,1.85,1.25,3.82,1.57,5.82l-2.18.06Z"/>
        <path class="cls-4" d="M120.55,67.64c.1.7.54,1.16,1.11,1.5.65.38.99.92.54,1.59-.34.5-.94.39-1.47.2-5.96-2.06-12.33,5.1-9.33,12.01-1.39,3.81-1.1,7.81-1.27,11.75-.08,1.83-.52,2.01-2.09,1.06-1.42-.86-2.38-2.7-4.44-2.35-2.03-.95-3.65-.6-5.63.69-2.14,1.4-4.76,2.79-7.56,1.04.13-1.22,1.1-1.99,1.6-3.01,2.35-1.59,3.57-3.94,4.42-6.54.19-.02.37-.05.56-.08,1.22,1.14,2.38,2.41,4.79,2.32-1.51-2.14-.07-4.55-1.46-6.74-1.04,1.16-.81,3.14-2.72,3.16.24-.84.47-1.68.71-2.53.84-3.27,1.9-6.5,1.97-9.93,1.12-3.77-.02-7.42-.59-11.09,6.86,2.61,13.3,6.49,20.87,6.96Z"/>
        <path class="cls-5" d="M62.51,144.37c-.73,2.94-2.97,2.21-4.61,1.51-3.59-1.54-7.07-1.94-10.69-.33,3.09-5.91,2.76-12.29,3.09-18.72.43-8.42-.14-16.68-1.36-24.95,2-.11,4-.23,5.97-.34.36.85-.32,1.24-.6,1.79-.54,1.03-1.58,2.23-.62,3.26,1.14,1.23,1.69-.4,2.51-.92,1.1-.7,4.97,2.33,4.89,4.09-.12,2.81,1.3,4.68,3.03,6.52.78.83,2.06,1.52,1.34,2.98-.65,1.33-1.79,1.71-3.49,1.16,2.61,2.07,2.27,3.7-.1,5.33-1.05.73-1.87,1.8-2.79,2.72-.66.66-1.36.98-2.33.6-1.13-.44-2.54-1.9-3.44-.4-.9,1.51-1.65,3.1-1.41,5.34.45,4.19,2.85,5.84,6.41,6.68-.61,1.89-2.58.29-3.36,1.85,1.11.88,2.44.32,3.61.5.65,2.38,2.64.84,3.93,1.33Z"/>
        <path class="cls-2" d="M67.93,53.63c-1.46-3.13-1.46-6.73-3.12-9.8-.35-.65-.19-1.55.35-1.76,2.39-.92,1.78-2.93,1.83-4.67.12-4.07.83-7.96,3.31-11.33,1.68,1.19,3.65,1.11,5.18.2,2.86-1.71,5.31-.33,7.59.81,1.74.87,2.7,2.68,1.43,4.89-.94,1.63-.17,3.62.92,4.31,2.02,1.28.58,2.38.42,3.57-1.3-.3-2.42,2.78-3.94.08-.93-1.66-2.96.62-4.19-.74-.08.63-.16,1.26-.24,1.89-1.02.08-2.03.15-3.05.23-.8.11-1.6.27-2.41.31-.52.02-1.27-.76-1.42.31-.09.68.63.98,1.22,1.21-.05.2-.12.4-.23.58-.97.21-2.13-.45-3.14.88,3.24.86,4.88,4.65,8.76,3.98.91-.16.91.71.91,1.34,0,.63-.02,1.58-.86,1.38-1.39-.33-1.52.34-1.88,1.39-.34.98-1.17,1.88-2.44.88-1.69-1.05-3.35.3-5.02.06ZM84.21,37.46c-.09-.03-.18-.09-.27-.08-.03,0-.06.14-.09.22.09.03.18.09.27.08.03,0,.06-.14.09-.22Z"/>
        <path class="cls-6" d="M77.48,41.09c.08-.63.16-1.26.24-1.89,1.22,1.36,3.25-.92,4.19.74,1.52,2.7,2.64-.38,3.94-.08.16-1.2,1.6-2.29-.42-3.57-1.09-.69-1.86-2.68-.92-4.31,1.27-2.21.31-4.02-1.43-4.89-2.29-1.14-4.73-2.52-7.59-.81-1.53.91-3.49.99-5.18-.2,2.24-4.83,5.95-7.86,11.13-9.07.08,1.44,1.36,1.07,2.16,1.46,1.99.97,2.1,2.41.52,3.85-.75.68-2.45,1.08-1.41,2.68.92,1.42,2.14,1.18,3.37.36.4,0,.81,0,1.21,0,.78,4.14,3,7.9,2.46,12.44-.22,1.85.13,3.36-1.92,4.1-5.68-.28-5.9.14-6.49,5.61-.35,3.3.56,7.63-4.47,8.64-2.75-.33-3.7,2.53-5.82,3.31-.23-1.09-.45-2.18-.68-3.27.68-1.06,1.54-1.94,2.61-2.62,1.27,1,2.11.11,2.44-.88.36-1.05.49-1.72,1.88-1.39.84.2.86-.75.86-1.38,0-.63,0-1.5-.91-1.34-3.88.68-5.52-3.12-8.76-3.98,1-1.33,2.17-.67,3.14-.88.36,2.66,3.02,2.67,4.12,2.16,1.32-.61,1.94-2.76,2.86-4.25-.37-.18-.73-.37-1.1-.55Z"/>
        <path class="cls-5" d="M168.51,164.22c-.71-2.28-.47-4.24,1.61-5.79,1.92-1.43,2.27-3.34,1.07-5.41-.84-1.46-1.21-2.65.35-3.96,1.77-1.48,1.56-3.1-.02-4.74-1.23-1.27-2.53-2.41-.4-4.4,1.29-1.22-.31-3.28-.39-5-.19-4.16-1.68-7.78-5.27-10.24-.83-.57-1.84-1.16-1.76-2.19.41-5.28-3.45-9.01-4.78-13.66-.41-1.45-1.21-2.79-1.18-4.36.8-.08,1.6-.15,2.41-.23.5,1.11,1,2.22,1.5,3.33-1.79,2.39-.02,5.49,3.42,5.99,1.88,4.73,3.88,9.4,5.19,14.35.5,1.9,1.59,3.66,2.56,5.4,3.86,6.9,3.65,14.3,1.91,21.54-.85,3.55-2.75,7.17-6.22,9.36Z"/>
        <path class="cls-5" d="M71.65,69.13c-2.65,1.93-4.22,4.16-4.11,7.84.09,2.71-1.93,5.12-3.74,7.27-2.37-.04-3.03,1.13-2.28,3.27.32.93.61,1.84-.32,2.61-2.34-2.46-1.75-6.23-4.12-9.41-.74,2.62-.32,4.73-.44,6.78-2.89,1.53.09,3.06,0,4.59-3.06.34-3.32-1.65-3.27-3.91.34-.17.92-.28.97-.51.15-.71-.5-.7-.97-.79.1-1.83-.08-3.44-2.56-3.25,4.05-6.43,8.91-11.92,16.39-14.49,1.26-.43,2.44-.82,3.76-.58.23.2.46.39.69.59Z"/>
        <path class="cls-6" d="M41.57,160.67c.79.15,1.35-.29,1.9-.75.71-.18,1.57-.16,2.09-.57,2.83-2.25,3.98.33,4.09,1.99.24,3.79,1.35,1.81,2.53.66.18-.21.36-.41.54-.62l.05-1.33c1.77-.25,3.53-.51,5.3-.76,2.1,1.16,2.77,2.96,2.38,5.25-3.66-1.66-6.94.91-10.45.91-.83-1.08-1.77-2.69-3.01-.68-.66,1.08-1.83,2.19-1.43,3.76-.6-.58-1.12-1.28-1.81-1.71-.59-.37-1.64.13-1.12.67,1.65,1.72-.31,2.88-.34,4.29-.05.08-.1.17-.15.25.04-.09.09-.18.13-.27,1.12.36,3.46-3.06,3.33.9-.07,2.02-2.18.66-3.28,1.11-1.19.24-1.31-1.53-2.26-1.54-.91,1.16,1.27,2.73-.59,3.02-.55.09-2.34-.41-3.17-1.24-1.18-1.18.83-1.71.79-2.72.4-.1.79-.19,1.19-.29,2.83-1,.94-3.64,1.75-5.41.44-.96-1.16-1.78-2.47-1.76.97-1.52,2.91-1.81,4.02-3.17Z"/>
        <path class="cls-2" d="M71.03,59.46c2.13-.78,3.07-3.64,5.82-3.31,1.28.27,2.57.55,3.85.82-.09,1.54,1.98,1.51,2.2,3.12-2.27-.63-3.88.99-5.84,1.4-1.1.23-2.8.26-3.02,1.43-.25,1.38,1.14,2.31,2.29,3.05,1.94,2.73,4.2,1.04,6.38.46,2.2,3.51-1.63,2.42-2.64,3.47-1.32-.09-1.85,1.82-3.33,1.32-.29-2.21-1.32-.76-2.12-.43-.84-.17-1.53-.54-1.88-1.38.37-1.35-.24-1.97-1.53-2.09-1.55-2.67-2.23-5.6-2.61-8.62.8.25,1.6.51,2.4.76Z"/>
        <path class="cls-3" d="M37.09,171.29c.04,1.01-1.96,1.53-.79,2.71.83.83,2.62,1.32,3.17,1.24,1.86-.29-.32-1.86.59-3.02.94.01,1.07,1.78,2.26,1.54-.4,1.71,1.07,2.88,1.3,4.41-1.98,2.48-3.35-.45-5.86-1.09,1.8,2.82,2.65,5.22,5.13,6.42-1.17,2.6-2.6,1.22-3.97.24-.43-.31-.88-.88-1.37-.51-.33.25-.5.95-.44,1.42.08.72.42,1.41.65,2.12-1.02-.08-1.31.92-1.99,1.34-2.32-2.72-1.69-6.23-2.49-9.36,1.2.05,3.53-.09,3.33-.33-1.37-1.66-.32-4.96-3.47-5.33.42-2.31-1.03-5.1,1.77-6.79.25,1.88.51,3.75,2.18,5Z"/>
        <path class="cls-8" d="M151.02,236.46c-3.33-2.2-5.1-6.35-3.97-9.86.84-2.63,1.16-5.12.44-7.88-.57-2.17-.38-4.48,1.09-6.44,1.16,8.02,3.48,15.93,2.43,24.18Z"/>
        <path class="cls-5" d="M63.15,167.16c.02-.54-.11-1.13.07-1.61,1.89-5.08.57-9.43-2.93-13.31-.57-.63-1.47-1.37-.73-2.19.95-1.06,1.72.01,2.41.63,1.65,1.49,3.01,3.15,5.41,3.84,2.14.61,2.37,5.96.55,7.67-1.1,1.04-2.4,1.92-2.16,3.72-.78.62-1.46,1.42-2.62,1.26Z"/>
        <path class="cls-7" d="M37.75,186.76c-.23-.7-.56-1.39-.65-2.11-.05-.46.11-1.16.44-1.42.49-.37.93.2,1.37.51,1.38.98,2.8,2.37,3.97-.24.48-1.12-.78-3.77,2.29-2.6.21.63.31,1.33.99,1.69.05.6.36.94.97.98.44.51.71,1.44,1.67.67l-.07-.03c-.64.47-.02.85.08,1.27-.9.69-2.74.24-2.87,1.61-.25,2.68-1.21-.04-1.69.33-.21-.42-.45-1.06-.96-.83-.49.22-.1.62.24.84.16,1.42,1.72,2.35,1.37,3.94-1.35.01-1.7-.89-2.08-1.99-.76-2.17-1.68-1.52-2.5.03-1.33-.43-1.3-2.17-2.56-2.67Z"/>
        <path class="cls-7" d="M43.61,178.17c-.23-1.53-1.7-2.69-1.3-4.41,1.1-.45,3.21.91,3.28-1.11.13-3.95-2.2-.54-3.33-.9l.02.02c.04-1.41,1.99-2.57.34-4.29-.52-.55.52-1.04,1.12-.67.69.43,1.21,1.13,1.81,1.71.1.51.16,1.15.9.59.65-.49,1.23-.84,1.8.07-1.83,2.5.38,2.67,1.87,3.24-1.79,1.82-2.6,3.7-.39,5.78-.76.06-1.52.11-2.28.17-1.28-.07-2.56-.14-3.85-.21Z"/>
        <path class="cls-3" d="M86.06,25.36c-1.22.81-2.45,1.06-3.37-.36-1.04-1.61.66-2,1.41-2.68,1.59-1.44,1.47-2.88-.52-3.85-.8-.39-2.07-.02-2.16-1.46,2.57-.98,5.18-1.15,7.84-.39-.02,1.12.4,2.11,1.06,2.96,2.05,2.67-.45,3.26-1.82,2.95-3.2-.74-2.42,1.25-2.44,2.85Z"/>
        <path class="cls-6" d="M43.61,178.17c1.28.07,2.56.14,3.85.21,1.11,2.04,3.83,3.22,3.26,6.15-.66-.11-1.32-.21-1.98-.32,0,0,.07.03.07.03-.33-.78-.51-1.94-1.67-.67-.62-.03-.92-.38-.97-.98.93-1.3.19-1.62-.99-1.69-3.07-1.17-1.81,1.48-2.29,2.6-2.48-1.2-3.33-3.6-5.13-6.42,2.51.65,3.88,3.58,5.86,1.09Z"/>
        <path class="cls-8" d="M150.2,192.13c-2.79-3.46-2.81-7.77-3.45-11.84-.27-1.73,1.96-1.71,2.9-2.67-.61,4.01.69,7.83,1.15,11.73.12,1.04.73,2.09-.6,2.78Z"/>
        <path class="cls-6" d="M44.9,191.39c.35-1.6-1.21-2.53-1.37-3.94.24,0,.48,0,.72-.01.49-.37,1.45,2.35,1.69-.33.13-1.37,1.97-.93,2.87-1.61,2.25,1.83,2.59,3.31.01,5.49-1.25,1.05-1.76,2.98-3.86,3.02,0,0-.26.02-.26.02.06-.87.13-1.75.19-2.62Z"/>
        <path class="cls-8" d="M148.38,209.68c-1.54-.26-1.62-1.39-1.74-2.66-.36-3.83-.88-7.65-1.2-11.49-.09-1.08-.73-2.74.62-3.19,1.82-.61.73,1.96,1.93,2.31-.92,5.04.25,10.02.39,15.03Z"/>
        <path class="cls-5" d="M50.13,172.43c-1.5-.58-3.7-.74-1.87-3.24,1.25-.14,1.95-.97,2.5-1.99,1.14.21,2.27.42,3.41.63-.05.23-.1.45-.15.68-.51.26-.61.47.06.6.95.4,1.37,1.12,1.35,2.13-1.21.82-2.32,2.06-4.02,1.08-.17-.32-.38-.4-.63-.08-.21.07-.43.14-.64.21Z"/>
        <path class="cls-7" d="M99.65,56.63c.85-2.34,1.7-4.67,2.56-7.01.68-1.85,1.93-3.03,3.95-3.26.71,4.16-3.19,6.49-4.06,10.04-.06.26-1.6.16-2.45.22Z"/>
        <path class="cls-6" d="M54.01,168.5c.05-.23.1-.45.15-.68,1.3-2.51,2.95-3.1,5.17-1,.27.26.78.27,1.18.4,0,.21.03.42.07.62-.13.25-.26.49-.38.74,0,0-.04.22-.04.22,0,0-.22.01-.21.01-.14.37-.5.75.05,1.09.11.77.18,1.51-.79,1.8-.81-.46-1.55-2.08-2.52-.17-.42-.1-.84-.2-1.26-.3.02-1.01-.4-1.74-1.35-2.13-.01-.2-.03-.4-.06-.6Z"/>
        <path class="cls-5" d="M159.69,171.57c.29-3.7,3.07-5.74,5.47-7.95,1.01-.93,2.2.35,3.3.65-2.78,2.61-5.55,5.22-8.77,7.3Z"/>
        <path class="cls-7" d="M37.56,163.83c1.31-.03,2.91.8,2.47,1.76-.81,1.77,1.08,4.41-1.75,5.42-1.43-1.66-.88-4.17-2.51-5.74.6-.48,1.19-.95,1.79-1.43Z"/>
        <path class="cls-6" d="M33.14,173.08c3.14.37,2.1,3.67,3.47,5.33.2.24-2.14.38-3.33.33-.05-1.89-.09-3.77-.14-5.66Z"/>
        <path class="cls-3" d="M50.71,184.53c.57-2.93-2.15-4.11-3.26-6.15.76-.05,1.52-.11,2.28-.17.77.86,1.65,1.64,2.28,2.59,1.17,1.74,1.14,3.2-1.31,3.73Z"/>
        <path class="cls-8" d="M165.07,113.57c-3.43-.5-5.2-3.6-3.42-5.99,1.43,1.83,2.56,3.83,3.42,5.99Z"/>
        <path class="cls-7" d="M44.97,193.99c-.15,1.12-.64,2.06-1.82,1.19-1.82-1.34-4.17-2.11-5.16-4.43.77-.03,1.54-.07,2.31-.1,1.73.77,2.4,2.96,4.42,3.36l.26-.02Z"/>
        <path class="cls-8" d="M35.77,165.26c1.62,1.57,1.08,4.09,2.51,5.74-.4.09-.79.19-1.19.29-1.67-1.26-1.93-3.13-2.18-5,.16-.45.18-1.02.86-1.03Z"/>
        <path class="cls-6" d="M40.29,190.65c-.77.03-1.54.07-2.31.1-.74-.88-1.48-1.77-2.22-2.65.68-.42.97-1.42,1.99-1.34,1.26.5,1.23,2.24,2.56,2.66,0,.41-.02.82-.02,1.22Z"/>
        <path class="cls-7" d="M72.96,53.57c-1.07.68-1.92,1.56-2.61,2.62-.68-.23-1.36-.46-2.04-.69-.12-.62-.25-1.25-.37-1.87,1.68.24,3.34-1.11,5.02-.06Z"/>
        <path class="cls-8" d="M157.71,95.35c-1.67.17-2.38-.73-2.79-2.25-.28-1.06-.19-1.6.96-1.7.89,1.19,1.83,2.35,1.82,3.95Z"/>
        <path class="cls-8" d="M160.15,104.26c-.8.08-1.6.15-2.41.23-1.07-.92-.5-2.16-.65-3.26.73-.02,1.46-.04,2.18-.06.29,1.03.58,2.06.87,3.09Z"/>
        <path class="cls-3" d="M68.31,55.5c.68.23,1.36.46,2.04.69.23,1.09.45,2.18.68,3.28-.8-.25-1.6-.51-2.4-.76-.11-1.07-.21-2.14-.32-3.2Z"/>
        <path class="cls-8" d="M150.54,241.66c-.87-.97-1.05-1.88.25-2.64-.08.88-.17,1.76-.25,2.64Z"/>
        <path class="cls-5" d="M101.68,231.96c.03-1.35.58-2.16,2.07-2-1.21.13-1.01,1.71-2.07,2Z"/>
        <path class="cls-3" d="M71.23,67.33c1.29.12,1.9.75,1.53,2.09-.37-.09-.74-.19-1.12-.29-.23-.2-.46-.39-.69-.59.09-.4.18-.81.27-1.21Z"/>
        <path class="cls-7" d="M56.68,171.53c.97-1.91,1.71-.29,2.52.17-.87.35-1.7.14-2.52-.17Z"/>
        <path class="cls-8" d="M60.2,168.57c.13-.25.26-.49.38-.74.5.04.99.08,1.49.12-.49.61-1.13.79-1.87.62Z"/>
        <path class="cls-8" d="M50.77,172.22c.26-.32.46-.24.63.08-.21-.03-.42-.06-.63-.08Z"/>
        <path class="cls-7" d="M60,169.89c-.55-.34-.19-.72-.05-1.09.01.36.03.73.05,1.09Z"/>
        <path class="cls-5" d="M137.47,295.23h-.26s-.26-.01-.26-.01c-1.44-.06-2.71.02-3.56,1.57-.71,1.29-2.1,1.77-3.6,1.73-1.11-.79-2.28-1.5-3.31-2.39-.91-.79-2.33-1.49-1.79-3.05.49-1.42,1.89-1.08,3.02-1.13.42-.02.85-.02,1.27-.03.15.58-.15,1.55.66,1.59.93.05.63-.91.69-1.49.06-.57-.17-1.05-.65-1.4,0-.11.05-.28,0-.32-1.99-1.6,4.77-3.55-.22-5.07-2.06-.63-2.4-3.31-4.85-3.92-2.6-.65-.93-2.52.02-3.43,1.35-1.29,1.62-2.31.43-3.8-.79-.99-.85-2.33-.48-3.45,1.13-3.39-.77-5.66-2.44-8.24-1.52-2.36-4.03-3.99-4.74-7.01-.28-1.2-.92-2.1.06-3.21.26-.29.5-1.03.37-1.16-3.33-3.28-1.05-8.4-3.91-11.83-1.27-1.52-1.41-3.49-2-5.3-1.35-4.13-1.55-9.1-6.65-11.24-2.32-.97-4.27-2.64-3.1-5.87.75-2.08-1.91-2.98-2.07-4.9-.24-2.76-2.17-1.75-3.82-1.67-1.37.07-2.76-.38-4.15-.56-.68-.09-1.42-.16-1.38-1.01.04-.83.79-.92,1.46-.92,2.72,0,5.44,0,8.15,0-.46,2.79,1.42,2.67,3.24,2.6.22.86.44,1.73.66,2.59-1.22,1.4-1.21,1.38.48,1.96,1.91.65,4.18.42,5.92,2.21-1.54.41-2.79.73-4.03,1.06-.95.26-1.15.84-.8,1.73.95,2.4,3.58,3.24,5.71,1.74,2.29-1.61,5.11-2.38,7.35-1.11,2.51,1.43,2.63-.93,3.83-1.49.8-.37,1.08-.88.52-1.81-.84-1.4-1.97-1.75-3.53-1.73-2.26.03-4.67.52-6.98-1.46,4.57-1.35,9.3.75,14.02-1.72-3.1-1.45-5.26.21-7.51-.06-.06-3.22-2.61-1.44-4-1.99,1.67-2.24,4.23-3.76,5.31-6.49,1.09-.64,1.9-1.35.69-2.6-.03-1.33,1.06-1.55,1.96-1.96.64,0,1.28-.01,1.92-.02,1.16,2.01,4.21,2.89,3.52,6.03-.12.53.56.83,1.07,1.07,4.55,2.17,5,4.51,2.38,8.59-1.52,2.36-3.62,4.44-3.92,7.64-.14,1.48-1.85,2.81-2.86,4.2-.45.62-1.11,1.29-.54,2.02.64.82,1.56.53,2.35.06,2.54-1.5,5.25-1.06,7.85-.45,2.31.54,2.82,3.02.82,4.22-1.55.93-2.01,3.95-4.76,2.71-.45,1.54-.35,3.17-1.16,4.7-.45.86.67,1.91,1.6,2.13,6.17,1.43,6.85,5.93,6.76,11.22-.08,4.83-.82,9.79,1.51,14.39.28.55.21,1.28-.39,1.34-3.62.36-5.33,4.42-9.01,4.6-.04-.97,0-2.27-1.47-1.73-1.3.48-1.81,1.86-1.71,3.19.12,1.58,1.13.73,1.86.49.89,2.44,2.92,1.23,4.38,1.15,1.34-.08,2.69-.57,4.09-.49,1.72,1.55.88,3.36.39,5.04-.34,1.19-.48,2.24.88,2.63,1.4.4,1.67-.78,2.16-1.81.62-1.29.04-3.18,1.84-3.9,1.03.74,5.52-.01,1.11,3.09-1.49,1.05-1.85,3.7-2.71,5.58.99,1.1,3.68-.51,3.44,2.57-1.63-1.2-3.6-.38-5.13-1.44.49-3.72-2.55-2.15-4.14-2.81-1.3-.54-1.76.17-2.17,1.17-.76,1.85,1.5,1.28,1.94,2.25-.25.21-.41.47-.57.47-2.33.01-3.49,1.11-2.83,3.43.7,2.45,2.55,1.21,4,.96,1.12-.19,2.2-.58,2.48,1.07,0,0,0,0,0,0-.23.22-.47.44-.7.65ZM133.98,254.94c-.24-2.85-.74-5.28-2.14-7.56-1.53-2.5-3.1-.85-4.63-.38-1.48.45-2.25,1.38-1.8,3.2.92,3.71,2.3,7.29,1.15,11.36-.62,2.22,1.45,3.83,3.37,5.07,1.78,1.15,2.96-.25,4.09-.96,1.77-1.11.47-2.85.42-4.37-.08-2.23-1.47-4.39-.47-6.36ZM127.9,278.28c-.91-.01-1.73.44-1.29,1.32.89,1.76,2.34,3.1,4.11,4.04,1.59.84,2.63-.53,3.86-1.04.62-.26,1.04-.86.82-1.59-.31-1.02-1.26-.95-1.88-.64-1.6.8-2.67.18-3.7-.99-.5-.57-1.08-1.09-1.93-1.09Z"/>
        <path class="cls-5" d="M90.41,95.11c2.79,1.75,5.42.36,7.56-1.04,1.98-1.29,3.6-1.64,5.63-.69-.21.89-1.71,1.43-.91,2.53,1.62,2.24.03,2.26-1.55,2.86-1.47.56-3.56,1.51-2.8,3.56.62,1.68.15,3.02-.44,4.22-.98,1.98-1.48,3.9-.94,6.37,2.84-1.6,5.48-1.54,7.7,1.12.25.3,1.03.17,1.56.24-.06,1.64-1.52,2.28-2.37,3.36-.32.41-.87.78-.52,1.4.31.56.96.54,1.45.43,1.66-.38,3.41-.5,4.88-1.57.62-.45,1.45-.56,2.07.11.17.18.21.64.1.87-.33.74-1.07.55-1.69.63-5.08.68-9.96,2.57-15.16,2.53-.82,0-1.9.44-2.22-.7-.32-1.12,1.03-.85,1.38-1.31,1.07-1.4,2.11-2.89,2.76-4.51.43-1.09-.56-1.02-1.41-.82-1.99.48-4.17.47-6.02,1.05-2.54.8-5.09-.03-6.35-1.09-3.31-2.79-3.39.52-4.14,1.83-.58,1.03-.58,2.49-2.15,2.27-1.63-.22-3-1.16-3.89-2.61-.74-1.19-.7-1.92.75-2.83,1.35-.85-.11-2.11-.52-3.13-.45-1.11-1.09-2.34-2.45-2.31-1.38.03-.66,1.2-.79,1.98-.16.97.3,2.4-.99,2.79-.79.24-1.6-.49-2.25-1.09-.89-.83-1.3-1.93-.58-2.92,1.51-2.07,1-3.63-.48-5.51-1.02-1.3-1.63-3.11-.87-4.91.21-.5.77-.97,1.31-.63,1.47.93,3.26,2.04,3.44,3.71.51,4.56,3.95,6.08,7.23,7.92,1.77.99,2.08,0,2.08-1.47,3.63-.24.23-2.81,1.28-3.9,1.9-.35,2,1.22,2.47,2.36.32.77.3,2.06,1.41,1.83,1.21-.25,1.28-1.54,1.35-2.64.11-1.63-1.94-2.77-1.04-4.58,1.13.88,2,.48,2.71-.59,1.14-1.71,2.28-3.42,3.42-5.13Z"/>
        <path class="cls-8" d="M106.21,114.29c-.53-.07-1.3.06-1.56-.24-2.22-2.66-4.85-2.72-7.7-1.12-.53-2.46-.03-4.38.94-6.37.59-1.2,1.06-2.54.44-4.22-.76-2.05,1.33-3,2.8-3.56,1.58-.6,3.17-.62,1.55-2.86-.8-1.1.7-1.64.91-2.53,2.06-.34,3.02,1.5,4.44,2.35,1.58.95,2.01.77,2.09-1.06.17-3.94-.12-7.94,1.27-11.75,1.03.06,1.92-.19,2.64-.99.91-1.01,2.08-1.32,3.24-.63,2.71,1.6,5.63,1.26,8.57,1.31,2.25.04.05,1.59.59,2.27-.77.06-1.49.23-1.68,1.13-.08.37.18.63.55.55.9-.18,1.06-.91,1.13-1.68,3.31.42,2.1,2.05.79,3.41-2.7,2.8-4.25,6.29-6.02,9.65-1.6,1.42-2.8,3.09-3.26,5.23-2.08,1.26-4,2.64-4.56,5.23-1.8,2.68-4.69,4.04-7.17,5.88ZM119.07,94.55c1.04.95,1.81.53,1.98-.49.26-1.58-1.52-1.91-2.24-2.93-.51-.72-1.51-.22-1.86.52-1.21,2.54-2.42,5.09-3.4,7.72-.34.9.21,2.09,1.28,2.31,1.35.28,1.01-1.05,1.28-1.78.58-1.52,1.2-3.02,1.77-4.54.24-.64.38-1.34,1.2-.8Z"/>
        <path class="cls-7" d="M113.3,174.27c2.39-1.32,5.28-.7,7.68-2,4.29,3.17,6.44,3.03,8.05-.51.43-.01.85-.03,1.28-.04,1.03.1,1.91,0,2.01-1.35.09-1.29.91-1.82,2.11-1.9,2.31,2.96,4.69,5.82,4.41,10-.11,1.72-.54,2.78-2.16,3.5-2.78,1.22-4.76,3.1-5.15,6.4-.22,1.89-1.57,3.25-3.13,4.32-1.32-1.6-.07-3.85-1.41-5.5-.53-.65-1.68-1.42-.61-2.46.68-.66,1.52-1.22,2.61-.87.91.29,2,.79,2.48-.46.42-1.1-.67-1.7-1.32-2.38-.89-.94-1.78-1.93-3.06-2.32-1.22-.37-2.48-1.19-2.17,1.46.21,1.77,0,4.01-1.84,5.36-1.48-1.6-2.84-1.34-4.44-.01-1.5,1.24,1.67,2.21,0,3.26-.48-.82-1.38-.58-2.09-.81.66-2.54,1-5.02-1.31-7,1.39-1.37,2.33.35,3.47.56,2.22.42,3.47-1.17,4.03-2.52.55-1.33-1.69-.88-2.21-1.47-2.73-3.04-4.04-.98-5.51,1.22-.32.48-1.1.66-1.67.98-.85-.04-1.71-.09-2.56-.13.19-.66.39-1.31.58-1.97,1.16-.82,2.11-1.77,1.95-3.36Z"/>
        <path class="cls-8" d="M37.72,261.95c-1.5-1.83-.54-3.24.85-4.47,1.92-1.71,3.25-3.48,3.22-6.37-.02-2.19.67-5.71,2.53-5.96,4.29-.58,4.08-4.83,6.61-6.48,2.65-1.73,5.65-2.95,8.53-4.33,2.41-1.16,5.24-2.02,2.58-5.55-.38-.51-.25-1.27.09-1.87.41-.72,7.78-2.89,8.53-2.46.21.12.23.58.33.89,0,.21-.02.43-.02.64-1.69.09-2.02,1.2-1.95,2.62-.03,1.44-1.69,2.33-1.32,3.91-1.3.01-2.07,1.05-3.07,1.63-1.65.96-2.53,2.84-4.41,3.64-5.06,2.14-5.04,2.19-4.25,7.16,0,0,0,0,0,0-1.22.81-2.45,1.61-2.62,3.26-.87.43-1.53,1.08-1.96,1.96-2.37.23-3.75,1.3-3.27,3.92-.43.22-.86.44-1.29.66-2.01.53-3.56,1.45-3.27,3.91-1.95,1.1-3.9,2.21-5.85,3.31Z"/>
        <path class="cls-5" d="M149.98,148.9c3.95-.34,4.53-1.23,2.46-4.57-1.33-2.15-1.05-2.79,1.45-2.63,1.79.11,3.59.02,6.21.02-1.95-2.04-3.7-2.77-5.37-3.7,3.86-2.1,10.23-.4,11.8,3.31,1,2.38-.15,4.44-2.21,5.87-.8.56-1.91.86-2.08,1.92-.65,4.08-3.35,3.71-6.13,2.8-1.32-.43-2.55-.34-3.3.56-1.54,1.84-3.04,1.87-5.11.95-2.49-1.11-4.19-2.55-4.31-5.45-.06-1.49.3-3.02-.39-4.73-1.87,1.27-1.12,3.4-1.89,4.87-.6,1.13-.7,3.43-2.37,2.89-1.34-.43-.45-2.33.06-3.45.98-2.15.52-5.13,3.5-6.17.25-.09.29-.76.43-1.15.32-.92-.68-2.56.84-2.69,1.12-.1,1.91,1.25,2.47,2.33.43,2.97.83,5.94,1.3,8.91.16.99-.15,2.5,1.33,2.59,1.76.1.72-1.7,1.32-2.45Z"/>
        <path class="cls-6" d="M90.41,95.11c-1.14,1.71-2.27,3.42-3.42,5.13-.71,1.07-1.58,1.46-2.71.59-.08-.31-.16-.61-.23-.91,1.08-.08,1.92-.54,1.8-1.74-.1-1-1.11-.76-1.78-.97-.91-.29-1.79-.68-2.78-.48-2.08-1.94-3.49-4.38-5.13-6.67-2.14-2.98-1.34-6.17-.98-9.36.23-2.04.36-4.1.54-6.14,1.66-.17,2.09,1.94,3.65,1.96-.95,2.06.5,2.95,1.88,3.87,1.52,3.18,4.35,3.34,7.32,3.2.87,0,1.74.02,2.61.03.23.64.45,1.29.68,1.94.22,1.27-.69,1.99-1.39,2.79-2,2.3-1.16,3.41,1.53,3.79-.5,1.02-1.48,1.79-1.6,3.01ZM85.52,86.23c.46-.18,1.39.21,1.46-.7.07-.95-.77-1.18-1.55-1.24-.81-.06-1.72.19-1.74,1.04-.03,1.09,1.04.78,1.84.9Z"/>
        <path class="cls-5" d="M95.88,185.02c-2.66-.7-5.13-2.28-8.1-1.61-1.13.25-2.4.22-3.55,0-1.23-.24-2.27-1.08-1.99-2.5.25-1.3,1.23-1.15,2.3-.8,1.28.42,2.03-.62,2.68-1.43,1.57-1.99,3.33-2.05,4.92-.32,1.73,1.88,3.53,1.17,4.9.1,1.99-1.55,5.53-2.58,2.92-6.58-.85-1.31.78-2.45,2.36-2.7-.13,1.97.29,3.57,2.6,3.91.01.75-.09,1.55.73,2-.03.23-.05.46-.08.68-3.3,1.42-5.41,4.09-7.25,7.02-.81.74-1.62,1.49-2.43,2.23Z"/>
        <path class="cls-6" d="M115.23,180.96c2.3,1.98,1.97,4.46,1.31,7-2.53.54-2.8,3.34-4.57,4.63-2.13.68-.84,2.59-1.39,3.84-1.56,1.64-3.83,1.31-5.7,2.1l-.06-.05c.08-.45.16-.9.24-1.35,0,0-.12-.19-.12-.19,3.02-2.83,5.16-6.36,7.61-9.65.74-1,.43-2.01.07-3.03-.02-.91.46-2.14-1.36-1.68-1.03.26-2.13.25-3.21.37-.5-.29-.64-.77-.66-1.31,1.87.56,2.64-.72,3.38-2.04.85.04,1.71.09,2.56.13.14,1.17,1.02,1.2,1.9,1.23Z"/>
        <path class="cls-8" d="M103.6,210.31c-1.83.07-3.7.19-3.24-2.6.43,0,.86,0,1.29,0,1.55.97,3.09,1.07,4.6-.09.56.35,1.09.76,1.82.61,3.52-1.29,5.93-4.62,5.69-7.91,0-.82.02-1.64.02-2.47,1.89.57,3.29.38,4.68-1.47.98-1.3,2.06-3.12,4.21-3.11-.17,1.21-.88,2.15-1.55,3.13-2.32,3.33-4.55,6.72-6.9,10.02-.94,1.32-1.09,2.51-.05,3.78-3.52.03-7.04.07-10.56.1Z"/>
        <path class="cls-8" d="M123.07,185.52c1.85-1.35,2.05-3.59,1.84-5.36-.31-2.65.95-1.84,2.17-1.46,1.28.39,2.17,1.39,3.06,2.32.65.68,1.73,1.28,1.32,2.38-.47,1.25-1.57.75-2.48.46-1.09-.35-1.93.22-2.61.87-1.07,1.04.08,1.81.61,2.46,1.33,1.65.08,3.9,1.41,5.5-1.09,2.17-2.18,4.34-3.27,6.5-.64,0-1.28.01-1.92.02.86-2.51,2.88-4.43,3.52-7.08.36-1.51.32-2.55-1.55-2.62-.89-.48-.54-2.07-1.89-2.15-.07-.62-.14-1.23-.21-1.85Z"/>
        <path class="cls-3" d="M58.08,159.28c-1.77.25-3.53.51-5.3.76-1.82-3.48-4.49-3.88-8.68-1.32.83-3.02,3.63-5.78,5.82-5.75,3.18.06,7.19,3.15,8.16,6.3Z"/>
        <path class="cls-5" d="M100.33,165.25c-1.35,2.09-3.73,1.21-5.58,1.88-.96.35-2.12.09-3.18.46-.86.3-2.1.76-2.6-.33-.43-.93.35-2.2,1.13-2.44,3.35-1.05,5.67-4.43,9.56-4.16.39,1.51.86,3,.66,4.59Z"/>
        <path class="cls-8" d="M100.33,165.25c.2-1.59-.27-3.08-.66-4.59,1.95-2.09,4.75-1.83,7.17-2.63,1.25.08,3.33-1.91,3.29,1.34-3.09,2.27-5.6,5.48-9.81,5.88Z"/>
        <path class="cls-5" d="M55.98,244.93c-.79-4.97-.81-5.02,4.25-7.16,1.88-.8,2.76-2.68,4.41-3.64.99-.58,1.77-1.61,3.07-1.63-.91,2.64-2.39,4.83-5.06,5.91-1.1.45-1.14,1.35-1.55,2.22-1.02,2.15-2.33,4.16-5.12,4.29Z"/>
        <path class="cls-5" d="M99.03,153.48c-3.15,1.27-6.22,2.77-9.61,3.32-.72.12-1.73,1.02-2.06-.46-.21-.97-.22-2.19.84-2.56,3.2-1.13,6.03-3.24,9.52-3.57.43,1.09.87,2.18,1.3,3.27Z"/>
        <path class="cls-8" d="M104.9,173.08c-2.31-.34-2.73-1.94-2.6-3.91,2.53-1.55,5.07-3.08,7.58-4.66.69-.44,1.33-.72,2.06-.22,1.02.69.48,1.48.1,2.25-.43.43-.86.86-1.28,1.29-1.31.08-2.03.94-2.61,1.98-.86.37-1.3,1.02-1.3,1.96-.65.44-1.3.88-1.95,1.31Z"/>
        <path class="cls-5" d="M136.21,106.44c1.71-2.23-.84-2.74-1.94-4.08,2.6-.98,5.27-1.22,7.08-3.24.41-.45.98-.4,1.44.01.52.48.87,1.37.47,1.73-2.53,2.32-3.23,5.89-5.74,8.2.26-1.23-.61-1.88-1.31-2.62Z"/>
        <path class="cls-6" d="M99.69,195.28c.52-2.67,2.52-4.4,4.02-6.46,1.61-.16,1.97-1.23,1.89-2.61,0,0,.03-.05.03-.05.19-.21.38-.42.57-.64,0,0,.04-.05.04-.05l.54-.65s.04-.07.04-.07c.92.2,2.01-.2,2.7.79-.99,2.04-3.16,3.36-3.48,5.8-1.58.18-1.88,1.26-1.82,2.6-.56,1.48-1.64,2.16-3.21,2.11-.21-.67-.76-.72-1.33-.76Z"/>
        <path class="cls-8" d="M99.03,153.48c-.43-1.09-.87-2.18-1.3-3.27,3.97-.45,7.87-1.71,12-.85-3.3,2.13-6.94,3.26-10.69,4.11Z"/>
        <path class="cls-8" d="M136.21,106.44c.7.74,1.57,1.4,1.31,2.62-.52.28-.63.76-.64,1.29-.44,2.4-.88,4.79-1.32,7.19-1.28-.09-1.87-.8-1.96-2.05-.19-2.67.18-5.28.68-7.89.23-1.18,1.08-1.12,1.93-1.16Z"/>
        <path class="cls-3" d="M95.88,185.02c.81-.74,1.62-1.49,2.43-2.23.87,1.18,1.39.16,2.07-.28.77-.49,1.1-2.15,2.53-1.07-1.27,1.84-2.99,3.43-3.3,5.81-1.15.1-2.4-.02-3.07,1.25-.31.59-.28,1.72-1.41,1.07-.96-.55-.7-1.39-.27-2.23.39-.75.68-1.56,1.02-2.34Z"/>
        <path class="cls-5" d="M135.56,117.55c.44-2.4.88-4.79,1.32-7.19.55.1,1.22.3,1.18.91-.22,3.12.83,5.06,4.27,5.05.5,0,.83.37.73.85-.13.57-.64.97-1.19.94-2.11-.1-4.31.72-6.31-.56Z"/>
        <path class="cls-3" d="M129.03,171.76c-1.61,3.55-3.76,3.68-8.05.51,1.1-1.28,2.71-1.73,4.13-2.48,1.06,1.15,3.05.44,3.92,1.97Z"/>
        <path class="cls-7" d="M44.1,158.72c4.19-2.56,6.86-2.16,8.68,1.32-.02.44-.03.89-.05,1.33-.18.21-.36.41-.54.62-1.18,1.15-2.28,3.13-2.53-.66-.11-1.67-1.26-4.24-4.09-1.99-.52.41-1.38.39-2.09.57.05-.48.12-.95.62-1.19Z"/>
        <path class="cls-8" d="M80.09,103.86c-1.05,1.09,2.35,3.66-1.28,3.9-1.59-.86-2.5-2.22-2.96-3.95-.29-1.08-.61-2.22.56-2.84,1.16-.62,1.69.54,2.21,1.28.43.61.75,1.29,1.48,1.61Z"/>
        <path class="cls-7" d="M60.51,167.22c-.4-.13-.91-.14-1.18-.4-2.22-2.09-3.87-1.51-5.17,1-1.13-.21-2.27-.42-3.41-.63-.25-.59-.51-1.17-.76-1.76,3.51,0,6.8-2.57,10.45-.91.02.9.04,1.79.06,2.69Z"/>
        <path class="cls-6" d="M129.03,171.76c-.88-1.52-2.86-.81-3.92-1.97,1.92-1.71,3.7-3.69,6.64-3.44-.48,1.79-.96,3.58-1.44,5.37-.43.01-.85.03-1.28.04Z"/>
        <path class="cls-8" d="M107.4,181.65c.02.54.16,1.02.66,1.31-.36.63-1.37.81-1.24,1.78,0,0-.04.07-.04.07-.18.22-.36.44-.54.65,0,0-.04.05-.04.05-.19.21-.38.42-.57.64,0,0-.03.05-.03.05-.64.65-1.28,1.29-1.92,1.94-.71-.99-1.78-.62-2.72-.73.83-2.55,3.72-3.49,4.65-5.96.6.07,1.2.13,1.79.2Z"/>
        <path class="cls-8" d="M129.04,94.7c-.6-3.56,2.31-5.61,3.61-8.35.51-1.08,1.47-.52,2.26-.14-1.43,3.2-3.89,5.68-5.87,8.5Z"/>
        <path class="cls-8" d="M61.2,90.12c.93-.77.64-1.68.32-2.61-.74-2.14-.09-3.31,2.28-3.27-.21,2.76.64,5.68-1.19,8.26-1.13-.51-1.3-1.43-1.42-2.38Z"/>
        <path class="cls-6" d="M102.38,206.34c-1.73-3.41.98-5.44,2.45-7.85,0,0,.06.05.06.05-.96,2.46,1.23,5.24-.79,7.59-.57.07-1.14.14-1.71.21Z"/>
        <path class="cls-8" d="M56.64,92.07c.09-1.53-2.88-3.06,0-4.59,1.99,2.49,3.29,5.25,3.27,8.52-.22,0-.45,0-.67,0-.86-1.31-1.73-2.62-2.59-3.94Z"/>
        <path class="cls-5" d="M110.14,159.37c.04-3.25-2.05-1.26-3.29-1.34,1.17-2.37,3.92-1.77,5.71-3,.17-.12.81.22,1.06.5.43.47.24,1.03-.18,1.43-.99.94-1.69,2.31-3.29,2.41Z"/>
        <path class="cls-7" d="M105.6,181.45c-.93,2.47-3.82,3.41-4.65,5.96-.45-.05-.89-.1-1.34-.15.31-2.39,2.03-3.97,3.3-5.82.91-.06,1.83-.13,2.74-.19,0,0-.05.2-.05.2Z"/>
        <path class="cls-8" d="M101.02,196.04c1.57.06,2.65-.63,3.21-2.11.23.06.46.11.7.17,0,.95.02,1.9.03,2.85,0,0,.12.19.12.19-1.85.02-2.91,1.84-4.68,2.05-.3-1.15.52-2.08.63-3.15Z"/>
        <path class="cls-3" d="M130.31,171.72c.48-1.79.96-3.58,1.44-5.37,1.49-.05,1.99,1.15,2.68,2.12-1.2.08-2.02.61-2.11,1.9-.09,1.35-.97,1.44-2.01,1.35Z"/>
        <path class="cls-7" d="M101.02,196.04c-.11,1.07-.93,2-.63,3.15-.85.11-1.39,1.8-2.4.68-.65-.72-.03-1.58.48-2.32.48-.7.82-1.5,1.23-2.26.57.03,1.12.09,1.33.76Z"/>
        <path class="cls-5" d="M110.77,167.82c.43-.43.86-.86,1.28-1.29,2.23,1.79,1.21,3.65.1,5.9-1.2-1.54-.35-3.38-1.38-4.6Z"/>
        <path class="cls-3" d="M81.29,96.72c.99-.2,1.87.19,2.78.48.67.22,1.67-.02,1.78.97.12,1.2-.71,1.66-1.8,1.74-.19,0-.39-.02-.58-.04-.61-.67-1.22-1.34-1.83-2.01-.12-.38-.23-.77-.35-1.15Z"/>
        <path class="cls-5" d="M113.38,108.41c.56-2.59,2.49-3.97,4.56-5.23-.28,2.83-2.13,4.28-4.56,5.23Z"/>
        <path class="cls-5" d="M102.38,206.34c.57-.07,1.14-.14,1.71-.21.68.11,1.36.21,2.04.32.04.39.07.79.11,1.18-1.51,1.16-3.05,1.06-4.6.09.01-.59.14-1.11.74-1.38Z"/>
        <path class="cls-7" d="M105.56,175.77c.02-.23.05-.46.08-.68,2,.22,3.86-1.07,5.88-.52-.06.92-1.02,1.06-1.43,1.68-1.27.11-2.53.22-3.8.33-.24-.27-.49-.53-.73-.8Z"/>
        <path class="cls-5" d="M48.14,254.07c-.48-2.62.9-3.68,3.27-3.92-.61,1.71-1.1,3.51-3.27,3.92Z"/>
        <path class="cls-5" d="M69.04,82.59c.99,2.33.27,4.12.76,5.75-1.22-1.48-1.87-3.07-.76-5.75Z"/>
        <path class="cls-6" d="M110.09,176.24c.41-.62,1.37-.76,1.43-1.68.6-.1,1.19-.19,1.79-.29.16,1.59-.79,2.54-1.95,3.36-.63-.27-1.05-.74-1.26-1.4Z"/>
        <path class="cls-8" d="M62.51,144.37c-1.29-.49-3.27,1.04-3.93-1.33,1.35,0,2.75-.23,4.04.05,1.48.33.41.88-.11,1.28Z"/>
        <path class="cls-5" d="M59.23,96.01c.22,0,.45,0,.67,0,.78.77,1.44,1.58.94,3.04-1.5-.59-1.6-1.79-1.61-3.03Z"/>
        <path class="cls-5" d="M53.36,248.19c.17-1.65,1.4-2.45,2.62-3.26.06,1.83-.71,3-2.62,3.26Z"/>
        <path class="cls-5" d="M136.1,96.66c-.26,1.61-.84,2.26-2.24,2.37.03-1.4.75-1.93,2.24-2.37Z"/>
        <path class="cls-5" d="M91.05,124.29c.02.47-.13.84-.63.94-.66.12-1.02-.22-1.04-.85-.01-.47.31-.8.8-.81.45,0,.82.19.87.72Z"/>
        <path class="cls-5" d="M81.64,97.86c.61.67,1.22,1.34,1.83,2.01-1.12-.2-3.33.59-1.83-2.01Z"/>
        <path class="cls-5" d="M69.03,228.6c-.08-1.41.26-2.52,1.95-2.62-.05,1.32-.91,2.04-1.95,2.62Z"/>
        <path class="cls-7" d="M103.67,188.15c.64-.65,1.28-1.29,1.92-1.94.09,1.39-.28,2.45-1.89,2.61-.01-.22-.02-.45-.03-.68Z"/>
        <path class="cls-5" d="M106.85,171.77c0-.94.44-1.59,1.3-1.96.02.95.03,1.9-1.3,1.96Z"/>
        <path class="cls-3" d="M74.64,70.8c.8-.33,1.83-1.78,2.12.43-.67.03-1.34.05-2.01.08-.08-.16-.12-.33-.11-.51Z"/>
        <path class="cls-8" d="M53.36,86.85c.47.1,1.12.09.97.79-.05.23-.63.34-.97.51,0-.43,0-.87,0-1.3Z"/>
        <path class="cls-5" d="M69.27,79.85c.08-.18.12-.46.25-.51.13-.05.35.13.53.21-.08.18-.12.46-.25.52-.13.05-.35-.13-.53-.21Z"/>
        <path class="cls-5" d="M71.14,75.51c-.18-.08-.46-.12-.52-.25-.05-.13.13-.35.21-.53.18.08.47.12.51.25.05.13-.13.35-.21.54Z"/>
        <path class="cls-7" d="M100.28,71.77c-.07,3.43-1.13,6.66-1.97,9.93q-3.31-.7-5.36,1.05c-.69-1.8-1.59-3.21-3.86-3.17-1.79.04-2.88-1.61-2.81-3.03.07-1.37-.11-3.12,1.84-4.14,2.72-1.42,5.68-2.68,7.67-6.1.33,2.17,1.72,3.22,1.97,4.94.31,2.11,1.67.27,2.5.5Z"/>
        <path class="cls-3" d="M87.81,41.9c2.06-.75,1.71-2.25,1.93-4.1.54-4.54-1.68-8.3-2.46-12.44,1.31-2.57,4.81-1.61,6.18-3.93,1.45,2.48,2.09,4.95.59,7.6-.43.75-.01,1.46.49,2.08.44.53.83,1.56.48,1.75-2.84,1.58-.68,4.23-1.44,6.25-.7,1.85-.6,4.3-3.73,3.51-.13-.03-.44.65-.66,1-.63.05-1.26.1-1.89.15,0-.29-.01-.57-.02-.85.18-.33.36-.66.54-1Z"/>
        <path class="cls-6" d="M87.27,42.9c0,.29.01.57.02.86-2.55,2.32.58,1.56,1.18,2.18.64,3.02,2.47,1.57,4.05,1.09.85.18,1.63.52.49,1.3-1.62,1.09-.61,1.82.19,2.64-.89,1.73-1.77,3.46-2.66,5.19-.22.22-.44.43-.65.65-5.59-.51-7.54-3.81-5.06-8.67.31-.61.18-1.03-.08-1.48-1.7-2.97.11-3.56,2.52-3.76Z"/>
        <path class="cls-6" d="M76.34,65.97c-1.16-.75-2.55-1.67-2.29-3.05.22-1.17,1.92-1.2,3.02-1.43,1.96-.41,3.56-2.03,5.84-1.4-.22-1.61-2.3-1.58-2.2-3.12,2.42-.34,4.88-1.15,6.77,1.45.33.46,1.58.26,2.4.37,0,.2.02.4.06.6.05,2.58-.43,4.93-2.72,6.53-.91.03-1.81.04-1.86-1.24,1.01-.27,2.51-.4,2.36-1.66-.19-1.64-2.11-.92-3.17-1.5-.6-.33-2.15-.57-2.16.47-.02,4.56-3.3,3.78-6.04,3.99ZM78.92,62.2c-.09.03-.19.05-.28.08.02.08.04.22.07.22.09,0,.19-.04.28-.07-.02-.08-.05-.16-.07-.23Z"/>
        <path class="cls-3" d="M92.01,92.11c-2.7-.38-3.53-1.49-1.53-3.79.69-.8,1.61-1.52,1.39-2.79,1.52.51,3.05-.88,4.57.03-.86,2.6-2.08,4.95-4.42,6.54Z"/>
        <path class="cls-3" d="M85.35,64.68c.04,1.28.94,1.27,1.86,1.24.09.49,1.13.76.67,1.18-1.71,1.56-3.46,3.12-5.4,4.37-1.4.9-2.48.34-2.39-1.56,1.02-1.05,4.84.04,2.64-3.47.21-1.58,1.8-1.09,2.62-1.76Z"/>
        <path class="cls-7" d="M89.93,59.39c-.04-.2-.06-.4-.06-.6,0-.67,0-1.33.01-2,.22-.22.44-.43.65-.65.74,0,1.49,0,2.23,0,.9.01,1.98-1.22,2.61-.16.56.94-.66,1.91-.91,2.93-.4,1.64-1.49.55-2.31.54-.75,0-1.49-.04-2.24-.07Z"/>
        <path class="cls-5" d="M97.6,84.23c1.91-.02,1.68-2,2.72-3.16,1.39,2.19-.05,4.6,1.46,6.74-2.41.09-3.57-1.18-4.79-2.32.2-.42.4-.84.6-1.26Z"/>
        <path class="cls-3" d="M81.26,80.37c-1.39-.92-2.84-1.81-1.88-3.87,1.43-.2,2.87-.11,3.59,1.32.81,1.62-1.29,1.58-1.7,2.55Z"/>
        <path class="cls-3" d="M93.2,50.96c-.81-.82-1.81-1.55-.19-2.64,1.15-.78.36-1.12-.49-1.3.58-1.1,1.42-1.73,2.55-.86,1,.77.64,1.63-.2,2.41-.71.67-.1,2.29-1.67,2.39Z"/>
        <path class="cls-7" d="M88.47,45.93c-.59-.62-3.73.14-1.18-2.18.63-.05,1.26-.1,1.89-.15.76.26,1.92.34,1.69,1.41-.25,1.2-1.64.47-2.4.92Z"/>
        <path class="cls-3" d="M91.18,83.6c-.87,0-1.74-.02-2.61-.03.12-.9.38-1.81,1.49-1.68.86.1,1.1.9,1.12,1.71Z"/>
        <path class="cls-7" d="M97.7,64.49c-.26.19-.49.49-.68.47-.5-.07-.59-.52-.41-.9.09-.2.44-.28.67-.42.13.25.25.51.42.85Z"/>
        <path class="cls-7" d="M77.48,41.09c.37.18.73.37,1.1.55-.92,1.49-1.53,3.64-2.86,4.25-1.1.5-3.76.49-4.12-2.16.1-.18.18-.38.22-.58,1.32.03,2.5-.13,2.61-1.83,1.02-.08,2.03-.15,3.05-.23Z"/>
        <path class="cls-6" d="M74.44,41.32c-.11,1.7-1.3,1.86-2.61,1.83-.59-.23-1.31-.53-1.22-1.21.15-1.07.9-.29,1.42-.31.81-.03,1.61-.2,2.41-.31Z"/>
        <path class="cls-6" d="M84.21,37.46c-.03.08-.05.22-.09.22-.09,0-.18-.05-.27-.08.03-.08.05-.22.09-.22.09,0,.18.05.27.08Z"/>
        <path class="cls-7" d="M89.89,56.79c0,.67,0,1.33-.01,2-.82-.11-2.07.09-2.4-.37-1.88-2.6-4.35-1.79-6.77-1.45-1.28-.27-2.57-.55-3.85-.82,5.03-1.02,4.12-5.35,4.47-8.64.59-5.46.8-5.88,6.49-5.61-.18.33-.36.67-.54,1-2.41.19-4.22.78-2.52,3.75.26.45.39.87.08,1.48-2.48,4.85-.53,8.15,5.06,8.67Z"/>
        <path class="cls-8" d="M50,165.44c.25.59.51,1.17.76,1.76-.55,1.02-1.25,1.85-2.5,1.99-.56-.91-1.14-.56-1.79-.07-.74.56-.8-.08-.9-.59-.4-1.57.77-2.69,1.43-3.76,1.24-2.02,2.17-.4,3.01.68Z"/>
        <path class="cls-3" d="M52.19,162c.18-.21.36-.41.54-.62-.18.21-.36.41-.54.62Z"/>
        <path class="cls-7" d="M42.26,171.76c-.04.09-.09.18-.13.27.05-.08.1-.17.15-.25,0,0-.02-.02-.02-.02Z"/>
        <path class="cls-7" d="M85.35,64.68c-.82.67-2.41.19-2.62,1.76-2.18.57-4.44,2.27-6.38-.47,2.74-.21,6.02.56,6.04-3.99,0-1.04,1.56-.8,2.16-.47,1.06.58,2.98-.14,3.17,1.5.15,1.26-1.35,1.4-2.36,1.66Z"/>
        <path class="cls-3" d="M40.29,190.65c0-.41.02-.82.02-1.22.82-1.55,1.74-2.2,2.5-.03.39,1.1.74,2,2.08,1.99-.06.87-.13,1.75-.19,2.62-2.02-.4-2.69-2.58-4.42-3.36Z"/>
        <path class="cls-3" d="M44.25,187.43c-.24,0-.48,0-.72.01-.34-.22-.73-.62-.24-.84.51-.23.75.41.96.83Z"/>
        <path class="cls-7" d="M54.01,168.5c.03.2.05.4.06.6-.67-.13-.58-.34-.06-.6Z"/>
        <path class="cls-8" d="M133.98,254.94c-1,1.97.39,4.13.47,6.36.05,1.53,1.35,3.26-.42,4.37-1.12.71-2.3,2.11-4.09.96-1.92-1.24-3.99-2.85-3.37-5.07,1.15-4.08-.23-7.66-1.15-11.36-.45-1.83.32-2.75,1.8-3.2,1.52-.47,3.1-2.12,4.63.38,1.4,2.28,1.89,4.7,2.14,7.56Z"/>
        <path class="cls-8" d="M119.24,212.25c2.25.26,4.4-1.4,7.51.06-4.72,2.47-9.44.38-14.02,1.72,2.31,1.98,4.73,1.49,6.98,1.46,1.56-.02,2.69.33,3.53,1.73.56.93.28,1.43-.52,1.81-1.2.56-1.32,2.92-3.83,1.49-2.24-1.28-5.06-.51-7.35,1.11-2.13,1.5-4.77.66-5.71-1.74-.35-.89-.15-1.48.8-1.73,1.24-.33,2.48-.66,4.03-1.06-1.74-1.79-4.01-1.56-5.92-2.21-1.7-.58-1.7-.57-.48-1.96,5.01.16,9.96-1.09,14.99-.65Z"/>
        <path class="cls-3" d="M125.17,189.51c1.87.08,1.92,1.12,1.55,2.62-.64,2.65-2.66,4.57-3.52,7.08-.89.41-1.98.63-1.96,1.96-.93.68-.62,1.69-.69,2.6-1.08,2.73-3.64,4.25-5.31,6.49-.36-.02-.72-.03-1.09-.05-1.04-1.28-.89-2.46.05-3.78,2.35-3.3,4.58-6.69,6.9-10.02.68-.97,1.38-1.91,1.55-3.13.4-1.55,2.27-2.11,2.51-3.77Z"/>
        <path class="cls-4" d="M114.16,210.21c.36.02.72.03,1.09.05,1.39.55,3.94-1.23,4,1.99-5.02-.44-9.97.81-14.99.65-.22-.86-.44-1.73-.66-2.59,3.52-.03,7.04-.07,10.56-.1Z"/>
        <path class="cls-8" d="M120.56,203.78c.07-.91-.24-1.92.69-2.6,1.21,1.25.4,1.96-.69,2.6Z"/>
        <path class="cls-5" d="M119.07,94.55c-.82-.53-.96.17-1.2.8-.57,1.52-1.19,3.02-1.77,4.54-.28.73.07,2.05-1.28,1.78-1.07-.22-1.61-1.41-1.28-2.31.99-2.63,2.19-5.18,3.4-7.72.35-.73,1.36-1.23,1.86-.52.72,1.02,2.5,1.35,2.24,2.93-.17,1.03-.93,1.45-1.98.49Z"/>
        <path class="cls-5" d="M126.43,84.89c-.07.77-.22,1.5-1.13,1.68-.37.08-.63-.18-.55-.55.18-.9.91-1.07,1.68-1.13,0,0,0,0,0,0Z"/>
        <path class="cls-3" d="M123.07,185.52c.07.62.14,1.23.21,1.85-.78,1.27-1.53,2.57-2.36,3.8-2.64,3.92-3.84,4.42-6.41,2.81.96-2.06,2.84-3.39,4.12-5.21,1.67-1.06-1.5-2.02,0-3.26,1.6-1.32,2.96-1.59,4.44.01Z"/>
        <path class="cls-3" d="M115.23,180.96c-.88-.02-1.75-.06-1.9-1.23.57-.32,1.34-.49,1.67-.97,1.48-2.2,2.78-4.26,5.51-1.22.53.59,2.76.13,2.21,1.47-.56,1.36-1.81,2.94-4.03,2.52-1.14-.22-2.08-1.94-3.47-.56Z"/>
        <path class="cls-2" d="M110.09,176.24c.21.65.63,1.12,1.26,1.4-.19.66-.39,1.31-.58,1.97-.74,1.32-1.5,2.6-3.38,2.04-.6-.06-1.2-.13-1.79-.2,0,0,.05-.2.05-.2.21-1.56.43-3.13.64-4.69,1.27-.11,2.53-.22,3.8-.33Z"/>
        <path class="cls-8" d="M118.63,188.77c-1.27,1.81-3.16,3.14-4.12,5.21-.16.18-.33.36-.49.54-.43.27-.85.53-1.28.79.03-.99-.24-1.89-.77-2.72,1.77-1.3,2.03-4.09,4.57-4.63.71.23,1.61-.01,2.09.81Z"/>
        <path class="cls-7" d="M85.52,86.23c-.8-.12-1.87.2-1.84-.9.03-.85.93-1.1,1.74-1.04.78.06,1.63.28,1.55,1.24-.07.92-1,.52-1.46.7Z"/>
        <path class="cls-6" d="M106.3,176.56c-.21,1.56-.43,3.13-.64,4.69-.91.06-1.83.13-2.74.19-1.44-1.08-1.76.57-2.54,1.07-.68.43-1.2,1.45-2.07.28,1.85-2.93,3.95-5.6,7.25-7.02.24.27.49.53.73.8Z"/>
        <path class="cls-7" d="M106.13,206.45c-.68-.1-1.36-.21-2.04-.32,2.02-2.35-.17-5.13.79-7.59,1.87-.78,4.15-.46,5.7-2.1,0,0,.18.15.18.15,0,.44.01.89.02,1.33v-.02c-.64.23-.66.85-.83,1.38-1.28,2.39-2.55,4.77-3.83,7.16Z"/>
        <path class="cls-5" d="M104.95,196.95c0-.95-.02-1.9-.03-2.86,1-.35,1.72-.95,1.86-2.07,1.53-2.2,4.28-3.54,4.61-6.58.02-.8.35-1.27,1.22-1.17.37,1.02.68,2.03-.07,3.03-2.44,3.29-4.58,6.82-7.61,9.65Z"/>
        <path class="cls-7" d="M112.62,184.28c-.87-.1-1.2.38-1.22,1.17-.62.03-1.25.06-1.87.09-.69-.99-1.78-.59-2.7-.79-.13-.97.88-1.15,1.24-1.78,1.07-.11,2.17-.1,3.21-.37,1.82-.46,1.34.77,1.36,1.68Z"/>
        <path class="cls-7" d="M111.97,192.6c.53.83.8,1.73.77,2.72,0,0,.01-.03.01-.03-.66.44-1.32.87-1.98,1.31,0,0-.18-.15-.18-.15.55-1.25-.74-3.16,1.38-3.84Z"/>
        <path class="cls-7" d="M114.02,194.52c.17-.18.33-.36.49-.54,2.57,1.62,3.77,1.11,6.41-2.81.83-1.24,1.57-2.53,2.36-3.8,1.35.08,1,1.67,1.89,2.15-.23,1.66-2.1,2.23-2.51,3.77-2.15,0-3.23,1.81-4.21,3.11-1.38,1.85-2.78,2.05-4.67,1.47-.13-.42-.27-.85-.4-1.27.78-.52.64-1.32.64-2.07Z"/>
        <path class="cls-6" d="M113.38,196.59c.13.42.27.85.4,1.27-.01.82-.02,1.64-.02,2.47-1.22.55-1.61,1.82-2.39,2.76-1.46-.08-2.07.6-1.85,2.05-.49,1.03-.97,2.06-1.46,3.1-.73.16-1.26-.26-1.82-.61-.04-.39-.07-.79-.11-1.18,1.28-2.39,2.55-4.77,3.83-7.16.63-.25.95-.68.84-1.38,0,0,0,.02,0,.02.61-.46,1.23-.92,1.84-1.38.25.02.49.03.74.05Z"/>
        <path class="cls-7" d="M111.37,203.09c.78-.94,1.17-2.21,2.39-2.76.23,3.28-2.17,6.62-5.7,7.9.49-1.03.97-2.07,1.46-3.1,1.19-.17,1.88-.78,1.85-2.05Z"/>
        <path class="cls-8" d="M109.53,185.54c.62-.03,1.25-.06,1.87-.09-.33,3.04-3.08,4.38-4.61,6.58-.25-.23-.49-.46-.74-.69.32-2.44,2.49-3.77,3.48-5.8Z"/>
        <path class="cls-3" d="M106.05,191.34c.25.23.49.46.74.69-.14,1.12-.87,1.72-1.86,2.07-.23-.05-.46-.11-.7-.16-.05-1.33.24-2.41,1.82-2.6Z"/>
        <path class="cls-7" d="M106.24,185.47c.18-.22.36-.44.54-.65-.18.22-.36.44-.54.65Z"/>
        <path class="cls-7" d="M105.63,186.16c.19-.21.38-.42.57-.64-.19.21-.38.42-.57.64Z"/>
        <path class="cls-7" d="M78.92,62.2c.02.08.05.16.07.23-.09.03-.19.07-.28.07-.03,0-.05-.14-.07-.22.09-.03.19-.05.28-.08Z"/>
        <path class="cls-3" d="M113.38,196.59c-.25-.02-.49-.03-.74-.05.04-.42.08-.84.12-1.25,0,0-.01.03-.01.03.43-.26.85-.53,1.28-.79,0,.76.13,1.56-.64,2.07Z"/>
        <path class="cls-8" d="M112.75,195.29c-.04.42-.08.84-.12,1.25-.61.46-1.23.92-1.84,1.38,0-.44-.01-.89-.02-1.33.66-.44,1.32-.87,1.98-1.31Z"/>
        <path class="cls-8" d="M110.8,197.91c.11.7-.2,1.13-.84,1.38.17-.53.19-1.15.84-1.38Z"/>
        <path class="cls-3" d="M111.37,203.09c.02,1.26-.67,1.88-1.85,2.05-.22-1.44.39-2.13,1.85-2.05Z"/>
      </g>
    </g>
  </g>
</svg>