<?xml version="1.0" encoding="UTF-8"?>
<svg id="Warstwa_2" data-name="Warstwa 2" xmlns="http://www.w3.org/2000/svg" xmlns:xlink="http://www.w3.org/1999/xlink" viewBox="0 0 187.83 251.91">
  <defs>
    <style>
      .cls-1 {
        fill: #250e0e;
      }

      .cls-1, .cls-2, .cls-3, .cls-4, .cls-5, .cls-6, .cls-7, .cls-8, .cls-9, .cls-10, .cls-11, .cls-12, .cls-13, .cls-14, .cls-15, .cls-16, .cls-17, .cls-18, .cls-19, .cls-20, .cls-21, .cls-22, .cls-23, .cls-24, .cls-25, .cls-26, .cls-27, .cls-28, .cls-29, .cls-30, .cls-31, .cls-32, .cls-33, .cls-34, .cls-35, .cls-36, .cls-37, .cls-38, .cls-39, .cls-40, .cls-41, .cls-42, .cls-43, .cls-44, .cls-45, .cls-46, .cls-47, .cls-48, .cls-49, .cls-50, .cls-51, .cls-52, .cls-53, .cls-54, .cls-55, .cls-56, .cls-57, .cls-58, .cls-59, .cls-60, .cls-61, .cls-62, .cls-63, .cls-64, .cls-65, .cls-66, .cls-67, .cls-68, .cls-69, .cls-70, .cls-71, .cls-72, .cls-73, .cls-74, .cls-75, .cls-76, .cls-77, .cls-78, .cls-79, .cls-80, .cls-81, .cls-82, .cls-83, .cls-84, .cls-85, .cls-86, .cls-87, .cls-88, .cls-89, .cls-90, .cls-91, .cls-92, .cls-93, .cls-94, .cls-95, .cls-96, .cls-97, .cls-98, .cls-99, .cls-100, .cls-101, .cls-102, .cls-103, .cls-104, .cls-105, .cls-106, .cls-107, .cls-108, .cls-109, .cls-110, .cls-111, .cls-112, .cls-113, .cls-114, .cls-115, .cls-116, .cls-117, .cls-118, .cls-119, .cls-120, .cls-121, .cls-122, .cls-123, .cls-124, .cls-125, .cls-126, .cls-127 {
        stroke-width: 0px;
      }

      .cls-2 {
        fill: #230e0d;
      }

      .cls-3 {
        fill: #462a29;
      }

      .cls-4 {
        fill: #4a2a27;
      }

      .cls-5 {
        fill: #5b5457;
      }

      .cls-6 {
        fill: #381d1c;
      }

      .cls-7 {
        fill: #090607;
      }

      .cls-8 {
        fill: #422621;
      }

      .cls-9 {
        fill: #421e1b;
      }

      .cls-10 {
        fill: #371f1c;
      }

      .cls-11 {
        fill: #5e4744;
      }

      .cls-12 {
        fill: #402f2a;
      }

      .cls-13 {
        fill: #2e1110;
      }

      .cls-14 {
        fill: #1f1a1b;
      }

      .cls-15 {
        fill: #463f36;
      }

      .cls-16 {
        fill: #221b17;
      }

      .cls-17 {
        fill: #2e1c1a;
      }

      .cls-18 {
        fill: #3c2c27;
      }

      .cls-19 {
        fill: #2f1613;
      }

      .cls-20 {
        fill: #261c18;
      }

      .cls-21 {
        fill: #372727;
      }

      .cls-22 {
        fill: #23110f;
      }

      .cls-23 {
        fill: #352f26;
      }

      .cls-24 {
        fill: #310f0f;
      }

      .cls-25 {
        fill: #261315;
      }

      .cls-26 {
        fill: #361a16;
      }

      .cls-27 {
        fill: #241415;
      }

      .cls-28 {
        fill: #3a1815;
      }

      .cls-29 {
        fill: #5c4441;
      }

      .cls-30 {
        fill: #2d1f1b;
      }

      .cls-31 {
        fill: #483c3e;
      }

      .cls-32 {
        fill: #431c1a;
      }

      .cls-33 {
        fill: #250e0d;
      }

      .cls-34 {
        fill: #502726;
      }

      .cls-35 {
        fill: #201413;
      }

      .cls-36 {
        fill: #31221e;
      }

      .cls-37 {
        fill: #4e302c;
      }

      .cls-38 {
        fill: #0b0607;
      }

      .cls-39 {
        fill: #0d0607;
      }

      .cls-40 {
        fill: #543d3d;
      }

      .cls-41 {
        fill: #240e0e;
      }

      .cls-42 {
        fill: #322224;
      }

      .cls-43 {
        fill: #533932;
      }

      .cls-44 {
        fill: #391213;
      }

      .cls-45 {
        fill: #110909;
      }

      .cls-46 {
        fill: #3d342c;
      }

      .cls-47 {
        fill: none;
      }

      .cls-48 {
        fill: #5f4440;
      }

      .cls-49 {
        fill: #5d554a;
      }

      .cls-50 {
        fill: #3f2824;
      }

      .cls-51 {
        fill: #4e1210;
      }

      .cls-52 {
        fill: #210c0c;
      }

      .cls-53 {
        fill: #2c1311;
      }

      .cls-54 {
        fill: #573a38;
      }

      .cls-55 {
        fill: #3a1513;
      }

      .cls-56 {
        fill: #130a0a;
      }

      .cls-57 {
        fill: #745959;
      }

      .cls-58 {
        fill: #462e2e;
      }

      .cls-59 {
        fill: #180c0d;
      }

      .cls-60 {
        fill: #37211d;
      }

      .cls-61 {
        fill: #361615;
      }

      .cls-62 {
        fill: #341c1b;
      }

      .cls-63 {
        fill: #351616;
      }

      .cls-64 {
        fill: #412320;
      }

      .cls-65 {
        fill: #3a1816;
      }

      .cls-66 {
        fill: #401211;
      }

      .cls-67 {
        fill: #46393a;
      }

      .cls-68 {
        fill: #2f1412;
      }

      .cls-69 {
        fill: #462015;
      }

      .cls-70 {
        fill: #2b1111;
      }

      .cls-71 {
        fill: #170b0b;
      }

      .cls-72 {
        fill: #1f0b0c;
      }

      .cls-73 {
        fill: #472c2a;
      }

      .cls-74 {
        fill: #1b0b0a;
      }

      .cls-75 {
        fill: #341818;
      }

      .cls-76 {
        fill: #351b1a;
      }

      .cls-77 {
        fill: #512723;
      }

      .cls-78 {
        fill: #402b27;
      }

      .cls-79 {
        fill: #391b18;
      }

      .cls-80 {
        fill: #472a24;
      }

      .cls-81 {
        fill: #391e1c;
      }

      .cls-128 {
        clip-path: url(#clippath);
      }

      .cls-82 {
        fill: #0d0707;
      }

      .cls-83 {
        fill: #351a18;
      }

      .cls-84 {
        fill: #090606;
      }

      .cls-85 {
        fill: #220d0d;
      }

      .cls-86 {
        fill: #241513;
      }

      .cls-87 {
        fill: #3c2722;
      }

      .cls-88 {
        fill: #191718;
      }

      .cls-89 {
        fill: #13090a;
      }

      .cls-90 {
        fill: #31211e;
      }

      .cls-91 {
        fill: #371d1d;
      }

      .cls-92 {
        fill: #4f3a37;
      }

      .cls-93 {
        fill: #431110;
      }

      .cls-94 {
        fill: #3f1717;
      }

      .cls-95 {
        fill: #230e0e;
      }

      .cls-96 {
        fill: #511311;
      }

      .cls-97 {
        fill: #141415;
      }

      .cls-98 {
        fill: #1d1416;
      }

      .cls-99 {
        fill: #301615;
      }

      .cls-100 {
        fill: #1f1413;
      }

      .cls-101 {
        fill: #4f302c;
      }

      .cls-102 {
        fill: #341414;
      }

      .cls-103 {
        fill: #4c2b29;
      }

      .cls-104 {
        fill: #220f0f;
      }

      .cls-105 {
        fill: #341c18;
      }

      .cls-106 {
        fill: #3b1413;
      }

      .cls-107 {
        fill: #332c24;
      }

      .cls-108 {
        fill: #260f0e;
      }

      .cls-109 {
        fill: #240f10;
      }

      .cls-110 {
        fill: #432d2b;
      }

      .cls-111 {
        fill: #28110e;
      }

      .cls-112 {
        fill: #422c2b;
      }

      .cls-113 {
        fill: #2e1415;
      }

      .cls-114 {
        fill: #26100f;
      }

      .cls-115 {
        fill: #bd9a92;
      }

      .cls-116 {
        fill: #523331;
      }

      .cls-117 {
        fill: #4e2a28;
      }

      .cls-118 {
        fill: #95807f;
      }

      .cls-119 {
        fill: #250d0e;
      }

      .cls-120 {
        fill: #311c18;
      }

      .cls-121 {
        fill: #392220;
      }

      .cls-122 {
        fill: #814c45;
      }

      .cls-123 {
        fill: #160809;
      }

      .cls-124 {
        fill: #3d221f;
      }

      .cls-125 {
        fill: #270f0e;
      }

      .cls-126 {
        fill: #331510;
      }

      .cls-127 {
        fill: #582c29;
      }
    </style>
    <clipPath id="clippath">
      <rect class="cls-47" width="187.83" height="251.91"/>
    </clipPath>
  </defs>
  <g id="Warstwa_1-2" data-name="Warstwa 1">
    <g class="cls-128">
      <g>
        <path class="cls-108" d="M22.95,86.31c1.18-.39,2.35-.28,3.51.04,1.55.82,3.36-.23,4.9.65,3.23-.11,5.27-3.03,8.33-3.55,3.65-2.11,7.42-3.42,11.62-1.63,2.01,1.68,4.28,1.58,6.81,1.7,6.37.3,10.15-3.55,14.38-7.26,2.38-2.09,5.86-2.64,8.69-4.21,2.56,1.7,4.84,4,8.4,3.31.97-.19,2.14.17,3.01.73,5.93,3.76,12.12,7.18,16.94,12.46.75.83,1.75,1.65,1.13,3.03-1.64,2.07-.67,4.13.42,5.85,3.27,5.14,4.08,10.79,4.06,16.71-.02,5.3,1.37,6.66,6.55,8.56,2.97,1.09,2.61,3.95,2.01,6.54-2.4,2.65-1.5,5.99-1.71,9.02-.28,4.22,1.55,8.44.15,12.71-.11.33.28.86.96,1.36-.34-4.64.68-9.13-.84-13.51-.28-.81-.22-1.63.71-2.09,2.54.62,2.74,2.72,2.58,4.67-.36,4.43.87,8.73.76,13.12-.03,1.25.83,2.14,1.49,3.08,1.13,1.61,1.61,3.33,1.02,5.26-.16,1.72.95,3.1,1.24,4.69.27,1.45.87,3-.92,3.98-2.49-2.52-3.87-5.83-6-8.61.57-.79.41-1.37-.26-2.11-1.4-1.57-2.79-3.14-4.31-4.59-.92-.89-2.2-1.88-1.89-3.2.7-2.99-1-4.24-3.19-5.44-1.48-.81-2.43-2.23-3.04-3.76-1.77-4.44-4.11-8.68-4.76-13.51-.27-2-1.14-3.79-1.91-5.63-.36-.85-.93-1.91.03-2.56,1.13-.77,1.85.22,2.39.94.52-4.16.75-8.43.13-12.73-.32-2.21-.06-5.03-2.58-5.6-2.86-.65-6.09-.76-8.4,2.01-1,1.19-1.56,3.01-3.63,2.87-.33-3.83,2.4-5.87,4.74-8.15.72-.4,1.54-.5,2.3-.79,2.3-.9,3.67-2.27,3.06-5.04-.34-1.57-.27-3.23-.64-5.17-1.77,1.2-2.19,3.05-3.13,4.54-.5.79-.71,2.98-2.54,1.18-.34-2.37,1.05-4.72.1-7.1-.33-1.04.28-2.07,0-3.34-2.24.18-4.25,1.61-6.65,1.2-1.25-.21-1.05,1.17-1.09,2.11-.13,3.39-1.38,4.27-4.34,2.73-2.18-1.13-5-1.73-5.49-4.86.38-1.4,1.56-1.73,2.73-2.1,1.05-.65,2.8.27,3.36-1.49,2.54-1.65,5.54-.04,8.13-1.17.64-1.33-.4-1.53-1.24-1.85-2.15-.83-4.24-.36-6.3.36-.45.12-1.06.07-1.32.36-2.27,2.54-5.22,3.51-8.47,3.83-2.31.51-4.49,1.34-6.4,2.77-1.74,1.02-3.67.97-5.58,1.01-1.56.43-3.36.16-4.58,1.58-.37.55-.66,1.18-1.48,1.15-1.1-.63-2.1-1.4-3.55-.89-4.71,1.69-9.41.76-14.1-.18-.71-.24-1.44-1.02-2.14-.04-2.1,2.97-5.1,2.73-8.14,2.38-.49-.12-.93-.33-1.32-.63-1.24-1.2-3.01-1.72-4.1-3.11-.19-.25-.35-.52-.49-.8-.22-.58-.5-1.17-.09-1.78Z"/>
        <path class="cls-1" d="M117.71,317.52c-.05,1.47-.07,2.95.67,4.3-1.12-.12-2.06-.58-2.82-1.41-.21-1.25-.47-2.43-1.05-3.63-1.7-3.46-3.01-6.69-.71-10.87,1.61-2.91-.34-6.68-1.73-9.71-2.13-4.64-2.44-9.66-3.72-14.47-.22-3.65.67-7.21.93-10.82.14-1.9.94-3.69,2.8-4.6,1.51-.73,2.14-1.91,1.81-3.41-.9-4.03.28-7.93.68-11.85.37-3.6.7-7.21,1.13-10.81.3-2.52-.58-5.37,2.73-6.96.9-.43.8-2.74.6-4.25.09.83.02,1.86-.85,1.98-1.02.14-1.12-.98-1.26-1.76-.3-1.72.01-3.5-.66-5.31-1.56,2.78-2.2,5.81-2.67,8.95-.33,2.25-.47,4.81-3.49,5.39-1.61-3.38-.72-7.02.17-10.11,2.04-7.1,3.28-14.51,6.94-21.13-2.43,2-3.01,5.75-6.54,6.59-1.08-1.4-.36-2.57.47-3.73.61-.63,1.36-1.2,1.09-2.27-.09-.61-.08-1.21,0-1.81.26-1.04-.18-2.22.62-3.16,1.35-1.02,1.56-2.78,2.62-4,.93-1.07,1.97-2.47,3.37-1.9,1.66.67,2.33-.33,3.31-1.03,1.43.59,2.78-.58,4.21-.17,2.13,1.56,2.04,3.66,1.69,5.98-.7,4.72-1.72,9.41-1.66,14.22.01,1.17.03,2.34.42,3.47.19,1.01.2,2.02-.05,3.02-.33,1.11-1.04,2.09-1.01,3.33.15,7.11-.84,14.28.97,21.31.26,4.04.74,8.1-.35,12.28-.14.25.56.05.14-.15-.18-.08-.1-.17-.02-.36.09-.21.07-.59.25-.62,1.83-.29,1.44,1.17,1.67,2.15-2.19,6.08-3.19,12.52-5.45,18.59-1.61,4.32-1.91,9.18-5.59,12.64-.93.87-.23,6.52.54,7.42.97,1.12,2.17-.44,2.9.14,2.52,2.03,4.62.56,6.82-.52,1.22,2.27-.04,4.22-1.69,4.99-6.13,2.84-7.48,8.21-8.21,14.07Z"/>
        <path class="cls-56" d="M123.32,129.17c.1-1.53-.14-3-.6-4.47-.26-.84-.28-1.29-1.48-1.32-4-.09-6.9-3.39-7.06-7.54-.1-2.67-.17-5.34-.29-8-.21-4.97-3.6-8.52-4.87-12.95-.47-1.65-1.41-3.6,1.67-3.69,1.88.45,3.63,1.28,5.47,1.87,2.19.71,3.69,2.16,4.29,4.45.87,1.2,1.15,2.66,1.07,4.01-.3,4.73,2.22,8.38,4.07,12.41,4.61,10.05,9.17,20.18,9.95,31.46.14,2.06.73,3.83,1.99,5.47,1.21,1.57,2.12,3.39,3.41,4.88,5.36,6.18,6.96,13.29,5.46,21.21-.31,9.91-.8,19.81.18,29.73.57,5.8.29,11.69,1.95,17.38.27.91-.13,1.86-.56,2.7-.97,1.89-.83,3.77,0,5.66l-.02-.03c-1.42,1.5-1.77,1.5-3.39.31-2.98-2.19-2.4-5.63-3-8.63-.2-.98.1-2.04-.07-3.54.11,1.29.11,2.09-.35,2.83-1.12,1.02-2.25,1.31-3.38.02-.38-.69-.41-1.43-.29-2.19,2.22-6.18,2.15-12.78,3.37-19.14,1.78-7.3,2-14.73,1.91-22.15-.01.04-.27.01-.27.01,0,0-.05.25-.04.29-.22,1.55.64,3.94-1.24,4.26-1.71.29-2.11-2.14-2.74-3.56-.7-1.59-.9-3.35-1.57-4.97-.37-.89-.27-1.92.48-2.61,2.59-2.36,1.31-4.55-.2-6.75-1.84-2-4.03.62-5.94-.46-1.1-.77-1.56-2.18-2.77-2.86-.08-.12-.16-.25-.24-.37.42-2.4-.47-4.29-2.08-6.03-.91-.98-.53-2.62-.82-3.58-1.65-5.4,1.04-11.27-2.01-16.39-.54-2.57-1.13-5.15,0-7.73Z"/>
        <path class="cls-38" d="M72.78,270.42c-.62.97-1.24,1.94-1.85,2.91-2.46,2.03-3.27,5.01-4.38,7.79-.49,1.22-.92,2.56-2.13,3.08-3.56,1.51-5.93,4.43-8.66,6.95-.9.83-1.96,2.11-3.28.99-1.16-.99-.44-2.38,0-3.58.28-.77.77-1.43,1.24-2.1,1.48-2.1,2.41-4.03.5-6.61-1.1-1.5-.94-3.79-1.7-5.63-.3-1.75.19-3.42,1.44-4.5,2.13-1.84,2.04-3.96,1.4-6.31,2.34-4.54,5.33-8.69,7.98-13.05.94-1.56,2.4-2.83,3.3-4.5.42-.77.82-1.78,2.07-1.45.78.9,1.53.92,2.29-.06.94-1.2,1.88-2.4,2.35-3.88.75-2.36,2.12-4.19,4.52-5,1.85-.63,2.45-1.94,2.52-3.75.11-3,1.48-5.62,2.61-8.31,1.02-2.44,3.15-2.81,5.24-2.44,1.97.35,1.48,2.36,1.57,3.81.08,1.16.27,2.63-.55,3.38-2.85,2.6-2.53,6-2.75,9.41,2.6,0,4.68-3.29,7.49-1.31,1.45,1.02,2.63,2.35,2.28,4.4-.5.79-1.29.63-1.84.3-3.09-1.87-4.53-.03-6.1,2.34-4.32,6.49-8.92,12.77-11.29,20.39-.77,2.48-2.89,4.45-4.25,6.76Z"/>
        <path class="cls-59" d="M117.71,317.52c-.86-6.9.89-10.59,6.75-13.92,2.02-1.15,3.06-2.76,3.07-5.06-1.61-2.35-1.94-5.09-1.51-7.7.77-4.57,1.28-9.24,3.28-13.51.67-1.44,1.01-2.83.5-4.37-.19-.7-.31-1.41-.41-2.13-.13-.71-.2-1.42-.02-2.14.79-3.32-.24-6.63-.07-9.96.06-1.13-.42-2.29.16-3.4.42-1.31,2.24-1.43,2.45-2.93-.04-.31-.03-.6.02-.9,1.02-2.12,2.39-1.31,3.67-.36,1.29.96,2.23,2.27,3,3.8.28-2.42,1.49-2.06,2.84-1.34.23.22.44.47.61.74.18.4.21.85.46,1.22.18.43.47,0,.36-.06-.9-.41-.62-1.55-1.2-2.21-.31-1.32-.79-2.61-.78-3.99.12-.74.33-1.4,1.21-1.54.71.29,1.08.9,1.44,1.52,1.4,2.84,2.66,5.54,5.06,8.01,3.14,3.23,3.89,8.24,5.26,12.65-.01.68-.28,1.27-.63,1.83-.88.98-.26,1.93.07,2.88.25.74.5,1.48.7,2.23.3.91-.55,1.88.13,2.77.76,3.87,1.53,7.74,2.29,11.61-7.43-9.28-10.33-20.81-16.05-31.3-1.67,3.17-1.99,6.51-2.78,9.66-1.97,7.83-3.73,15.72-6.62,23.28-2.07,1.63-.64,4-1.25,5.94.4,1.63,1.75.87,2.71,1.07.79,1.84,2.4,2.36,4.18,2.62,1.37.21,2.76.39,4.05.95.6,1.42,2.57,1.25,3.15,2.71-.11.05-.23.07-.32.14-1.48,1.26-4.29-.38-4.98,1.65-.7,2.05,2.41,2.06,3.12,3.63.29.63.89,1.25.27,1.86-.72.71-1.27-.07-1.71-.52-1.2-1.23-2.75-1.76-4.32-2.11-1.88-.42-3.24-1.18-4.49-2.84-2.41-3.2-8.37-1.88-10.16,2-1.16,2.51-2.36,5-3.54,7.5Z"/>
        <path class="cls-84" d="M95.95,240.92c-1.7-5.07-2.5-5.42-7.13-3.11-.73.37-1.46.74-2.21,1.08-.5.23-1.05.69-1.57.09-.45-.52-.23-1.13.07-1.63.98-1.61,1.17-3.21.43-5-.38-.91-.07-1.98.9-2.42,2.56-1.16,2.68-3.32,2.46-5.62-.09-.95.5-2.7-.79-2.61-1.35.1-3.41-.62-4.17,1.58-1.14,3.27-3.09,6.29-2.75,9.98.15,1.67-.61,2.52-2.36,2.8-2.57.41-4.18,2.07-4.59,4.65-.34,2.14-2.11,3.29-3.12,4.95-.41.69-1.32,1.32-2.09.98-.86-.37-.34-1.46-.46-2.22-1.05-1.2-.39-2.36.09-3.52.66-1.26,1.28-2.54,2.32-3.55,5.25-7.64,9.35-15.86,12.45-24.58.59-1.65,1.16-3.32,1.94-4.88,1.47-2.94,3.26-3.35,5.85-1.25,2.18,1.76,4,3.93,6.02,5.86,1.01.97,1.96,2.02,3.19,2.72,1.65.93,1.81,1.9,1.38,3.94-1.08,5.15-2.44,10.57,2.2,15.05,1.23,1.19,2.26,2.78,1.16,4.71-.34.22-.68.21-1.02-.02-2.45.93-4.91,1.85-7.36,2.78-.76.27-.94-.1-.85-.77Z"/>
        <path class="cls-39" d="M81.18,72.22c-.78.68-1.47,1.78-2.35,1.97-5.49,1.17-8.59,5.87-12.97,8.65-2.4,1.53-4.9.82-7.19,1.39-3.08.77-5.3.09-7.65-1.46,4.35-3.45,7.35-7.6,7.02-13.49.5-3.08,1.04-6.15,2.67-8.89.66-1.62,1.86-2.59,3.55-2.97,1.41-.37,1.66-3.82,4.07-1.54.27.58.33,1.21.4,1.83.08.29.06.83.38.78.67-.11.54-.81.67-1.31.08-.78.06-1.57.11-2.35.02-.33.07-.66.15-.99.22-.83.56-1.61.84-2.41.49-1.12.53-2.58,2.14-2.85.74.13,1.61.13,1.23,1.31-1.3,2.86-2,5.87-2.2,9-.58,1.55-.1,2.02,1.44,1.42.63-1.39,1.72-1.03,2.8-.72.76-.33,1.57-.49,2.38-.37,1.95.29,2.94-.58,3.62-2.39.7-1.84,1.8-3.55,3.44-4.75,1.65-1.21,2.57-.88,3.19.97-4.26,5.11-5.53,11.51-7.62,17.56.25.56.4,1.11-.12,1.62Z"/>
        <path class="cls-33" d="M44.67,193.12c-.39-6.96-.73-13.92-1.19-20.87-.17-2.65-.58-5.29-.89-7.94.51-1.18,1.16-2.63,1.99-.3,1.13,3.16,2.02,6.41,2.23,9.49.08-2.55-.85-5.2-1.63-7.87-.33-1.15-.84-2.38.22-3.22,1.18-.94,2.06.42,3.27.93-.49-2.84.06-5.55.21-8.27.46-1.49,1.31-1.78,2.42-.68.98.97,1.47,2.23,1.66,3.6,2.17,9.94,1.33,19.88.1,29.84-.49,3.98.23,8.02,1.23,11.79,1.46,5.5,2.38,11.18,4.65,16.47.3,2.31-.44,4.86-2.56,5.05-2.6.24-2.41-2.87-3.13-4.72-.68-2.63-.23-5.61-2.39-7.8-.07-.85-.05-1.7-.08-2.56-.73-2.77.46-6.27-3.03-8.03-.25-.13-.35-.65-.28-.96.53-2.38-1.06-3.22-2.81-3.95Z"/>
        <path class="cls-91" d="M104.17,238.91c.3-.07.6-.14.9-.21,1.49.11,1.28,1.28,1.4,2.25.06,3.01-.59,5.98-.3,9-.31-3.28.41-6.5.36-9.76.06-.64.25-1.2.87-1.52,1.99,1.07,1.37,3,1.49,4.66.1,1.39.05,2.8,0,4.19.09,8.77-.31,17.54.05,26.3.06,1.34-.51,2.5-.73,3.76-.26,1.49-.48,3.05,1.07,4.1,1.2,4.61,1.41,9.44,3.62,13.85,1.49,2.99,2,6.42,2.44,9.77.06.42-.05,1.03-.33,1.3-3.92,3.8-.9,7.3.78,10.52.81,1.55.42,2.23-.23,3.29-6.09-3.29-9.28-8.92-11.82-14.99-1.32-3.16-2.05-6.44-.06-9.68,2.24.36,2.34.44,2.41,3.32.1,3.92,1.3,7.48,3.28,10.82-.1-1.6-.97-2.99-1.29-4.51-.4-1.95-.83-4,1.63-5.07,1.64,0,1.84,1.55,2.71,2.52-.3-2.56-1.97-4.57-2.38-7-.18-3.12-.99-6.06-2.58-9.13-1.24,1.43-.78,2.9-.71,4.28.32,1.61,2.13,1.69,2.92,2.83.32.64.26,1.33.3,2,.02.24.05.47.06.7.05,1.26.45,2.94-1.03,3.35-1.48.41-2.29-1.21-2.54-2.37-.35-1.66-2.52-2.2-2.23-4.1,1.03-17.34.57-34.71.89-52.06.02-.99-.06-1.85-.99-2.41Z"/>
        <path class="cls-89" d="M152.79,271.89c.03-.59.14-1.14.72-1.46.7-3.99-2.2-6.91-3.09-10.44-.33-1.32-1.25-2.48-1.81-3.76-.23-1.03-.53-2.03-1.22-2.86-.67-.9-.44-2.06-.88-3.03-.75-3.2-2.67-5.92-3.62-9.03-.16-1.54-1.94-2.87-.63-4.61.3-.17.61-.21.95-.12,1.48.72,1.78,2.26,2.45,3.54,1.68,2.44,4.1,4.5,4.04,7.84.31.97.36,2.07,1.53,2.78-.02-2.85-2.63-5.08-1.58-7.98.89-1.01,1.54-.29,1.88.43,2.24,4.75,4.27,9.63,8.76,12.86.32.23.52.81,0,1.2-.07.05-.19.06-.28.05-.11-.02-.22-.09-.32-.13-1.36,2.22.15,4.29.53,6.32.74,3.96,2.08,7.81,3.07,11.73.3,1.17,1.2,2.84-.21,3.5-1.43.66-1.99-1.09-2.65-2.12-.24-.37-.49-.73-1.11-1.64-.49,4.3,2.11,7.75.96,12.12-2.62-2.91-3.66-6.12-5.43-8.85-.76-.42-.9-1.22-1.17-1.94-.3-.89-.57-1.79-1.14-2.56,0-.62-.25-1.28.28-1.81Z"/>
        <path class="cls-114" d="M43.31,246.51c-1.33-.73-.65-1.77-.38-2.71,1.28-4.42,1.04-8.82-1.1-12.82-1.56-2.92-1.34-5.73-.77-8.67.45-2.27.96-4.54,1.57-6.78,1.69-6.19,2.59-12.46,2.1-18.89.47-.42.2-1.58,1.22-1.39,1.1.21,1.46,1.12,1.42,2.12-.09,2.42-.68,4.81-.53,7.15.47-.49-.13-1.18.06-1.82.22-.72.49-1.35,1.33-1.4.77-.05,1.35.4,1.69,1.04.62,1.17.63,2.46.66,3.76.07,3.01-.38,6.08,1.36,8.88.63,1.02.09,2.03-.69,2.84-.37,2.47.42,4.41,2.56,5.77.29.19.54.42.77.68.72,1.35,1.15,2.65-.55,3.63-1.68.11-2.36-1.29-3.34-2.25-1.12-1.09-1.74-1.58-3.22.12-2.38,2.73-2.66,5.38-1.96,8.72.88,4.21.23,8.34-2.19,12.04Z"/>
        <path class="cls-100" d="M41.18,141.06c1.3-5.77-3.18-9.03-5.69-13.15-.73-.92-2.08-1.14-2.61-2.3-.18-.73-.36-1.23-1.37-.85-1.11.41-1.79.95-1.67,2.21-.88.53-1.43-.08-2.01-.59-2.32-.06-3.68-1.68-5.13-3.14-.05-.05-.22-.05-.29,0-.09.06-.13.19-.19.29-.23.26-.48.26-.73.02,0-2.08.01-4.17.02-6.25-.15-.17-.22-.35-.2-.55.02-.2.05-.3.09-.3.62-.35,1.19-.12,1.76.14.27.14.52.31.76.48,1.84,1,2.43-1.4,3.89-1.44.76.37,1.32.92,1.65,1.7-.09,1.2-1.17,1.58-1.96,2.3,2.48-.22,4-2.19,6.06-3.08.85-.18,1.57-.73,2.41-.95.63.51,1.13-.06,1.68-.21.98-.15,1.85-1.03,2.93-.43,1.97,1.23,2.95-.55,4.14-1.46,1.28-.99,2.22-2.41,3.76-3.07.84-.36,1.89-.88,2.58-.03.76.94-.09,1.72-.77,2.37-3.23,3.07-6.84,5.62-10.85,7.54-3.52,1.69-3.56,1.71-1.07,4.65.78.92,1.59,1.68,2.77,1.99,3.17,4.86,4.24,10.25,3.98,15.97-1.21.6-2.47.66-3.71.17-1.24-.49-1.22-1.23-.23-2.04Z"/>
        <path class="cls-109" d="M88.92,53.05c-1.07-2.43-2.4-.73-3.21.03-1.08,1.01-2.32,2.35-2.54,3.71-.81,5.01-4.05,3.25-6.88,2.8,3.34-8.94,10.38-15.2,17.48-20.51,5.19-3.88,12.58-5.39,19.67-3.25-1.82,1.99-4.26.3-6.28,1.05-8.22,2.97-13.79,8.93-18.23,16.17Z"/>
        <path class="cls-98" d="M81.18,72.22c.04-.54.08-1.08.12-1.62,3.6,2.79,7.36,4.9,12.23,3.87,2.27-.48,4.63-.57,6.95-.78,6.1-.55,9.86,3.87,14.29,6.85.16.11.02.66.02.94-5.11-1.27-9.73-5.24-15.48-2.61.08.47.06.82.16.86,5.39,2.13,9.53,6.31,14.67,8.86,3.63,1.81,6.03,4.68,6.32,8.94-1.51-2.34-3.67-3.7-6.39-4.23-1.38-.27-2.68-.71-3.38-2.09-2.93-3.21-5.64-6.36-9.86-8.42-2.95-1.45-5.44-4.42-8.62-6.07-1.03-.54-2.1-1.33-3.27-.83-4.05,1.76-5.74-1.26-7.76-3.68Z"/>
        <path class="cls-45" d="M43.31,246.51c.45-1.79,1.12-3.57,1.31-5.39.28-2.67.86-5.37-.1-8.05-.99-2.78-.88-5.3,1.98-6.98,1.34-.79.33-2.11.71-3.09,3.45-.18,4.34,3.18,6.62,4.56.75.78.67,1.71.38,2.6-1.95,6.04-3.8,12.13-6.08,18.06-.17.44-.5.77-.86,1.07-.34.23-.69.24-1.04.02-.98-.93-1.95-1.86-2.93-2.79Z"/>
        <path class="cls-97" d="M95.95,240.92c.28.26.57.51.85.77-8.59,8.05-15.09,17.85-22.43,26.94-.5.62-1.06,1.19-1.59,1.79,4.58-10.52,9.36-20.94,16.48-30.07,2.55-3.27,4.49.06,6.69.57Z"/>
        <path class="cls-65" d="M41.18,141.06c-.29.86-.34,1.53.91,1.48,1.11-.05,2.22-.01,3.33-.01.95.64,1.29,1.52,1.01,2.63-.74,1.01-.75,2.01-.17,3.16.85,1.68.88,3.48.37,5.29-.29.59-.68,1.1-1.17,1.54-1.51.18-1.97-1.44-3.14-1.85-.99-.96-.68-2.09-.44-3.21.26-1.64-.54-3.23-.26-4.87-.36,1.49.43,2.9.27,4.37-.91,3.11,1.44,5.67,1.45,8.63-.02-.21-.3-.5-.2-.54.42-.2-.24.03,0-.38.69-.85,1.57-1.49,2.39-2.19.57-.07.82.24.91.75.05.26-.06.43-.24.59.27,0,.32-.16.29-.47-.04-.45-.12-.92.08-1.36.89-.62,1.14.09,1.5.7.54.91.47-.29.79-.26.29-.15.55-.1.77.12.11,3.4-.84,6.81.56,10.17-2.42.28-2.35-2.88-4.85-2.5,1.11,4.72,3.26,9.36,1.5,14.37-.97-3.2-1.01-6.6-2.06-9.78-.36-1.09-.36-2.31-.8-3.36-.54-1.29-.87.31-1.37.24-1.39-6.78-2.74-13.57-4.19-20.34-.53-2.48,1.22-2.55,2.77-2.92Z"/>
        <path class="cls-104" d="M159.67,257.15c-2.87-2.91-5.34-6.07-7.23-9.75-.75-1.46-.39-3.64-2.44-4.38-.32.13-.63.11-.92-.08-1.33-1.35-2.27-3.05-2.85-4.74-.97-2.82-2.73-3.77-5.49-3.42-1.11-.7-1.42-1.85-1.69-3.01.33-2.87,1.02-5.67,1.83-8.44-.04-1.8-.04-3.59,1.6-5.07-.75,3.44.15,6.72.5,10.05.33,3.07,2.43,4.84,4.99,4.11,3.28,4.54,5.74,9.54,8.25,14.52,1.59,3.16,3.65,5.94,6.2,8.39.68.65,2.27.96,1.61,2.3-.66,1.34-1.82-.05-2.78.08-.49.07-1.05-.35-1.58-.55Z"/>
        <path class="cls-88" d="M147.98,232.45c-1.3-2.2-2.84-3.9-.51-6.93,1.54-2-1.15-5.15-1.21-8-.17-8.66-1.99-17.26-.67-26.01.54-3.55.12-7.23.22-10.86.03-1.24-.43-2.59.6-3.68.01,2.1.28,4.23,0,6.28-1.03,7.3,1.5,14.24,1.89,21.38.16,3.02.2,6.05.22,9.07.02,2.45-.09,4.9.71,7.27.84,2.53.55,4.96-.46,7.43-.51,1.23-1.21,2.57-.78,4.04Z"/>
        <path class="cls-61" d="M58.75,69.43c-.25,2.62.47,6.51-.95,7.59-2.37,1.8-2.87,5.95-6.77,5.76-2.49-1.85-5.14-.47-7.7-.3-1.22.08-2.42.63-3.63.97,3.29-2.34,6.48-4.85,9.91-6.96,2.81-1.73,5.26-3.49,5.47-7.12,1.23-.57,2.46-.62,3.67.06Z"/>
        <path class="cls-28" d="M49.62,217.72c1.05-.91,3.4-1.3.8-3.33-1.64-1.28-.63-3.51-.77-5.32-.12-1.62-.02-3.26-.04-4.89,0-.94-.03-2.18-1.15-2.21-1.44-.04-.75,1.36-.95,2.15-.09.32-.15.65-.3,1.3-1.66-2.58-1.24-5.04-.68-7.48.2-.85.39-1.69-.47-2.14-.24-.12-.88.53-1.34.83-.28-1.17-.35-2.34-.07-3.51,3.24-1.28,3.97.23,3.58,3.15-.12.87-.52,2.16,1.41,1.63.74-.2,1.46.74,1.34,1.7-.27,2.14.6,4.13.71,6.21-.68.92-.96,1.83,0,2.75,1.4,2.4,2.4,4.9,2.13,7.76.43,1.91.58,3.9,2.11,5.4.64.63.67,1.54.08,2.24-.63.76-1.44.6-2.19.08h0c-1.85-1.81-2.22-4.61-4.21-6.32Z"/>
        <path class="cls-44" d="M67.06,48.32c2.79-5.37,5.24-10.96,8.48-16.05,2.81-4.42,7.24-7.51,11.19-10.95.86,2.06-1.11,2.85-1.96,4-3.4,4.6-6.03,9.55-7.88,14.97-.52,1.54-.87,3.53-3.26,3.41-1.77-1.95-.57-3.6.43-5.17-.9,1.07-1.45,2.38-1.52,3.96-.12,2.85-2.36,5.15-5.49,5.83Z"/>
        <path class="cls-75" d="M23.65,117.22c-.24,0-.48,0-.72-.01-.14-.18-.24-.38-.37-.57-.32-.46-.47-1.01-.8-1.46.22.49.23.95-.21,1.34-.01.26-.02.52-.03.78-.69-.15-.78-.67-.77-1.25-.38-1.1-.46-2.17.36-3.14.15-.26.31-.51.48-.76.25-.35.56-.64.93-.86.49-.37.44-.84.21-1.34-.29-.52-.74-.94-.95-1.51-.21-.66-.18-1.32-.05-1.98.38-1.15.25-2.46,1.07-3.47,4.28-1.36,5.08-.92,5.63,3.32.18,1.35,1.2,2.57.55,4.23.98-.53,1.6-1.73,2.81-1.19.74.33.89,1.03.87,1.75-.05,1.33-.8,2.35-2.04,2.48-2.84.31-4.71,2.31-6.97,3.64Z"/>
        <path class="cls-27" d="M73.49,43.43c2.05-.34,2.33-2.26,2.78-3.64,2.24-6.89,6.24-12.74,10.46-18.47.66-.96,1.47-1.72,2.68-1.91.74-.3.96.04.89.73-4.71,4.82-8.58,10.26-11.2,16.48-1.83,4.34-3.25,8.84-4.86,13.27-.29-.63-.83-.82-1.47-.84-.68-1.35.54-2.81-.23-4.16-.03-.7.23-1.23.93-1.46Z"/>
        <path class="cls-70" d="M73.49,43.43c-.23.47-.47.94-.7,1.4-1.76,3.71-4.59,6.66-6.96,9.94-.63.8-1.01,1.7-1.04,2.74-.05.28-.18.53-.37.74-1.06.53-2.45.6-2.86,2.05-1.18.36-1.09,1.74-1.92,2.38-.47.36-.99.73-1.56.35-.64-.43-.21-1.04-.12-1.59.29-1.53,1.07-2.81,1.99-4.03,2.25-1.94,4.1-4.17,5.1-7.02.43-.93,1.17-1.56,2.02-2.08,2.05-1.96,5.15-2.97,4.8-6.9-.14-1.58,1.36-3.3,3.12-4.9.22,2.73-2.34,4.52-1.5,6.92Z"/>
        <path class="cls-124" d="M46.24,249.31c.18-.05.37-.08.56-.08,1.93.39,1.59,1.97,1.17,3.01-1.52,3.72-1.99,7.64-2.65,11.54-.34,1.99-1.78,3.52-2.71,5.25-1.62,1.07-2.61,2.26-2.48,4.53.11,1.85-.43,4.09-3.3,3.84,3.34-8.01,6.25-16.17,8.87-24.44.38-1.19,1.12-2.32.54-3.65Z"/>
        <path class="cls-46" d="M17.84,98.31c-.79-2.57-2.84-4.94-1.25-7.89,2.26,2.61,3.76-.43,5.62-.75,1.29,1.56.06,2.78-.46,4.16-.31.84-1.91,1.44-.61,2.66.28.09.49.26.66.5.28,1.24,1.41,1.81,2.12,2.71.37,1.59-.82,1.92-1.88,2.36-.32.1-.64.15-.97.15-2.14-.41-1.67-3-3.23-3.9Z"/>
        <path class="cls-94" d="M57.96,61.44c.16,1.54.69,1.31,1.65.48.63-.55.31-2.32,1.95-1.62-1.52,2.87-1.99,6.05-2.81,9.14-1.23.37-2.45.29-3.67-.06.06-2.97,1.04-5.61,2.88-7.93Z"/>
        <path class="cls-34" d="M22.13,112.75c-.51,1.08-1.55,1.93-1.38,3.3-1.35-2.65-3.8-4.71-4.15-7.88-.36-1.24,1.63-1.25,1.3-2.47.22-1.33,0-2.77.93-3.92,1.22-.04,1.27.92,1.13,1.63-.38,1.86.25,3.6.35,5.4-.15,1.67.62,2.91,1.83,3.95Z"/>
        <path class="cls-121" d="M22.2,89.8c-.68.78-1.21,1.83-2.06,2.29-1.71.92-3.46,1.23-3.54-1.66,2.38-.97,4.4-2.49,6.36-4.11.22.49.43.99.65,1.48-.52.63-.47,1.66-1.41,2Z"/>
        <path class="cls-64" d="M19.54,109.72c-.24-2.65-.47-5.3-.71-7.95-.33-1.15-.66-2.3-.98-3.45,2.2.11,1.66,3.17,3.7,3.45.38.38.46.85.42,1.36-.43,2.04-1.05,4.08-.05,6.13,0,.52-.21.91-.69,1.14-.7.13-1.19-.27-1.68-.67Z"/>
        <path class="cls-94" d="M65.04,50.39c.2,3.72-1.92,5.76-5.1,7.02,1.02-2.84,2.54-5.31,5.1-7.02Z"/>
        <path class="cls-5" d="M107.15,36.88c1.89-1.6,4.37.39,6.28-1.05,1.44.22,2.87.45,4.31.67-3.54.98-7.07.3-10.6.38Z"/>
        <path class="cls-67" d="M90.31,20.14c-.3-.24-.6-.49-.89-.73,1.57-.91,3.13-1.81,4.7-2.72-.73,1.85-2.24,2.69-3.81,3.45Z"/>
        <path class="cls-122" d="M17.89,105.69c.63,1.39-.11,2.05-1.3,2.47-.74-.53-.73-1.33-.77-2.12-.23-.73.09-.89.74-.72.15,1.21.65,1.12,1.33.36Z"/>
        <path class="cls-121" d="M31.37,87c-1.64-.17-3.4.57-4.9-.65,1.65.08,3.38-.43,4.9.65Z"/>
        <path class="cls-27" d="M73.49,60.31c-.48.62-1.09.95-1.72.33-.62-.61-.32-1.24.28-1.75.03.93,0,1.92,1.44,1.42Z"/>
        <path class="cls-115" d="M16.56,105.33c-.25.24-.49.48-.74.72-.49-.68-.78-1.41-.37-2.52.64.52,1.1.98,1.11,1.8Z"/>
        <path class="cls-56" d="M91.73,109.49c2.56-1.36,3.06-4.73,6.29-5.72,5.92-1.8,8.63.25,9.3,6.42.56,5.12-.47,10.12-.04,15.27-2.4.3-.77-3.25-3.23-2.96,2.73,7.17,3.93,14.81,7.48,21.66.88,1.7,2.26,2.86,4.05,3.67,1.9.87,3.55,2.07,1.87,4.53-.5.73-.14,1.32.38,1.86,2.52,2.61,5.05,5.21,7.61,7.85-.41.53-1.17.74-2,.82-1.86.57-2.46-1.09-3.48-2-.8-.71-1.13-2.07-2.6-1.77-1.76,1.81-2.58,3.58-.24,5.64.72.63,1.36,1.7.34,2.76-4.25.79-5.21.03-4.97-3.96.05-.81.12-1.63.06-2.44-.33-4.59-1.88-5.34-5.65-2.97-2.91,1.82-5.66,4.24-9.52,3.61-1.52-1.03-.92-2.47-.72-3.82,1.12-7.61,1.8-15.17,1.1-22.93-.36-3.95.66-8.12.7-12.11-.55,1.51-.46,3.31-1.12,4.91-.35.85-.6,1.98-1.7,1.98-1.12,0-1.27-1.19-1.61-2.02-.22-.54-.18-1.16-.3-1.35.56,3.67-2.53,7.88.54,11.73,1.9,2.99,1.64,6.17.82,9.39-.23.92-.54,2.02-1.64,1.96-.97-.05-.88-1.19-1.09-1.95-.27-.97-.67-1.91-.67-2.95.04,1.63.89,3.12.74,4.78-1.23,3.1-1.36,3.13-3.83.83,1.29,1.78,1.54,3.98,2.5,5.9.43.87.72,1.83-.1,2.58-.84.77-1.74.18-2.6-.15-1.39-.53-2.67-1.35-4.19-1.61-.46,1.12-.11,1.64,1.01,2.03,1.69.59,3.44.49,5.14.77,1.91.32,3.98.4,5.25,2.26.25.79.54,1.57,1.38,1.88,2.56.94,3.52,2.37,1.94,5.01-.72,1.21.37,2.15,1.15,3.01,2.05,2.26,3.34,4.89,3.88,7.9-.23.47-.59.8-1.09.97-.48.02-.99-.04-1.31-.37-3.92-4.08-8.67-7.01-13.4-10.01-2.45-1.55-2.19-2.45.57-3.84.88-.44,1.73-.98,1.58-2.05-.14-.97-1.17-1.04-1.94-1.21-2.37-.52-4.75-1-7.16-1.58.55,3.83.24,4.34-3.35,4.04-2.49-.21-4.22.76-5.9,2.38-1.04,1-1.61,2.68-3.43,2.7-.55-2.51-.94-4.95-3.7-6.39-1.55-.81-.97-2.38.49-3.28.87-.54,2.14-.61,2.61-1.56.79-1.59-.65-.8-1.21-.95-1.43-.12-2.52-.48-1.61-2.26,1.04-1.05,2.58-1.58,3.16-3.08.91-2.36,2.18-1.87,3.58-.47,1.67,2.13,2.59,4.64,3.86,7.01-2.67-8.67-6.22-17.11-7.33-26.22.04-3.02-2.29-5.23-2.76-8.11-.19-1.19-1.86-1.16-2.87-1.67-1.11-.55-2.88-.53-2.54-2.55,3.8-.2,7.64.06,11.24-1.65.86-.41,1.78.02,2.52.77,3.68,3.73,7.82,6.93,11.81,10.33.74,2.23.46,4.38-.48,6.48-1.2,1.38-1.82.09-2.43-.62-1.14-1.34-1.92-2.93-2.57-4.54-1.33-3.35-4.27-5.14-6.82-7.28-.92-.77-2.14-1.16-3.13-.05-1,1.12-.35,2.17.44,3.1,1.82,2.16,3.15,4.58,4.05,7.27.87,2.61,3.09,4.12,5.28,5.36,1.95,1.1,2.85-1.5,4.43-1.98,2.48-5.6,3.39-11.37,1.93-17.41-.18-.73-.66-1.2-1.4-1.39-4.41-3.63-4.42-5.12.12-8.28,1.31-.91,2.58-1.91,3.97-2.71.94.05,1.75.44,2.56.88Z"/>
        <path class="cls-7" d="M89.62,108.79c-1.17,2.15-3.63,2.67-5.31,4.2-1.82,1.66-2.64,3.04-.18,4.77.53.38.87,1.04,1.29,1.57,2.52,3.07,2.53,8.32,0,11.24-1.61.24-2.77-.65-3.53-1.83-2.24-3.47-6.85-4.35-8.75-8.21-.44-.9-1.5-.31-2.2.04-3.49,1.76-7.08,1.99-10.79.86-1.9,1.12-3.02-.46-4.28-1.32-3.68-2.5-4.27-2.47-7.33.78-1.11.94-2.32,1.72-3.63,2.35-1.3.56-2.69.61-4.07.67-1.55.69-.61,1.73-.37,2.67.02.16.03.32.04.47-1.6-.04-5.58-4.13-5.36-5.52.13-.86.88-1.12,1.51-1.27,5.78-1.4,9.84-5.44,14.38-9.15q-2.57-.08-4.46,1.77c-1.41,1.38-2.65,3.03-4.71,3.51-.98.23-2.03.32-1.36-1.3-2.17-1.79-.64-4.18-1-6.03-.65,2.07.91,4.95-1.79,6.73-.48.06-.96.78-1.43-.02-.51-3.9,1.36-7.75.17-10.92.15,3.77.98,8.43-2.27,12.34-2.8,1.2-4.92,4.12-8.72,3.34.85-1.77,2.84-1.99,3.81-3.33,1.67-2.59-1.87,0-1.39-1.41-.78,1.47-1.93,2.48-3.6,2.7-1.27.17-.8-.68-.63-1.31,1.58-2.17,2.96-4.61,6.27-4.26.42.04.94-.13,1.29-.39.85-.62,1.21-1.65.55-2.41-.86-.99-1.31.14-1.78.72-.34.42-.71.83-1.33,1.2.77-2.85-1.86-4.95-1.22-8.02.31-1.5-2.91-.5-4.49-.88-.2.22-.44.36-.74.42-.3-.01-.57-.1-.81-.27.05-.52.1-1.04.16-1.57,0,0,0,0,0,0,1.85-.52,3.7-1.06,5.65-.96,3.81-.36,5.27-1.43,6.09-4.91.76-3.24,2.92-4.98,5.82-6.08,4.58-.19,9.32,2.04,13.68-.16,2.59-1.3,3.62-.65,4.56,1.57,1.95,3.48-.2,6.48-1.03,9.42,2.32-3.17,2.03-7,1.73-10.82.19-.54-.08-1.91.54-1.51,1.61,1.04,2.42-.81,3.67-.6,2.8,1.43,5.42-.01,8.08-.55,3.41-.69,6.44-2.78,10.05-2.78.55.22.98.52.82,1.22-1.11.11-2.09.49-2.81,1.4-.87,1.75-2.38,2.79-3.97,3.79-2.52,1.58-2.55,2.94-.17,4.77,1.6,1.23,3.37,2.06,5.44,2.14.96.04,1.99.23,2.21,1.33.27,1.33-.88,1.74-1.81,2.2-3.32,1.65-6.29,1.73-10.08.31,4.43,2.18,5.18,2.6,9.33,1.21,4.48-1.5,8.37-1.32,11.95,1.9.71,1.89-.2,3.13-1.68,4.14Z"/>
        <path class="cls-52" d="M91.03,104.57c-.85.41-1.81.97-2.45-.17-1.65-2.93-4.1-2.19-6.42-1.36-4.16,1.48-8.25,1.64-12.36-.06-.6-.25-1.52-.3-1.41-1.23.06-.53.43-1.09.81-1.49.61-.65,1.17-.25,1.81.19,2.43,1.67,8.13,1.37,10.02-.47.21-.21.42-.6.36-.86-.11-.49-.55-.78-1.06-.66-3.14.74-5.33-1.24-7.54-2.82-2.25-1.6-2.06-4.24.44-5.24,2.02-.81,3.08-2.84,5.16-3.41,1.29,2.67,4.11,3.29,6.39,4.49,1.89.99,2.77.07,2.25-2.17-.62-2.64-.31-4.61,3.24-3.16,1.57.64,2.52-.94,3.83-1.21.96-.19,1.98-1.3,2.9-.29.82.91-.28,1.64-.63,2.45-.27.61-.29,1.33-.42,2,.77,3.13-1.03,5.92-1.19,8.93-.2,2.47-1.16,4.62-2.71,6.53-.33.25-.67.25-1.01,0Z"/>
        <path class="cls-55" d="M131.05,165.71c2.11.9,4.21-2.57,6.32,0,.31.56-.08.8-.46,1.05-.85.31-1.36,1.24-2.34,1.34-1.5.05-2.29.7-1.35,2.14,1.46,2.24,1.48,4.73,1.57,7.24.06.75.03,1.49.04,2.24-.36,6.88.48,13.71.71,20.56-.32,1.78.82,3.57-.05,5.35-.91.66-1.46.05-2.01-.57-.96-2.02-.3-4.29-1.01-6.35-.18-.79-.28-1.59-.28-2.39-.08-3.06,0-6.12.02-9.18.13-.97.33-1.93.13-2.91-.25-2.34-.42-4.7-1.11-6.97-.18-.66-.17-1.35-.17-1.44.77,2.6-.45,6.02,1.07,9.15-1.45,2.39-2.19.6-3.05-.52-.75-2.82-.24-5.7-.4-8.54.13-1.06-.51-1.95-.7-2.94.08-.71.36-1.29,1.03-1.63,1.54-1.92-.01-3.63-.34-5.44-.18-.99-1.7-1.8-.43-3,1.32.55,1.82,1.93,2.81,2.81Z"/>
        <path class="cls-20" d="M39.09,89.81c-2.1,2.43-5.14,3.9-5.41,8.01-.13,2.01-2.69,4.36-5.83,3.94-.2-.21-.4-.41-.61-.62-.67-.68-1.59-.62-2.43-.8-.47-.1-.84-.35-1.17-.69-1.37-.43-3.47-.31-2.07-2.8.87-.96,2.51-.82,3.02-2.43.28-.87,1.31-.6,2-.03.91.98,1.19,2.46,2.46,3.16,2.11-.41,1.39-2.45,1.97-3.68.28-.6-1.29-.29-1.87-.76-.46-.27-.81-.59-.59-1.2,2.93-.36,6.49,1.35,8.16-2.99.41-1.05,2.03-.74,2.36.89Z"/>
        <path class="cls-26" d="M123.32,129.17c-.02,2.58,1.37,5.15,0,7.73-1.8,1.57.75,2.27.72,3.57-.1,4.73-.04,9.46-.04,14.48-2.49-2.03-2.77-3.33-2.2-5.63.32-1.3.23-2.82-.08-4.15-1.04-4.38-.31-8.8-.44-13.19-.04-1.26.4-2.58,2.04-2.81Z"/>
        <path class="cls-63" d="M95.95,96.14c2.44-1.36,1.97-4.66,4.14-6.25.51-.37.69-1.35,1.54-1.09.87.27.59,1.15.62,1.81.13,2.26.24,4.5.76,6.73.48,2.04-1.56,2.58-2.69,3.57-1,.87-2.35.93-3.66.86-.06-.15-.12-.29-.18-.44.15-1.39,1.42-2.03,2.23-3.06-1.17-.56-2.01.65-3.02.28-.75-.31-.96-.91-.89-1.66.19-.54.47-.94,1.14-.76Z"/>
        <path class="cls-126" d="M80.51,84.89c-2.82.23-5.29,1.59-7.83,2.59-2.88,1.13-5.96.56-8.81,1.53-.91.31-1.51-.33-1.61-1.32,2.15.11,4.27,0,6.32-.7,1.93-1.33,4.46-1.29,6.31-2.81,2.88-1.03,6.23-1.11,8.16-4.11.18-.28,1.1-.08,1.67-.1.24.21.37.48.37.8-.2.96-.94,1.56-1.49,2.3-.65.67-1.45,1.08-2.33,1.35-.28.11-.53.27-.75.47Z"/>
        <path class="cls-107" d="M26.44,94.75c-.43-.09-.85-.18-1.28-.27.52,3.37-1.99,2.19-3.58,2.38,0,0-.07-.04-.07-.04-.49-3.13,1.38-5.65,2.2-8.43,1.38.95,2.76,1.89,4.14,2.84-.52,1.15-.27,2.62-1.42,3.52Z"/>
        <path class="cls-79" d="M58.04,89.82c2.89,5.08-.05,9.2-2.31,13.45-.73-4.18,2.37-7.87,1.61-12.05.02-.58.13-1.1.7-1.4Z"/>
        <path class="cls-52" d="M84.72,80.68c0-.23,0-.47,0-.7,1.88-1,3.78-1.23,5.92-.73,2.03.48,3.28,1.32,3.21,3.55-2.58.61-5.01-.29-7.5-.68-.76-.23-1.32-.68-1.62-1.43Z"/>
        <path class="cls-10" d="M91.03,104.57c.22,0,.45-.01.67-.02,1.69-.98,1.78-2.86,2.38-4.42.36-.94.48-1.83,1.79-1.41,1.12.79.01,2.15.77,3.03,0,0,.03.03.03.03-1.74,2.51-3.97,4.71-4.94,7.71-.91.41-1.94,1.13-2.11-.7.03-1.55,1.82-2.52,1.41-4.21Z"/>
        <path class="cls-66" d="M86.13,81.38c2.69-.18,5.07,1.32,7.71,1.41-1.84,1.42-3.97.39-5.94.69-1.3.2-2.76-.48-3.89.7-1.17.59-2.33.79-3.5.01.94-.47,1.87-.94,2.81-1.42.73-.88,2.01-.66,2.81-1.39Z"/>
        <path class="cls-15" d="M26.44,94.75c.05-1.34-.24-2.82,1.42-3.52.24.23.48.46.72.69.23.24.46.47.68.71.75,1.54,1.09,3.15.87,4.88-.15,1.15-.66,1.31-1.57.74-1.4-.75-1.85-2.07-2.13-3.5Z"/>
        <path class="cls-49" d="M23.71,88.38c-.2,2.95-1.23,5.69-2.2,8.43-.61.25-1.23.5-1.9.78-.74-3.13,3.13-4.76,2.59-7.81.11-.92.44-1.68,1.41-2,.02.2.06.4.11.59Z"/>
        <path class="cls-106" d="M95.95,96.14c-.23.24-.47.47-.7.71-.62.31-.03,1.84-1.4,1.41-.07-3.22,1.73-6.02,2.1-9.14,2.43.47.6,2.02.64,2.98.05,1.34-.4,2.69-.64,4.04Z"/>
        <path class="cls-69" d="M74.89,84.19c-1.32,2.69-4.03,2.27-6.31,2.81,1.54-2.21,3.95-2.45,6.31-2.81Z"/>
        <path class="cls-52" d="M80.51,84.19c1.17,0,2.33,0,3.5-.01-.48,1.38-1.86.96-2.8,1.41-.23-.23-.47-.47-.7-.7,0-.23,0-.47,0-.7Z"/>
        <path class="cls-82" d="M97.36,161.5c4.25-.88,7.91-2.87,11.11-5.78,1.48-1.35,2.62-.93,3.6.75,1.16,1.98,1.97,4.14,1.37,6.3-1.18,4.24,1.02,4.72,4.28,4.35.22-.11.53-.23.66-.11,3.21,3.2,7.78,4.54,10.84,7.95.17,2.91.05,5.82.06,8.74,0,.88.49,1.99-.6,2.52-1.14.54-2.07-.21-2.76-.98-1.8-2-3.58-3.82-6.32-4.69-2.38-.76-3.67-.66-5.03,1.79-2.38,4.27-2.51,4.66-.18,8.28,1.52,2.37,3.12,2.59,5.05.8,2.42-2.25,5.13-3.51,8.49-3.2.7.07,1.39.1,1.96.6.55.8.59,1.66.33,2.55-1.21,2.37-4.06,2.55-5.73,4.31-.53.54-1.09.87-1.8.27-1.32.35-1.45,2.69-3.92,1.59-1.8-.8-3.01,1.85-3.65,3.47-.5,1.26-.81,2.12-2.29,1.95-.1-.13-.2-.25-.29-.38-.31-1.98,1.56-3.43,1.31-5.4-.31-.44,2.37-1.06-.1-1.39-.56-.08-1.05-.49-1.52-.85-2.22-2.23-2.74-5.53-4.88-7.84.86,2.66,1.8,5.28,2.81,7.88,1.96,5.06,1.41,6.22-3.74,7.88-.52.14-1.04.22-1.57.26-1.5.07-2.96-.07-4.22-1.01-1.67-1.71-3.29-2.98-5.54-.64-1.13,1.17-2.78,1.03-4.3.71-1.91-.4-3.65-1.44-5.74-1.3-.99.07-1.55-.94-1.92-1.82-2.72-6.46-4.32-13.19-4.95-20.17.18-1.99-.39-3.9-.63-5.84-.08-1.18.02-2.37-.29-3.52-.22-1.5-.84-.94-1.51-.3-1.08,1.03-2.03,2.37-3.58,2.62-1.3.21-3.05,1.12-3.56-1.22,1.25-1.37,2.48-2.77,3.77-4.11,1.45-1.51,3.1-2.34,5.3-1.67.97.3,2.36.6,2.99-.22.87-1.14-.47-2.05-.99-3.03-.15-.29-.2-.63-.42-1.37,3.66.83,7.08,1.53,10.45,2.42.91.24,2.68,1.26,2.27,1.61-1.22,1.04-1,3.57-3.33,3.35-.43-.04-.85-.18-1.55.14,5.14,4.47,11.37,7.56,15.9,12.72.32.04.61.15.85.36.3-.41-.25-.69-.15-1.07-1.62-2.81-2.34-6.16-5.1-8.29-1.27-.99-1.65-2.19-.31-3.51,2.03-2,.57-2.57-1.24-3.18-1.11-.37-3.14-.39-1.78-2.58.55-.71,1.31-.76,2.11-.7Z"/>
        <path class="cls-123" d="M105.88,240.87c-.07-.8-.05-1.64-.82-2.17.09-1.93-.82-3.44-2.23-4.55-2.26-1.77-3.16-4.01-2.65-6.77.59-3.18-1.53-6.78,1.48-9.6.44-.42.07-.96-.34-1.14-4.35-1.9-6.71-6.04-10.13-8.98-2.85-2.45-3.92-2.33-5.2,1.2-3.46,9.58-7.74,18.75-12.99,27.48-.43.71-.79,1.44-1.61,1.77-1.08-1.15-.26-2.26.05-3.4.16-.58,1.08-1.44-.41-1.63-1.57.3-2.78,2.64-4.36,1.47-1.84-1.37-.16-3.31.37-4.79,2.73-7.58,3.67-15.69,6.96-23.09.14-.32.23-.66.33-1,1.98-6.1,1.93-6.23-3.3-10.43-1.17-1.02-2.95-1.49-3.08-3.44.49-2.54,1.84-2.33,3.45-1.03,2.04,1.64,3.8,2.96,6.05-.08,1.27-1.72,2.23-.04,2.38,1.31.24,2.11.79,3.96,1.94,5.86,1.96,3.21,4.97,4.81,8.04,6.42,1.56.82,3.05,1.71,4.37,2.87,1.81,1.44,2.68,4.08,5.81,3.86,2.66-.19,4.46-.96,5.07-3.71.2-.91.56-1.78,1.27-2.45.81-.6,1.91-.64,2.67-1.34,1.15-1.03,2.35-1.68,3.79-.53,0,0,0,0,0,0-.26.94,1.27,1.87,0,2.81-4.42,2.08-5.93,8.2-3.01,12.28.5,4.41-.29,5.8-3.62,6.43-.54-.2-.89-.6-1.18-1.07-.31-.47-.62-1.18-1.3-.86-1.64.77-1.15,2.38-1.21,3.71-.05,1.12-.23,2.46,1.5,2.64,2.53.26,3.26,2.08,3.3,4.2.03,1.9,1.42,3.84-.09,5.72,0,.47,0,.93,0,1.4-.37.34-.55,1.07-1.3.66Z"/>
        <path class="cls-113" d="M109.29,281.68c-4.08,1.12-1.08-2.88-2.6-3.61,2.9-4.24.51-8.93,1.04-13.4.66-5.5.16-11.14.16-16.73,1.69-1.01.96-2.7,1.15-4.13.25-1.92-.54-4,.95-5.71,2.19-1.11,2.64-3.22,2.76-5.31.24-4.03,1.55-7.68,3.44-11.49,2.76,2.78.79,6.2,1.77,9.06,1.12-1.08-.19-2.76,1.12-4.04,1.08,2.27.81,4.53.6,6.73-.05.56.14,2.01-1.61,1.42-1.05-.35-1.48,1.22-1.46,1.96.23,7.59-1.2,15.01-2.16,22.48-.14,1.09.46,2.27.41,3.4-.09,1.96,1.12,4.54-2.63,4.87-1.42.12-1.99,2.24-2.15,3.72-.38,3.58-.54,7.18-.79,10.78Z"/>
        <path class="cls-72" d="M109.99,238.1c0,2.87-.04,5.74,0,8.61.03,1.76-.74,1.97-2.11,1.23-.4-3.03.82-6.18-.7-9.12-.25-2.18-.44-4.36-.76-6.53-.24-1.64-.9-2.98-2.96-2.47-1.53.38-1.91-.53-1.87-1.7.07-2.47-.87-5.32,1.91-6.95,1.27-.75,1.69.68,2.27,1.47-1.16,1.18-2.62,2.21-2.4,4.29,1.25-.71,1.19-2.34,2.42-2.89,4.26-.4,3.09-3.79,3.48-6.32-.31-1.66-.88-3.41,1.4-4.22,2.33-1.97,3.7-4.66,5.42-7.09.49-.7,1.18-2.23,2.38-1.36,1.17.85,0,1.91-.47,2.75-2.96,5.34-3.97,11.35-5.95,17.02-1.54,4.39-1.09,8.91-2.08,13.28Z"/>
        <path class="cls-83" d="M128.24,264.81c-.18-1.42,2.2-3.26-.7-4.22-.18-.69.42-1.53-.41-2.09-.22.45-.45.91-1,2.03v-13.29c-1.5-8.43-.89-16.87,0-25.3,0-.94,0-1.87,0-2.81-.48-1.31-.13-1.92,1.17-1.09,1.22.78,1.02,2.22,1.19,3.48.55,4,.25,8.11,1.64,11.99.24,4.57-1.06,8.94-1.57,12.97.58-.82.16-2.36.69-3.67.45-1.11,1.1-2.25,2.45-2.13,1.55.14,1.43,1.56,1.57,2.7.35,2.99-.71,5.84-.83,8.78,0,.23,0,.46.01.68-1.13,1.11-2.02.03-2.98-.4-.38,1.12.49,1.74.87,2.53-.45,3.64-.08,7.27.3,10.87.15,1.39.48,2.47-1.01,3.18,0-.23,0-.47,0-.7-.75-1.06-.89-2.36-1.4-3.51Z"/>
        <path class="cls-68" d="M129.65,233.89c-1.2-.94-1.41-2.19-1.45-3.67-.1-3.46-.39-6.92-.72-10.37-.04-.4.28-2.76-1.35-.72-1.07-.9-.69-2.14-.68-3.25.05-5.08.76-10.06,1.91-15.02.43-1.86.4-3.94-1.92-4.92-.39-.41-1.11-.14-1.41-.71,1.31-2.07,3.78-2.29,5.61-3.51,1.06-1.78-.15-3.34-.48-4.99.11-.69-.01-1.44.48-2.04.7-.23,1.41,2.18,2.09-.02-.18-.19-.24-.39-.18-.58.06-.19.13-.29.19-.29.51-.24.98-.23,1.4.18,0,.94,0,1.88,0,2.82-.31,3.28-1.88,6.56,0,9.83,0,.7,0,1.41,0,2.11-.12.76-.75,1.64-1.25,1.48-2.55-.82-1.83,1.06-2,2.23-1.07,7.46-1.05,14.91.42,22.32-.05,1.76.56,3.44.71,5.15.13,1.42.99,3.34-1.4,3.96Z"/>
        <path class="cls-84" d="M110.69,213.51c-1.27,1.14-.31,3.02-1.4,4.22-.95-.03-2.15-.02-2.03-1.31.28-2.99.54-6.01,1.27-8.9.51-2.01,2.38-2.27,4.27-1.74,0,.7,0,1.41,0,2.11-.03.77-.21,1.49-.7,2.11-1.11.91-1.45,2.14-1.4,3.51Z"/>
        <path class="cls-68" d="M126.14,221.94c1.56,3.52-.16,7.04-.18,10.56-.03,4.92.27,9.83.18,14.74-1.35-2.76-1.43-5.71-1.41-8.69.03-4.05.09-8.1-.03-12.14-.05-1.73.41-3.16,1.44-4.47Z"/>
        <path class="cls-110" d="M124.03,195.23c.58,0,1.11.13,1.41.71-.93-.08-1.84,2.7-2.79.02.57-.03,1.08-.16,1.37-.72Z"/>
        <path class="cls-72" d="M112.09,209.99c.03-.77-.13-1.6.7-2.11,1.26,1.2.05,1.58-.7,2.11Z"/>
        <path class="cls-68" d="M133.86,205.07c.46.24.91.47,1.37.71,1.06,1.36.93,3.24,1.86,4.37,1.72-1.76-3.48-4.21.58-6.02,1.94.72,2.03-2.46,3.91-1.87-1.3,6.3-.19,13.05-3.48,18.99-.58-.41-.73-1.06-.89-1.69-.44-1.09-1.42-1.29-1.42-.09.01,2.27-.97,4.61.24,6.82.5.75.94,1.93,2.01,1.46.94-.41.34-1.41.06-2.15-.29-.76-.71-1.5-.03-2.27.94.69,1.87.03,2.8,0,1.25,3.1-1.1,5.6-1.4,8.44.57.97.22,2.25,1.01,3.11.7.76.05-.51.42-.31,2.71-1.4,4.61-.86,5.54,2.24.66,2.2,2.6,3.81,2.86,6.2-.15.06-.31.11-.46.17-1.76-.34-2.42-2.11-3.78-2.96-.69-1.18-1.38-2.36-2.07-3.54.17-.14.3-.31.39-.51-.16.14-.3.31-.39.51-1.91,1.76,1.08,2.72.69,4.23-.06,2.43-1.39,4.61-1.45,7.04-.55.31-.64.84-.66,1.4-1.37.19-1.29-.98-1.58-1.74-.26-.7-.13-1.62-1.22-1.73-2.16-3.08-2.59-6.88-4.26-10.17-.52-1.02-.88-2.12-1.63-3.02-.2-.39-.49-.86-.33-1.24.57-1.36-.23-1.36-1.17-1.27-.85-1.76-1.82-3.48-1.39-5.55.09-1.72-.7-3.76,2.27-4.12.95-.11.7-1.85.57-2.82-.4-3.02.05-6.02.1-9.03.02-1.25-.15-2.59.92-3.58Z"/>
        <path class="cls-95" d="M141.58,202.26c-1.12.41-1.17,1.52-1.65,2.38-.68,1.21-1.5,1.47-1.86-.29-1.06-1.07-.88-2.43-.89-3.74.02-.53.1-1.05.22-1.56,1.02-1.78-.81-2.53-1.37-3.75-.49-1.69-.27-3.42-.34-5.13,0-1.65,0-3.29,0-4.94-.1-4.43.25-8.88-.58-13.29-.38-2.02.18-3.94,1.59-5.53.22-.24.45-.47.67-.71,3.02,2.64,3.19,5.2.49,8.08-.45.48-.64,1.13-.36,1.6,1.61,2.68,1.29,6.14,3.68,8.67,1.15-1.76-.51-4.1,1.11-5.68.73,3.66.16,7.36.25,9.32-.23-1.95.62-5.66-.25-9.32,1.04-2.03,1.35-.95,1.37.37.06,3.62.45,7.31-.09,10.85-.64,4.22-.02,8.66-1.99,12.66Z"/>
        <path class="cls-13" d="M137.93,159.2c.1,1.14-.25,1.61-1.38,1.16-1.77-.7-2.86-2.23-3.06-3.85-.16-1.3.29-3.41,1.99-3.6,1.71-.2,1.92,1.72,2.12,3.03.17,1.09-.43,2.27.33,3.27Z"/>
        <path class="cls-37" d="M138.07,223.34c.12.43.12.95.38,1.28,1.09,1.37,1.83,3.25.42,4.24-1.59,1.12-2.72-.69-3.61-2.01.34-.39.77-.52,1.26-.5.22.03.43.11.62.24.09.06.2.1.31.14-1.34-1.51-1.78-3.33-1.83-5.28.2-1.41.16-3.05,2.4-2.36.03.72.05,1.44.08,2.16,0,.7-.02,1.4-.03,2.09Z"/>
        <path class="cls-108" d="M131.05,165.71c-1.99.12-1.73-2.02-2.81-2.81,2.05-.18,2.56,1.18,2.81,2.81Z"/>
        <path class="cls-25" d="M55.94,263.41c-2.38,1.23-3.35,3.68-4.91,5.62-1.53-.9-.66-1.99-.19-2.98,1.01-2.11,2.47-3.92,3.94-5.72,1.26-1.54,2.51-3.05,2.73-5.14.05-.46.15-1,.51-1.27,4.28-3.11,6.13-8.06,9.24-12.06.49-.63,1.04-1.3,2.02-.95-.24,1.17-.47,2.34-.71,3.51-4.21,6.33-8.42,12.65-12.63,18.98Z"/>
        <path class="cls-125" d="M133.19,232.49c2.88,1.28,2.25,4.5,3.59,6.65,1.27,2.03,1.26,4.67,2.66,6.7.57,2.85,2.68,5.31,2.11,8.44-.65-.2-1.6-.78-1.9-.54-1.08.86.55,1.73.2,2.95-2.27-1.08-2.85-3.62-4.66-4.96-1.11-.82-2.15-1.83-2.74.42-1.11-2.64.14-5.3-.07-7.95-.08-.99.62-2.49-.55-2.81-1.47-.4-1.79,1.3-2.02,2.3-.46,1.97-.5,4.04-2.42,5.67.75-5.16,1.5-10.32,2.24-15.48,1.23-1.67.83-3.42.22-5.16-.46-1.32-.62-2.63-.22-3.98.23-.33.47-.33.7,0-.66,2.15,1.68,3.55,1.4,5.6.18,1.04.26,2.1.59,3.12.14.8.07,1.61.14,2.33.15-.79-.14-1.69.12-2.56.13-.31.33-.57.6-.76Z"/>
        <path class="cls-53" d="M147.22,250.76c1.18.4-.17,1.59.66,2.1.57.89.45,2.13,1.41,2.81,1.9,3.96,3.79,7.93,5.07,12.15.34,1.12,1.13,2.3-.86,2.62-.94-2.85-2.35-5.51-3.28-8.39-.73-2.26-1.75-4.4-4.27-5.89-2-1.19-2.38-4.32-2.99-6.79-.01-.46-.03-.93-.18-1.37-.35-1.04-.11-1.92.98-2.21,1.12-.29,1.71.65,2.08,1.46.52,1.14.72,2.41,1.35,3.52Z"/>
        <path class="cls-8" d="M147.22,250.76c-.93-.63-1.18-1.63-1.47-2.62-.27-.91-.78-1.96-1.75-1.81-1.43.23-.59,1.38-.53,2.21.02.26-.32.55-.49.82-.56-.3-.69-.83-.75-1.4-1.97-2.85.68-4.75,1.45-7.04.77,3.43,3.49,6.15,3.54,9.84Z"/>
        <path class="cls-110" d="M130.35,254.98c-.76-.08-1.84.19-1.95-.89-.1-1.08-.1-2.35.38-3.26.47-.9,1.26-.15,1.41.53.29,1.32,1.11,1.61,2.27,1.48,0,1.41-1.39,1.44-2.11,2.13Z"/>
        <path class="cls-101" d="M141.56,254.28c-.35-2.9-2.58-5.33-2.11-8.44,2.17.29.75,2.75,2.12,3.52.24,1.4.49,2.8.73,4.19.26.74-.08.87-.71.71l-.03.02Z"/>
        <path class="cls-76" d="M48.22,286.6c-.47.23-.93.47-1.4.7.63-1.89-2.47-2.63-1.4-4.7,1-1.92,1.31-4.19,2.92-5.81.34-.34.6-.39-.05-.84-1.11-.77-.98-2.26-1.47-3.41.86-1.69,2.49-2.93,2.81-4.92-.49-.8-.02-1.49.24-2.21.49-.94.91-1.92,1.26-2.93.41-.99,1.1-1.84,1.49-2.84.38-.88.46-1.84.79-2.72,5.67-8.61,11-17.47,17.98-25.14,1.94-.26,1.72.84,1.32,2.08-.46,1.41-1.53,2.63-1.33,4.24-.7.94-1.4,1.88-2.1,2.82-2.14,1.7-3.28,4.16-4.63,6.41-1.5,2.5-2.9,4.98-5.55,6.44-.1.06-.26.12-.27.2-.73,5.83-6.22,8.92-8.09,14.08-.09.26.19.65.29.98-.81,1.75-.92,3.26-.21,5.32,1.08,3.12-.4,6.32-1.53,9.36-.36.97-.72,1.93-1.08,2.89Z"/>
        <path class="cls-44" d="M64.42,58.25c-.04-.18-.05-.37-.05-.56.41-.96.14-2.07.7-3,2.52-3.33,4.51-7.08,7.73-9.86,2.71,1.41-.13,2.81,0,4.21-1.13.62-.3,2.15-1.3,2.83-1.17.27-.95,1.15-.85,1.97.02.28.03.55.05.83-.87.61-.63,3.43-2.81,1.4-.9-1.04-1.24-.19-1.63.49-.43.76-.77,1.61-1.83,1.68Z"/>
        <path class="cls-70" d="M67.87,56.08c1.67,1.01,1.67-1.35,2.81-1.4,0,.94,0,1.87,0,2.81-.72,1.1-1.57,1.65-2.8.7v-2.11Z"/>
        <path class="cls-70" d="M62.92,65.18c-.49,1.7,1.39,4.17-1.62,5.06-.33.3-.69.32-1.06.07.43-.5.86-1,1.3-1.5.39-1.24-.56-2.99,1.39-3.63Z"/>
        <path class="cls-31" d="M62.92,65.18c-1.26.9-.02,2.77-1.39,3.63-.92-1.74-1.02-3.16,1.39-3.63Z"/>
        <path class="cls-27" d="M67.88,58.19c1.02.11,1.93-.22,2.8-.7-.04,1.13-.55,2.11-1.6,2.33-1.05.21-1.1-.84-1.2-1.62Z"/>
        <path class="cls-57" d="M70.64,53.85c-1.07-.8-.96-1.96-.37-2.78.36-.5.94.3,1.21.81-.28.66-.56,1.31-.85,1.97Z"/>
        <path class="cls-70" d="M64.83,64.02c-.68-.5-.97-1-.89-1.6.05-.39.47-.55.75-.29.49.44.4,1.04.14,1.89Z"/>
        <path class="cls-21" d="M64.97,72.18c-.24.4-.35.75-.59.91-.37.25-.63-.05-.62-.4.01-.29.17-.64.38-.83.09-.08.48.17.83.31Z"/>
        <path class="cls-39" d="M60.24,70.32c.35-.02.71-.05,1.06-.07-.02.77.12,1.6-.85,1.95-.07-.63-.14-1.25-.21-1.88Z"/>
        <path class="cls-99" d="M42.6,269.03c2.97-5.37,1.87-11.85,4.7-17.27.44-.84.33-1.82-.5-2.52,2.55-7.16,5.27-14.26,7.04-21.67,1.34-1.17.49-2.34,0-3.51,1.99.01,2.71-.75,1.36-2.48-1.23-1.58-1.49-3.35-1.35-5.25,1.24,1.21.49,3.41,2.27,4.43,1.69-.96,1.85-2.89,2.63-4.43-.53-1-.05-1.9.27-2.82.59-.94,1.09-1.96,2.28-2.29,2.3-.08,1.65-1.58,1.38-2.9.8-3.21,2.19-6.07,4.94-8.09,1.16-.47,2.14-.37,2.75.89,1.25,6.84-2.38,12.46-4.92,18.21-4.84,10.99-9.91,21.87-13.74,33.28-.3.88-.56,1.8-1.39,2.38-1.73,2.75-4.12,5.13-4.25,8.72-.08,2.37-1.95,3.79-3.47,5.33Z"/>
        <path class="cls-17" d="M40.5,122.85c1.4.57,2.8-.03,4.21,0,.23-.13.6-.17.61-.05.31,3.14,3.05,5.09,3.7,8.31.71,3.52,3.28,6.65,3.76,10.44-.31,2.06.07,4.19-.7,6.2-.73,1.93,1.17,2.54,1.94,3.71.26.44.32.92.26,1.42-.75,1.98,1.55,4.56-1.21,6.14-.54-.14-.92-.37-.63-1.02-.55-1.1-1-2.26-1.69-3.27-.66-.96-1.01-.39-1.12.45-.23,0-.47,0-.7,0-1.22-1.56-2.95-7.63-2.8-9.84-.23-.94-.47-1.88-.7-2.81-.74-2.72-2.08-5.14-1.87-8.31.15-2.3-1.95-4.76-3.05-7.15,0,0,0,0,0,0-.87-1.41-.94-2.81,0-4.22Z"/>
        <path class="cls-82" d="M52.43,157.99c.23.23.47.47.7.7.53.27,1.04.58,1.35,1.12.43.83,1.15,1.24,2.06,1.39.31.15.56.36.76.63.76,1.77.03,3.63.34,5.43-.87,8.64-.56,17.31-.69,25.96-.07,4.61.4,9.08,1.79,13.5.68,2.16,1.79,4.4.69,6.8.08,1.01-.2,1.93-.7,2.8-3.2-1.59-2.45-5.12-3.1-7.6-1.39-5.27-2.98-10.54-3.39-16.14-.43-5.75.66-11.24,1.23-16.82.16-1.54.64-2.96-.5-4.27-1.57-1.79.89-3.15.46-5.17-.57-2.65-1.95-5.42-1.01-8.32Z"/>
        <path class="cls-77" d="M51.7,208.56c-2.62-.92-1.23-1.84,0-2.75,0,.92,0,1.83,0,2.75Z"/>
        <path class="cls-28" d="M48.29,189.78c-.29.39-.44.81-.67.86-.66.14-.72-.44-.75-.88-.03-.4-.18-1.07.54-.93.33.06.56.6.88.96Z"/>
        <path class="cls-72" d="M105.88,240.87c.43-.22.87-.44,1.3-.66.27,3.51-1.39,6.84-1.3,10.38v-9.72Z"/>
        <path class="cls-68" d="M149.3,243.02c.23,0,.46,0,.7,0-.01,2.55,1.54,4.6,2.16,6.95.2.74.96,1.62.06,2.22-1.14.77-1.6-.54-2.17-1.12-.83-.83-1.47-1.84-.76-3.12-.14-1.65-.92-3.29,0-4.94h0Z"/>
        <path class="cls-50" d="M149.3,243.03c-.51,1.65.98,3.29,0,4.94-.47-3.1-3.01-5.05-4.23-7.74,2.18-.23,2.54,2.3,4.23,2.8Z"/>
        <path class="cls-119" d="M50.32,254.97c2.1-6.08,4.09-12.17,6.5-18.17,3.5-8.71,8-16.97,11.19-25.82,1.22-3.39,1.26-6.77,1.97-10.12.24-1.85,1.54-3.51.98-5.5.07-.33.22-.61.47-.83,1.24.61,1.97,1.93,3.48,2.27,1.27.29,1.78,1.46,1.63,2.75-.18,1.49-.26,3.06-.78,4.45-3.32,8.83-5.5,18-7.98,27.07-.28,1.04-1.8,1.72-.87,3.2,1.5-.83,2.99-1.65,4.48-2.48-1.37,4.2-4.71,7.15-7.24,10.5-3.64,4.81-5.98,10.51-10.31,14.8-1,.74.03,2-.7,2.81.1,1.22-1.01,1.84-1.41,2.81-.9.72-1.15,1.77-1.4,2.81-.24.7-.47,1.4-.71,2.11-1.22-.29-1.81,1.48-3.36.92,1.88-4.4,5.24-8.34,4.06-13.57Z"/>
        <path class="cls-99" d="M49.62,217.72c3.13.96,3.27,3.91,4.21,6.32-3.87-.46-3-4.09-4.21-6.32Z"/>
        <path class="cls-51" d="M34.17,117.22c1.99-4.52,2.88-9.18,1.69-14.12,1.86,4.2,1.11,8.45.41,12.7-.72.45-.99,1.56-2.1,1.42Z"/>
        <path class="cls-93" d="M37.7,115.82c1.39-2.83,1.42-5.91,1.69-9,.68,2.74-.04,5.65,1.11,8.29-1.14-.6-1.44,2.15-2.8.7Z"/>
        <path class="cls-58" d="M27.87,115.82c1.19-.4,2.38-.81,3.89-1.31,0,1.89-1.05,2.47-2.49,2.72-.91-.03-1.42-.46-1.39-1.41Z"/>
        <path class="cls-34" d="M21.55,116.52c.11-.52.21-1.03.32-1.55.83.52,1.02,1.34,1.06,2.23-.46-.23-.92-.46-1.38-.69Z"/>
        <path class="cls-32" d="M46.11,145.33c1.18,3.21,2.42,6.41,2.8,9.84-.15,1.03.45,2.32-.96,3-1.02-1.07.23-2.8-1.14-3.7-.66.19-.95.02-.7-.7-.04-2.12.3-4.26-1.15-6.2-.29-.39-1.7-2.78,1.15-2.24Z"/>
        <path class="cls-117" d="M43.34,157.26c.28.94,1.11,1.82.24,3.05-1.3-3.58-2.62-6.99-2.37-10.76.79-.43,1,.31,1.38.69-.6.95-.64,1.89.02,2.83,1.06,1.26,1.81,2.57.73,4.19Z"/>
        <path class="cls-41" d="M43.34,157.26c-.24-1.4-.49-2.8-.73-4.19,1.82-.49,1.95,1.29,2.8,2.1h0c.14,1.53-.5,2.28-2.08,2.09Z"/>
        <path class="cls-54" d="M42.59,150.24c-.46-.23-.92-.46-1.38-.69,0-2.01,0-4.03,0-6.04.2-.03.4-.06.6-.09.26,2.27.52,4.55.78,6.82Z"/>
        <path class="cls-41" d="M46.11,153.77c.23.23.47.47.7.7,0,.72,0,1.44,0,2.55-.66-.87-1.03-1.36-1.4-1.85,0,0,0,0,0,0,.02-.57.14-1.1.7-1.4Z"/>
        <path class="cls-103" d="M140.91,234.58c.09.73,1.07,1.34.27,2.28-1.26-1.5-1.89-3.15-1.71-5.08.48.94.96,1.87,1.44,2.81Z"/>
        <path class="cls-75" d="M21.53,109.52c-1.1-2.04-1.69-4.09-.14-6.2,0,0-.01-.01-.01-.01,1.19.88.9,2.16.92,3.36.02.7.04,1.4.06,2.1.07.62-.18.9-.82.75Z"/>
        <path class="cls-75" d="M19.54,109.72c.54-.1,1.02.01,1.38.46,1.15.42.99,1.5,1.21,2.39,0,0,0,.19,0,.19-2.4.3-2.86-1.05-2.59-3.04Z"/>
        <path class="cls-34" d="M22.14,112.56c-.4-.8-.81-1.59-1.21-2.39.2-.22.41-.43.61-.65.61.13.66-.37.82-.75.59.06,1.11.23,1.2.94-.57.5.2,1.54-.75,1.88-.22.32-.44.64-.66.96Z"/>
        <path class="cls-64" d="M22.3,106.68c-.31-1.12-.61-2.24-.92-3.36.52-.05,1.04-.09,1.56-.14-.16,1.18.45,2.5-.65,3.5Z"/>
        <path class="cls-75" d="M22.8,111.6c.11-.68-.18-1.53.75-1.88-.13.86,1.41,1.53.35,2.44-.33.28-.86-.1-1.11-.55Z"/>
        <path class="cls-118" d="M65.06,54.69c.13,1.08.14,2.14-.7,3-.73-1.22-.13-2.14.7-3Z"/>
        <path class="cls-64" d="M27.86,101.06c0,.23,0,.47,0,.7-2.11,0-4.21,0-6.32,0,.47-.93,2.24-.57,2.11-2.11.47,0,.94,0,1.41,0,.77.8,2.08.49,2.8,1.39Z"/>
        <path class="cls-71" d="M48.22,120.73c1.73-3.74,3.62-4.31,6.93-2.17,1.62,1.04,2.84,2.79,5.01,2.88.35.29.68.78,1.06.83,6.69.82,6.48,6.62,8.06,11.12-2.01.24-1.92-2.06-3.51-2.87,1.45,6.61,1.92,13.19,5.26,19.03.62,1.09,1.46,2.23.35,3.52-.74.03-1.85-2.41-2.19.41-.23,1.86-2.01,2.36-3.43,3.1-2.47-.49-4.69-.54-6.6,1.71-1.31,1.53-2.28.45-2.49-1.13-.29-2.12,1-3.68,2.55-4.65,3.04-1.89,3.83-4.43,3.01-7.71,1.58-4.42.3-8.99.44-13.48-.14,4.02,1.13,8.11-.33,12.07-1.01.75-1.93,1.57-2.46,2.77-.27.6-.7,1.34-1.49,1.23-1.01-.14-1.17-1.13-1.13-1.86.14-2.4-1.19-4.09-2.51-5.82-.23-.53-.36-1.09-.41-1.66-.06-2.08-.13-4.15.04-6.22.25-2.57,1.46-4.88,2.12-7.7-.72,2.32-1.47,4.28-2,6.3-.3,1.14-.6,2.31-2.1,2.43-2.73-2.59-3.1-6.23-4.22-9.54-.15-.86-.15-1.73.04-2.59Z"/>
        <path class="cls-35" d="M97.36,161.5c-.5.83-1.33.68-2.11.7-3.01-2.73-7.18-.87-10.45-2.66-.95-.52-3.62.43-1.6-2.23.06-.08-1.19-.69-.89-1.83,2.55.17,4.7,1.51,6.95,2.5.52.23,1.02.79,1.48.13.2-.29.19-1.09-.03-1.26-1.95-1.5-.89-4.39-2.99-5.97-1.54-1.16.93-1.82.78-3,1.84.62.36,3.13,2.27,3.28.82.06.89-.91.97-1.61,1.48.53,2.69.42,3.05-1.42.4-2.04,1.43-4.21.63-6.16-1.37-3.32-.26-6.12.91-8.95-1.07,1.58-.88,3.87-2.49,5.29-2.98-1.21-2.46-4.93-1.98-5.99,1.44-3.17,1.08-5.97-.18-9.61,2.87,1.86,2.63,4.62,3.99,6.71,1.24-2.28,1.64-4.58,1.7-7,.02-.88-.02-2.21,1.37-1.8,1,.29,1.42,1.28,1.23,2.56-.8,5.42-1.33,10.76-.93,16.37.42,5.87-.06,11.99-1.39,17.89-.3,1.32-.98,2.65-.3,4.06Z"/>
        <path class="cls-22" d="M62.96,145.33c1.01,3.01.9,5.37-2.41,7.21-1.83,1.01-4.19,2.74-2.74,5.89,2.88-3.72,4.55-4.08,7.97-1.85-.97,1.9.69,1.18,1.4,1.41-1.25,2.76-3.45,4-6.34,3.57-.47-1.25-1.34-.66-2.13-.45-.33,0-.63-.07-.92-.22-1.22-1.6-1.28.25-1.84.61-1.79,1.16-1.44-.88-2.1-1.41.65-3.26,1.77-6.42,2.23-9.73-.16,1.01.03,2.14-.6,3-.57.77-1.41,1.51-1.64-.3,0-.47,0-.94,0-1.41-2.72-2.95-1.37-6.49-1.41-9.82-.42-.69-1.31-1.47-1.18-2.04.72-3.36-2.53-5.02-3.21-7.78-.17-.69-.82-.97-.17-1.89.57-.81.89-2.07-1.09-1.79-1.35.19-1.27-.96-1.36-1.9-.12-1.22.46-2.58-.7-3.59,1.05-.91,2.01-1.95,3.51-2.11.83.51.68,1.34.7,2.12-.19,4.07,1.91,7.38,3.65,10.8,1.59,2.87,2.42,5.96,2.51,9.24.02.47-.2.22-.11.06.61-1-.65-2.21.28-3.25,3.12,1.42,2.86,4.33,2.9,7.21,1.68-.98.95-3.81,3.41-3.7,1.15.25-.28,2.21,1.4,2.11Z"/>
        <path class="cls-7" d="M84.72,139.01c-4.03,3.24-4.04,3.26-7.9.11-1.36-1.11-2.52-2.35-2.95-4.19-.62-2.67-2.03-4.98-3.99-6.84-1.52-1.45-1.44-2.81-.3-4.28,1.25-1.61,2.9-1.1,4.03-.11,2.74,2.41,6.16,4.18,7.52,8,.77,2.17,1.9,4.25,3.59,5.92.37.47.42.94,0,1.4Z"/>
        <path class="cls-71" d="M58.03,160.79h.71c.7.16,1.4-.49,2.11,0,3,1.08,4.32-1.64,6.32-2.81.87-.88,1.94-1.16,2.56.02.61,1.14-.49,2.23-1.32,2.5-5.31,1.74-4.01,3.3-.15,5.38,2.12,1.14-.02,3.16.31,4.75,1.96,1.33,3.63.86,5.27-.68,1.24-1.16,2.15-2.75,3.89-3.35.98.96-.26,1.77-.04,2.62.3,1.16-.13,2.46.7,3.51.16,2.12,1.05,4.15.7,6.33-1.27.41-1.78-.49-2.41-1.45.58,1.51,1.17,2.86,1.13,4.4-.02.75,0,1.45-.87,1.63-.95.2-1.63-.26-1.82-1.18-.4-1.94-.81-3.89-1.41-5.75-.39-1.23-.08-3.29-2.37-3.25-3.01-.04-5.23-1.67-7.25-3.66-2.07-2.03-4.46-3.28-7.41-3.28-.46-1.67.65-3.35-.05-5.01.26-.63.62-1.07,1.39-.72Z"/>
        <path class="cls-16" d="M71.38,153.06c-.04-.46.1-1.05-.13-1.38-4.14-5.95-4.63-13.04-6.17-19.79-.22-.98-.81-2.22.52-2.77,1.67-.69,1.31,1.03,1.8,1.77.58.86,1.25,1.66,1.88,2.49,1.13,9.87,5.39,18.86,7.99,28.34q-1.6-.16-5.88-8.66Z"/>
        <path class="cls-14" d="M128.94,174.86c-3.95-2.27-8.19-4.13-11.23-7.74-.26-.51-.39-1.23-.8-1.5-4.09-2.63-1.97-5.12.1-7.64-.71,3.74,1.61,6.21,3.86,8.51,2.26,2.31,4.9,4.26,7.37,6.36.49.65,1.52.92,1.4,2-.23.35-.46.33-.7,0Z"/>
        <path class="cls-30" d="M93.84,138.31c.86-2.69,1.72-5.38,2.66-8.32,1.09,1.01,1.06,1.9.76,2.37-2.34,3.75-1.49,7.82-1.3,11.82.09,1.92-.35,3.69-1.18,5.39-1.03,2.13-2.04,1.99-3.04-.03-.37-2.43-.75-4.87-1.12-7.3,1.69,1.94,2.49,4.13,2.89,6.56,1.58-3.44,1.65-6.93.33-10.5Z"/>
        <path class="cls-86" d="M84.72,139.01c0-.47,0-.94,0-1.4.84-2.28.73-4.66.7-7.03.81-3.75,1.89-7.5,0-11.24.35-1.57.94-.99,1.34-.09.99,2.22,1.76,4.58,1.42,7.01-.54,3.85-1.38,7.66-2.07,11.49-.15.82-.62,1.18-1.39,1.26Z"/>
        <path class="cls-82" d="M107.22,150.33c-.33,2.79-2.18,3.62-3.37,4.92-.46.51-1.13.24-1.55-.16-.63-.61,0-1.04.41-1.36,1.33-1.05,2.7-2.05,4.51-3.41Z"/>
        <path class="cls-82" d="M68.12,162.63c.84-.55,1.52-.97,2.18-1.43.72-.5,1.07-2.4,2.22-1.07.77.89-.46,1.92-1.34,2.45-.8.48-1.68,1.47-3.06.06Z"/>
        <path class="cls-111" d="M103.67,179.77c1.2.53,1.56,1.64,2.11,3.21-1.51-.57-2.22-1.46-2.82-2.5.23-.24.47-.47.7-.71Z"/>
        <path class="cls-24" d="M51.45,99.1c.34,2.68,1.04,4.92-1.59,6.41-.31.18-.4.98-.93.35-.28-.33-.51-1.21-.49-1.22,2.23-.99,1.21-3.78,3.02-5.55Z"/>
        <path class="cls-96" d="M39.39,101.68c2.9,2.37,2.5,5.01,3.68,7.08-.28.1-.55.21-.83.31-.83-2.14-1.66-4.28-2.86-7.39Z"/>
        <path class="cls-100" d="M40.5,122.85c0,1.41,0,2.81,0,4.22-2.02-1.41-2.59-2.81,0-4.22Z"/>
        <path class="cls-43" d="M93.85,98.25c.47-.47.93-.94,1.4-1.41.02.59.14,1.13.72,1.44.15.15.19.3.14.44-.05.14-.1.22-.15.22-2.42,1.07-1.44,3.85-2.74,5.48-.43.54-.82,2.35-1.5.12.34-2.23,2.3-3.9,2.15-6.3Z"/>
        <path class="cls-74" d="M128.94,174.86c.23,0,.47,0,.7,0,0,3.28,0,6.56,0,9.84,0,.7,0,1.41,0,2.11.48.7.47,1.41,0,2.11-3.93-.07-7.51.87-10.39,3.7-2.27,2.23-3.94,1.67-5.34-.93-.66-1.22-1.67-2.32-2.07-3.61-.54-1.76-1.55-3.87,1.17-4.98.3-.12.65-.38.78-.66.69-1.47.56-4.3,2.77-3.67,2.84.81,6.25.92,8.21,3.88.88,1.32,1.95,3.38,3.46,2.95,1.49-.43.6-2.66.68-4.09.12-2.21.03-4.42.03-6.64Z"/>
        <path class="cls-1" d="M130.35,224.75h-.7c-1.58-5.64-1.84-11.41-1.15-17.15.42-3.47,0-7.15,2.2-11.22-.09,2.62,0,4.67,2.47,2.37,1.4,1.98.39,4.23.7,6.33,0,4.72.02,9.45-.02,14.17-.01,1.37.49,3.09-2.24,2.28-.81-.24-.79,2.11-1.25,3.23Z"/>
        <path class="cls-3" d="M136.69,166.43c-1.43,6.33.74,12.67-.05,19-.74,1.29-.11,2.72-.4,4.05-.26.65-.39,1.4-1.17,1.7-1.29-.39-.77-1.4-.77-2.23.47-2.99.26-5.99.13-8.99-.14-.32-.33-.61-.56-.87,0-.71,0-1.42,0-2.13,1.27-1.57.56-3.34.55-5.05-.01-1.35-.81-2.75.14-4.07,1.08.09.16-2.87,2.14-1.4Z"/>
        <path class="cls-3" d="M138.03,200.12c.01,1.41.02,2.83.03,4.24-1,1.19-.83,1.13-.12,2.93.57,1.44-.19,2.88-.88,4.23-1.23-1.75-2.15-3.55-1.83-5.74-.22-1.65-.44-3.29-.65-4.94.24-.22.51-.28.82-.16.84.54,1.32-.02,1.8-.6.29-.18.57-.16.84.03Z"/>
        <path class="cls-116" d="M134.56,167.82c.92,2.18.51,4.55.94,6.8.25,1.33-.75,1.79-1.63,2.33-.03-2.5.22-5.06-2.15-6.88-.85-.65-.49-1.58.31-1.96.74-.35,1.47-2.44,2.52-.28Z"/>
        <path class="cls-116" d="M135.25,200.85h-.34s-.34,0-.34,0c-.21-7.26-1.14-14.49-.7-21.77.22,0,.45-.01.67-.01.6,3.27.55,6.54.03,9.82.01.78-.14,1.62.68,2.14.46.38.63.89.67,1.46.09,1.62-.17,3.29.54,4.85.1,1.35-.13,2.59-1.22,3.52Z"/>
        <path class="cls-4" d="M131.75,183.99c0,.23,0,.46,0,.68-.79-.37-1.35-.95-1.36-1.85-.03-3.39-.01-6.79-.01-10.88,1.91,1.87,1.17,3.58,1.41,5.04.19,2.33,1.29,4.67-.03,7Z"/>
        <path class="cls-1" d="M133.15,196.64c-1.96-1.15-2.9-2.6-1.29-4.71.65-.84.49-1.65.16-2.56-.4-1.14-.6-2.31,1.12-2.57,0,3.28,0,6.56,0,9.83Z"/>
        <path class="cls-1" d="M131.75,183.99c.01-2.33.02-4.67.03-7,1.03,2.22,1.42,4.57,1.37,7-.47,0-.94,0-1.41,0Z"/>
        <path class="cls-23" d="M28.56,98.25c1.92-.7,1.03-2.23.59-3.15-.47-1-.29-1.66.11-2.47,1.24.1,2.52-.26,4.08.48-1.55,1.03-2.29,2.45-2.27,4.12.03,2.64-1.17,1.91-2.5,1.02Z"/>
        <path class="cls-46" d="M27.86,101.06c-1.19.06-2.27-.12-2.8-1.39,1.1.12,2.57-.5,2.8,1.39Z"/>
        <path class="cls-40" d="M95.95,98.95c0-.22,0-.44.01-.66.77-.46,1.5-1.05,2.33-1.35.75-.27,1.71-.21,2.04.71.32.87-.65.99-1.11,1.43-.91.84-1.73,1.78-2.58,2.68-2.46-.38-.33-1.9-.69-2.8Z"/>
        <path class="cls-108" d="M86.13,81.38c-.23,1.88-1.7,1.27-2.81,1.39-.12-1.09.98-1.37,1.4-2.1.47.24.94.47,1.41.71Z"/>
        <path class="cls-85" d="M71.14,172.86c1.27-.49,2.25-1.59,2.7,1.19.44,2.71,1.69,5.35,1.84,8.21.03.52.36.93.87.9.91-.05.55-.71.55-1.27-.02-2.25-1.83-4.23-1.14-7.41,1.29,1.95,1.31,3.99,3.14,4.59.46,7.08,2.5,13.76,4.99,20.34.12.31.53.82.56.8,2.94-1.7,4.96,1.74,7.67,1.36.92-.13,1.78-.1,2.56-.83,2.99-2.77,3.14-2.73,5.99.81-2.43,1.59-5.43.78-8.04,1.93-.25,1.31,1.22,1.86,1.39,2.98.11.53.04,1.02-.37,1.41-1.76-1.76-4.13-2.53-6.21-3.76-5.11-3.01-9.06-6.8-8.7-13.34-.45.02-.79-.04-.85.06-2.24,3.78-4.06,4.09-7.27.65-1.58-1.69-1.91-1.14-2.38.52-.54-.12-.86-.48-1.01-.99-.21-1.13.49-1.96.99-2.83,1.21-2.11,1.56-4.19.12-6.34-.18-1.42.12-2.76.96-3.89,1.15-1.53,1.52-3.27,1.65-5.1Z"/>
        <path class="cls-111" d="M112.8,202.96c-1.45-.24-2.61.26-3.5,1.41-.13-.08-.26-.15-.39-.23-.63-.86-1.78-1.07-2.43-1.91,4.71-2.08,4.75-2.29,2.74-7.21-1.06-2.58-1.97-5.23-2.92-7.85-.26-.71-.97-1.64.09-2.11.91-.4,1.46.58,1.88,1.23,1.69,2.65,2.51,5.77,4.53,8.24.28,1.03.58,2.05,1.4,2.81,1.56,2.38-1.72,3.55-1.4,5.62Z"/>
        <path class="cls-19" d="M93.84,206.48c-1.14-1.03-3.15-2.12-2.81-3.41.42-1.59,2.69-.41,4.04-.92,1.9-.72,3.84-.57,5.79-.59,1.3.84,2.77.7,4.21.71.55.26-.99,1.39.57,1.29,1.26-.08,2.59-.22,3.63.81,0,0,.02.01.02.01-.74,1.02-1.84.6-2.81.7-1.85,1.74-3.85,2.35-6.29,1.16-2.1-1.03-4.17,1.39-6.34.24Z"/>
        <path class="cls-112" d="M109.28,204.36h-6.43c.11-1.75,1.85-1.09,2.23-2.1.46,0,.93-.02,1.39-.03,1.47,0,3.07-.17,2.8,2.12Z"/>
        <path class="cls-74" d="M114.2,197.34c-2.54.1-2.25-1.22-1.4-2.81.81.77,3.53.58,1.4,2.81Z"/>
        <path class="cls-1" d="M129.64,188.91c0-.7,0-1.41,0-2.11,1.1,1.64,1.11,3.28,0,4.92,0-.94,0-1.87,0-2.81Z"/>
        <path class="cls-85" d="M78.4,172.74c-1.18-.98-1.6-2.12-.7-3.51,1.17.98.53,2.33.7,3.51Z"/>
        <path class="cls-2" d="M93.84,206.48c2.67-.68,5.26-2.27,8.1-.51,1.74,1.08,2.84-1.51,4.54-.89-.15.56-.35,1.11-.45,1.67-.4,2.11-.93,4.41-3.27,4.85-3,.56-6.24.86-8.05-2.66-.2-.4-.57-.71-.87-1.06v-1.41Z"/>
        <path class="cls-42" d="M105.81,224.04c-.41,1.93-.89,3.81-3.41,4.49.12-2.65-.34-5.4,3.38-5.89,0,.47.02.93.03,1.4Z"/>
        <path class="cls-48" d="M138.02,219.09c-1.6.3-1.85,1.56-2.03,2.87.32,1.62.71,3.23.7,4.9-.47,0-.95,0-1.42-.01-1.61-2.57.04-5.37-.52-8.07-.25-1.2,1.47-1.35,2.37-1.45,1.27-.14.82,1.04.9,1.76Z"/>
        <path class="cls-127" d="M131.74,233.2c-1-.95-.96-1.9,0-2.84.36-.25,1-.76,1.03-.72.74.84.21,1.9.42,2.85-.03.23-.04.45-.05.68-.46.43-.93.43-1.4.03Z"/>
        <path class="cls-73" d="M142.99,236.68c-.12-.59-1.02-1.3-.19-1.74.84-.45,1.63.41,1.69,1.1.09,1.05-.96.46-1.5.64,0,0,0,0,0,0Z"/>
        <path class="cls-92" d="M138.23,235.61c.86.92,1.41,1.58.99,2.61-1.45-.23-1.16-1.23-.99-2.61Z"/>
        <path class="cls-62" d="M135.29,192.41c-.01-.46-.02-.92-.03-1.39.02-.57.12-1.09.68-1.39.3.14.53.36.7.64,0,1.89.02,3.78.02,5.67.23.25.43.51.6.8.26,1.12.71,2.23.12,3.38-.09.88.19,2.08-.91,2.34-1.06.25-1.11-.83-1.23-1.61.24-1.17.47-2.34.71-3.5-.89-1.56.21-3.38-.67-4.94Z"/>
        <path class="cls-56" d="M141.54,193.89c-.73-1.94-2.05-3.82-.72-6.42.89,2.36,1.37,4.32.72,6.42Z"/>
        <path class="cls-36" d="M142.28,178.37c1.54,3.9.27,7.89,0,11.85,0-3.95,0-7.9,0-11.85,0,0,0,0,0,0Z"/>
        <path class="cls-56" d="M138.89,184.7c-.21.96.83,2.39-.62,2.39-1.55,0-.74-1.59-.86-2.48-.1-.74-.16-1.92.96-1.83,1.83.15.18,1.41.53,1.91Z"/>
        <path class="cls-11" d="M137.39,200.12c-.24-1.15-.47-2.31-.71-3.46,2.41-.62,1.68.92,1.45,2.12-.03.45-.07.9-.1,1.34,0,0-.32.01-.32.01h-.32Z"/>
        <path class="cls-29" d="M136.64,190.26c-.23-.21-.47-.43-.7-.64.26-1.39-.56-2.97.71-4.2,0,1.61,0,3.22,0,4.84Z"/>
        <path class="cls-3" d="M138.13,198.77c-.08-.99,0-2.07-1.45-2.12,0-.24,0-.48-.01-.72,2.28.02,2.68,1.01,1.47,2.84Z"/>
        <path class="cls-60" d="M136.69,226.86c-.98-1.53-.7-3.23-.7-4.9.66,1.63,1.34,3.25,1.96,4.9.1.28.29.99-.51.65-.29-.12-.5-.43-.75-.65Z"/>
        <path class="cls-9" d="M131.74,233.2c.47,0,.93-.02,1.4-.02-.48,1.72,1.65,3.78-.9,5.5-.84-1.88-.32-3.72-.5-5.47Z"/>
        <path class="cls-83" d="M134.57,242.57c-.22.33-.35.74-.57.79-.6.15-.76-.35-.7-.79.03-.23.36-.58.57-.59.21,0,.43.34.7.59Z"/>
        <path class="cls-6" d="M67.64,200.77c1.02-2.03,2.13-4.01,3.66-5.72,1.59,2.4.31,4.14-1.32,5.81-.76-.52-1.55-.28-2.34-.09Z"/>
        <path class="cls-119" d="M61.52,211.31c.18-1.09.79-1.94,1.51-2.72,2.52,1.08.32,2.18-.11,3.07-.45.93-1.25,1.05-1.4-.35Z"/>
        <path class="cls-87" d="M53.83,153.07c.76.74,1.2.46,1.36-.47.27-1.51-.24-2.94-.99-5.14,2.48,1.61,3.34,2.95,2.3,5.05-1.19,2.42-.36,5.56-2.67,7.58-.24-.47-.47-.93-.71-1.4.53-1.39,1.06-2.78.04-4.18-.66-.9.15-1.1.67-1.44Z"/>
        <path class="cls-78" d="M52.42,141.83c.18,3.32.41,6.63,1.41,9.82-2.04-.9-3.87-1.69-2.22-4.61.83-1.47-.59-3.62.81-5.22Z"/>
        <path class="cls-12" d="M47.97,136.78c1.47,1.71.83,3.71.69,5.64-.54-1.82-2.22-3.46-.69-5.64Z"/>
        <path class="cls-18" d="M58.03,160.79c-.46.24-.93.48-1.39.72,0,0-.35,0-.35,0,0,0-.35,0-.35,0,0-.88,0-1.77,0-3.08,1.13.71,2.03,1.11,2.1,2.37Z"/>
        <path class="cls-105" d="M55.24,139.71c-.33,1.61,1.63,3.32-.64,5.25.34-4.19-1.07-7.6-2.86-10.89.48-.33.17-1.07.69-1.39,2.34-2.92,1.72-7.11,4.65-10.52.7,3.69-1.54,6.24-1.85,9.11-.59,2.34-.59,4.69,0,7.03,0,.47,0,.93,0,1.4Z"/>
        <path class="cls-120" d="M62.96,145.33c-.43.62-.87,1.23-1.78,2.53.17-2.06.27-3.35.37-4.64,1.45-2.75.39-5.7.68-8.54.13-1.34.02-2.71.24-4.07,1.23,4.88,1.84,9.77.48,14.71Z"/>
        <path class="cls-80" d="M52.43,132.68c-.02.57-.12,1.09-.69,1.39-1.01-2.69-2.02-5.37-3.04-8.06-.41-1.08-.95-2.18.21-3.15,1.17,3.28,2.34,6.55,3.51,9.83Z"/>
        <path class="cls-22" d="M55.23,138.31c-1.09-2.34-1.09-4.69,0-7.03,0,2.34,0,4.69,0,7.03Z"/>
        <path class="cls-90" d="M95.25,154.47c4.98,1.68-1.74,2.74-.63,3.58-.19-.91-3.42-1.01-2.08-3.57.68-1.3,1.8-1.24,2.71,0Z"/>
        <path class="cls-82" d="M60.85,160.8c-.7.18-1.4,1.12-2.11,0,.56-.71,1.24-1.19,2.19-1.17-.03.39-.06.78-.09,1.17Z"/>
        <path class="cls-82" d="M120.21,189.95c-.33.72-.81,1.42-1.68,1.44-.73.02-.78-.67-.75-1.26.04-.86.58-1.18,1.36-1.17.61,0,1.13.17,1.08.98Z"/>
        <path class="cls-102" d="M134.57,188.88c0-3.27-.02-6.54-.03-9.82,1.17,3.27,1.11,6.54.03,9.82Z"/>
        <path class="cls-3" d="M135.29,192.41c1.28,1.5.42,3.29.67,4.94-1.33-1.5-.44-3.29-.67-4.94Z"/>
        <path class="cls-81" d="M67.88,191c-1.55-3.4.67-6.27,1.3-9.37,3.46,3.67-.35,6.32-1.3,9.37Z"/>
        <path class="cls-35" d="M95.25,154.47c.19.6.77,1.3-.25,1.67-.19.07-.7-.21-.79-.44-.42-1,.32-1.12,1.04-1.23,0,0,0,0,0,0Z"/>
      </g>
    </g>
  </g>
</svg>