<?xml version="1.0" encoding="UTF-8"?>
<svg id="Warstwa_2" data-name="Warstwa 2" xmlns="http://www.w3.org/2000/svg" xmlns:xlink="http://www.w3.org/1999/xlink" viewBox="0 0 187.83 251.91">
  <defs>
    <style>
      .cls-1 {
        fill: #616364;
      }

      .cls-1, .cls-2, .cls-3, .cls-4, .cls-5, .cls-6, .cls-7, .cls-8, .cls-9, .cls-10, .cls-11, .cls-12, .cls-13, .cls-14, .cls-15, .cls-16, .cls-17, .cls-18, .cls-19, .cls-20, .cls-21, .cls-22, .cls-23, .cls-24, .cls-25, .cls-26, .cls-27, .cls-28, .cls-29, .cls-30, .cls-31, .cls-32, .cls-33, .cls-34, .cls-35, .cls-36, .cls-37, .cls-38, .cls-39, .cls-40, .cls-41, .cls-42, .cls-43, .cls-44, .cls-45, .cls-46, .cls-47, .cls-48, .cls-49, .cls-50, .cls-51, .cls-52, .cls-53, .cls-54, .cls-55, .cls-56, .cls-57, .cls-58, .cls-59, .cls-60, .cls-61, .cls-62, .cls-63, .cls-64, .cls-65, .cls-66, .cls-67, .cls-68, .cls-69, .cls-70, .cls-71, .cls-72, .cls-73, .cls-74, .cls-75, .cls-76, .cls-77, .cls-78, .cls-79, .cls-80, .cls-81, .cls-82, .cls-83, .cls-84, .cls-85, .cls-86, .cls-87, .cls-88, .cls-89, .cls-90, .cls-91, .cls-92, .cls-93, .cls-94, .cls-95, .cls-96, .cls-97, .cls-98, .cls-99, .cls-100, .cls-101, .cls-102, .cls-103, .cls-104, .cls-105, .cls-106, .cls-107, .cls-108, .cls-109, .cls-110, .cls-111, .cls-112, .cls-113, .cls-114, .cls-115, .cls-116, .cls-117, .cls-118, .cls-119, .cls-120, .cls-121, .cls-122, .cls-123 {
        stroke-width: 0px;
      }

      .cls-2 {
        fill: #4a4c4d;
      }

      .cls-3 {
        fill: #585b5d;
      }

      .cls-4 {
        fill: #424344;
      }

      .cls-5 {
        fill: #313435;
      }

      .cls-6 {
        fill: #57595a;
      }

      .cls-7 {
        fill: #515455;
      }

      .cls-8 {
        fill: #787a7c;
      }

      .cls-9 {
        fill: #7e8081;
      }

      .cls-10 {
        fill: #87898b;
      }

      .cls-11 {
        fill: #171718;
      }

      .cls-12 {
        fill: #3e4041;
      }

      .cls-13 {
        fill: #2f3132;
      }

      .cls-14 {
        fill: #4e5051;
      }

      .cls-15 {
        fill: #8a8d8d;
      }

      .cls-16 {
        fill: #6f7172;
      }

      .cls-17 {
        fill: #545556;
      }

      .cls-18 {
        fill: #515354;
      }

      .cls-19 {
        fill: #272829;
      }

      .cls-20 {
        fill: #919394;
      }

      .cls-21 {
        fill: #3c3e3e;
      }

      .cls-22 {
        fill: #959798;
      }

      .cls-23 {
        fill: #979899;
      }

      .cls-24 {
        fill: #272728;
      }

      .cls-25 {
        fill: #86898a;
      }

      .cls-26 {
        fill: #47494a;
      }

      .cls-27 {
        fill: #676a6b;
      }

      .cls-28 {
        fill: #525455;
      }

      .cls-29 {
        fill: #727475;
      }

      .cls-30 {
        fill: #232424;
      }

      .cls-31 {
        fill: #2e2f30;
      }

      .cls-32 {
        fill: #6a6c6d;
      }

      .cls-33 {
        fill: #404242;
      }

      .cls-34 {
        fill: #2b2f30;
      }

      .cls-35 {
        fill: #858788;
      }

      .cls-36 {
        fill: #404343;
      }

      .cls-37 {
        fill: #404344;
      }

      .cls-38 {
        fill: #747677;
      }

      .cls-39 {
        fill: #464748;
      }

      .cls-40 {
        fill: #252627;
      }

      .cls-41 {
        fill: #4f5253;
      }

      .cls-42 {
        fill: #2e3031;
      }

      .cls-43 {
        fill: #303132;
      }

      .cls-44 {
        fill: #878a8b;
      }

      .cls-45 {
        fill: #404345;
      }

      .cls-46 {
        fill: #727374;
      }

      .cls-47 {
        fill: none;
      }

      .cls-48 {
        fill: #585c5c;
      }

      .cls-49 {
        fill: #6e7273;
      }

      .cls-50 {
        fill: #0b0c0c;
      }

      .cls-51 {
        fill: #151616;
      }

      .cls-52 {
        fill: #373a3a;
      }

      .cls-53 {
        fill: #828485;
      }

      .cls-54 {
        fill: #3c3e3f;
      }

      .cls-55 {
        fill: #28292a;
      }

      .cls-56 {
        fill: #484b4b;
      }

      .cls-57 {
        fill: #1f1f20;
      }

      .cls-58 {
        fill: #7d8081;
      }

      .cls-59 {
        fill: #606365;
      }

      .cls-60 {
        fill: #6c6f70;
      }

      .cls-61 {
        fill: #4e4f50;
      }

      .cls-62 {
        fill: #656869;
      }

      .cls-63 {
        fill: #1d1e1f;
      }

      .cls-64 {
        fill: #877465;
      }

      .cls-65 {
        fill: #686a6b;
      }

      .cls-66 {
        fill: #18191a;
      }

      .cls-67 {
        fill: #2a2c2d;
      }

      .cls-68 {
        fill: #514438;
      }

      .cls-69 {
        fill: #0d0e0e;
      }

      .cls-70 {
        fill: #67696a;
      }

      .cls-71 {
        fill: #3b3f41;
      }

      .cls-72 {
        fill: #373c3e;
      }

      .cls-73 {
        fill: #5c5e5f;
      }

      .cls-74 {
        fill: #1b1d1e;
      }

      .cls-75 {
        fill: #282829;
      }

      .cls-76 {
        fill: #4b4e4f;
      }

      .cls-77 {
        fill: #8b8e8f;
      }

      .cls-78 {
        fill: #686768;
      }

      .cls-79 {
        fill: #333637;
      }

      .cls-124 {
        clip-path: url(#clippath);
      }

      .cls-80 {
        fill: #7b7c7e;
      }

      .cls-81 {
        fill: #525355;
      }

      .cls-82 {
        fill: #8e9192;
      }

      .cls-83 {
        fill: #787a7b;
      }

      .cls-84 {
        fill: #3c4041;
      }

      .cls-85 {
        fill: #34312e;
      }

      .cls-86 {
        fill: #797b7d;
      }

      .cls-87 {
        fill: #505254;
      }

      .cls-88 {
        fill: #6a6e6f;
      }

      .cls-89 {
        fill: #424445;
      }

      .cls-90 {
        fill: #5e6162;
      }

      .cls-91 {
        fill: #8b8d8f;
      }

      .cls-92 {
        fill: #717375;
      }

      .cls-93 {
        fill: #595d5f;
      }

      .cls-94 {
        fill: #606263;
      }

      .cls-95 {
        fill: #191b1c;
      }

      .cls-96 {
        fill: #737676;
      }

      .cls-97 {
        fill: #939595;
      }

      .cls-98 {
        fill: #1b1b1b;
      }

      .cls-99 {
        fill: #484b4c;
      }

      .cls-100 {
        fill: #737576;
      }

      .cls-101 {
        fill: #5e6061;
      }

      .cls-102 {
        fill: #323536;
      }

      .cls-103 {
        fill: #0e0f10;
      }

      .cls-104 {
        fill: #77797a;
      }

      .cls-105 {
        fill: #616365;
      }

      .cls-106 {
        fill: #8a8c8d;
      }

      .cls-107 {
        fill: #848687;
      }

      .cls-108 {
        fill: #696d6f;
      }

      .cls-109 {
        fill: #5c5f60;
      }

      .cls-110 {
        fill: #717374;
      }

      .cls-111 {
        fill: #808485;
      }

      .cls-112 {
        fill: #424546;
      }

      .cls-113 {
        fill: #4b5052;
      }

      .cls-114 {
        fill: #5b5d5e;
      }

      .cls-115 {
        fill: #7a7c7e;
      }

      .cls-116 {
        fill: #707475;
      }

      .cls-117 {
        fill: #3a3c3d;
      }

      .cls-118 {
        fill: #8f9192;
      }

      .cls-119 {
        fill: #313233;
      }

      .cls-120 {
        fill: #726255;
      }

      .cls-121 {
        fill: #343536;
      }

      .cls-122 {
        fill: #6f7072;
      }

      .cls-123 {
        fill: #525556;
      }
    </style>
    <clipPath id="clippath">
      <rect class="cls-47" width="187.83" height="251.91"/>
    </clipPath>
  </defs>
  <g id="Warstwa_1-2" data-name="Warstwa 1">
    <g class="cls-124">
      <g>
        <path class="cls-50" d="M30.54,188.19c.02-2.42.05-4.84.07-7.26.23-.29.51-.53.81-.74,3.06-1.1,6.19-1.98,9.26-3.04,3.35.71,6.78-.57,10.14.41.75.22,1.19-.35.99-1.06-1.18-4.33.94-7.95,2.44-11.71-.36-2.69-1.13-5.3-1.29-8.01-.57-1.28-2.34-1.2-2.89-2.51-.83-2.03-.72-3.93.28-5.95,1.5-3.02.85-6.41,1.23-9.63,2.19-1.91,2.42-4.48,2.4-7.14,1.51-2.62-.27-5.29.1-7.92-.79-2.75.64-4.86,2.02-6.98.69-2.53,3.1-4.1,3.68-6.68,3.09-.01,4.72,1.58,4.63,4.52-.03.99-.56,1.91-.46,2.9.09.85.11,1.8,1.53,1.16,2.57-1.16,4.05-.48,4.95,2.09.68,1.95-1.13,4.58-3.39,5.31-1.01.33-2.87-1.31-2.93.78-.05,1.92,1.59,2.05,3.27,1.72,1.17-.23,1.63.89,2.13,1.72.83,1.37,1.1,2.98,1.84,4.77,1.03-1.84,2.39-3.14,3.41-4.76,1.31-2.08,3.26-2.05,4.06.24.82,2.36,1.76,2.42,3.7,1.45,1.56-.78,3.17-.58,4.11,1.17.91,1.69.44,3.11-1.14,4.11-1.18.74-1.97,1.72-2.65,2.95-1.45,2.63-2.43,2.63-4.26.32-.65-.82-.8-2.32-2.17-2.2-1.03.09-1.61,1.12-1.83,2.1-.35,1.56.37,2.96,1.29,4.07.8.98,1.45-.33,2.17-.59,4.48-1.61,8.93-2.55,13.39.88.17-2.41-1.03-4.01-2.46-5.46-1.92-1.95-1.83-3.74-.04-5.78,2.2-2.51,4.1-5.2,3.69-8.89-.13-1.19.6-2.21,1.93-2.23,1.28-.02,1.39,1.14,1.65,2.09.24.88-.05,2.13,1.31,2.32.66.09,1.12-.42,1.43-.97.74-1.32-.07-1.99-1.06-2.68-1.76-1.21-2.25-2.67-.36-4.15,2.27-1.77,3.45-3.29-.37-4.56-.64-.22-.87-1.12-1.45-1.82-.79,1.82-1.46,3.87-3.88,2.34-2.08-1.32-1.58-3.01-.41-4.75.71-1.06,2.12-1.78,1.78-3.62-1.66-.15-2.93.97-4.39,1.36-.97.26-1.98.66-2.57-.52-.43-.87-.12-1.75.63-2.3,2.53-1.86,2.17-2.88-.82-3.54-1.23-.27-2.26-1.26-1.99-2.7.26-1.37,1.61-1.5,2.67-1.41,2.04.17,3.47-.96,4.99-1.97.72-.18,1.42-.14,2.08.22.98,2.46,2.55,2.99,5.35,3.34,3.05.38,5.5.45,8.15-1.04,1.37-.77,3.2-.54,4.09.66,2.43,3.27,6.44,3.06,9.56,4.74.43.23.91.35,1.3.66,1.72,2.79,2.04,6,2.62,9.11.28,1.51.61,2.57,2.09,3.53,3.25,2.12,3.67,9.43.98,12.38-.57.22-1.17.32-1.78.34-1.66.06-3.27.14-3.21,2.47.05,2.36,1.77,2.23,3.37,2.3.73.04,1.44.17,2.08.52,1.53,1.41,1.66,3.63,3.01,5.15.67.9,1.37,1.79,1.76,2.87-.16,4.31-.81,8.45-4.22,11.59-2.2.62-5.42-.79-6,3.03-.06.49-.17.96-.27,1.44q-.96,4.35,3.46,4.12c1.74.02,3.5-.17,5.21.3.77.28,1.29.8,1.5,1.6.11,1.5-1.24,3.3.96,4.38.28.14.2.65.12,1.03q-.65,3.15,2.92,2.75c.56-.03,1.07.08,1.53.42.76,2.37,3.1,4.03,3.04,6.76-1.7,1.47-3.8,1.93-5.91,2.38-2.33-.38-2.3,1.6-2.92,2.93-.31.46-.71.79-1.23.99-3.21.23-6.16-1.16-9.3-1.51-3.88-.44-7.7-.97-11.58-.13-7.8.21-15.55-.73-23.33-.91-2.79-.94-2.37-3.13-1.8-5.16.53-1.89,1.61-3.56,2.92-5.05-2.68-.97-5.28-1.64-8,.11-1.16.74-2.35-.14-3.28-1-1.47-1.36-3.1-1.66-6-.67,5.26,1.84,4.97,6.22,6.39,9.68-1.97,3.52-2.78,3.5-6.37,2.77-5.97-1.2-12.07-1.53-17.75,1.34-1.58.8-2.86-.03-4.28.04-1.59.08-3.19,0-4.79.01-.75-.06-1.48-.24-2.06-.71-2.64-2.15-4.85-2.41-6.91.91-.94,1.52-3.29.95-4.7,2.04Z"/>
        <path class="cls-103" d="M106.58,354.14c-2.24-4.03-2.54-8.22-1.76-12.77.72-4.24-.2-8.55-1.06-12.76-1.2-5.88-2.31-11.77-2.44-17.8,0-.37.12-.89-.07-1.08-4.02-3.88-1.76-8.41-1.29-12.71.29-2.63-.15-5.12-.77-7.63-2.38-9.76-4.72-19.53-7.1-29.29-.14-.56-.46-1.06-.74-1.69-1.66,1.63-1.25,3.59-1.35,5.37-.59,11.02-.38,22.13-4.29,32.71-.17.45-.06,1.02-.27,1.44-1.5,2.98,4.32,4.41,1.98,6.63-2.44,2.31-2.1,4.68-1.69,6.99.96,5.47,2.97,10.78,3.59,16.27.8,7.11,2.53,13.87,5.1,20.49.58,1.5-.69,2.57-1.42,3.61-1.68,2.38-1.8,4.87-.54,7.29,1.32,2.53,1.24,4.98.2,7.44-1.01,2.39-1.09,4.69-.25,7.14.47,1.38,1.11,2.98.82,4.3-2,9.14-.88,18.6-2.93,27.72-.63.46-.37,1.25-.66,1.83-.51,5.09-1.1,4.96-6.39,5.4-3.69.31-7.15.83-10.7-.5-1.31-.49-2.7-.83-2.99-2.36-.31-1.64,1.08-2.3,2.23-3.01.31-.19.64-.36.95-.56,5.02-3.18,5.02-3.2.26-6.48-2.78-1.91-2.68-3.41.31-5,.81-.43,2.3-.48,1.99-1.73-.36-1.43-1.75-.96-2.81-.74-1.07.22-2.12.67-3.25.34-2.68-1.64-1.88-3.39-.16-5.17,1.54-1.02,2.89-2.26,4.18-3.58,3.5-3.58,3.68-7.45-.1-10.83-2.34-2.09-2.23-3.87-.59-5.99,2.73-3.54,3.19-7.15,1.34-11.35-1.3-2.96-3.03-5.93-2.29-9.49.28-1.33-.7-1.66-1.88-1.38-1.45.35-2.75,1.03-3.99,1.84-.59.36-1.19.71-1.77,1.1-.45.31-.92.56-1.45.69-1.67.2-3.24-.33-4.82-.73-.51-.25-.87-.63-1-1.19,0-1.43,1.11-2.18,2.14-2.02,2.94.45,5.17-1.16,6.63-1.85-1.7.99-4.42,2.11-7.53,1.99-.99-.04-2.01.35-2.53-.79-.44-.95.2-1.74.88-2.22,2.13-1.52,3.48-3.35,3.36-6.13-.04-.84.68-1.59,1.52-1.94,2.81-1.18,2.11-2.72.47-4.37-.04-.34-.02-.68.04-1.01.34-1.81,3.07-3.24.87-5.47-.15-.51-.12-1.01.09-1.5,5.45-3.93,4.54-9.68-.59-13.45-.21-.29-.36-.61-.47-.96.51-4.03,2.82-6.21,6.63-6.16,1.46.02,2.92.18,3.76,0-1.57.38-3.63-.51-5.75-.67-.37-.1-.7-.27-.99-.5-.56-.81-.1-1.4.41-1.99.75-.6,1.62-.88,2.55-1,2.55-.38,3.7-1.97,4.22-4.4.78-3.64,3.1-7.05,1.53-11.03-.26-.67-.1-1.61-.61-2.09-3.53-3.32-1.88-6.63-.12-9.97.23-.48.52-.92.85-1.33,1.72-2.45,1.48-5.51,2.52-8.19.43-1.09.16-2.33-1.59-1.69-1.33.49-2.36.39-2.85-1.14,1.38-3.1,2.72-5.98,6.76-6.72,2.23-.41.27-2.62.52-3.98,0-.78.27-1.39,1.04-1.71.53-.14,1.05-.1,1.54.15,1.21.74,1.28,2.3,2.3,3.17,3.41-1.11,7.97,2.96,12.17,6.18,2.69,3.77,5.96,6.97,9.59,9.83.51.51.88,1.11.94,1.85-.78,3.03-2.52,2.05-4.06.82-2.08-1.65-4.08-3.4-6.67-4.59,1.88,7.04,3.82,13.97,7.64,20.2.63,1.37,1.35,2.7,2.26,3.91.87,1.63,2.51,2.82,2.79,4.79-2.06,2.6-2.27,2.58-5.39-.57.19.58.53,1.09.84,1.6q2.14,3.46,5.47.91c.29-.22.66-.3,1.02-.35,1.53.14,2.86.72,3.89,1.89.14.35.17.72.08,1.09-3.38,2.05-7.27,2.87-10.79,4.58-.45.2.3.63,0,.24-.13-.18-.11-.3.06-.36,1.37-.45,2.72-1.03,4.23-.66,2.64,1.94,1.96,4.72,1.85,7.35-.18,1-.56,1.94-.92,2.88-2.96,6.46-2,13.05.04,19.37,1.56,4.83,2.5,9.39.49,14.2-1.04,2.51-2.07,4.91-1.02,7.82.53,1.45-.09,3.16-2.27,3.25Z"/>
        <path class="cls-69" d="M74.05,71.66c-2.66-6.52-7-12.38-7.57-19.74-.17-2.15-.15-4.14.91-6.04,2.34.43,1.9,2.6,2.31,4.05.74,2.62,2.07,3.77,4.91,3.87,5.3.18,10.52-.49,15.74-.99,2.56-.25,5.1-1.53,7.51-2.6,2.27-1.01,2.63-3.31,2.44-5.68-.21-2.62-1.56-4.29-3.93-5.23-2.41-.96-5-1.14-7.51-1.71-6.18-1.39-7.24-2.78-6.97-9.05.03-.61.21-1.21.21-1.69-.69,3.35-2.49,6.45-3.78,9.7-1.51,3.83-5.89,3.94-9.38,4.89-1.28.35-1.21-.91-1.18-1.73.11-3.17-.33-6.36.26-9.52.2-6.63,4.79-9.62,10.13-11.54,5.96-2.14,12.17-2.83,18.38-.75,4.88,1.64,8.39,4.68,10.14,9.7,2.13,6.11,3.6,12.44,6.49,18.32,2,4.06,1.07,8.05-1.77,11.63-1.54,1.94-3.89,3.54-3.37,6.56.47,1.05.2,2.17.27,3.25.15,2.14-.08,3.2-2.83,4.11-3.78,1.26-7.25,3.96-9.78,7.37-1.16,1.56-2.11,3.31-3.87,4.33-.51.25-1.05.39-1.61.49-6.77,1.21-9.13.18-12.27-5.31-1.41-2.16-3.74-3.81-3.88-6.71Z"/>
        <path class="cls-11" d="M158.02,241.33c.15,7.09.55,14.14,1.31,21.21.52,4.82-2.96,8.7-5.26,12.55-2.92,4.89-6.88,9.17-10.45,13.66-2.08,2.62-4.19,1.96-6.21-.16-1.28-1.45-.98-3.15-.8-4.83,1.53-3.13,2.67-6.48,5.65-8.74,1.88-1.43,1.71-3.66,1.41-5.75-.29-2.03-1.15-3.93-1.32-6,1.17,6.29.16,9.77-3.58,11.96-1.06.2-2.07.12-2.99-.51-1.58-1.88-2.19-3.98-1.81-6.46.41-2.67.25-5.35-.2-8.04-.6-3.55-.55-7.07,1.1-10.4,1.81-3.51,4.49-6.47,6.36-9.94.69-2.86,3.09-3.24,5.41-3.74,1.66-.34,3.34-.22,5.01-.28.73-.09,1.46.04,2.19,0,2.86-.12,4.46.91,3.88,4.07-.09.48.05.97.3,1.4Z"/>
        <path class="cls-98" d="M45.97,292.88c-1.45,1.18-2.26-.02-2.99-.93-5.41-6.79-10.48-13.8-13.99-21.81-.75-1.71-1.12-3.47-.9-5.36.88-7.55.68-15.14.92-22.72-.61-.97-.15-1.58.7-2.03,3.8-2.03,12.93,0,15.64,3.45,1.75,2.26,1.49,4.95,1.61,7.56,0,1.18,0,2.35.01,3.53.13,3.41-1.07,6.77-.28,10.23.21.91.19,2.37-1.56,2.25-3.95,4.62-3.54,8.25,1.4,12.41,1.16,1.38,1.03,3.18,1.6,4.76.15.58.24,1.18.28,1.78-.38,2.45,1.33,5.65-2.45,6.89Z"/>
        <path class="cls-63" d="M121.97,104.14c-1.18-.15-2.65.52-3.47-.63-1.57-2.21-2.76-1.37-3.75.68-3.65-6.6-4.37-6.8-10.72-3.13-.58.33-1.05.65-1.61.09-1.76-1.78-3.56-1.69-5.98-1.06-3.25.84-2.25-2.19-2.53-3.91.36-1.58,1.82-1.89,2.97-2.44,7.12-3.4,13.17-7.83,15.88-15.68.12-.34.54-.44.93-.37,1.33,2.66,4.09,3.57,6.47,4.06,6.37,1.31,11.23,5.24,16.51,8.48-1.41,1.66-4.62,1.41-4.71,4.46-.5.73-1.1,1.35-1.99,1.59-1.45-.11-1.57-1.15-1.55-2.87-.26,2.26-.5,3.92.63,5.4.29,2.01-.83,3.45-2.51,3.79-1.88.38-.9,1.53-1.14,2.36-.1.33-.28.6-.54.83-1.39.21-2.06-.88-2.91-1.63Z"/>
        <path class="cls-74" d="M130.78,140.28c-1.29-1.45-2.15-3.09-2.21-5.08,2.1-1.75,2.75-3.44,1.78-6.48-.81-2.55-1.7-5.87.28-8.68.19-.31.41-.59.66-.85.83-.8,1.85-1.1,2.96-1.18,1.16-.11,2.37.11,3.4-.66.42-.29.86-.54,1.33-.75,2.88-.12,5.64-.09,8.28-1.97,1.51-1.08,3.75-.18,5.14,1.51,1.06,1.22,1.39,2.78,1.92,4.24.5,4.43,1.34,8.85.25,13.3-1.13,1.12-.39,2.52-.52,3.79-.15,1.46-.52,2.17-2.02,1.14-.2-.14.2-.75-.38-.48q-3.46,1.62-6.41-.5c-.14,1.45.25,3.11-1.41,3.74-1.27.48-2.39.1-3.37-.77-.65-1.73-1.3-3.46-3.33-4.07-1.51-.81-2.48.1-3.5,1.02-.98.88-1.65,2.09-2.87,2.73Z"/>
        <path class="cls-90" d="M157.99,197.06c.02,5.12.22,10.25,0,15.37-.19,4.58,1.02,8.94,1.54,13.41-2.71-.74-4.37,1.76-6.71,2.17-.53-.02-1.02-.16-1.48-.43-1.79-1.42-4-.48-5.93-1.05-1.48-.43-3.16-.25-4.36-1.48-.26-1.91-1.98-4.57,2.17-4.19-.74-3.41,2.63-2.14,3.93-3.28-2.34-1.25-9.17,1.02-12.27,3.99-1.5-.81-1.22-2.15-1.04-3.46.42-1.25.93-2.45,1.89-3.4.33-.17.68-.21,1.04-.12,1.86,1.29,3.1.7,4.7-.84,2.07-1.98,3.59-4.59,6.29-5.89,1.01.22,1.92.05,2.75-.61,2.29-1.8,2.87-.58,3.09,1.66.17,1.76.51,3.52,1.82,4.95-1.12-5.16,1.64-9.96,1.17-15.04-.07-.75.16-1.78,1.39-1.76Z"/>
        <path class="cls-85" d="M68.03,30.2v10.14c11.43.35,10.46-9.81,14.84-16.92,0,2.17,0,3.41,0,4.65,0,7.39.42,7.86,7.64,8.94,1.68.25,3.38.49,5.03.91,4.4,1.13,6.04,3.48,5.75,8.42-.22,3.85-2.92,4.64-6.19,5.85-6.45,2.4-12.96,2.49-19.58,2.52-5.26.03-5.52-.28-6.96-5.46-.31-1.12-.08-2.51-1.18-3.38.56-5.21-.77-10.5.64-15.67Z"/>
        <path class="cls-19" d="M54.86,123.34c-.48,2.75,2.23,5.55-.13,8.27-4.38,2.28-4.68,3.05-2.83,7.27,1.03,3.93.83,7.77-1.44,11.21-1.01,1.53,1.15,2.78-.02,4.12.03.95.02,1.89-.63,2.68-.78.73-1.61,1.07-2.59.36-.61-.83-.68-1.78-.63-2.75,2.4-6.54.65-12.47-2.71-18.15-2.25-2.18-3.04-5.75-6.49-6.8-.61-.57-.74-1.23-.35-1.98.26-1.67.52-3.35.79-5.02.81-.68,1.73-.82,2.73-.59,4.07,2.19,9.05,2.5,12.49,6.1.05.4.5-.37.11-.07-.15.12-.24.02-.23-.28.03-1.73-.46-3.69,1.93-4.37Z"/>
        <path class="cls-24" d="M60.05,110.07c.09,1.82-.04,3.48-1.93,4.53-1.02.56-1.11,1.73-1.09,2.83-1.03.32-1.86.01-2.52-.81-.72-1.64.16-3.22.17-4.84.54-2.43.86-4.79-1.69-6.44-.65-.42-.7-1.15-.76-1.91-.26-3.87-.29-3.87-3.78-2.54-1.11-.24-1.69-.76-1.02-1.93.19-.28.39-.56.58-.84,1.72-.46,1.46-2.38,2.47-3.36.43-.34.86-.67,1.29-1.01,3.29.94,3.02-2.43,4.49-3.7.24-.23.48-.46.73-.69,3.75,1.07,3.19,4.45,3.83,7.29.47-1.09.9-2.11,2.31-1.78.34.13.61.35.76.68.16.34.2.68-.08.99.51-.15.2-.55.22-.83.03-.35,0-.7.16-1.03,1.94-.48,1.69,1.18,1.89,2.12.34,1.66,1.34,2.05,2.8,1.9.89.26,1.59.72,1.84,1.68-2.53,2.62-4.32,6.03-7.94,7.51-2.45-1.16-2.05,1.2-2.74,2.21Z"/>
        <path class="cls-114" d="M78.48,77.54c2.99,5.51,4.33,6.12,11.7,5.29.35.51.75.86,1.45.9,2.25.15,2.56,1.68,1.2,2.85-2.44,2.11-2.43,4.79-2.62,7.53-.61,1.48-1.35,1.74-2.17.18-.68-1.31-.2-2.83-.73-4.53.64,6.85.21,7.42-4.86,6.79-2.73-1.87-4.95-4.34-7.53-6.39-1.63-1.3-3.37-2.4-5.4-2.99-1.14-1.96-.68-3.22,1.62-3.65,5.19,1.86,8.31,6.53,12.3,8.9-3.22-2.67-7.08-5.63-10.66-8.92-.71-.66-1.57-1.17-1.75-2.24.75-2.7,1.49-5.4,2.24-8.11,1.96.04,1.29,1.96,2.05,2.86.83.98,1.11,3.09,3.16,1.52Z"/>
        <path class="cls-45" d="M157.99,197.06c.03,5.49-2.63,10.71-.96,16.48.92,3.16-2.98-.43-3.65,2.03,1.57-3.29-2.34-5.55-.46-8.38-1.84-.42-1.31,1.78-2.64,1.7-.89-.06-2.14,1.4-2.46-.68-.63-1.69.83-2.16,1.73-2.97.88-.48,1.63-1.12,1.99-2.07.29-.78.81-1.57-.93-1.48-2.91.14-2.57-1.56-1.37-3.29,1.27-1.82,2.27-3.77,3.09-5.81.46-1.15,1.67-2.66-.36-3.33-1.5-.5-3.2-.34-4.03,1.51-.2.44-.24.95-.46,1.39-.5.97-1.32,1.52-2.38,1.33-1.11-.2-1.54-1.12-1.6-2.18-.12-2.11.23-4.13,1.25-6.01.98-.77,1.8,0,2.69.25,2.31.65,3.61-.1,3.5-2.67,1.41-1.1,2.67.52,4.03.22-.2-.75.24-1.18.81-1.44.79-.36,1.09.15,1.19.85.09-.04.03-.12.03-.17-.05-.82-.46-1.72.45-2.36.98,5.67.52,11.39.55,17.09Z"/>
        <path class="cls-34" d="M91.7,82.67c3-5,7.24-8.71,12.14-11.76.31-.19.56-.71.82-.7,5.3.25,2.44-3.97,3.37-6.1.66,3.89.33,8.12,3.71,11.11,1.66,5.7-1.5,9.71-7.57,9.55-.78-.02-1.41.33-2.09.58-1.92.13-3.83.48-5.76.33-.71-.06-1.5-.24-1.63-1.14-.09-.66.36-1.13.82-1.52,1.2-1,2.84-1.31,3.59-2.26-1.1.99-2.92,1.56-4.5,2.58-.91.59-2.41,1.53-2.89-.68Z"/>
        <path class="cls-2" d="M49.63,156.51c.09-.83-.04-1.74.81-2.31.88,1.13,2.75.25,3.47,1.69-1.77,2.2-1.16,5.02-1.73,7.52-.34,1.48,2.54.65,3.38,1.92-2.06,3.4-4.13,6.78-2.38,11.01.64,1.55-.76,3.03-1.53,2.57-3.54-2.09-7.39.47-10.85-1.08-.19-.34-.14-.65.1-.94,1.23-.8,2.62-.35,3.8-.48-1.63-.28-3.88.75-4.85-1.79.81-3,3.24-2.47,5.38-2.36,1.13.06,2.36.51,2.56-1.11.19-1.54-1.12-1.7-2.21-1.86-1.91-.28-3.61.18-5.2,1.33-.83.6-2.69,1.42-2.67.04.07-3.71-2.39-2.5-4.2-2.72-.37-.05-.71-.18-.97-.45.04-3.48-.13-6.98.85-10.38,1.51,1.31.68,3.2,1.02,4.44,5.1.51,8.32,6.23,13.32,4.11-.62-.63-1.65-1.87-3.28-2.39-.93-.3-1.96-.77-1.58-2.04.31-1.03,1.34-1.66,2.29-1.48,2.75.52,3.64-1.27,4.48-3.24Z"/>
        <path class="cls-115" d="M131.63,119.71c-.05.18-.12.35-.2.51-.44.69-1.35.66-1.51.2-.89-2.56-3.58-4.5-2.6-7.72.62-2.04-1.6-3.22-1.74-5.11-.05-.61-1.01-1.07-.64-1.94h.03c2.79-1.31,3.15-4.67,5.43-6.41.41-.33.85-.6,1.35-.77,3.57-.41,3.15,1.98,2.77,4.45,2.88-1,6.17-.4,7.8-3.69.55-1.11,1.74-.53,2.68-.49.65.42,1.04.99,1.09,1.78-.15.84-.06,1.98-.75,2.4-3.96,2.39-5.2,7.12-8.68,9.89-.66.52-1.22,1.24-2.23.88-.14.41-.81-1.6-.55.08.38,2.48-1.1,4.12-2.27,5.93Z"/>
        <path class="cls-42" d="M140.39,140.28c1.89.05,5.92,2.65,3.23-2.77-.36-.73.37-1.4,1.29-1.14.57.16,1.11.51,1.6.86,3.97,2.9,4.26,2.8,4.81-1.77,1.64.39.2,2.37,1.63,2.95,1.74-1.13-.34-3.68,1.63-4.72.22,4.32.45,8.64.67,12.96.03,3.5,1.3,7.1-.89,10.4-3.6.6-4.31,0-3.55-3.3.41-1.78.44-3.37-.88-4.76-1.7-2.64-3.65-1.99-5.68-.43-.32.1-.65.1-.97,0-1.35-2.09-4.01-2.74-5.33-4.87.09-1.44,1.23-2.2,2.03-3.19.14-.08.28-.15.43-.23Z"/>
        <path class="cls-2" d="M37.05,127.57c.29.56.58,1.11.87,1.67,2.97,1.86,4.28,5.14,6.51,7.63,2.89,3.67,2.94,8.14,3.59,12.46.3,2-1.31,3.4-1.45,5.23-.16.36-.42.65-.75.86-.92.4-1.83.42-2.69-.15-1.04.13,1.78-1.94-.63-1.09-.8.28-1.64.11-2.35-.43-.5-.9.24-1.31.73-1.81,4.77-4.83,3.89-10.79-2.26-14.59-.42,1.41.35,2.67.33,4.19-.04.27.61,0,.12-.03-.05,0-.02-.09-.03-.24-.09-.88-.21-1.79.96-2.03.8-.17,1.42.26,1.93.83.42.46.7,1,1,1.54,1,1.82,1.39,3.87.41,5.64-1.1,2.02-2.87-.31-4.33.18-.32.05-.64.09-.96.14-2.66,1.35-1.02,3.71-1.33,5.61-.25.88-.66,1.72-.72,2.65-.14.63-.34,1.23-.7,1.78-1.68,1.43-1.22-.76-1.86-1.1,1.71-9.58,1.34-19.42,3.6-28.93Z"/>
        <path class="cls-81" d="M45.25,244.45c-3.8-5.13-9.37-3.6-14.47-3.85-1.05-.05-1.54.54-1.76,1.46-1.98-.84-2.63-2.38-2.22-4.4.65-3.18.33-6.53,1.64-9.6.65-1.34,2.12-1.63,2.24-.26.26,2.95,2,2.31,3.76,2.29,2.06-.02,4.12-.16,6.18-.27,1.02.27,2.48.31,2.4,1.7-.1,1.79-2.35,1.48-3.16,2.63,1.33-.56,3.43-1.18,2.48,1.23-.85,2.16.41,2.21,1.31,3.18,1.5,1.6,4.42,3.04,1.6,5.89Z"/>
        <path class="cls-7" d="M151.35,227.22c.52.02,1.04.05,1.56.07.38.36.51.81.35,1.3-.78,2.44.54,4.42,2.33,5.22,2.34,1.05,3.87-.83,4.79-2.95.65,2.66,2.47,5.53-1.77,7.13-.54.2-.4,2.19-.58,3.34-.13-4.56-3.18-4.84-6.64-4.55-2.6-.69-5.09-2.57-8.28-.82,1.34.29,2.54-.09,3.26,1.01-2.07.49-3.95,1.22-4.53,3.6q-5.5-2.59-4.86-6.36c.44-.83,1.72-.83,1.59-2.41-.19-2.4,1.11-4.34,3.36-5.48,3.06,1.11,6.31.27,9.41.9Z"/>
        <path class="cls-62" d="M101.99,84.89c1.07-1.04,1.77-3.14,3.64-.49.62.88,5.82-3.63,6.03-5.52.14-1.21.06-2.44.08-3.66.73.76,1.82,1.23,1.95,2.46-2.05,7.89-7.78,12.48-14.55,16.08-1.69.9-3.48,1.61-5.23,2.41-.72-.06-1.45-.11-2.17-.17-.27-.25-.39-.56-.37-.92-.38-.7,2.31-1.3-.16-2.29-2.4-.96-1.6-2.75.32-3.68,3.38-1.65,6.97-2.82,10.47-4.21Z"/>
        <path class="cls-114" d="M30.54,188.19c.23-.4.44-1.14.71-1.16,2.5-.18,3.57-2.37,5.19-3.7,3.52-2.89,4.96,1.11,7.35,1.94,1.53,1.56,4.02,2.42,3.83,5.23-2.28,1.36-4.23.75-5.73-1.2-1.01-1.3-2.09-2.23-3.85-2.4,2.49,4.81,6.23,6.22,10.28,3.99,2-.41,2.94.9,3.82,2.33.07,2.49-1.07,3.51-3.59,3.08-1.54-.26-3.1-.45-4.64-.73-1.43-.26-2.74-.84-4.58-1.67,1.35.73,1.8,1.39,1.69,2.37-1.21,1.02-2.74.65-4.12.95-1.98-1.97-3.58-4.4-6.45-5.3-1.3-1.28-.31-2.5.09-3.73Z"/>
        <path class="cls-37" d="M152.18,116.69c-3.8-2.45-5.01-2.26-7.45,1.35-.62.91-1.99,1.03-2.05.55-.44-3.38-2.51-.91-3.77-1.18-2.78-3.62-.53-9.36,4.44-10.23,2.57-.45,5.52-.74,8.12.66.23.27.47.54.7.81,1.47,2.68.21,5.37,0,8.05Z"/>
        <path class="cls-66" d="M157.43,179.97c-.09,1.21-.17,2.43-.27,3.69-1.16.14-.88-1.93-1.03-1.47-1.31,4.01-3.78.06-5.45.94-.16,0-.32.02-.47.03-1.09-.16-2.18-.32-3.26-.56-1.11-.6-2.02-1.54-3.25-1.94-.79-.39-1.39-.97-1.8-1.75-.58-1.55-2.64-2.76-1.08-4.79.31-.2.65-.32,1.02-.35,2.76,1.1,5.57,1.32,8.44.47,4.88-.16,5.18.06,7.1,5.12.14.19.16.4.05.61Z"/>
        <path class="cls-101" d="M29.08,225.06c.27-2.94.53-5.88.8-8.83.57-2.64.14-5.31.26-7.97.05-1.05.05-2.07,1.59-1.52,2.29,2.34,5.82,3.51,6.75,7.13.1,1.04-.18,2.13,1.16,2.77,1.2.58,1.27,1.66.52,2.76-.48.39-1.16.39-1.62.83-.1.28,0,.46.24.62,1.21.78,3.78-.06,3.62,2.18-.14,1.84-2.32,1.36-3.67,1.6-1.35.24-2.34,1.37-3.76,1.36-1.32-.92-1.13-2.29-1.06-3.62.08-1.58.11-3.15-1.44-4.74.06,1.92,1.51,3.42.6,4.98-.87,1.49-1.99,2.75-4.01,2.44Z"/>
        <path class="cls-30" d="M32.53,167.48c.83-.1,1.66-.25,2.5-.3q4.34-.26,2.87,4.34c2.74-2.83,5.48-3.82,8.64-3.11,1.06.24,2.16.61,2.59,1.82.54,1.56-1.59,2.06-1.43,3.58.04.38-.75.02-1.18-.17-2.29-1.02-4.51-1.07-6.53.66-2.18,1.96-4.67,1.04-6.98.53-2.02-.44-1.42-2.22-1.17-3.65.29-1.22-.25-2.59.68-3.69Z"/>
        <path class="cls-93" d="M151.47,107.82c-3.18,1.02-6.67-1.13-9.78,1.12-3.18,2.29-4.01,4.47-2.78,8.46-.26.23-.52.46-.78.69-1.03,1.03-2.83-1.29-3.61.83-1.03.02-2.02.17-2.88.8.11-2.25,2.05-4.09,1.49-6.5,2.35.76,2.94-1.57,4.35-2.47.51-.32,1.37-.75,1.36-1.12-.07-5.06,5.79-5.33,7.27-9.1,2.09,2.21,4.44,4.23,5.37,7.3Z"/>
        <path class="cls-56" d="M54.57,116.63c.82.27,1.64.54,2.47.8-1.5,1.68-2.9,3.4-2.17,5.91-.63,1.77-1.26,3.54-2.05,5.76-3-4.24-8.6-3.17-11.97-6.54-.11-3.04-3-5.6-1.55-8.92.06-.44.12-.88.18-1.32.23-.27.51-.48.84-.6,3.81.49,4.58,4.31,5.12,6.57.7,2.91,2.11,4.02,4.29,5.08.53.26,1.04.55,1.44,1.14-.56-2.19.22-4.21.67-6.27.02-.52.09-1.03.25-1.53.79-1.44,1.63-.97,2.48-.07Z"/>
        <path class="cls-117" d="M131.6,99.06c-.25.23-.5.47-.75.7-1.05.71-1.69.17-2.21-.73-1.75-1.24-2.07-5.25-.51-6.62.44-.39.98-.94,1.55-.35.26.26.34.94.2,1.3-.36.9-1.71,1.73.02,2.6,1.35.41,1.62-.38,1.62-1.47-.41-3.99,2.28-4.24,5.15-4.28,3.91.99,6.77,3.03,7.37,7.34-.38,1.92-1.94.99-2.88,1-3.19.05-6.37.33-9.55.49Z"/>
        <path class="cls-9" d="M29.08,225.06c2.32-1.51,5.31-2.68,2.32-6.28-.48-.58-.69-2.38.55-2.85,1.17-.44,1.34,1.1,1.94,1.78,2.18,2.47.2,5.45.99,8.08,1.65,2.23,3.92,1.16,5.95,1.02,1.68-.11,3.27-.92,5-.92,1.04,0,2.04.33,2.32,1.4.32,1.24-.8,1.67-1.68,2-1.81.67-3.66,1.25-5.65.96-3.18,1.61-6.67.08-9.95.97-.77.21-2.15-.16-.94-1.98,1.39-2.08-.19-1.75-1.49-1.17.21-1,.43-2.01.64-3.01Z"/>
        <path class="cls-55" d="M33.45,156.5c.67-.17.47,1.59,1.48.66.82-.25,1.29.18,1.65.84.13.57-.68,1.16-.17,1.6.34.3.87-.18,1.23-.49.54-.47.95-1.08,1.58-1.44.31-.13.64-.21.98-.23,2.44.2,4.91,1.19,7.31-.21.71-.24,1.42-.48,2.12-.72.17,2.81-.18,5.05-3.96,3.93-1.06-.31-1.76.38-2.78,1.52,3.39.35,5.34,2.14,6.66,5.03-2.82-1.74-6.12,1.04-8.93-1.33-.39-.33-1.12.63-1.61-.87-.9-2.77-3.06-3.01-5.64.11v-7.79c-.12-.22-.09-.42.08-.6Z"/>
        <path class="cls-46" d="M54.57,116.63c-.66.2-1.36-.82-2.01.06-1.3.06-1.33-.95-1.27-1.76.09-1.17.34-2.14-1.42-2.22-1.25-.06-1.46-1.13-1.25-2.22.21-1.08.42-2.15-.22-3.23-1.51,2.69-4.66,3.99-7.32,3.03-.48-.17-.69-.66-.43-1.2.07-.97.69-1.57,1.4-2.11.96-.72,1.71-1.75,2.75-2.29,1.29-.66.7-1.35.37-2.13.76-1.2,1.51-2.4,2.27-3.61.04.91.34,1.53,1.42,1.34,1.07-.38,2.61.09,2.34.86-.86,2.52,1.19,3.2,2.17,4.67,1.11,1.67.7,4.08,2.18,5.72.36,1.83-.54,3.42-.99,5.09Z"/>
        <path class="cls-10" d="M40.66,109.08c1.45,2.48,2.8-.63,4.45-.06,2.55.87,1.99-1.1,1.89-2.66-.06-.92.77-1.81,1.65-.8.76.87,1.76,2.5,1.42,3.18-1.85,3.72-.21,3.88,2.86,2.78.46,1.96-2.44,3.43-.38,5.17-.01.48-.03.96-.04,1.44-.81,2.31-3.2,2.03-4.8,2.38-2.02.44-1.79-1.81-1.84-3.15-.11-3.3-2.41-5.39-5.79-5.08l-.31.05s-.31,0-.31,0c-.08-1.25.15-2.39,1.19-3.23Z"/>
        <path class="cls-102" d="M160.38,230.86c-.2,3.29-3.17,5.3-6.27,4.24-.78-.27-1.13-.81-.91-1.68.11-.45.24-1.29.14-1.33-3.64-1.32-.36-3.21-.43-4.8.56-.22,1.44-.29,1.61-.68,1.32-2.89,3.13-1.92,5.01-.77.7,1.6.85,3.3.85,5.02Z"/>
        <path class="cls-8" d="M31.9,207.45c-1.77-.79-1.28.56-1.38,1.42-.29,2.45.62,5-.64,7.36.07-8.11-.29-16.23.57-24.32,4.06-.67,5.2,2.46,6.68,5.14-.09.55-.41.94-.88,1.21-1,.38-1.97.67-1.9,2.13.08,1.58-.69,2.94-1.58,4.22-.33.13-.66.11-.97-.07-.58-.71-.61-1.53-.5-2.39-.27,1.33-.07,2.51,1.1,3.37.2.74.16,1.41-.5,1.92Z"/>
        <path class="cls-48" d="M131.6,99.06c3.96-2,8.25-1.32,12.44-1.49.32.4.64.79.97,1.19-.8.81-2.52.29-2.6,2.3-.06,1.32-1.81,1.29-2.96,1.69-1.95.69-4.18.31-5.86,1.58-2.44-1.14,3.93-5.4-1.98-5.27Z"/>
        <path class="cls-21" d="M71.88,84.22c-2.49-.06-2.98.94-1.55,2.94,1.19.32,1.83,1.08,1.81,2.34-.19.56-.56.87-1.17.82-.89-.19-1.7-1.32-2.65-.56-.98.79-.69,1.97-.36,3.03.32,1.03.83,2.01.97,3.1.07,1.02.47,2.05-.1,3.06-1.8,1.7-2.93,1.53-3.49-1.08-.24-1.11.24-2.46-.92-3.32-2.13-1.34-2.83-2.83-.51-4.66,2.09-.96,1.19-3.63,2.77-4.89,1.19-.79,2.37-1.58,3.56-2.37,1.28-.22,1.74.39,1.65,1.59Z"/>
        <path class="cls-97" d="M31.85,171.18c.11,2.29.99,3.46,3.57,3,1.47-.26,3.04.06,4.57.12,1,1.7,2.58,1.34,4.16,1.29,1.45-.05,3.02-.33,4.95.95-3.12,1.02-5.74.3-8.24.67-3.15,1.38-7.1.57-9.7,3.5-.17.11-.36.19-.56.22-.11-3.32.39-6.56,1.24-9.75Z"/>
        <path class="cls-59" d="M157.38,179.35c-1.79-2.58-3.42-5.42-7.36-4.36-1.76.73-3.12-.04-4.39-1.15-.46-2.53,2.54-1.74,3.13-3.26.28-.22.6-.32.95-.34.6.09,1.12.36,1.64.64,2.49,1.37,3.55.6,3.25-2.18.16-1.27.31-2.53.38-3.81.12-.78.28-1.53,1.04-1.98.45,5.48.91,10.96,1.36,16.43Z"/>
        <path class="cls-77" d="M71.88,84.22c-.55-.53-1.1-1.06-1.65-1.59.12-.54.15-1.14.81-1.37,5.05,3.18,8.55,8.25,13.78,11.22.71.4,1.39,1.28.74,2.15-.64.85-1.4.16-1.78-.39-3.08-4.41-8.06-6.53-11.9-10.02Z"/>
        <path class="cls-17" d="M63.04,95.32c-1.88.22-.52,3.59-2.47,3.04-2.29-.65-.17-2.93-.82-4.42-.73-1.66-1.34-3.36-2.75-4.59.92-1.25,2.19-1.95,3.68-2.28,1.88,2.44,1.84,5.43,2.37,8.26Z"/>
        <path class="cls-112" d="M156.02,162.92c-.11.84-.22,1.67-.33,2.51-1.67-.52-2.49-2.4-4.31-2.69-.86-.78-1.18-1.65,0-2.33,1.28-.73,1.6-2.05,2.28-3.16,2.51-3.23.91-7.09,1.6-10.6.9,5.39.55,10.85.78,16.27Z"/>
        <path class="cls-50" d="M63.04,95.32c-1.66-2.5-1.96-5.4-2.37-8.26.73-1.16,2-.31,2.91-.79,2.31.82,1.62,2.31.86,3.83-2.37,1.47-.6,2.97-.03,4.46,0,.72,0,1.45,0,2.63-.63-.86-1.01-1.36-1.38-1.87Z"/>
        <path class="cls-105" d="M152.18,116.69c-2.02-2.68.58-5.37,0-8.05,2.58,3.58,1.85,7.76,2.15,11.75-.83-1.16-1.91-2.19-2.14-3.7Z"/>
        <path class="cls-46" d="M39.29,113.63c-.05,2.37.23,4.61,2.14,6.35,1.19,1.09.57,1.93-.59,2.57-1,0-2,0-3,0,.16-3.02.44-6.03,1.46-8.91Z"/>
        <path class="cls-23" d="M78.48,77.54c-.04.84.37,1.94-.41,2.41-1.11.67-1.17-.88-1.84-1.23-2.28-1.17-2.07-3.66-2.95-5.57.26-.5.51-1,.77-1.5,1.48,1.96,2.96,3.92,4.43,5.89Z"/>
        <path class="cls-17" d="M56.27,90.04c.37,1.41-1.18,2.2-1.08,3.7.07,1.07-1.42,2.03-2.6,2.02-1.11,0,.22-1.62-.81-2.02,1.5-1.23,2.99-2.46,4.49-3.7Z"/>
        <path class="cls-9" d="M64.45,90.1c-.48-1.23.71-2.84-.86-3.83.8-.98,2.01-.97,3.09-1.26-.19,1.94.57,4.29-2.23,5.09Z"/>
        <path class="cls-10" d="M45.17,102.56c2.52,3.98-1.83,3.12-3.11,4.42,1.04-1.47,2.08-2.95,3.11-4.42Z"/>
        <path class="cls-78" d="M50.49,94.74c-.3,1.5.52,3.84-2.47,3.36.35-1.47,1.04-2.69,2.47-3.36Z"/>
        <path class="cls-57" d="M68.84,98.96c-.51-.92-.78-1.89-.72-2.95,1.62-.37,3.16.91,4.79.21,2.64.53,5.19.1,7.69-.79.58-.01,1.07.19,1.5.57,1.78-.31,4.15.95,5.1-1.58.63-1.67-.64-3.51.32-5.88.37,2.17.55,3.85.96,5.47.27,1.05.81,1.16,1.11-.07,1.82-1.17,1.64.5,2,1.41.05.22.09.44.14.66-.82,2.38-2.75,2.31-4.76,2.27-.81-.02-2.23-.59-2.23,1,0,.85.83,1.69,1.72,1.64,1.59-.08,3.15.02,3.59,1.72.5,1.98-1.55,2.18-2.67,2.97-.58.41-.92.95-.58,1.53.41.71,1.02.36,1.55-.02,1.54-1.1,3.87-.72,4.75-2.87,2.08,2.14,2,3.85-.12,5.51-.66.52-1.17,1.26-1.64,1.97-.45.68-.38,1.43.21,2.02.61.62,1.34,1.2,2.25.89.81-.28.81-1.11.86-1.86.05-.7-.84-1.82.72-1.93.64-.05,1.34.19,1.38.92.17,3.18,2.7,2.54,4.83,2.86-.97,2.02-1.25,4.06-3.65,5.17-2.02.94-.77,2.36.68,2.63,2.15.39,2.31,1.69,1.77,3.18-.5,1.38-1.54,2.74-3.16,2.71-1.85-.04-1.72-1.67-1.83-3.04-.07-.85.54-2.34-.96-2.28-1.18.05-1.17,1.23-.96,2.32.7,3.71-1.7,6.23-3.82,8.63-1.68,1.9-1.86,3.24.18,4.8,2.61,1.99,2.81,4.88,3.03,7.76-.89.27-1.3-.22-1.76-.62-4.24-3.72-9.67-3.77-13.91-.08-.46.4-1.05,1.23-1.41.63-1.12-1.82-2.34-3.73-2.39-5.91-.05-2.02,2.08-2.83,3.15-4.23.46-.6.94.21,1.23.79.49.98,1.06,1.92,1.64,2.85.37.58.48,1.53,1.42,1.47.87-.06,1.2-.79,1.27-1.56.15-1.84,1.16-2.85,2.88-3.36,1.49-.44,1.81-1.49,1.2-2.89-.62-1.41-1.66-1.71-3-1.17-.57.23-1.16.47-1.63.84-1.94,1.5-3.11,1.48-3.08-1.38.01-1.16-.18-2.34-1.59-2.51-1.52-.18-1.02,1.34-1.52,2.02-1.19,1.61-2.84,2.8-3.32,5.01-.21.98-1.36.83-1.64-.45-.26-1.19-.22-2.6-.88-3.51-.82-1.14-.01-5.24-3.72-2.37-.88.69-1.77-.95-2.19-1.92-.46-1.06-1.72-2.03-.86-3.33.76-1.16,1.8-.44,2.6.04,2.08,1.24,2.78-.7,3.93-1.61,1.63-1.28.5-2.34-.28-3.41-.49-.68-1.01-1.33-1.48-1.95-.39.13-.62.17-.8.29-.97.6-.35,3.17-1.96,2.35-1.24-.63-3.01-2.05-1.71-4.45,1.7-3.14.13-5.05-2.98-6.02-.76-1.1-.8-2.23.18-3.16.88-.84,1.87-.84,2.69.2-.52,1.72.73,1.42,1.64,1.38,2.98-.14,4.09,1.46,3.49,4.13-.63,2.78.74,2.57,2.52,1.99,2.54-.83,5.26-1.37,5.86-4.72.24-1.31,1.45-1.89,2.7-2.19,2.7-.64,3.94-1.99,3.11-5.01-.96-3.5-3.17-2.61-5.43-1.95-2.19.63-4.41,1.86-6.47-.28-.5-.5-1-1-1.5-1.5Z"/>
        <path class="cls-73" d="M144.88,185.34c-.2,1.82-.35,3.65-.6,5.46-.13.92-.21,1.87.86,2.07.9.17,1.92-.45,1.74-1.4-.58-3.04,2.08-2.5,3.46-3.43,1.48-.99,2.56.39,3.59.78,1.04.4.3,1.95-.21,2.93-1.23,2.37-1.9,5.02-3.68,7.12-.48.56-1.75,1.1-.78,2.04,1.11,1.08,1.64-.19,2.28-.87.2-.22.56-.29,1.05-.52.73,2.97.26,5.17-2.61,6.4-.46-1-.98-1.74-2.12-.69-1.27,1.16-2.93,1.77-4.2,2.91-1.77,1.59-3.57,2.61-5.86,1.07-1.34-.9-1.81.94-2.87.89-6.79-3.58-13.86-2.88-20.97-1.34-1.7.37-3.39.45-5.09.13-1.4-.6-3.4-.09-4-2.16,1.01-1.17,2.43-1.08,3.74-1.03,4.9.18,9.72-1.16,14.63-.77,1.07.09,1.74-.11.78-1.29.97-2.33,3.09-1.68,4.74-1.57,2.72.19,3.5-.94,3.21-3.42-.22-1.81-.75-3.6-.6-5.45,0-1.56,1.07-3.08.19-4.68-.34-.85-.69-1.7-.13-2.59.25-.25.5-.49.75-.74,1.83.24,1.82-2.24,3.44-2.31,1.47.85,1.42,2.29,1.44,3.7-.18.82-.87,1.39-1.24,2.2,3.52.03,6.2-1.51,8.62-3.67.15.08.31.16.46.24Z"/>
        <path class="cls-89" d="M51.84,193.32c-1.37-.47-1.95-2.3-3.69-2.11-.58.13-.81-.13-.77-.69-.45-2.27-3.39-2.82-3.61-5.25,2.51-.48,5.03-.78,7.49.12.5.18.84.31,1.31.06,5.45-2.9,14.05-3.38,19.74-1.26,2.42.9,3.47-1.06,4.64-2.6,1.05-.87,1.97-3.11,3.37-.27.18.37-.07.44.13.27,3.34-2.87,4.13,1.54,6.23,2.14,9.94,1.01,19.93.85,29.89,1.54.24.05.49.07.7.18.97.51,2.75.4,2.35,2.09-.33,1.41-1.73,1.44-3,1.24-3.34-1.84-6.96-.48-10.43-.77-6.66-.55-13.39-.03-20.04-.96-7.53.95-15.11.76-22.68.69-.47,0-1-.05-1.07.65-2.73,3.3-3.64,3.48-6.5.9-1.59-1.44-2-.68-2.18.9-.15,1.34-.28,2.68-1.89,3.15Z"/>
        <path class="cls-75" d="M85.89,183.82c-.58-.13-1.63-.2-1.66-.41-.31-2.26-.59-3.85-2.56-.77-.46.71-1.7.66-2.37.23-1.04-.67.87-1.31.17-2.19-.79.28-1.65.59-2.5.9-.92-1.58-2.6-2.62-1.88-5.13.43-1.52-2.13-1.96-3.29-2.96-.71-.62-1.99-.98-1.62-2.11.36-1.11,1.63-.84,2.58-.85,1.93-.03,3.89-.32,5.11,1.88.55.98,1.57,1.41,2.76.38,1.78-1.54,3.9-1.84,5.88-.49,1.44.98,2.82-.41,4.33.27-2.38,3.2-6.81,5.55-4.17,10.57.04.57-.13.9-.78.7Z"/>
        <path class="cls-13" d="M128.54,153.6c.12-.03.3-.02.35-.09,1.99-3.41,3.63-6.92,3.37-11.01.08-.09.2-.17.22-.28.36-1.45-.88-4.05,1.58-4,1.85.04,1.65,2.62,1.93,4.19.38,2.21-.11,4.71,2.46,5.99.45.57.61,1.68,1.18,1.77,3.87.56,3.07,4.18,4.35,6.41.35.61-.04,1.36-.58,1.51-2.96.8-5.29,3.65-8.77,2.71-2.39-1.52.3-2.24.66-3.96-1.96,2.1-3.12,6.38-6.33,2.09-.61-1.74-2.36-3.39-.42-5.33Z"/>
        <path class="cls-5" d="M116.76,188.2c.92-.05,1.97.22,2.47-.96-.58-.87-1.94-.17-2.42-1.21-1.08-.79-2.31-.3-3.47-.39-1.22-.1-2.49-.03-2.55-1.76,7.1-1.57,13.83.55,20.62,2.04.28.76.57,1.53.85,2.29,1.03,2.27-.42,3.55-2.08,4.34-1.94.92-4.39,2.51-6.2,1.02-2.16-1.78.22-2.66,1.76-3.59-3.2.41-6.03,1.71-9.02,2.3-3.27.64-4.48-.41-4.36-3.62,1.38-.98,2.83-1.22,4.39-.46Z"/>
        <path class="cls-99" d="M124.95,105.65c.64,1.4,4.05,1.49,1.97,4.26-.24.32.71.84,1.39.71.94-.18,1.25.65.84,1-3.04,2.64,1.21,4.78.43,7.32-.25.81.89,1.33,1.86,1.28-2.16,3.04-.46,6.23-.18,9.32.08.91,2.13,1.86,1.19,2.93-.99,1.12-1.72,3.1-3.87,2.74-.74-.06-1.48-.13-2.22-.19,2.31-1.77.45-4.49,1.51-6.55,3.03-3.66-.57-7.14-.29-10.72-2.16.38-3.71-1.32-3.53-2.66.38-2.86-1.23-5.14-1.37-7.77-.06-1.07-.46-2.12-.7-3.18,1.34-.19,1.93,1.13,2.98,1.51Z"/>
        <path class="cls-4" d="M138.2,148.41c-3.05,1.5-2.66-1.42-2.8-2.58-.3-2.4-.33-4.82-1.22-7.27-1.7.72-.91,1.86-.58,2.95.44,1.45-.35,1.38-1.33,1-.49-.74-.99-1.48-1.48-2.22,1.8-4.04,3.78-5.37,6.63-4.44-1.16,1.76-.65,3.37.45,4.93.39.77.73,1.55.34,2.43,1.31,2.13,5,1.9,5.16,5.18-1.71,1.34-3.43,1.25-5.15.01Z"/>
        <path class="cls-112" d="M129.34,158.7c1.49.72,3.46,3.4,3.72-.93.08-1.3.89-1.95,2.19-1.96.66,0,1.2.26,1.46.89.71,1.77-1.12,1.48-1.77,2.14-.39.4-1.19.62-.4,1.35,1.43,1.12,2.94.77,4.49.28,2.61-.82,5.3-.69,7.97-.44,1.08.1,2.69.1,2.09,2.08-1.57,1.29-3.62,1.86-5.39,1.7-3.64-.34-7.04-.56-9.73,2.48-.83.23-1.27-.27-1.64-.89-.1-.63-.16-1.27-.82-1.61-1.56-1.34-4.03-2.29-2.17-5.09Z"/>
        <path class="cls-113" d="M129.34,158.7c-.91,2.39,2.1,3.11,2.17,5.09-1.98,0-3.96-.02-5.93-.03-1.76-1.84-.26-5.45-3.51-6.49.04-4.95,3.71-3.52,6.47-3.67-.99,1.9,1.13,3.3.8,5.1Z"/>
        <path class="cls-110" d="M110.79,183.88c1.36,2.52,4.37.41,6.01,2.15-9.8-.23-19.6-.25-29.35-1.44-.63-.08-1.2-.19-1.57-.76.26-.23.52-.46.78-.7,8.04.25,16.08.5,24.12.75Z"/>
        <path class="cls-109" d="M132.33,165.39c.47.23.94.47,1.41.7,2.08,2.34,4.31,2.94,7.61,2.21,2.35-.52,5.38-.24,7.82,1.21.17.19.25.4.22.62-.03.22-.07.33-.12.33l-.16.19c-3.38,1.09-6.91,1.18-10.39,1.63-.79.1-2.17-.52-1.95,1.24-.59.82-1.47.66-2.31.72-1.73.14-2.68-.71-3.21-2.29-.7-2.11,1.87-.97,2.1-2.25-.55-1.14-2.26-.63-2.8-1.97.25-.92,1.92-.99,1.77-2.36Z"/>
        <path class="cls-88" d="M127.86,128.47c.22.94.39,1.9.68,2.82.65,2.08-.05,3.31-2.19,3.73-4.55.18-4.74.09-4.41-4.25.35-4.69,4-1.39,5.92-2.3Z"/>
        <path class="cls-91" d="M136.78,173.53c-.57-.16-1.61-.3-1.62-.48-.05-1.18.94-1.81,1.86-1.72,4.08.4,8.01-1.64,12.1-.68.09,2.73-2.65,1.53-3.69,2.67-1.15,1.82-3.01-.06-4.33.83h0c-1.26,1.03-2.07.07-2.93-.67-.46.02-.93.03-1.39.05Z"/>
        <path class="cls-32" d="M136.69,186.71c-.94-1.04-.26-2.72-1.46-3.65-.38.14-.73.01-.78-.37-.08-.56.38-.81.81-1.02l5.82-1.61c.71-.15.05-1.82,1.4-1.25.55.47,1.09.93,1.64,1.4.85,1.34-.21,1.97-1.02,2.66-.65.54-1.64.88-1.79,1.73-.53,3.03-2.5,2.68-4.61,2.12Z"/>
        <path class="cls-53" d="M51.91,138.87c-3.86-.88-1.82-3.96-1.63-5.71.23-2.06,2.82-1.31,4.45-1.55-.32,2.66,1.02,5.98-2.83,7.27Z"/>
        <path class="cls-86" d="M55.56,165.34c-.97-.01-1.94-.03-2.91-.03-2.04-.01-2.86-.99-1.62-2.7,1.08-1.47.75-3.01.84-4.53.08-1.4.31-2.43,2.04-2.17-.03,3.25.77,6.35,1.65,9.44Z"/>
        <path class="cls-108" d="M122.07,157.27c2.82-.69,3.41,1.26,3.46,3.27.03,1.06-.11,2.14.05,3.22-1.46.17-2.91.34-4.65.54-.08-2.45.64-4.73,1.14-7.03Z"/>
        <path class="cls-70" d="M31.16,180.7c-.18-2.09,1.12-2.47,2.85-2.97,2.3-.66,4.55-.64,6.85-.54-.02.21-.04.43-.06.64-3.13,1.23-6.15,2.83-9.64,2.86Z"/>
        <path class="cls-39" d="M142.48,178.8c-.47.42-.93.84-1.4,1.25-.85-2.24-3.16-3.85-2.91-6.58.98.22,1.95.44,2.93.67-.95,1.97,1.42,2.96,1.38,4.66Z"/>
        <path class="cls-123" d="M135.25,181.67c-.1.46-.82.91-.03,1.39-.25.73-.62,1.43-.73,2.18-.18,1.29-.11,1.3-2.34-.06-.04-2.11-.05-4.2,3.09-3.51Z"/>
        <path class="cls-65" d="M105.65,264.34c-3.77-2.67-7.22-5.65-9.55-9.73-.33-.44-.44-.94-.44-1.47.27-1.58.61-3.1,2.33-3.81.99-.41,1.49-1.18,1.52-2.26.02-.73.23-2,.7-1.88,3.23.81,2.59-2.62,4.13-3.58,3.24-.68,6.73-.97,8.05-5.09-3.56,1.92-7.26,2.77-11.21,2.01-.76-.91-.92-2.01-1.03-3.13.38-1.79.45-3.76,2.57-4.57,3.07,1.65,6.6,1.5,9.86,1.97,3.26.47,5.3,1.33,5.99,5.12,1.78-1.76,2.94-3.85,5.42-3.67,1.77.42,1.72,1.78,1.58,3.13-.13,1.19-.39,2.37-.42,3.58-.02.56-.11,1.11-.27,1.64-.41,1.25-1.46,1.46-2.58,1.66-1.44.26-2.44.79-3.28,2.36-1.23,2.29-3.76,2.33-6.04,1.39-1.13-.47-2.08-.88-2.8.41-.69,1.25.28,1.68,1.18,2.17,1.67.9,1.29,2.21.45,3.38-1.19,1.64-1.03,2.6,1.1,2.91,1.27.19,2.35.67,2.72,2.06.04.35-.02.69-.18,1.01-5.75,2.13-7.68,2.15-14.16-4.78-.01,2.45,1.24,4.01,2.6,5.58.88,1.02,2.48,1.78,1.77,3.61Z"/>
        <path class="cls-54" d="M100.56,235.39c1.07.78.62,1.94.72,2.95-.3,1.26-1.58,1.58-2.31,2.43-1.89,2.44-1.87,5.96-4.61,7.97-.89.65-.16,1.48.54,2.07.71.6,1.66,1.09,1.28,2.31-.02.5-.05.99-.08,1.49-1.89-3.09-6.67-2.3-8.11-6.11-.28-.74-1.29-.2-1.89.27-.84.66-1.7,1.01-2.54-.02.4-1.43-.65-2.78-.22-4.22.87-1.26,2.17-1.15,3.46-1.09,2.51.66,4.77.75,5.48-2.52.2-1.25.68-2.35,1.74-3.12,1.25-.95,2.64-1.63,4.1-2.17.8-.26,1.58-.73,2.46-.25Z"/>
        <path class="cls-52" d="M72.54,256.8c-.26,0-.51,0-.77,0-.5-.16-.69-1.99-1.56-.17-.82,1.72-2.18,2.56-4.06,1.23-1.01-1.53-.46-3.1-.14-4.67,1.83-2.55,5.14-3.46,6.81-6.2,1.03-.95,2.2-.88,3.42-.47.62.2,1.17.53,1.72.86,1.13.65,1.34-.68,2.03-.95,1.29,1.58.31,3.5,1.41,5.84-6.09-3.27-6.14,2.77-8.85,4.55Z"/>
        <path class="cls-41" d="M79.98,246.41c-.23.89.42,2.09-.67,2.63-.81.4-1.25-.43-1.64-1.04.3-1.66-1.04-2.28-2-3.12-1.37-1.21-2.61-2.49-2.83-4.43.12-.76.51-1.33,1.16-1.72,2.65-.89,4.42,1.46,6.73,1.85,1.05,1.49,1.1,2.94-.15,4.35-.54.36-.67.88-.6,1.48Z"/>
        <path class="cls-119" d="M80.59,244.93c-.14-1.47.6-3.07-.64-4.37-2.99-2.45-3.13-5.41-1.55-8.67.34-1.99.04-5.23,2.41-5.08,2.59.16,1.52,3.39,1.56,5.27.09,4.15.16,8.3.13,12.45-.14.16-.28.32-.42.47-.5-.02-1-.05-1.49-.07Z"/>
        <path class="cls-87" d="M83.6,245c.57,1.26,1.41,2.52-.05,3.76-.49-1.25-.98-2.5-1.47-3.76,0,0,.25,0,.25,0,.42-.41.84-.45,1.26,0Z"/>
        <path class="cls-76" d="M91.6,95.35c-.69-.44-.8-1.7-2-1.41q-.13-3.01,3.26-9.11c-.4-1.33-4.29,2.07-2.68-1.99.51-.05,1.01-.11,1.52-.16,1.19,1.48,2.01.3,3.04-.32,2.1-1.26,4.07-2.88,7.19-3.34-1.87,2.83-4.67,3.58-7,5.44,2.47,1.33,4.89-.64,7.05.45-2.82,3.12-7.11,3.26-10.53,5.17-.71.39-1.31.71-.98,1.59.25.67.93.6,1.53.68.83.1,2-1.36,2.43.18.39,1.41-1.28,1.46-2.07,2.09-.28.22-.52.5-.78.74Z"/>
        <path class="cls-71" d="M124.87,263.46c-3.45-.54-5.82-3.8-9.49-3.77-.05-.22-.08-.44-.11-.66-.16-1.95,1.09-2.85,2.67-2.57,2.4.44,3.09-.62,3.26-2.66.14-1.67,1.73-2.29,2.58-3.45,1.94-2.67,4.13-5.17,5.61-8.08-2.31,3.02-2.87,3.07-5.21.5,0-.48.02-.96.03-1.44,1.74-3.1,4.02-5.31,7.93-4.22,1.52.42.38-.63.46-.82.58-1.47,1.35-1.59,2.45-.56,2.1,4.42,1.11,9.04.88,13.61-1.7,4.17-1.68,8.37-.82,12.77.79,4.03-1.14,8.32.85,12.32.42.49.45,1.02.16,1.58-2.51.93-3.36-.76-4.12-2.6.51-1.79.2-3.45-1.26-4.61-2.08-1.66-3.73-3.78-5.89-5.34Z"/>
        <path class="cls-96" d="M146.37,236.97c-1.54-.09-3.07-.17-5.71-.32,2.59-1.16,3.95-2.32,5.2-3.61.25,3.6,5.17.3,5.53,3.74-1.67.06-3.34.12-5.02.19Z"/>
        <path class="cls-54" d="M40.83,230.25c2.06-1.45,4.96-.87,7.01-2.68-1.27-1.47-2.56-.75-3.8-.47-3.07.7-6.11,1.34-9.31.54-.81-.2-2.2.65-2.22-.77-.02-1.25,1.5-.84,2.38-1.08,1.69-2.44,4.58-2.03,7.1-2.42-.45-1.51-1.32-1.26-1.96-1.23-1.76.09-3.61-.23-3.32-2.27.31-2.18,2.2-.21,3.32-.59,1.62.01,3.26-.29,4.86.26,1.52.82,3.44.96,4.42,2.66.23,3.65.95,7.26.58,10.95-.26,2.62,1,4.14,3.6,4.7,1.43.31,2.81.88,3.88,2,.66,1.65.15,2.94-1.24,3.95-2.48-.15-4.19.31-3.11,3.46.22.64-.41,1.32-1.05,1.73q-3.56-.15-5.92,1.93c.1-2.2-.24-4.35-.79-6.47.64-3.41-.94-5.33-5.51-6.66.14-1.48,2.63-1.52,2.13-3.43-1.76-.52-2.23,2.43-4.27,1.43,1.04-2.08,2.83-3.16,4.87-3.83.09-1.37-1.53-.75-1.64-1.71Z"/>
        <path class="cls-28" d="M46.04,250.92c.35-4.88,3.08-3.58,5.82-2.25,2.13.25,4.09,1.71,6.37.85,1.07-.08,2.15-.2,2.68,1.07-1.35,2.15.36,3.57,1.11,5.23,2.04-.25,2.27-3.19,4.56-2.74.43,1.49-.73,2.99.04,4.48-1.5,3.33-1.99,7.25-5.7,9.27-.82.44-.41,1.57-.48,2.41-.26,3.12-1.43,3.82-4.2,2.56-.22-.1-.42-.42-.61-.38-6.15,1.24-3-2.66-2.56-4.85-1.58-1.06-3.02.75-4.41-.2-2.02-2.2-2.51-4.4-.04-6.63,2.76.1,3.89-2.46,6.12-3.58-1.86-1.12-4.09-.71-5.51-2.66-1.07-1.47-1.6.53-2.31,1.13-.32.21-.63.2-.94-.04.02-1.22.04-2.45.05-3.67Z"/>
        <path class="cls-1" d="M113.87,85.18c-.72,7.81-5.73,9.53-15.6,10.6,5.37-3.35,11.76-5.03,15.6-10.6Z"/>
        <path class="cls-28" d="M128.65,99.04c.74.24,1.47.48,2.21.72-.62,1.23-3.2,1.75-1.22,3.96.67.75-.46,1.16-1.19,1.14-1.23-.02-2.42.04-3.47.78.26-1.39-2.93-4.23,1.72-3.87.78.06,1.87-1.4,1.95-2.74Z"/>
        <path class="cls-92" d="M131.52,94.5c.58.37,1.49.72.98,1.55-.56.9-1.54,1.39-2.68,1.19-.04,0,.06-.83.09-1.28.54-.49,1.08-.98,1.61-1.47Z"/>
        <path class="cls-42" d="M142.79,134.26c-1.43-.9-.49-3.23-2.02-3.02-2.21.31-.06,2.51-1.09,3.76-1.61-.92-3.24-2.1-1.45-3.79,1.1-1.04.78-4.54,3.48-2.97,2.06,1.2,3,3.45,1.07,6.02Z"/>
        <path class="cls-42" d="M137.51,141.01c-1.57-1.69-3.93-3.37-.11-5.17,1.81.93,4.42,1.32,2.98,4.44,0,0,0,0,0,0-.84.7-1.61,1.7-2.88.74Z"/>
        <path class="cls-37" d="M134.51,118.91c.45-1.07.9-2.13,1.38-3.27,1.3.52.43,2.68,2.23,2.44-.95,1.39-2.41.54-3.61.82Z"/>
        <path class="cls-121" d="M134.28,217.89c-2.21.16-.47,2-1.2,2.79-4.34.79-8.4-.56-12.33-1.98-2.4-.87-4.13-1.43-5.48,1.27-.42.83-1.22,1.14-2.19,1.02-.41-.05-1.21-.38-1.1.41.52,3.79-2.49,2.82-4.38,3.33-7.06,1.88-14.04-.73-21.03-.41-3.41.16-6.42-1.59-9.75-1.12-2.61-1.85-3.42-4.33-2.57-7.39,2.01-1.02,4.12-.31,6.16-.24,2.06.07,4.09.24,6.11-.34.49,0-.23-.68.03-.26.05.09-.05.15-.3.21-2.67.69-5.32.6-7.97-.11-1.7-1.9-4.14-1.79-6.33-2.27-2.49-.56-4.96-1.1-7.11-2.56-.6-.41-1.28-.9-1.13-1.71.2-1.1,1.18-.98,2.01-1.02,6.64,1.86,13.44,2.84,19.58,3.15-.75-.28-2.34-.15-3.82-.62-2.42-3.86,1.49-2.08,2.56-3.12-1.02-.12-2.19-.02-3.1-.63-.9-.61-1.94-1.35-.4-2.44,5.15-1.41,10.24.37,15.36.25,2.81.59,5.83.21,8.4,1.88.25,1.8-2,1.11-2.34,2.4.06.99.94,1.33,1.69,1.66,4.48,1.99,9.27,2.11,14.06,2.22,1.13.03,1.75-.74,2.49-1.38,1.83-.9,3.55.49,4.7.31-1.9.48-4.65-2.88-7.06.35-3.3-.47-6.82-.36-9.15-3.43,5.24.28,10.19-1.77,15.5-1.65,4.36.09,8.16.88,11.75,3.17.1.13.21.26.31.39-.15,1.59-.19,3.19-.21,4.79-.24,1.23-.7,2.32-1.76,3.08Z"/>
        <path class="cls-82" d="M135.94,209.63c-.32-.92-.74-3.02.63-1.98,5.29,3.98,7.21-1.88,10.65-3.08.21-.07.34-.34.53-.49.73-.59,1.47-1.59,2.48-.78,1.05.84-.04,1.74-.26,2.61-.93.57-1.68,1.3-2.15,2.29-1.72,2.82-4.85,4.4-6.44,7.45-.43.83-2.62.95-4.01.98-.76.02-.55-1.18-.67-1.87-.27-1.69.83-3.6-.78-5.08l.03-.05Z"/>
        <path class="cls-14" d="M135.42,223.53c-.11-.63-.22-1.26-.33-1.88.12-2.62,1.32-4.21,4.11-3.88,2.16.25,3.65-1.19,5.37-1.94,1.27-.55,2.04-1.04,3.06.25.53.67,1.4,1.29,1.08,2.14-.51,1.34-1.75,1.03-2.83.75-.94-.25-1.95-.06-2.12.81-.25,1.27,1.74.61,1.98,2.06-1.52.67-5.37-2.13-4.58,2.51-2.16,1.45-3.98.58-5.73-.81Z"/>
        <path class="cls-25" d="M135.42,223.53c1.91.27,3.82.54,5.73.81,2.75,1.51,5.76,1.48,8.77,1.56.69.02,2.39-.65,1.44,1.32-3.24.85-6.48,1.55-9.58-.48-2.17,1.14-3.92-.78-5.93-.82-.59-.71-.55-1.54-.43-2.39Z"/>
        <path class="cls-84" d="M157.2,220.5c.06.77-.26,1.74-.76,1.41-1.67-1.1-3.92-2.23-4.49-3.85-.75-2.14,1.95-.85,2.65-.98,2.39-.44,1.76,2.27,2.6,3.42Z"/>
        <path class="cls-14" d="M135.91,209.68c3.21,1.24,2.14,3.14.78,5.08-.22,0-.43.02-.65.04-2.13-1.65-.61-3.4-.13-5.12Z"/>
        <path class="cls-64" d="M83.56,52.42c-2.96.99-5.95,1.12-9.01.4-4.61-1.1-6.79-5.4-4.94-9.83.46-1.1,1.16-1.92,2.31-2.14,7.66-1.5,15.41-1.85,23.2-1.51.41.02.8.4,1.82.93-3.95.77-7.62.2-10.42,2.65-1.1,3.13-1.73,6.41-2.95,9.5Z"/>
        <path class="cls-120" d="M83.56,52.42c-.47-3.62.54-6.78,2.96-9.5,3.04,1.12,5.76-1.25,8.75-.78,1.68.26,4.05-.71,4.41,1.99.33,2.5.46,4.9-2.95,6-4.32,1.39-8.55,2.83-13.17,2.29Z"/>
        <path class="cls-83" d="M45.98,155.04c1.97-6.45,1.27-12.56-2.28-18.33-.29-.84.11-1.01.83-.87,3.56,3.87,3.28,9.08,4.54,13.71.36,1.32-1.06,3.11-1.66,4.68-.34.52-.6,1.17-1.43.8Z"/>
        <path class="cls-2" d="M45.98,155.04c.48-.27.96-.53,1.43-.8.03,1,.06,2,.1,3-.31,2.76-2.1,1.73-3.69,1.54-1.29-.16-2.6-.08-3.76-.83.83-3.31,4.09-1.7,5.94-2.93l-.02.02Z"/>
        <path class="cls-104" d="M44.53,135.84c-.28.29-.55.58-.83.87-.95-.98-1.24-2.76-3.12-2.62-.54.04-1.23-.24-.94-.62,1.94-2.51-1.94-2.52-1.73-4.23,1.69-.21,2.9,0,3.31,2.13.36,1.87,2.93,2.42,3.3,4.47Z"/>
        <path class="cls-50" d="M70.33,100.46c2.89,1.05,5.4-.64,8.09-1.08,1.45-.24,3.33-1.62,4.08.96,1.63,5.63,1.35,7.37-1.85,7.99-2.38.47-3.72.95-3.87,3.7-.1,1.86-8.68,5.08-10.15,4.03-.77-.55-.38-1.17-.1-1.91,1.62-4.16,1.31-4.7-2.79-4.46-1.17.07-1.55-.41-1.89-1.21-.44-1.03.25-1.27,1.06-1.36,1.66-.85,1.86-.79,3.01-4.39.81-2.53,4.35,1.12,4.41-2.27Z"/>
        <path class="cls-28" d="M55.55,111.54c-2.87.08-2.21-2.58-2.48-3.88-.48-2.24-1.57-3.35-3.57-3.75-.69-.14-1.2-.19-1.21-.94,0-.58.4-.85.98-.78.63.08,1.63.76,1.55-.54-.05-.97-1.11-1.17-1.97-1.35,1.23-.54,2.03-1.59,3.48-3.37-.57,2.96,2.51,4.41.62,6.87-.33.43.14.82.64,1.06,3.11,1.5,2.85,4,1.96,6.68Z"/>
        <path class="cls-118" d="M82.1,96c-.47,0-.95-.02-1.42-.03-4.16-.58-6.58-3.5-8.86-6.6-.49-.73-.99-1.47-1.48-2.2.3-.17.73-.55.88-.46,4.13,2.51,7.98,5.35,10.89,9.29Z"/>
        <path class="cls-73" d="M150.69,183.13c.69.77,1.87,1.3,1.36,2.68-.51,1.36-1.72.32-2.54.75-1.85.97-3.08-.78-4.62-1.22,0,0-.15-.16-.15-.16.04-1.41,1.14-1.54,2.14-1.79,1.29.35,2.45-1.21,3.78-.27l.03.02Z"/>
        <path class="cls-95" d="M148.51,162.42c.42-1.07.15-1.58-1.09-1.49-2.76.2-5.52-.22-8.32.45-1.41.34-3.68,1.55-4.55-1.19,3.53.69,5.63-2.88,9.15-2.63-.67-1.62-1.96-.63-2.69-1.41-.32-.79.52-1.13.97-1.57,1.5-1.5,1.09-2.28-.87-2.49-2.25-.24-3.22-1.43-2.92-3.67,1.72,0,3.43,0,5.15-.01.24,0,.49,0,.73,0,1.95-1.28,3.9-1.45,5.87-.03,3.41.72,2.79,3.77,1.9,5.23-1.74,2.84.28,2.93,1.8,3.67.47,1.78.65,3.36-1.87,3.72-.97.14-.42.88-.26,1.39-.6,1.19-1.29,2.55-2.85,2.14-.98-.26-.74-1.32-.17-2.08Z"/>
        <path class="cls-4" d="M149.95,148.35c-1.96.01-3.91.02-5.87.03,2.16-3.1,4.22-3.11,5.87-.03Z"/>
        <path class="cls-74" d="M137.51,141.01c.96-.25,1.92-.5,2.88-.74-.08,1.47-1.03,2.29-2.2,2.94-.23-.73-.45-1.46-.68-2.2Z"/>
        <path class="cls-22" d="M36.36,153.58c-1.15-2.07-.86-4.16-.05-6.23.25-.64.61-1.47,1.47-.49.43.9-.91,2.4,1,3,.7-1.15-1.3-1.91-.28-2.91.44-.77,1.26-1.07,1.87-.63,4.17,3.04,2.61-.93,2.6-2.27,0-1.12-.77-2.27-1.33-3.34-.33-.63-.98-1.33-1.76-1.01-.83.34-.64,1.22-.36,1.9.5,1.2.13,2.07-1.29,3.06.03-2.56.34-4.9-1.09-6.93-.38-.53-.12-1.47.58-1.95.67-.45,1.19.16,1.61.48,2.76,2.14,5.06,4.69,5.12,8.38.06,3.61-.26,7.24-4.37,8.89-1.23,1.07-2.46,1.06-3.71.04Z"/>
        <path class="cls-40" d="M36.36,153.58c1.24-.01,2.47-.03,3.71-.04,1.48,0,2.97,0,4.98,0-1.01.67-1.54,1.02-2.07,1.38-2.89,2.91-5.15,3.18-7.34.89-.16-.87-1.32-2.06.72-2.22Z"/>
        <path class="cls-83" d="M35.64,155.8c2.7,1.79,5.03.53,7.34-.89,1.01.03,2.02.07,3.02.1-1.57,1.8-4.35,1.16-5.94,2.93-.23.02-.46.06-.68.12-1.03.46-2.05.92-3.07-.01-.46-.3-.92-.6-1.38-.89.05-.55.1-1.1.71-1.36Z"/>
        <path class="cls-43" d="M38.5,146.95c1.02.92,2.04,1.85,3.49,3.15-2.24.64-4.26,1.48-5.45.44-.99-.87.06-2.67,1.24-3.69.23.07.47.1.72.1Z"/>
        <path class="cls-31" d="M135.85,225.91c2.3-2.08,3.84,1.33,5.93.82-1.29,1.89-2.7,3.73-2.63,6.19.04,1.46-1.08.85-1.76,1.02-.51-2.68-1.03-5.36-1.54-8.04Z"/>
        <path class="cls-87" d="M65.83,208.17c-.47.06-1.19-.06-1.38.2-.59.84.35.91.8,1.17,3.22,1.86,6.86,2.32,10.41,2.97,1.47.27,2.64.49,2.83,2.2-2.43,1.46-4.89.66-7.41.24-3.54-.59-7.21-.28-10.37-1.04,2.39.8,5.32.51,8.16.82,1.84.2,3.64.31,5.16,1.51.77,2.17,1.54,4.34,2.31,6.51-.1.14-.2.28-.3.43-4,.9-4.2.77-4.35-2.89-.06-1.32-1.01-1.75-2.17-2.15,2.02,1.14,3.05,2.51.1,3.21-1.38.32-3.44,2.94-4.71-.34-1.1.74-2.27,1.33-3.65,1.32-2.92.04-5.7-.49-8.26-1.97-.75-1.71.23-2.71,1.41-3.76.92-.82,1.9-1.7-.37-2.42-1.79-.57-.69-2.02-.16-3.02.51-.95,1.67-2.01.23-2.79-1.88-1.02-3.5-2.93-5.91-2.49-1.05.19-.86,1.36-.74,2.2.35,2.44.16,4.9.31,7.35.08,1.33-.41,2.14-1.61,2.53-1.38.45-2.08-.27-2.4-1.52.07-1.72-.91-3.02-1.8-4.35-.14-.96.4-1.59,1.32-2.39-1.38.34-2.54,2.01-3.6.13-.77-1.66-1.53-3.29-1.03-5.24.28-1.09.35-2.31-1.45-2.15-3.62.34-2.81-1.54-1.74-3.53.23-.43.6-.77.9-1.16.25-.23.5-.47.75-.7.99-1.45,2.43-.68,3.7-.73,3.7.29,6.37,2.21,8.37,5.22,3.19,1.54,6.58,2.25,10.06,2.85,2.51.44,5.64.36,6.57,3.77Z"/>
        <path class="cls-16" d="M48.17,202.26c-1.11-2.57-2.72-4.45-5.8-4.56-.76-.03-1.23-.69-1.55-1.38-.82-1.04-1.65-2.08-2.85-3.61,3.88,1.22,7.28,2.09,10.79,2.62,2.59.4,2.38-.89,3.08-2.02.52-1.17,1.48-2.15.91-3.69-.54-1.46.52-2.23,1.77-2.64,1.3-.44,1.57.53,2,1.45,1.94,4.1,3.74.42,5.6-.14,1.23-1.2,2.43-.9,3.63.05-.1,3.1-1.17,4.33-3.77,4.21-2.42-.11-4.52-.31-4.92,3.2-.23,1.97-2.31,2.01-3.99,1.38.35.82,2.38.68,1.87,2.39-1.01,1.44-2.69,2.44-4.04,1.62-1.88-1.15-2.11.06-2.73,1.1Z"/>
        <path class="cls-107" d="M47.39,190.52c.26.23.51.46.77.69.91,1.49.5,2.74-1.18,1.95-1.81-.86-3.42-.71-5.19-.58-.85.06-5.59-5.1-5.65-6.03-.05-.78.64-1.32,1.08-1.17,1.75.59,4.26.81,4.85,2.45,1.07,2.94,3.22,2.48,5.33,2.68Z"/>
        <path class="cls-53" d="M146.96,183.74c-.74.48-1.48.96-2.22,1.44-2.22,4.56-6.7,4.05-10.79,5.19.25-2.13,1.6-2.8,2.74-3.65.76-.1.88-1.71,2.02-.89.38.27,1.16.58,1.14.53-.94-3.71,3.91-3.39,4.26-6.15,1.59-.19,2.2,1.09,3.03,2.03.36.55.28,1.05-.18,1.51Z"/>
        <path class="cls-39" d="M141.1,174.15c1.29-1.1,2.89-.55,4.33-.83,1.68.15,2.72,2.04,4.59,1.67-3.14,1.44-6.08.88-8.92-.84Z"/>
        <path class="cls-45" d="M146.96,183.74c.06-.5.12-1,.18-1.51,1.38-.55,2.55-.24,3.52.87-1.32-.3-2.09,2.62-3.7.63Z"/>
        <path class="cls-27" d="M44.52,216.24c.16.73.29,1.56,1.36,1.1.52-.22,1.46-.47,1.18-1.15-1.17-2.83.51-5.82-.64-8.61-.4-.97-.62-1.96.35-2.65,1.08-.77,2.35-.7,3.47-.08,1.04.58,1.84,1.48,3.05,1.94,2.42.92,5.18,2.03,1.23,4.76-.05.04-2.43,2.15.89,1.9,1.32-.1,1.82,2.81-.18,3.92-1.19.66-2.07,1.17-1.94,2.63-2.95,2.05-5.88.19-8.83-.04-1.42-.6-3.25,1.44-4.44-.68,0-.71.14-1.97-.47-1.94-3.3.14-2.01-1.8-1.67-3.34.95-.38,1.78.14,2.14.79,1.09,1.97,2.77,1.66,4.49,1.45Z"/>
        <path class="cls-20" d="M44.52,216.24c-1.84,1.8-3.47,2.62-4.74-.61-.27-.68-1.24-1.09-1.89-1.62-.9-3.19-4.73-3.69-5.99-6.55.02-.76.05-1.52.07-2.28-.16-.17-.21-.33-.14-.48.07-.15.13-.22.19-.22.21,0,.43,0,.64.02,2.37-.08,4.05.96,5.03,3.12.78,2.17,2.96,2.91,4.45,4.36,2.36.56,2.73,2.22,2.38,4.28Z"/>
        <path class="cls-46" d="M40.1,112.27c2.08-1.71,3.43.23,5.13.9,2.51.99,2.62,2.31,1.33,4.41-.3.48.11,1.74.6,2.28.64.71,1.32-.1,1.76-.61.99-1.15,2.84.6,3.61-1.12.12,2.46-1.39,4.75.06,8.26-1.94-1.62-3.23-2.01-4.19-2.62-1.62-1.03-4.21-1.19-3.67-4.85.23-1.53-1.44-5.55-4.63-6.64Z"/>
        <path class="cls-49" d="M140.26,95.91h-6.57c2.66-2.3,4.68-.62,6.57,0Z"/>
        <path class="cls-2" d="M36.32,158.06c1.02,0,2.05,0,3.07.01-.42.72-.69,1.58-1.28,2.12-1.1,1.01-2.62,1.16-3.44-.11-1.01-1.57,1.37-1.09,1.64-2.03Z"/>
        <path class="cls-101" d="M37.09,208.15c-.51-2.39-3.18-2.18-4.43-3.67-.44-1.93,1.17-3.54.54-5.76-.42-1.47,2.06-.57,3.17-.97.4,1.47-.83,2.44-1.24,3.83h5.28c-1.56,2.75-.67,5.4-.37,8.04-1.76,1.05-1.78-1.35-2.95-1.48Z"/>
        <path class="cls-101" d="M32.02,204.47c-.01.23-.03.47-.05.7q-1.48-.62-1.23-4.51c1.52,1,1.08,2.52,1.27,3.81Z"/>
        <path class="cls-106" d="M72.58,96.81c-1.85,1.76-3.06-.08-4.46-.8.11-1.32-.95-2.21-1.24-3.37-.38-1.57-.57-3.4,1.01-4.28,1.5-.84,2.3.81,3.22,1.72,1.05.38,1.79,1.19,2.59,1.91.94.86,2.42,1.38,2.07,3.06-.37,1.78-2.24.97-3.19,1.76Z"/>
        <path class="cls-114" d="M72.58,96.81c2.78-1.29,2.98-2.7.35-4.49-.76-.52-1.22-1.49-1.82-2.25.24-.24.47-.47.71-.71,3.14,1.94,5.45,5.01,8.86,6.6-2.54,1.79-5.27,1.85-8.1.84Z"/>
        <path class="cls-51" d="M148.51,162.42c.12.98-.28,2.99,1.47.77.43-.54.93-.74,1.55-.83,2.48-.46,3.26,1.39,4.16,3.07.21,1.26.14,2.48-.55,3.61-1.8,1.57-3.79,1.64-5.91.75-3.73-.24-7.46-1.29-11.18-.06-3.45,1.14-3.13-2.12-4.31-3.63,2.14-3.53,5.17-4.3,8.98-3.04,1.97.65,3.68-1.96,5.79-.64Z"/>
        <path class="cls-112" d="M149.23,169.79c1.97-.25,3.94-.5,5.91-.75.52,1.09,1.28,2.22-.07,3.21-.98.72-2.08.54-3.07-.03-.94-.53-1.82-1.16-2.72-1.75-.03-.22-.05-.45-.05-.68Z"/>
        <path class="cls-61" d="M85.44,105.11c-.61-1.28-.51-2.31.82-2.93.17-.08.77.28.77.42-.05,1.09-.46,2.01-1.59,2.51Z"/>
        <path class="cls-123" d="M112.41,189c.48,2.39,1.64,3.12,4.17,2.4,3.69-1.05,7.28-2.89,11.45-2.3-.93,1.42-2.29,1.87-3.6,2.45-.41.18-.86.61-.6,1.16.12.26.51.48.81.56,2.41.62,7.09-2.51,7.61-5.06,1.7,1.48-.01,2.96,0,4.44-2.69,1.78-4.65,4.34-6.94,6.55-1.4,1.35-2.77,2.16-4.28.17-.17-.76.42-1.42.34-2.13-.16-1.42-.93-2.24-2.12-.96-5.43,5.87-12.67,3.58-19.2,4.32-3.07.35-6.23-.91-9.31.32-2.12-.02-4.11-.48-5.82-1.8-1.18-1.32-2.67-2.12-4.34-2.63-.96-.29-2.12-.72-2.1-1.79.02-1.5,1.5-1.28,2.53-1.48.36-.07.73-.05,1.48-.26-.8-.83-2.13-1.56-1.05-2.84,2-1.13,4.22.43,6.23-.52,3.88.63,7.8.34,11.69.62,2.84.2,5.06-1.77,7.8-1.75,1.77.02,3.62-.94,5.24.52Z"/>
        <path class="cls-79" d="M121.21,199.25c4.03,1.74,4.49-2.58,6.54-4.06,1.46-1.05,2.46-2.63,4.53-2.53.26,2.86.54,5.73.77,8.59.13,1.65-.28,2.28-2.28,1.93-2.16-.38-4.52-.86-6.67.41-.24.36-.57.62-.98.79-2.04.53-4.11.3-6.17.25-1.86-.04-2.96-1.02-3.17-2.86-.23-1.92,1.21-2.52,2.62-2.95,1.63-.49,3.33-.91,4.82.44Z"/>
        <path class="cls-95" d="M120.45,211.14c-.09,1.53-1.01,2.18-2.43,2.12-4.97-.2-10-.13-14.66-2.28-1.38-.64-3.51-1.18-3.14-3.04.42-2.08,2.67-.97,4.1-1.33.24-.19.45-.16.65.06.91,1.33,2.76.23,3.71,1.44,3.11,1.31,6.32,2.3,9.65,2.9.74-.58,1.45-.54,2.11.13Z"/>
        <path class="cls-111" d="M104.97,206.66c-.22-.02-.43-.04-.65-.06-2.6-1.17-5.46-.88-8.17-1.46.21-2.33,3.15-.86,3.72-2.69,2.13-1.87,3.24,1.55,5.13.97,1.81,0,3.61-.09,5.42-.03,4.34.21,8.64,1.4,13.01.34.22-.03.44-.08.65-.14,1.33.11,2.62.28,3.82,2.12-7.95.33-15.44.65-22.93.96Z"/>
        <path class="cls-53" d="M133.72,198.59c0-1.14-.2-2.25.05-3.25.29-1.13-1.73-2.62.48-3.39,2-.69,4.05-.87,5.91.33.84.54,1.17,1.54-.26,1.71-2.92.35-3.78,3.27-6.19,4.59Z"/>
        <path class="cls-110" d="M112.41,189c-3.23.6-6.8-.35-9.59,2.27-1.08,1.02-2.32-.14-3.51-.14-4.02.02-8.07.29-12.04-.74-.19-.33-.17-.65.05-.96,2.66-2.16,5.67-.2,8.13-.86-1.78-.08-3.95.16-6.03-.47-1.19-.66-3.07-.04-3.62-1.92,7.68.32,15.37.6,23.05,1,2.65.14,5.58-1.72,7.91,1-1.45.27-2.9.54-4.34.81Z"/>
        <path class="cls-15" d="M85.8,186.2c1.01,1.09,2.81-.07,3.72,1.29-.3.94-1.03,1.25-1.92,1.36-.43.05-.83-.25-1.27-.13.48.17.8.49.95.98,0,.23-.01.47,0,.7-1.92,1.48-3.91-.54-5.84.12-1.23.93-2.55.62-3.87.28-1.09-.12-2.2-.21-3.27-.46-1.63-.63-3.29-.3-4.95-.21-1.27.06-2.69.44-3.42-1.16-1.17-.76-2.44-.92-3.78-.67-.86-.18-2.05.24-2.33-1.46,8.71-.48,17.38.27,26-.64Z"/>
        <path class="cls-58" d="M70.63,184.5c-4.04.81-8.07.9-12.1.03,4.03-.77,8.06-.97,12.1-.03Z"/>
        <path class="cls-87" d="M76.33,222.75c2.17-1.86,3.98.39,5.64.41,3.32.05,6.7.77,10.04.24.48-.08,1.1-.42,1.4-.23,5.37,3.37,10.88.32,16.31.4,1.53.02,2.52-.53.98-2.05-.39-.39-1.35-.46-.77-1.24.5-.67,1.43-1.34,2.22-.69,1.57,1.26,2.11.7,2.81-.92,1.09-2.53,2.62-2.87,5.21-1.26,3.86,2.39,8.66,1.89,12.91,3.27-.06,1.47-.11,2.94-.17,4.41-1.38.31-1.82-1.59-3.17-1.36q-1.35,3.69-4.34.73c-.68-.68-1.66-1.02-2.13-1.93.32-.8.94-1.04,1.74-1.03-3.58.09-7.1.7-10.64,1.35,2.91-.17,5.77-1.68,8.7-.33,1.48,1.54.49,2.4-.93,2.95-1.01.39-2.18.21-3.57.81,1.69.35,3.04.43,4.42.05.86-.23,1.69-.29,2.35.47.84.97.18,1.81-.24,2.67-.82,1.69-1.93,3.03-4.01,3.09.36,1.25,1.44,1.17,2.04,1.73.11.13.22.27.32.4-1.15.95-3.04,1.08-3.18,3.15-.04.6-.38,1.57-1.28,1.56-.88,0-1.19-.95-1.31-1.57-.64-3.42-2.71-3.99-5.93-4.08-2.6-.07-5.11-1.52-7.97-.76-1.03.27-.93-1.15-.96-1.99,1.13-2.13,3.19-2.02,5.1-1.94,1.72.07,3.39.17,5.1-.71-4.99-2.28-9.37.75-13.96,1.16-1.83.17-1.84,2.02-1.58,3.54.18,1.07,1.05,1.96.89,3.13l-3.76,2.12c-1.15-1.88.07-4.43-2.21-6.61.97,1.99.85,3.41.19,4.87-.74,1.62-.81,3.28.57,4.7-.88,3.12-2.58,4.61-5.87,2.98-.17-.18-.35-.39-.58-.45-4.99-1.18-5.05-1.26-4.25-6.2q.42-2.61,3.92-2.85c-3.12-2.32-1.23-3.79.63-5.26.86-.68,1.77-1.26,2.9-1.4.92-.11,2.17.02,1.95-1.47-.18-1.27-1.33-1.24-2.29-1.28-2.3-.09-4.6-.02-6.9,0-2.16-.19-4.3-.44-6.28-1.4-.35-.31-.4-.66-.16-1.06l.1-.12Z"/>
        <path class="cls-87" d="M124.19,242.78c3.49,2.91,4.22-1.16,6.27-2.96.39,3.17-1.39,5.17-2.68,6.75-1.56,1.92-2.46,4.53-4.87,5.76-.59.3-.92.82-.92,1.48,0,3-.4,5.24-4.35,3.3-1-.49-1.79.99-2.37,1.93-1.74-1.73-4.12-1.46-6.29-2.01-.18-1.46,1.37-1.89,1.8-2.98.51-1.27,3.05-3.32-1.11-2.7-.82.12-.96-.6-.99-1.22-.07-1.41.17-2.8,1.54-3.45.76-.36,1.59-1.07,2.69-.32,2.75,1.88,3.69,1.38,5.02-1.2.68-1.31,2.68-1.74,4.32-1.78.76-.02,1.44.13,1.93-.6Z"/>
        <path class="cls-83" d="M98.37,236.2c-.59-.77-1.31-1.47-1.73-2.32-1.22-2.41.28-4.86,2.89-5.43,2.57-.56,5.15-.94,7.7-1.89,2-.75,4.81.29,7.15.95,1.43.4.49,1.54-.28,1.72-1.64.38-3.25,1.4-4.96.94-2.28-.61-4.3-.05-6.31.86-.75,1.46-1.51,2.92-2.26,4.38-.73.27-1.46.54-2.19.81Z"/>
        <path class="cls-6" d="M96.18,253.12c-.41-.44-.73-1.07-1.24-1.29-3.08-1.37-3.13-2.61-.4-4.71,2.23-1.71,1.74-5.24,3.83-7.26,1.82,1.09,4.63-.39,5.86,2.25-.17.58-.49,1.16-.47,1.73.03.99,1.6,1.99.31,2.93-1.14.83-1.53-.69-2.28-1.17-1.09-.7-1.7-.07-1.44,1.05.47,2.09-.03,3.34-2.33,3.61-1.67.2-.69,2.25-1.84,2.87Z"/>
        <path class="cls-44" d="M104.23,242.1c-1.15-.9-2.49-.83-3.84-.78-1.03.04-2-.08-2.02-1.47.97-.5,1.94-1,2.91-1.5,3.46-1.06,7.58,0,10.39-3.27.45-.53,1.53-.56,1.89.26.58,1.32.37,2.66-.76,3.68-2.43,2.18-5.13,3.65-8.56,3.08Z"/>
        <path class="cls-87" d="M133.79,230.2c.92,1.65.96,3.41.68,5.22-.78,3.06-3.42,1.97-5.37,2.38-2.17.46-2.87,2.9-4.88,3.54-.03-1.32-.1-2.61.36-3.91.4-1.14.74-2.44-1.13-2.73,0,0-.06-.08-.06-.08-.18-.68.21-1.17.58-1.65,1.07-1.44,2.08-3.64,4.26-2.18,2.03,1.36-.49,2.7-.66,4.21,3.44.13,4.19-3.18,6.23-4.79Z"/>
        <path class="cls-73" d="M87.31,230.29c-.52.97-2.56.96-1.85,2.71.6,1.48,1.99.1,2.94.66.17,1.39-.99,2.45-1.78,2.18-4.88-1.67-3.09,2.61-3.63,4.24-.9,2.72,1.41,2.71,3.28,2.83.71.05.91.71,1.01,1.34-1.24.21-2.66-.49-3.69.74-.42,0-.84,0-1.26,0-1.82-5.82-.51-11.84-1.14-18-2.52,1.32-1.14,3.82-1.94,5.52-2.51-.36-5.01-.84-7.8-.67,4.88,1.13,1.12,5.01,2.56,7.23-.26.51-.52,1.02-.78,1.54-1.9.26-2.4-1.28-3.1-2.48-1.03-1.79-2.5-2.82-4.5-3.29-1.67-.4-.85.89-1.11,1.45-.4.48-1,1.04-1.48.88-2.88-.96-4.52.64-6,2.69-1.89-.54-3.84-.94-5.64-1.69-1.02-.43-2.42-.91-2.44-2.41-.07-4.51-.06-9.02-.08-13.53,2.25-1.42,3.44-.84,3.5,1.85-.29.35-.07,1.35-1.08.88-.02-.01,2.31,8.98,2.61,9.11,1.26.56,2.19.12,2.66-1.1.67-1.73-1.6-6.13-3.42-6.71-.78-.25-1.93-.21-1.01-1.55.7-2.23,2.29-3.14,4.45-2.52,2.31.66,4.87-.23,7,1.27.5,1.36-1.55,2.45-.14,4.12,1.66,1.96,2.61,2.02,3.95-.46,2.63-.3,5.25-.83,7.84.31.75.33,1.62.49,2.19-.53,1.75-3.14,3.72-2.12,5.71-.24.55.83,1.11,1.54,2.04.39,2.85-.32,2.33,1.56,2.12,3.24Z"/>
        <path class="cls-100" d="M93.16,241.28c-1.57-.1-2.45-1.89-1.78-3.8.6-1.74,1.12-3.43.2-5.23-.32-.62-.68-1.47.31-1.85.88-.35,1.72-.18,2.05.88.72,2.3,1.68,4.58.68,7.05-1.15.66-1.38,1.77-1.45,2.96Z"/>
        <path class="cls-2" d="M57.05,239.86c.25-.66.61-1.31.72-2,.33-2.15,1.29-3.23,3.3-1.69,1.27.97,2.25-.09,3.36-.03,3.97,1.14,6.34,4.43,9.2,7.01,1.14,1.02,2.92,1.92,2.67,4-1.02.07-2.06-.65-3.07.06-3.23.86-6.58,1.36-9.23,3.75-.94.84-2.2.95-3.26-.08-.78-1.05-1.92-.63-2.93-.73-2.67-1.54-2.7-3.99-2.29-6.6,1.21-.94,1.56-2.24,1.52-3.7Z"/>
        <path class="cls-60" d="M60.75,250.88c1.5.11,2.54-.41,3.82-1.42,2.41-1.9,5.19-3.82,8.67-2.25-1.16,3.15-4.14,4.25-6.65,5.86-.3.2-.65.36-.89.62-3.97,4.29-3.94,4.28-6.53-.81-1.03-2.03.3-1.93,1.59-1.99Z"/>
        <path class="cls-38" d="M76.3,247.15c-3.42-4.25-7.88-7.38-11.87-11.01-.39-.97-2.15-.9-1.81-2.59,3.85.31,7.47.76,8.82,5.32.21.7,1.18,1.17,1.79,1.75,1.17,2.01,2.81,3.56,4.62,4.99.84.66,2.3,1.8-.18,2.4-.46-.28-.91-.57-1.37-.85Z"/>
        <path class="cls-38" d="M74.02,239.09q-2.25-2.9-.43-5.25c-.15-.17-.27-.42-.46-.49-1.38-.52-3.96-.33-3.74-1.88.25-1.83,2.46-.22,3.79-.39,2.1-.27,4.43-.57,6.08,1.44-2.15,2.88-.14,5.41.69,8.04-2.36,1.05-3.64-2.23-5.93-1.48Z"/>
        <path class="cls-72" d="M133.79,230.2c-.75,3.07-2.58,5.1-5.64,6.07-.82.26-1.58.96-2.24.01-.48-.69.11-1.33.49-1.98.58-.99,2.95-1.73,1.38-3.01-1.54-1.25-1.96.96-2.72,1.93-.44.56-1.1.94-1.67,1.4-1.09.02-2.23.23-3.14-.61-.54-.49-1.21-1-.95-1.83.25-.77.88-1.17,1.73-.87,3.3,1.18,2.43-2.6,4.05-3.53.46-.27-.72-1.33-1.32-.9-2.48,1.78-4.82-.34-7.29.06,1.43-1.37,2.82-2.59,4.88-2.16,1.55.32,1.89-.67,2.11-1.84v-.02c2.88-.95,2.86,2.41,4.55,3.19,1.4-1.15-1.41-3.05.71-3.77,2.36-.8,2.98,1.53,4.19,2.75.29,1.7.58,3.41.87,5.11Z"/>
        <path class="cls-35" d="M82.91,227.42c-2.61-2.31-2.88-2.28-4,.59-.29.73-.97.88-1.48.7-3.26-1.2-6.75-.65-10.07-1.37-2.12.08-2.62-1.78-3.62-3.03-2.71-1.37-5.79-.38-8.6-1.34-1.69-.58-1.92,1.65-3.18,2.06h0c.25-2.34-.78-3.27-3.08-2.78-1.26-1.16-3.26-.89-4.42-2.27,2.95-1.22,5.88.63,8.83.04,2.7.58,5.31,1.67,8.14,1.45,2.07.71,4.12.76,6.35.68,2.8-.11,5.56,1.39,8.49,1.41,2.19.28,4.39.56,6.58.84.88.64,1.92.13,2.83.39,1.53.43.91,1.04.07,1.62-1.06.02-1.71,1.23-2.86,1.03Z"/>
        <path class="cls-60" d="M55.53,243.56c1.15,2.07.65,4.7,2.29,6.6-2.44,1.33-4.28.25-5.95-1.49.42-.74.84-1.39.4-2.37-.46-1-1.89-2.16-.51-3.2,1.14-.85,2.58-.25,3.78.46Z"/>
        <path class="cls-122" d="M48.89,259.86c-1.41-1.47-.15-4.04-2.17-5.27.17-1.1-.47-2.57,1.38-2.86,1.48-.23,2.15.37,2.44,1.89.27,1.45,1.72.36,2.34.72,1.29.75,3.1.7,4.23,2.7-2.69-.54-4.11,1.1-5.26,2.64-1.16,1.55-1.96.54-2.96.19Z"/>
        <path class="cls-107" d="M99.84,202.91c.4,1.01.27,1.6-1.02,1.55-.93-.04-1.97-.26-2.67.69-5.45.39-10.79-1.5-16.26-.74-3.72.62-7.47.94-11.26,1.35,4.25,1.34,8.93,1.12,12.76,3.75,2.71.44,5.43.87,8.45,1.36-3.63,1.44-16.85-.14-24.02-2.69-1.59-1.92-3.89-2.76-6.13-2.82-4.15-.11-7.79-1.68-11.53-3.09.17-1.19-.62-3.42,2.03-2.01,1.87.99,3.14-.43,4.63-.97.72-.54,1.6-.77,2.42-.69,5.3.53,10.53-1.12,15.82-.47.48.06.93.2,1.38-.14,3.7-2.9,7.13-.47,10.63.54,1.81,1.07,3.81,1.41,5.86,1.54,2.09.25,4.18.53,6.29.69,1.39.1,2.67.31,2.61,2.16Z"/>
        <path class="cls-26" d="M81.4,209.5c-4.54-.9-9.08-1.79-13.61-2.72-.65-.13-1.63-.07-1.56-1.12.04-.68.72-1.08,1.31-1.05,4.12.22,8.22-1.5,12.35-.21,1.08,2.22,3.15,1.3,4.85,1.51.96.12,2.21.09,2.1,1.41-.1,1.18-1.43.49-2.08.85-1.08.6-3.25-1.58-3.37,1.33Z"/>
        <path class="cls-70" d="M74.02,216.25c-4.96-.69-9.91-1.39-14.87-2.08.03-.22.06-.44.09-.66,6.42.4,12.83.8,19.25,1.2,3.46,0,6.91,0,10.37,0-4.84,2.51-9.88,1.37-14.83,1.54Z"/>
        <path class="cls-3" d="M120.45,211.14c-.7-.04-1.41-.09-2.11-.13-.63-1.06-1.08-2.36.82-2.04,3.04.52,6,1.46,8.92,2.57-2.66.99-5.08-.75-7.64-.41Z"/>
        <path class="cls-68" d="M71.69,43.15c2.52-1.29,4.92-1.47,7.62.61-2.97,1.3-5.26-.61-7.62-.61Z"/>
        <path class="cls-64" d="M76.57,46.15c.05.85-.33,1.1-.85,1.17-.76.1-1.55.05-1.88-.77-.31-.78.29-1.25.91-1.17.67.08,1.29.54,1.82.78Z"/>
        <path class="cls-27" d="M76.28,223.54c-4.32.61-8.51-1.09-12.82-.76-.93.07-1.55-.57-2.02-1.33,1.95.22,2.98-1.2,4.11-2.39.89.89-.3,1.94.5,3,1.29-1.29,3.07-1.45,4.81-1.62-.47-1.53-1.33-1.18-1.99-1.26-.89-.1-1.97-.3-1.82-1.32.2-1.37,1.74-1.12,2.35-.76,1.58.95,4.15,1.62,2.42,4.47-.52.85.24,1.1.77,1.16,1.21.13,2.43.11,3.65.15.02.22.03.45.05.67Z"/>
        <path class="cls-27" d="M37.09,208.15c1.33-.19,1.7,1.53,2.95,1.48,1.73,1.92,2.91-2.99,4.73-.29-.49,1.21-2.29,1.21-2.64,2.62-2.01-.83-4.14-1.51-5.05-3.8Z"/>
        <path class="cls-94" d="M85.09,198.52c-2.02-.13-4.16.54-5.97-.98-.53-.45-1.28-.35-1.71.04-3.65,3.4-8.78-.81-12.43,2.46-3.28-1.62-6.79-.04-10.14-.76-1.02-1.22-2.33-1.87-4.02-1.85.71-1.36,1.62-.87,2.58-.81,1.48.09,3.37.85,2.83-2.38-.5-3.03,3.4-3.09,4.47-2.76,2.96.93,3.83-1,5.21-2.51,2.65,1.31,5.59-1.1,8.2.65.12.51-1.42.42-.51,1.03.65.43,1.66.29,2.51.36.88.07,2.58,1.11,1.56-1.23,1.25.25,2.5.5,3.75.74-.1,2.22,3.73.76,2.98,2.63-.85,2.11-3.59.34-5.5,1.36,1.7,1.98,5.37.93,6.18,4.01Z"/>
        <path class="cls-27" d="M99.84,202.91c-1.58-2.61-4.56-.81-6.61-2.08-.62-.39-1.69.03-2.29-.77,6.23-1.1,12.55-.57,18.8-.54,3.75.02,5.99-1.85,8.45-3.68.79-.59,1.16-1.76,2.45-1.67,1.65.12,1.48,1.78,2.1,2.7.97,1.47-1.2,1.43-1.53,2.37-1.69.18-3.43-.12-5.04.67-.73.36-2.22.1-1.44,1.64.45.88.17,2.39,2.12,2.15,2.16-.26,4.39-.02,6.59,0-4.38,1.45-8.88.4-13.32.67-.87-.18,1.32-2.65-1.24-1.62-1.52.61-3.41.19-4.63,1.66-.85,0-1.84.17-2.13-.93-.44-1.61-1.38-.91-2.27-.6Z"/>
        <path class="cls-12" d="M104.25,204.44c.03-.93.31-1.9,1.28-1.98,2.15-.19,4.22-.66,6.56-1.21-.66,1.05-1.31,2.1-1.97,3.15-1.96.01-3.91.03-5.87.04Z"/>
        <path class="cls-18" d="M87.28,189.7l-3.46-1.23c1.93-.81,3.96.24,5.7-.98,2.9,1.35,6.17.18,9.14,1.52-3.85-.24-7.65-.28-11.38.69Z"/>
        <path class="cls-123" d="M77.68,189.78c.02,1.61,1.59,1.13,2.63,1.88-2.69,1.09-5.15-.31-7.59-.01-.77.09-1.19-.7-1.05-1.21.35-1.34,1.63-.48,2.44-.81,1.19.05,2.38.1,3.57.15Z"/>
        <path class="cls-29" d="M85.02,225.88c.22-.06.51-.06.65-.2.34-.35.08-.52-.28-.56-.88-.1-1.88.17-2.53-.73,2.44-.02,4.88-.04,7.32-.05,1.46,0,3.06-.3,3.02,2.04-.03,1.85-.26,3.17-2.68,2.44-1.35-.41-2.15.95-3.21,1.48-1.12-.72.28-3.3-2.22-3-.4-.45-.46-.92-.07-1.41Z"/>
        <path class="cls-116" d="M123.47,222.94c-3.45-.55-7,.86-10.43-.39,4.48-.08,8.73-3.49,13.48-1.06-.74,1.3-2.48.11-3.04,1.43,0,0,0,.02,0,.02Z"/>
        <path class="cls-67" d="M89.9,241.19c-1.72,1.37-3.34.77-4.86.82-.84.03-1.42-.47-1.29-1.36.12-.81.64-1.29,1.55-1.04,1.49.41,3.12.39,4.6,1.59Z"/>
        <path class="cls-65" d="M124.84,246.37c-.44.92-.81,1.97-2.01,1.79-.73-.11-1.35-.82-1.35-1.55,0-1.22.93-1.58,2.02-1.57.91,0,1.27.53,1.34,1.33Z"/>
        <path class="cls-36" d="M51.96,225.02c1.15,1.5,3.18-1.08,3.88.56.98,2.29,1.31,4.83,2.24,7.2.37.93-1.41,2.32-2.57,2.83-1.51.66-2.53-1-3.72-1.64-1.02-.55-.59-1.71.09-2.56,1-1.25.81-2.02-.69-2.85-1.42-.79-.91-2.55-.67-3.71.29-1.44.89.4,1.45.18,0,0,0,0,0,0Z"/>
        <path class="cls-33" d="M63.74,224.3c1.94.13,2.17,2.31,3.62,3.03-.17,1.13,1.59,2.86.15,3.15-1.49.3-3.75-.56-4.76-1.71-.55-.62-1.35-1.97-1.62-2.9-.73-2.49,2.12-.3,2.61-1.57Z"/>
        <path class="cls-80" d="M59.01,224.43c1.63,1.01,1.06,3.22,2.1,4.64.43.59-.26,1.27-.92,1.03-1.67-.6-3.01-1.65-3.09-3.62-.04-1.09.53-1.84,1.91-2.05Z"/>
        <path class="cls-87" d="M85.02,225.88c.02.47.05.94.07,1.41.09.65,1.09,1.57.1,1.87-1.09.33-2.1-.38-2.28-1.74.72-.5.92-1.7,2.11-1.54Z"/>
      </g>
    </g>
  </g>
</svg>